<svg xmlns="http://www.w3.org/2000/svg" xmlns:xlink="http://www.w3.org/1999/xlink" width="150" zoomAndPan="magnify" viewBox="0 0 112.5 112.499997" height="150" preserveAspectRatio="xMidYMid meet" version="1.0"><defs><clipPath id="e701d4e361"><path d="M 0 14.617188 L 111 14.617188 L 111 97.496094 L 0 97.496094 Z M 0 14.617188 " clip-rule="nonzero"/></clipPath><clipPath id="9a0c4bdab6"><path d="M 28 15 L 83 15 L 83 43 L 28 43 Z M 28 15 " clip-rule="nonzero"/></clipPath><clipPath id="2bd1bc0b93"><path d="M 55.609375 97.484375 L 55.648438 97.484375 C 55.648438 97.484375 67.074219 97.078125 71.988281 96.644531 C 78.226562 96.097656 85.015625 94.042969 85.015625 94.042969 L 79.578125 39.789062 L 93.582031 77.167969 C 93.582031 77.167969 96.128906 78.273438 98.761719 77.117188 C 104.035156 74.800781 111.253906 69.109375 110.261719 67.207031 C 110.261719 67.207031 100.945312 45.316406 96.535156 37.863281 C 92.171875 30.480469 83.953125 19.558594 80.375 17.484375 C 76.898438 15.472656 56.800781 14.671875 55.652344 14.628906 C 55.652344 14.628906 55.644531 14.628906 55.628906 14.628906 C 55.613281 14.628906 55.601562 14.628906 55.601562 14.628906 C 54.457031 14.671875 34.359375 15.472656 30.882812 17.484375 C 27.300781 19.558594 19.085938 30.480469 14.71875 37.863281 C 10.308594 45.316406 0.996094 67.207031 0.996094 67.207031 C 0 69.109375 7.21875 74.800781 12.492188 77.117188 C 15.125 78.273438 17.671875 77.167969 17.671875 77.167969 L 31.679688 39.789062 L 26.238281 94.042969 C 26.238281 94.042969 33.03125 96.097656 39.269531 96.644531 C 44.183594 97.078125 55.609375 97.484375 55.609375 97.484375 Z M 55.609375 97.484375 " clip-rule="evenodd"/></clipPath><clipPath id="7c550fc526"><path d="M 42 14.625 L 70 14.625 L 70 20 L 42 20 Z M 42 14.625 " clip-rule="nonzero"/></clipPath><clipPath id="5d8560ca3b"><path d="M 55.609375 97.484375 L 55.648438 97.484375 C 55.648438 97.484375 67.074219 97.078125 71.988281 96.644531 C 78.226562 96.097656 85.015625 94.042969 85.015625 94.042969 L 79.578125 39.789062 L 93.582031 77.167969 C 93.582031 77.167969 96.128906 78.273438 98.761719 77.117188 C 104.035156 74.800781 111.253906 69.109375 110.261719 67.207031 C 110.261719 67.207031 100.945312 45.316406 96.535156 37.863281 C 92.171875 30.480469 83.953125 19.558594 80.375 17.484375 C 76.898438 15.472656 56.800781 14.671875 55.652344 14.628906 C 55.652344 14.628906 55.644531 14.628906 55.628906 14.628906 C 55.613281 14.628906 55.601562 14.628906 55.601562 14.628906 C 54.457031 14.671875 34.359375 15.472656 30.882812 17.484375 C 27.300781 19.558594 19.085938 30.480469 14.71875 37.863281 C 10.308594 45.316406 0.996094 67.207031 0.996094 67.207031 C 0 69.109375 7.21875 74.800781 12.492188 77.117188 C 15.125 78.273438 17.671875 77.167969 17.671875 77.167969 L 31.679688 39.789062 L 26.238281 94.042969 C 26.238281 94.042969 33.03125 96.097656 39.269531 96.644531 C 44.183594 97.078125 55.609375 97.484375 55.609375 97.484375 Z M 55.609375 97.484375 " clip-rule="evenodd"/></clipPath><clipPath id="1bb9f52c7f"><path d="M 1 56 L 110.363281 56 L 110.363281 74 L 1 74 Z M 1 56 " clip-rule="nonzero"/></clipPath><clipPath id="9d8ca7c7e1"><path d="M 55.609375 97.484375 L 55.648438 97.484375 C 55.648438 97.484375 67.074219 97.078125 71.988281 96.644531 C 78.226562 96.097656 85.015625 94.042969 85.015625 94.042969 L 79.578125 39.789062 L 93.582031 77.167969 C 93.582031 77.167969 96.128906 78.273438 98.761719 77.117188 C 104.035156 74.800781 111.253906 69.109375 110.261719 67.207031 C 110.261719 67.207031 100.945312 45.316406 96.535156 37.863281 C 92.171875 30.480469 83.953125 19.558594 80.375 17.484375 C 76.898438 15.472656 56.800781 14.671875 55.652344 14.628906 C 55.652344 14.628906 55.644531 14.628906 55.628906 14.628906 C 55.613281 14.628906 55.601562 14.628906 55.601562 14.628906 C 54.457031 14.671875 34.359375 15.472656 30.882812 17.484375 C 27.300781 19.558594 19.085938 30.480469 14.71875 37.863281 C 10.308594 45.316406 0.996094 67.207031 0.996094 67.207031 C 0 69.109375 7.21875 74.800781 12.492188 77.117188 C 15.125 78.273438 17.671875 77.167969 17.671875 77.167969 L 31.679688 39.789062 L 26.238281 94.042969 C 26.238281 94.042969 33.03125 96.097656 39.269531 96.644531 C 44.183594 97.078125 55.609375 97.484375 55.609375 97.484375 Z M 55.609375 97.484375 " clip-rule="evenodd"/></clipPath><clipPath id="1d97b1b854"><path d="M 40 14.625 L 71 14.625 L 71 23 L 40 23 Z M 40 14.625 " clip-rule="nonzero"/></clipPath><clipPath id="b3d272d870"><path d="M 55.609375 97.484375 L 55.648438 97.484375 C 55.648438 97.484375 67.074219 97.078125 71.988281 96.644531 C 78.226562 96.097656 85.015625 94.042969 85.015625 94.042969 L 79.578125 39.789062 L 93.582031 77.167969 C 93.582031 77.167969 96.128906 78.273438 98.761719 77.117188 C 104.035156 74.800781 111.253906 69.109375 110.261719 67.207031 C 110.261719 67.207031 100.945312 45.316406 96.535156 37.863281 C 92.171875 30.480469 83.953125 19.558594 80.375 17.484375 C 76.898438 15.472656 56.800781 14.671875 55.652344 14.628906 C 55.652344 14.628906 55.644531 14.628906 55.628906 14.628906 C 55.613281 14.628906 55.601562 14.628906 55.601562 14.628906 C 54.457031 14.671875 34.359375 15.472656 30.882812 17.484375 C 27.300781 19.558594 19.085938 30.480469 14.71875 37.863281 C 10.308594 45.316406 0.996094 67.207031 0.996094 67.207031 C 0 69.109375 7.21875 74.800781 12.492188 77.117188 C 15.125 78.273438 17.671875 77.167969 17.671875 77.167969 L 31.679688 39.789062 L 26.238281 94.042969 C 26.238281 94.042969 33.03125 96.097656 39.269531 96.644531 C 44.183594 97.078125 55.609375 97.484375 55.609375 97.484375 Z M 55.609375 97.484375 " clip-rule="evenodd"/></clipPath><clipPath id="fe39b8b7ef"><path d="M 29 70 L 82 70 L 82 92 L 29 92 Z M 29 70 " clip-rule="nonzero"/></clipPath><clipPath id="d557a01698"><path d="M 55.609375 97.484375 L 55.648438 97.484375 C 55.648438 97.484375 67.074219 97.078125 71.988281 96.644531 C 78.226562 96.097656 85.015625 94.042969 85.015625 94.042969 L 79.578125 39.789062 L 93.582031 77.167969 C 93.582031 77.167969 96.128906 78.273438 98.761719 77.117188 C 104.035156 74.800781 111.253906 69.109375 110.261719 67.207031 C 110.261719 67.207031 100.945312 45.316406 96.535156 37.863281 C 92.171875 30.480469 83.953125 19.558594 80.375 17.484375 C 76.898438 15.472656 56.800781 14.671875 55.652344 14.628906 C 55.652344 14.628906 55.644531 14.628906 55.628906 14.628906 C 55.613281 14.628906 55.601562 14.628906 55.601562 14.628906 C 54.457031 14.671875 34.359375 15.472656 30.882812 17.484375 C 27.300781 19.558594 19.085938 30.480469 14.71875 37.863281 C 10.308594 45.316406 0.996094 67.207031 0.996094 67.207031 C 0 69.109375 7.21875 74.800781 12.492188 77.117188 C 15.125 78.273438 17.671875 77.167969 17.671875 77.167969 L 31.679688 39.789062 L 26.238281 94.042969 C 26.238281 94.042969 33.03125 96.097656 39.269531 96.644531 C 44.183594 97.078125 55.609375 97.484375 55.609375 97.484375 Z M 55.609375 97.484375 " clip-rule="evenodd"/></clipPath><clipPath id="ff1fbaff95"><path d="M 29.929688 70.613281 L 81.328125 70.613281 L 81.328125 76 L 29.929688 76 Z M 29.929688 70.613281 " clip-rule="nonzero"/></clipPath><clipPath id="ef05e25dff"><path d="M 55.609375 97.484375 L 55.648438 97.484375 C 55.648438 97.484375 67.074219 97.078125 71.988281 96.644531 C 78.226562 96.097656 85.015625 94.042969 85.015625 94.042969 L 79.578125 39.789062 L 93.582031 77.167969 C 93.582031 77.167969 96.128906 78.273438 98.761719 77.117188 C 104.035156 74.800781 111.253906 69.109375 110.261719 67.207031 C 110.261719 67.207031 100.945312 45.316406 96.535156 37.863281 C 92.171875 30.480469 83.953125 19.558594 80.375 17.484375 C 76.898438 15.472656 56.800781 14.671875 55.652344 14.628906 C 55.652344 14.628906 55.644531 14.628906 55.628906 14.628906 C 55.613281 14.628906 55.601562 14.628906 55.601562 14.628906 C 54.457031 14.671875 34.359375 15.472656 30.882812 17.484375 C 27.300781 19.558594 19.085938 30.480469 14.71875 37.863281 C 10.308594 45.316406 0.996094 67.207031 0.996094 67.207031 C 0 69.109375 7.21875 74.800781 12.492188 77.117188 C 15.125 78.273438 17.671875 77.167969 17.671875 77.167969 L 31.679688 39.789062 L 26.238281 94.042969 C 26.238281 94.042969 33.03125 96.097656 39.269531 96.644531 C 44.183594 97.078125 55.609375 97.484375 55.609375 97.484375 Z M 55.609375 97.484375 " clip-rule="evenodd"/></clipPath><clipPath id="f55f0edae0"><path d="M 79.703125 70.628906 C 79.703125 70.628906 80.886719 81.027344 81.308594 86.953125 C 81.714844 92.609375 71.285156 92.660156 69.121094 89.929688 C 66.960938 87.199219 66.757812 71.296875 66.757812 71.296875 C 70.957031 71.632812 75.277344 71.390625 79.703125 70.628906 Z M 31.554688 70.628906 C 35.980469 71.390625 40.296875 71.632812 44.496094 71.296875 C 44.496094 71.296875 44.292969 87.199219 42.132812 89.929688 C 39.972656 92.660156 29.539062 92.609375 29.945312 86.953125 C 30.367188 81.027344 31.554688 70.628906 31.554688 70.628906 Z M 31.554688 70.628906 " clip-rule="evenodd"/></clipPath><clipPath id="c3b41fe626"><path d="M 53 21 L 58 21 L 58 50 L 53 50 Z M 53 21 " clip-rule="nonzero"/></clipPath><clipPath id="f55fac4dd1"><path d="M 55.609375 97.484375 L 55.648438 97.484375 C 55.648438 97.484375 67.074219 97.078125 71.988281 96.644531 C 78.226562 96.097656 85.015625 94.042969 85.015625 94.042969 L 79.578125 39.789062 L 93.582031 77.167969 C 93.582031 77.167969 96.128906 78.273438 98.761719 77.117188 C 104.035156 74.800781 111.253906 69.109375 110.261719 67.207031 C 110.261719 67.207031 100.945312 45.316406 96.535156 37.863281 C 92.171875 30.480469 83.953125 19.558594 80.375 17.484375 C 76.898438 15.472656 56.800781 14.671875 55.652344 14.628906 C 55.652344 14.628906 55.644531 14.628906 55.628906 14.628906 C 55.613281 14.628906 55.601562 14.628906 55.601562 14.628906 C 54.457031 14.671875 34.359375 15.472656 30.882812 17.484375 C 27.300781 19.558594 19.085938 30.480469 14.71875 37.863281 C 10.308594 45.316406 0.996094 67.207031 0.996094 67.207031 C 0 69.109375 7.21875 74.800781 12.492188 77.117188 C 15.125 78.273438 17.671875 77.167969 17.671875 77.167969 L 31.679688 39.789062 L 26.238281 94.042969 C 26.238281 94.042969 33.03125 96.097656 39.269531 96.644531 C 44.183594 97.078125 55.609375 97.484375 55.609375 97.484375 Z M 55.609375 97.484375 " clip-rule="evenodd"/></clipPath><clipPath id="daf0566245"><path d="M 54 30 L 57.988281 30 L 57.988281 33 L 54 33 Z M 54 30 " clip-rule="nonzero"/></clipPath><clipPath id="19496e659e"><path d="M 55.609375 97.484375 L 55.648438 97.484375 C 55.648438 97.484375 67.074219 97.078125 71.988281 96.644531 C 78.226562 96.097656 85.015625 94.042969 85.015625 94.042969 L 79.578125 39.789062 L 93.582031 77.167969 C 93.582031 77.167969 96.128906 78.273438 98.761719 77.117188 C 104.035156 74.800781 111.253906 69.109375 110.261719 67.207031 C 110.261719 67.207031 100.945312 45.316406 96.535156 37.863281 C 92.171875 30.480469 83.953125 19.558594 80.375 17.484375 C 76.898438 15.472656 56.800781 14.671875 55.652344 14.628906 C 55.652344 14.628906 55.644531 14.628906 55.628906 14.628906 C 55.613281 14.628906 55.601562 14.628906 55.601562 14.628906 C 54.457031 14.671875 34.359375 15.472656 30.882812 17.484375 C 27.300781 19.558594 19.085938 30.480469 14.71875 37.863281 C 10.308594 45.316406 0.996094 67.207031 0.996094 67.207031 C 0 69.109375 7.21875 74.800781 12.492188 77.117188 C 15.125 78.273438 17.671875 77.167969 17.671875 77.167969 L 31.679688 39.789062 L 26.238281 94.042969 C 26.238281 94.042969 33.03125 96.097656 39.269531 96.644531 C 44.183594 97.078125 55.609375 97.484375 55.609375 97.484375 Z M 55.609375 97.484375 " clip-rule="evenodd"/></clipPath><clipPath id="127bb53d46"><path d="M 55.625 21.859375 L 57.535156 21.8125 L 57.976562 48.957031 C 57.976562 48.957031 57.230469 49.296875 55.6875 49.472656 L 55.6875 49.484375 C 55.667969 49.480469 55.648438 49.480469 55.625 49.476562 C 55.609375 49.480469 55.589844 49.480469 55.566406 49.484375 L 55.566406 49.472656 C 54.027344 49.296875 53.277344 48.957031 53.277344 48.957031 L 53.71875 21.8125 Z M 55.625 21.859375 " clip-rule="evenodd"/></clipPath><clipPath id="1d952c67de"><path d="M 54 37 L 57.988281 37 L 57.988281 40 L 54 40 Z M 54 37 " clip-rule="nonzero"/></clipPath><clipPath id="25c10950c1"><path d="M 55.609375 97.484375 L 55.648438 97.484375 C 55.648438 97.484375 67.074219 97.078125 71.988281 96.644531 C 78.226562 96.097656 85.015625 94.042969 85.015625 94.042969 L 79.578125 39.789062 L 93.582031 77.167969 C 93.582031 77.167969 96.128906 78.273438 98.761719 77.117188 C 104.035156 74.800781 111.253906 69.109375 110.261719 67.207031 C 110.261719 67.207031 100.945312 45.316406 96.535156 37.863281 C 92.171875 30.480469 83.953125 19.558594 80.375 17.484375 C 76.898438 15.472656 56.800781 14.671875 55.652344 14.628906 C 55.652344 14.628906 55.644531 14.628906 55.628906 14.628906 C 55.613281 14.628906 55.601562 14.628906 55.601562 14.628906 C 54.457031 14.671875 34.359375 15.472656 30.882812 17.484375 C 27.300781 19.558594 19.085938 30.480469 14.71875 37.863281 C 10.308594 45.316406 0.996094 67.207031 0.996094 67.207031 C 0 69.109375 7.21875 74.800781 12.492188 77.117188 C 15.125 78.273438 17.671875 77.167969 17.671875 77.167969 L 31.679688 39.789062 L 26.238281 94.042969 C 26.238281 94.042969 33.03125 96.097656 39.269531 96.644531 C 44.183594 97.078125 55.609375 97.484375 55.609375 97.484375 Z M 55.609375 97.484375 " clip-rule="evenodd"/></clipPath><clipPath id="a75efc8ee1"><path d="M 55.625 21.859375 L 57.535156 21.8125 L 57.976562 48.957031 C 57.976562 48.957031 57.230469 49.296875 55.6875 49.472656 L 55.6875 49.484375 C 55.667969 49.480469 55.648438 49.480469 55.625 49.476562 C 55.609375 49.480469 55.589844 49.480469 55.566406 49.484375 L 55.566406 49.472656 C 54.027344 49.296875 53.277344 48.957031 53.277344 48.957031 L 53.71875 21.8125 Z M 55.625 21.859375 " clip-rule="evenodd"/></clipPath><clipPath id="9e74871e08"><path d="M 54 44 L 57.988281 44 L 57.988281 47 L 54 47 Z M 54 44 " clip-rule="nonzero"/></clipPath><clipPath id="7d278387de"><path d="M 55.609375 97.484375 L 55.648438 97.484375 C 55.648438 97.484375 67.074219 97.078125 71.988281 96.644531 C 78.226562 96.097656 85.015625 94.042969 85.015625 94.042969 L 79.578125 39.789062 L 93.582031 77.167969 C 93.582031 77.167969 96.128906 78.273438 98.761719 77.117188 C 104.035156 74.800781 111.253906 69.109375 110.261719 67.207031 C 110.261719 67.207031 100.945312 45.316406 96.535156 37.863281 C 92.171875 30.480469 83.953125 19.558594 80.375 17.484375 C 76.898438 15.472656 56.800781 14.671875 55.652344 14.628906 C 55.652344 14.628906 55.644531 14.628906 55.628906 14.628906 C 55.613281 14.628906 55.601562 14.628906 55.601562 14.628906 C 54.457031 14.671875 34.359375 15.472656 30.882812 17.484375 C 27.300781 19.558594 19.085938 30.480469 14.71875 37.863281 C 10.308594 45.316406 0.996094 67.207031 0.996094 67.207031 C 0 69.109375 7.21875 74.800781 12.492188 77.117188 C 15.125 78.273438 17.671875 77.167969 17.671875 77.167969 L 31.679688 39.789062 L 26.238281 94.042969 C 26.238281 94.042969 33.03125 96.097656 39.269531 96.644531 C 44.183594 97.078125 55.609375 97.484375 55.609375 97.484375 Z M 55.609375 97.484375 " clip-rule="evenodd"/></clipPath><clipPath id="fa2e68d0c7"><path d="M 55.625 21.859375 L 57.535156 21.8125 L 57.976562 48.957031 C 57.976562 48.957031 57.230469 49.296875 55.6875 49.472656 L 55.6875 49.484375 C 55.667969 49.480469 55.648438 49.480469 55.625 49.476562 C 55.609375 49.480469 55.589844 49.480469 55.566406 49.484375 L 55.566406 49.472656 C 54.027344 49.296875 53.277344 48.957031 53.277344 48.957031 L 53.71875 21.8125 Z M 55.625 21.859375 " clip-rule="evenodd"/></clipPath></defs><g clip-path="url(#e701d4e361)"><path fill="#c3c8db" d="M 55.609375 97.484375 L 55.648438 97.484375 C 55.648438 97.484375 67.074219 97.078125 71.988281 96.644531 C 78.226562 96.097656 85.015625 94.042969 85.015625 94.042969 L 79.578125 39.789062 L 93.582031 77.167969 C 93.582031 77.167969 96.128906 78.273438 98.761719 77.117188 C 104.035156 74.800781 111.253906 69.109375 110.261719 67.207031 C 110.261719 67.207031 100.945312 45.316406 96.535156 37.863281 C 92.171875 30.480469 83.953125 19.558594 80.375 17.484375 C 76.898438 15.472656 56.800781 14.671875 55.652344 14.628906 C 55.652344 14.628906 55.644531 14.628906 55.628906 14.628906 C 55.613281 14.628906 55.601562 14.628906 55.601562 14.628906 C 54.457031 14.671875 34.359375 15.472656 30.882812 17.484375 C 27.300781 19.558594 19.085938 30.480469 14.71875 37.863281 C 10.308594 45.316406 0.996094 67.207031 0.996094 67.207031 C 0 69.109375 7.21875 74.800781 12.492188 77.117188 C 15.125 78.273438 17.671875 77.167969 17.671875 77.167969 L 31.679688 39.789062 L 26.238281 94.042969 C 26.238281 94.042969 33.03125 96.097656 39.269531 96.644531 C 44.183594 97.078125 55.609375 97.484375 55.609375 97.484375 Z M 55.609375 97.484375 " fill-opacity="1" fill-rule="evenodd"/></g><g clip-path="url(#9a0c4bdab6)"><g clip-path="url(#2bd1bc0b93)"><path fill="#949cba" d="M 82.785156 15.148438 C 82.789062 15.148438 82.789062 15.144531 82.792969 15.140625 C 82.828125 15.125 82.828125 15.128906 82.785156 15.148438 Z M 82.785156 15.148438 C 82.453125 15.894531 79.59375 19.621094 78.628906 22.015625 C 78.28125 22.886719 77.46875 24.96875 77.480469 27.222656 C 77.496094 30.269531 78.472656 33.789062 78.972656 36.566406 C 79.121094 37.394531 79.304688 38.21875 79.476562 39.046875 C 79.523438 39.28125 79.910156 42.457031 79.863281 42.480469 C 79.820312 42.5 76.820312 34.070312 76.464844 32.214844 C 75.953125 29.523438 75.445312 25.859375 76.097656 23.28125 C 76.433594 21.945312 77.0625 19.511719 78.152344 18.332031 C 79.625 16.738281 82.460938 15.324219 82.785156 15.148438 Z M 28.472656 15.152344 C 28.800781 15.324219 31.636719 16.738281 33.109375 18.332031 C 34.199219 19.511719 34.828125 21.945312 35.167969 23.28125 C 35.816406 25.859375 35.308594 29.523438 34.796875 32.214844 C 34.441406 34.070312 31.441406 42.5 31.398438 42.480469 C 31.351562 42.457031 31.738281 39.28125 31.785156 39.046875 C 31.960938 38.21875 32.140625 37.394531 32.289062 36.566406 C 32.792969 33.789062 33.765625 30.269531 33.78125 27.222656 C 33.792969 24.96875 32.980469 22.882812 32.628906 22.015625 C 31.667969 19.621094 28.808594 15.894531 28.472656 15.152344 Z M 28.472656 15.152344 C 28.4375 15.128906 28.433594 15.125 28.472656 15.140625 C 28.472656 15.144531 28.472656 15.148438 28.472656 15.152344 Z M 28.472656 15.152344 " fill-opacity="1" fill-rule="evenodd"/></g></g><g clip-path="url(#7c550fc526)"><g clip-path="url(#5d8560ca3b)"><path fill="#949cba" d="M 54.390625 13.640625 L 54.421875 13.621094 C 54.171875 13.375 54.613281 13.589844 54.984375 13.601562 C 55.199219 13.613281 55.414062 13.617188 55.625 13.625 C 55.839844 13.617188 56.054688 13.613281 56.269531 13.601562 C 56.640625 13.589844 57.082031 13.375 56.835938 13.621094 L 56.867188 13.640625 C 57.4375 13.644531 58.011719 13.640625 58.585938 13.632812 C 60.15625 13.613281 69.574219 12.847656 69.117188 15.707031 C 68.984375 16.535156 65.125 18.214844 64.339844 18.484375 C 61.460938 19.476562 58.535156 19.90625 55.625 19.796875 C 52.71875 19.90625 49.792969 19.476562 46.914062 18.484375 C 46.128906 18.214844 42.269531 16.535156 42.140625 15.707031 C 41.679688 12.847656 51.097656 13.613281 52.671875 13.632812 C 53.242188 13.640625 53.816406 13.644531 54.390625 13.640625 Z M 54.390625 13.640625 " fill-opacity="1" fill-rule="evenodd"/></g></g><g clip-path="url(#1bb9f52c7f)"><g clip-path="url(#9d8ca7c7e1)"><path fill="#508ab2" d="M 107.160156 56.238281 L 110.246094 61.464844 C 101.003906 74.273438 91.125 73.867188 91.125 73.867188 L 89.683594 68.367188 C 100.4375 66.15625 106.46875 55.691406 107.160156 56.238281 Z M 4.09375 56.238281 C 4.785156 55.691406 10.816406 66.15625 21.570312 68.367188 L 20.128906 73.867188 C 20.128906 73.867188 10.25 74.273438 1.007812 61.464844 Z M 4.09375 56.238281 " fill-opacity="1" fill-rule="evenodd"/></g></g><g clip-path="url(#1d97b1b854)"><g clip-path="url(#b3d272d870)"><path fill="#508ab2" d="M 55.597656 22.984375 C 54.738281 22.949219 44.980469 22.40625 40.378906 15.488281 L 45.128906 14.492188 C 45.128906 14.492188 50.527344 19.070312 55.621094 19.015625 C 55.625 19.015625 55.625 19.015625 55.625 19.015625 C 55.628906 19.015625 55.632812 19.015625 55.636719 19.015625 C 60.726562 19.070312 66.125 14.492188 66.125 14.492188 L 70.878906 15.488281 C 66.273438 22.40625 56.515625 22.949219 55.65625 22.984375 L 55.65625 22.988281 C 55.65625 22.988281 55.648438 22.988281 55.625 22.988281 C 55.609375 22.988281 55.597656 22.988281 55.597656 22.988281 Z M 55.597656 22.984375 " fill-opacity="1" fill-rule="evenodd"/></g></g><g clip-path="url(#fe39b8b7ef)"><g clip-path="url(#d557a01698)"><path fill="#508ab2" d="M 79.703125 70.628906 C 79.703125 70.628906 80.886719 81.027344 81.308594 86.953125 C 81.714844 92.609375 71.285156 92.660156 69.121094 89.929688 C 66.960938 87.199219 66.757812 71.296875 66.757812 71.296875 C 70.957031 71.632812 75.277344 71.390625 79.703125 70.628906 Z M 31.554688 70.628906 C 35.980469 71.390625 40.296875 71.632812 44.496094 71.296875 C 44.496094 71.296875 44.292969 87.199219 42.132812 89.929688 C 39.972656 92.660156 29.539062 92.609375 29.945312 86.953125 C 30.367188 81.027344 31.554688 70.628906 31.554688 70.628906 Z M 31.554688 70.628906 " fill-opacity="1" fill-rule="evenodd"/></g></g><g clip-path="url(#ff1fbaff95)"><g clip-path="url(#ef05e25dff)"><g clip-path="url(#f55f0edae0)"><path fill="#386483" d="M 47.582031 67.769531 L 30.578125 67.027344 L 29.738281 71.894531 C 29.738281 71.894531 32.152344 74.484375 36.714844 74.976562 C 43.226562 75.679688 48.382812 74.234375 48.382812 74.234375 Z M 63.675781 67.769531 L 62.871094 74.234375 C 62.871094 74.234375 68.03125 75.679688 74.539062 74.976562 C 79.105469 74.484375 81.515625 71.894531 81.515625 71.894531 L 80.675781 67.027344 Z M 63.675781 67.769531 " fill-opacity="1" fill-rule="evenodd"/></g></g></g><g clip-path="url(#c3b41fe626)"><g clip-path="url(#f55fac4dd1)"><path fill="#508ab2" d="M 55.625 21.859375 L 57.535156 21.8125 L 57.976562 48.957031 C 57.976562 48.957031 57.230469 49.296875 55.6875 49.472656 L 55.6875 49.484375 C 55.667969 49.480469 55.648438 49.480469 55.625 49.476562 C 55.609375 49.480469 55.589844 49.480469 55.566406 49.484375 L 55.566406 49.472656 C 54.027344 49.296875 53.277344 48.957031 53.277344 48.957031 L 53.71875 21.8125 Z M 55.625 21.859375 " fill-opacity="1" fill-rule="evenodd"/></g></g><g clip-path="url(#daf0566245)"><g clip-path="url(#19496e659e)"><g clip-path="url(#127bb53d46)"><path fill="#386483" d="M 57.007812 31.441406 C 57.007812 31.609375 56.972656 31.773438 56.90625 31.929688 C 56.835938 32.085938 56.738281 32.222656 56.613281 32.34375 C 56.484375 32.464844 56.339844 32.554688 56.175781 32.621094 C 56.011719 32.683594 55.839844 32.71875 55.660156 32.71875 C 55.480469 32.71875 55.308594 32.683594 55.144531 32.621094 C 54.976562 32.554688 54.832031 32.464844 54.707031 32.34375 C 54.578125 32.222656 54.480469 32.085938 54.414062 31.929688 C 54.34375 31.773438 54.308594 31.609375 54.308594 31.441406 C 54.308594 31.273438 54.34375 31.109375 54.414062 30.953125 C 54.480469 30.796875 54.578125 30.660156 54.707031 30.539062 C 54.832031 30.421875 54.976562 30.328125 55.144531 30.261719 C 55.308594 30.199219 55.480469 30.167969 55.660156 30.167969 C 55.839844 30.167969 56.011719 30.199219 56.175781 30.261719 C 56.339844 30.328125 56.484375 30.421875 56.613281 30.539062 C 56.738281 30.660156 56.835938 30.796875 56.90625 30.953125 C 56.972656 31.109375 57.007812 31.273438 57.007812 31.441406 Z M 57.007812 31.441406 " fill-opacity="1" fill-rule="nonzero"/></g></g></g><g clip-path="url(#1d952c67de)"><g clip-path="url(#25c10950c1)"><g clip-path="url(#a75efc8ee1)"><path fill="#386483" d="M 57.007812 38.507812 C 57.007812 38.675781 56.972656 38.839844 56.90625 38.996094 C 56.835938 39.152344 56.738281 39.289062 56.613281 39.410156 C 56.484375 39.527344 56.339844 39.621094 56.175781 39.683594 C 56.011719 39.75 55.839844 39.78125 55.660156 39.78125 C 55.480469 39.78125 55.308594 39.75 55.144531 39.683594 C 54.976562 39.621094 54.832031 39.527344 54.707031 39.410156 C 54.578125 39.289062 54.480469 39.152344 54.414062 38.996094 C 54.34375 38.839844 54.308594 38.675781 54.308594 38.507812 C 54.308594 38.335938 54.34375 38.175781 54.414062 38.019531 C 54.480469 37.863281 54.578125 37.722656 54.707031 37.605469 C 54.832031 37.484375 54.976562 37.394531 55.144531 37.328125 C 55.308594 37.261719 55.480469 37.230469 55.660156 37.230469 C 55.839844 37.230469 56.011719 37.261719 56.175781 37.328125 C 56.339844 37.394531 56.484375 37.484375 56.613281 37.605469 C 56.738281 37.722656 56.835938 37.863281 56.90625 38.019531 C 56.972656 38.175781 57.007812 38.335938 57.007812 38.507812 Z M 57.007812 38.507812 " fill-opacity="1" fill-rule="nonzero"/></g></g></g><g clip-path="url(#9e74871e08)"><g clip-path="url(#7d278387de)"><g clip-path="url(#fa2e68d0c7)"><path fill="#386483" d="M 57.007812 45.570312 C 57.007812 45.742188 56.972656 45.902344 56.90625 46.058594 C 56.835938 46.214844 56.738281 46.351562 56.613281 46.472656 C 56.484375 46.59375 56.339844 46.683594 56.175781 46.75 C 56.011719 46.8125 55.839844 46.847656 55.660156 46.847656 C 55.480469 46.847656 55.308594 46.8125 55.144531 46.75 C 54.976562 46.683594 54.832031 46.59375 54.707031 46.472656 C 54.578125 46.351562 54.480469 46.214844 54.414062 46.058594 C 54.34375 45.902344 54.308594 45.742188 54.308594 45.570312 C 54.308594 45.402344 54.34375 45.238281 54.414062 45.082031 C 54.480469 44.925781 54.578125 44.789062 54.707031 44.667969 C 54.832031 44.550781 54.976562 44.457031 55.144531 44.394531 C 55.308594 44.328125 55.480469 44.296875 55.660156 44.296875 C 55.839844 44.296875 56.011719 44.328125 56.175781 44.394531 C 56.339844 44.457031 56.484375 44.550781 56.613281 44.667969 C 56.738281 44.789062 56.835938 44.925781 56.90625 45.082031 C 56.972656 45.238281 57.007812 45.402344 57.007812 45.570312 Z M 57.007812 45.570312 " fill-opacity="1" fill-rule="nonzero"/></g></g></g></svg>