<svg xmlns="http://www.w3.org/2000/svg" xmlns:xlink="http://www.w3.org/1999/xlink" width="150" zoomAndPan="magnify" viewBox="0 0 112.5 112.499997" height="150" preserveAspectRatio="xMidYMid meet" version="1.0"><defs><clipPath id="f8cdb557c5"><path d="M 36.429688 87.371094 L 51.421875 87.371094 L 51.421875 97.171875 L 36.429688 97.171875 Z M 36.429688 87.371094 " clip-rule="nonzero"/></clipPath><clipPath id="2388d9074e"><path d="M 54.46875 87 L 69.464844 87 L 69.464844 97.171875 L 54.46875 97.171875 Z M 54.46875 87 " clip-rule="nonzero"/></clipPath><clipPath id="fdba7100a5"><path d="M 35.144531 25.488281 L 69.492188 25.488281 L 69.492188 90 L 35.144531 90 Z M 35.144531 25.488281 " clip-rule="nonzero"/></clipPath><clipPath id="a82cb23474"><path d="M 41 25.488281 L 43 25.488281 L 43 29 L 41 29 Z M 41 25.488281 " clip-rule="nonzero"/></clipPath></defs><g clip-path="url(#f8cdb557c5)"><path fill="#e0bba1" d="M 51.382812 88.746094 C 51.335938 88.714844 51.285156 88.703125 51.230469 88.707031 C 50.90625 88.691406 50.617188 88.523438 50.324219 88.386719 C 50.035156 88.25 49.703125 88.136719 49.398438 88.238281 L 48.9375 88.867188 C 48.949219 88.980469 48.996094 89.082031 49.074219 89.164062 L 38.546875 88.789062 L 38.238281 87.382812 C 37.617188 87.890625 36.964844 88.445312 36.734375 89.214844 C 36.6875 89.375 36.65625 89.539062 36.628906 89.707031 C 36.558594 90.136719 36.484375 90.582031 36.566406 91.011719 L 36.597656 90.976562 C 36.628906 91.269531 36.679688 91.554688 36.757812 91.835938 C 37.058594 92.921875 37.519531 94.085938 37.09375 95.128906 C 37.03125 95.246094 37 95.371094 36.996094 95.503906 C 37.027344 95.773438 37.339844 95.886719 37.601562 95.953125 L 40.175781 96.578125 C 41.320312 96.855469 42.472656 97.132812 43.648438 97.210938 C 46.054688 97.371094 48.425781 96.683594 50.726562 95.96875 C 51.082031 95.859375 51.527344 95.574219 51.382812 95.230469 C 51.324219 95.085938 51.179688 95.003906 51.082031 94.886719 C 50.84375 94.601562 50.917969 94.183594 50.980469 93.820312 C 51.089844 93.164062 51.128906 92.503906 51.097656 91.839844 C 51.066406 91.175781 50.964844 90.519531 50.792969 89.878906 C 50.976562 89.585938 51.183594 89.304688 51.367188 89.011719 C 51.410156 88.929688 51.453125 88.808594 51.382812 88.746094 Z M 51.382812 88.746094 " fill-opacity="1" fill-rule="nonzero"/></g><g clip-path="url(#2388d9074e)"><path fill="#e0bba1" d="M 68.785156 89.683594 C 69.003906 89.410156 69.203125 89.125 69.382812 88.824219 C 68.792969 88.269531 68.246094 87.671875 67.746094 87.03125 L 67.207031 89.121094 L 56.324219 89.214844 L 55.820312 87.71875 C 55.515625 87.855469 55.289062 88.125 55.078125 88.386719 L 54.574219 88.996094 C 54.546875 89.023438 54.527344 89.058594 54.515625 89.097656 C 54.515625 89.144531 54.527344 89.191406 54.554688 89.230469 C 54.757812 89.578125 55.003906 89.886719 55.300781 90.15625 C 55.179688 90.660156 55.101562 91.167969 55.070312 91.683594 C 55.019531 92.472656 55.234375 93.292969 54.972656 94.054688 C 54.855469 94.394531 54.667969 94.730469 54.699219 95.085938 C 54.8125 96.3125 56.808594 96.402344 57.6875 96.628906 C 59.257812 97.039062 60.882812 97.324219 62.511719 97.214844 C 63.6875 97.136719 64.839844 96.859375 65.988281 96.582031 L 68.558594 95.960938 C 68.820312 95.894531 69.132812 95.777344 69.164062 95.507812 C 69.164062 95.375 69.132812 95.25 69.070312 95.132812 C 68.734375 94.316406 69.164062 93.089844 69.171875 92.203125 C 69.171875 91.347656 69.082031 90.480469 68.785156 89.683594 Z M 68.785156 89.683594 " fill-opacity="1" fill-rule="nonzero"/></g><g clip-path="url(#fdba7100a5)"><path fill="#c09a7e" d="M 68.027344 89.386719 C 68.882812 88.566406 69.195312 87.300781 69.160156 86.109375 C 69.125 84.917969 68.785156 83.761719 68.542969 82.597656 C 66.875 74.675781 69.441406 66.371094 68.144531 58.378906 C 67.941406 57.144531 67.652344 55.925781 67.4375 54.695312 C 66.089844 47.007812 67.714844 39.007812 66.160156 31.359375 C 66.160156 31.359375 66.3125 30.808594 65.359375 30.023438 C 64.195312 29.066406 63.242188 27.648438 63.261719 26.136719 L 63.261719 25.890625 C 56.335938 25.699219 43.863281 25.488281 39.003906 25.792969 L 39.097656 26.136719 C 39.117188 27.648438 38.023438 28.90625 37 30.023438 C 36.746094 30.300781 36.832031 30.761719 36.832031 30.761719 C 35.976562 32.238281 36.296875 34.023438 36.253906 35.730469 C 36.019531 44.894531 35.890625 53.984375 35.457031 63.136719 C 35.328125 65.828125 35.199219 68.527344 35.421875 71.210938 C 35.832031 76.253906 37.441406 81.492188 35.664062 86.226562 L 37.988281 88.75 L 38.199219 88.835938 C 39.316406 89.15625 39.980469 89.125 41.097656 89.4375 C 41.503906 89.554688 41.917969 89.671875 42.335938 89.648438 C 42.898438 89.613281 43.460938 89.324219 44.003906 89.476562 C 44.195312 89.53125 44.375 89.640625 44.566406 89.707031 C 44.832031 89.78125 45.101562 89.816406 45.378906 89.800781 C 47.054688 89.796875 48.683594 89.515625 50.265625 88.949219 L 50.28125 88.59375 C 50.554688 88.367188 50.800781 88.109375 51.019531 87.824219 C 51.238281 87.542969 51.421875 87.238281 51.570312 86.910156 C 51.71875 86.585938 51.832031 86.246094 51.902344 85.894531 C 51.976562 85.546875 52.007812 85.191406 52 84.832031 C 51.980469 83.980469 51.722656 83.15625 51.582031 82.316406 C 51.234375 80.265625 51.558594 78.171875 51.730469 76.097656 C 52.453125 67.359375 50.34375 56.996094 51.792969 48.34375 L 52.230469 51.746094 C 52.671875 58.621094 53.203125 64.800781 53.644531 71.675781 C 53.878906 75.308594 54.113281 78.949219 53.941406 82.585938 C 53.878906 83.828125 53.773438 85.089844 54 86.308594 C 54.226562 87.53125 54.839844 88.75 55.90625 89.390625 L 56.183594 89.371094 L 58.617188 89.609375 C 59.0625 89.652344 59.5625 89.679688 59.898438 89.386719 C 59.960938 89.320312 60.03125 89.265625 60.109375 89.21875 C 60.246094 89.160156 60.394531 89.210938 60.535156 89.257812 C 62.734375 90.011719 65.585938 90.097656 67.828125 89.488281 Z M 68.027344 89.386719 " fill-opacity="1" fill-rule="nonzero"/></g><path fill="#ead4c5" d="M 39.914062 84.277344 C 40 84.210938 40.96875 85.46875 42.25 86.953125 C 43.53125 88.433594 44.632812 89.578125 44.554688 89.652344 C 44.476562 89.726562 43.375 88.578125 42.089844 87.089844 C 40.808594 85.601562 39.832031 84.34375 39.914062 84.277344 Z M 39.914062 84.277344 " fill-opacity="1" fill-rule="nonzero"/><path fill="#ead4c5" d="M 61.082031 84.699219 C 61.179688 84.722656 60.949219 85.761719 60.558594 87.015625 C 60.171875 88.269531 59.789062 89.261719 59.691406 89.222656 C 59.59375 89.1875 59.976562 88.199219 60.359375 86.953125 C 60.738281 85.703125 60.980469 84.675781 61.082031 84.699219 Z M 61.082031 84.699219 " fill-opacity="1" fill-rule="nonzero"/><path fill="#ead4c5" d="M 51.675781 30.09375 C 51.78125 30.09375 51.789062 34.121094 51.800781 39.085938 C 51.8125 44.054688 51.820312 48.078125 51.714844 48.078125 C 51.609375 48.078125 51.597656 44.054688 51.589844 39.085938 C 51.578125 34.121094 51.570312 30.09375 51.675781 30.09375 Z M 51.675781 30.09375 " fill-opacity="1" fill-rule="nonzero"/><path fill="#ead4c5" d="M 53.191406 30.210938 C 53.296875 30.210938 53.242188 32.304688 53.171875 34.878906 C 53.152344 35.527344 53.144531 36.136719 53.117188 36.699219 C 53.09375 37.265625 52.96875 37.789062 52.738281 38.164062 C 52.558594 38.472656 52.3125 38.710938 52.003906 38.882812 C 51.785156 38.996094 51.644531 39.007812 51.640625 38.984375 C 51.632812 38.960938 51.753906 38.910156 51.941406 38.777344 C 52.207031 38.59375 52.421875 38.355469 52.578125 38.070312 C 53.019531 37.367188 52.902344 36.152344 52.964844 34.875 C 53.03125 32.296875 53.085938 30.207031 53.191406 30.210938 Z M 53.191406 30.210938 " fill-opacity="1" fill-rule="nonzero"/><path fill="#ead4c5" d="M 63.335938 28.300781 C 63.335938 28.328125 62.996094 28.34375 62.378906 28.355469 C 61.761719 28.367188 60.871094 28.371094 59.765625 28.371094 L 51.15625 28.339844 L 42.546875 28.28125 C 41.445312 28.269531 40.550781 28.253906 39.9375 28.234375 C 39.320312 28.21875 38.980469 28.195312 38.980469 28.167969 C 38.980469 28.144531 39.320312 28.125 39.9375 28.113281 C 40.554688 28.101562 41.445312 28.097656 42.546875 28.097656 L 51.160156 28.128906 L 59.769531 28.1875 C 60.871094 28.203125 61.765625 28.214844 62.378906 28.234375 C 62.996094 28.25 63.335938 28.273438 63.335938 28.300781 Z M 63.335938 28.300781 " fill-opacity="1" fill-rule="nonzero"/><g clip-path="url(#a82cb23474)"><path fill="#ead4c5" d="M 42.003906 28.175781 C 41.898438 28.160156 41.992188 27.675781 41.992188 27.066406 C 41.996094 26.457031 41.90625 25.972656 42.011719 25.953125 C 42.117188 25.9375 42.210938 26.4375 42.203125 27.066406 C 42.199219 27.695312 42.105469 28.195312 42.003906 28.175781 Z M 42.003906 28.175781 " fill-opacity="1" fill-rule="nonzero"/></g><path fill="#ead4c5" d="M 42.796875 28.296875 C 42.6875 28.289062 42.742188 27.78125 42.71875 27.152344 C 42.691406 26.523438 42.601562 26.019531 42.707031 26.007812 C 42.8125 25.992188 42.90625 26.503906 42.929688 27.152344 C 42.953125 27.800781 42.898438 28.308594 42.796875 28.296875 Z M 42.796875 28.296875 " fill-opacity="1" fill-rule="nonzero"/><path fill="#ead4c5" d="M 48.375 28.339844 C 48.269531 28.328125 48.328125 27.855469 48.3125 27.269531 C 48.296875 26.6875 48.210938 26.222656 48.3125 26.203125 C 48.414062 26.183594 48.503906 26.664062 48.519531 27.265625 C 48.539062 27.867188 48.476562 28.351562 48.375 28.339844 Z M 48.375 28.339844 " fill-opacity="1" fill-rule="nonzero"/><path fill="#ead4c5" d="M 49.003906 27.25 C 49.003906 27.316406 49.003906 27.378906 49.003906 27.445312 C 49 27.511719 49 27.574219 48.996094 27.636719 C 48.996094 27.695312 48.992188 27.753906 48.988281 27.808594 C 48.984375 27.863281 48.980469 27.914062 48.972656 27.960938 C 48.96875 28.007812 48.964844 28.050781 48.957031 28.089844 C 48.953125 28.125 48.945312 28.15625 48.941406 28.179688 C 48.933594 28.207031 48.925781 28.226562 48.921875 28.238281 C 48.914062 28.253906 48.90625 28.257812 48.898438 28.257812 C 48.894531 28.257812 48.886719 28.253906 48.878906 28.238281 C 48.871094 28.226562 48.867188 28.207031 48.859375 28.179688 C 48.851562 28.15625 48.847656 28.125 48.839844 28.089844 C 48.835938 28.050781 48.828125 28.007812 48.824219 27.960938 C 48.820312 27.914062 48.816406 27.863281 48.8125 27.808594 C 48.808594 27.753906 48.804688 27.695312 48.800781 27.636719 C 48.800781 27.574219 48.796875 27.511719 48.796875 27.445312 C 48.792969 27.378906 48.792969 27.316406 48.792969 27.25 C 48.792969 27.183594 48.792969 27.117188 48.796875 27.050781 C 48.796875 26.988281 48.800781 26.921875 48.800781 26.863281 C 48.804688 26.800781 48.808594 26.742188 48.8125 26.6875 C 48.816406 26.632812 48.820312 26.582031 48.824219 26.535156 C 48.828125 26.488281 48.835938 26.445312 48.839844 26.410156 C 48.847656 26.371094 48.851562 26.339844 48.859375 26.316406 C 48.867188 26.289062 48.871094 26.269531 48.878906 26.257812 C 48.886719 26.246094 48.894531 26.238281 48.898438 26.238281 C 48.90625 26.238281 48.914062 26.246094 48.921875 26.257812 C 48.925781 26.269531 48.933594 26.289062 48.941406 26.316406 C 48.945312 26.339844 48.953125 26.371094 48.957031 26.410156 C 48.964844 26.445312 48.96875 26.488281 48.972656 26.535156 C 48.980469 26.582031 48.984375 26.632812 48.988281 26.6875 C 48.992188 26.742188 48.996094 26.800781 48.996094 26.863281 C 49 26.921875 49 26.988281 49.003906 27.050781 C 49.003906 27.117188 49.003906 27.183594 49.003906 27.25 Z M 49.003906 27.25 " fill-opacity="1" fill-rule="nonzero"/><path fill="#ead4c5" d="M 53.746094 26.320312 C 53.851562 26.328125 53.820312 26.765625 53.835938 27.308594 C 53.851562 27.851562 53.90625 28.289062 53.800781 28.300781 C 53.695312 28.3125 53.640625 27.867188 53.625 27.316406 C 53.609375 26.761719 53.640625 26.308594 53.746094 26.320312 Z M 53.746094 26.320312 " fill-opacity="1" fill-rule="nonzero"/><path fill="#ead4c5" d="M 54.289062 26.320312 C 54.394531 26.320312 54.40625 26.742188 54.417969 27.265625 C 54.429688 27.789062 54.441406 28.21875 54.335938 28.21875 C 54.230469 28.21875 54.21875 27.796875 54.207031 27.273438 C 54.191406 26.75 54.183594 26.320312 54.289062 26.320312 Z M 54.289062 26.320312 " fill-opacity="1" fill-rule="nonzero"/><path fill="#ead4c5" d="M 59.957031 26.238281 C 60.0625 26.25 60.011719 26.6875 60.015625 27.226562 C 60.019531 27.769531 60.070312 28.203125 59.964844 28.21875 C 59.863281 28.234375 59.808594 27.785156 59.808594 27.230469 C 59.804688 26.679688 59.851562 26.226562 59.957031 26.238281 Z M 59.957031 26.238281 " fill-opacity="1" fill-rule="nonzero"/><path fill="#ead4c5" d="M 60.339844 26.359375 C 60.441406 26.359375 60.453125 26.773438 60.464844 27.285156 C 60.480469 27.800781 60.488281 28.214844 60.382812 28.21875 C 60.277344 28.222656 60.265625 27.804688 60.253906 27.292969 C 60.242188 26.777344 60.234375 26.363281 60.339844 26.359375 Z M 60.339844 26.359375 " fill-opacity="1" fill-rule="nonzero"/><path fill="#ead4c5" d="M 40.527344 29.21875 C 40.621094 29.226562 40.347656 31.128906 39.28125 33.199219 C 38.230469 35.28125 36.859375 36.621094 36.800781 36.546875 C 36.707031 36.46875 38.0625 35.15625 39.097656 33.105469 C 40.144531 31.058594 40.410156 29.191406 40.527344 29.21875 Z M 40.527344 29.21875 " fill-opacity="1" fill-rule="nonzero"/><path fill="#ead4c5" d="M 62.761719 29.21875 C 62.878906 29.191406 63.144531 31.058594 64.195312 33.105469 C 65.230469 35.15625 66.578125 36.46875 66.492188 36.546875 C 66.429688 36.621094 65.054688 35.28125 64.007812 33.199219 C 62.941406 31.125 62.667969 29.226562 62.761719 29.21875 Z M 62.761719 29.21875 " fill-opacity="1" fill-rule="nonzero"/><path fill="#ead4c5" d="M 51.050781 47.957031 C 50.949219 47.984375 50.585938 46.664062 50.140625 45.039062 C 49.695312 43.410156 49.335938 42.089844 49.4375 42.0625 C 49.539062 42.035156 49.898438 43.351562 50.34375 44.980469 C 50.789062 46.609375 51.152344 47.929688 51.050781 47.957031 Z M 51.050781 47.957031 " fill-opacity="1" fill-rule="nonzero"/><path fill="#ead4c5" d="M 41.832031 78.4375 C 41.804688 78.441406 41.714844 78.125 41.570312 77.546875 C 41.425781 76.96875 41.226562 76.125 40.996094 75.082031 C 40.527344 73 39.914062 70.117188 39.269531 66.921875 C 38.625 63.726562 38.074219 60.828125 37.699219 58.726562 C 37.507812 57.675781 37.367188 56.820312 37.273438 56.230469 C 37.183594 55.640625 37.144531 55.3125 37.171875 55.308594 C 37.195312 55.304688 37.273438 55.625 37.394531 56.210938 C 37.515625 56.796875 37.675781 57.640625 37.878906 58.691406 C 38.28125 60.792969 38.832031 63.6875 39.476562 66.878906 C 40.117188 70.070312 40.734375 72.957031 41.179688 75.042969 C 41.394531 76.089844 41.570312 76.933594 41.695312 77.519531 C 41.816406 78.109375 41.859375 78.429688 41.832031 78.4375 Z M 41.832031 78.4375 " fill-opacity="1" fill-rule="nonzero"/><path fill="#ead4c5" d="M 63.226562 82.117188 C 63.121094 82.117188 63.425781 75.648438 63.800781 67.675781 C 64.175781 59.703125 64.472656 53.242188 64.582031 53.246094 C 64.6875 53.25 64.382812 59.714844 64.007812 67.6875 C 63.632812 75.660156 63.332031 82.121094 63.226562 82.117188 Z M 63.226562 82.117188 " fill-opacity="1" fill-rule="nonzero"/><path fill="#090b0b" d="M 48.371094 92.710938 C 46.929688 94.015625 45.425781 94.5625 45.480469 94.671875 C 45.503906 94.765625 47.046875 94.199219 48.515625 92.871094 C 50 91.554688 50.726562 90.082031 50.640625 90.046875 C 50.53125 89.984375 49.824219 91.421875 48.371094 92.710938 Z M 48.371094 92.710938 " fill-opacity="1" fill-rule="nonzero"/><path fill="#090b0b" d="M 60.363281 94.664062 C 57.917969 94.449219 56.070312 93.644531 56.03125 93.757812 C 55.988281 93.839844 57.867188 94.65625 60.34375 94.875 C 62.820312 95.113281 64.816406 94.652344 64.789062 94.5625 C 64.773438 94.445312 62.808594 94.898438 60.363281 94.664062 Z M 60.363281 94.664062 " fill-opacity="1" fill-rule="nonzero"/><path fill="#090b0b" d="M 50.023438 30.878906 C 50.042969 30.925781 50.078125 30.957031 50.128906 30.972656 C 50.152344 30.980469 50.179688 30.984375 50.203125 30.980469 C 50.253906 30.984375 50.304688 30.976562 50.347656 30.953125 C 50.367188 30.945312 50.382812 30.933594 50.398438 30.921875 C 50.414062 30.90625 50.429688 30.890625 50.441406 30.875 C 50.453125 30.859375 50.464844 30.839844 50.472656 30.820312 C 50.480469 30.804688 50.484375 30.785156 50.488281 30.761719 C 50.492188 30.742188 50.492188 30.722656 50.492188 30.703125 C 50.492188 30.683594 50.488281 30.660156 50.480469 30.640625 C 50.476562 30.621094 50.46875 30.605469 50.460938 30.585938 C 50.449219 30.566406 50.4375 30.550781 50.421875 30.535156 C 50.378906 30.492188 50.320312 30.46875 50.257812 30.46875 C 50.246094 30.464844 50.234375 30.460938 50.21875 30.457031 C 50.160156 30.457031 50.109375 30.472656 50.0625 30.503906 C 50.015625 30.539062 49.984375 30.582031 49.964844 30.636719 C 49.945312 30.726562 49.964844 30.808594 50.023438 30.878906 Z M 50.195312 30.753906 C 50.171875 30.738281 50.164062 30.722656 50.167969 30.699219 C 50.167969 30.679688 50.203125 30.660156 50.207031 30.664062 C 50.207031 30.667969 50.21875 30.671875 50.222656 30.699219 C 50.226562 30.71875 50.222656 30.742188 50.207031 30.757812 C 50.203125 30.757812 50.199219 30.753906 50.195312 30.753906 Z M 50.195312 30.753906 " fill-opacity="1" fill-rule="nonzero"/><path fill="#090b0b" d="M 68.433594 90.003906 C 68.367188 89.921875 68.054688 90.195312 67.605469 90.453125 C 67.15625 90.710938 66.769531 90.855469 66.804688 90.957031 C 66.84375 91.058594 67.25 90.90625 67.710938 90.636719 C 68.171875 90.367188 68.503906 90.085938 68.433594 90.003906 Z M 68.433594 90.003906 " fill-opacity="1" fill-rule="nonzero"/><path fill="#090b0b" d="M 36.78125 90.527344 C 36.679688 90.546875 36.800781 91.117188 37.160156 91.726562 C 37.519531 92.332031 37.949219 92.71875 38.019531 92.640625 C 38.085938 92.566406 37.679688 92.199219 37.34375 91.617188 C 37.007812 91.035156 36.886719 90.5 36.78125 90.527344 Z M 36.78125 90.527344 " fill-opacity="1" fill-rule="nonzero"/></svg>