<svg xmlns="http://www.w3.org/2000/svg" xmlns:xlink="http://www.w3.org/1999/xlink" width="150" zoomAndPan="magnify" viewBox="0 0 112.5 112.499997" height="150" preserveAspectRatio="xMidYMid meet" version="1.0"><defs><clipPath id="fb9799c15d"><path d="M 52 13.496094 L 69 13.496094 L 69 22 L 52 22 Z M 52 13.496094 " clip-rule="nonzero"/></clipPath><clipPath id="6aab30602b"><path d="M 9.316406 67 L 28 67 L 28 89 L 9.316406 89 Z M 9.316406 67 " clip-rule="nonzero"/></clipPath><clipPath id="ae32bd18ed"><path d="M 17 86 L 39 86 L 39 100.859375 L 17 100.859375 Z M 17 86 " clip-rule="nonzero"/></clipPath><clipPath id="593d68505b"><path d="M 39 39 L 88 39 L 88 100.859375 L 39 100.859375 Z M 39 39 " clip-rule="nonzero"/></clipPath><clipPath id="f2a6da080d"><path d="M 33.601562 26.71875 L 92.914062 26.71875 L 92.914062 100.859375 L 33.601562 100.859375 Z M 33.601562 26.71875 " clip-rule="nonzero"/></clipPath><clipPath id="483945a370"><path d="M 31 79 L 50 79 L 50 100.859375 L 31 100.859375 Z M 31 79 " clip-rule="nonzero"/></clipPath></defs><path fill="#4f4e4c" d="M 64.746094 27.988281 L 64.75 29.355469 L 64.746094 27.988281 " fill-opacity="1" fill-rule="nonzero"/><path fill="#4f4e4c" d="M 69.46875 19.816406 C 69.460938 18.363281 68.964844 17.28125 68.066406 16.769531 C 68.964844 17.28125 69.460938 18.363281 69.46875 19.816406 C 69.46875 20.273438 69.421875 20.742188 69.328125 21.222656 C 69.113281 22.335938 68.660156 23.480469 68.046875 24.527344 C 68.660156 23.480469 69.113281 22.335938 69.328125 21.222656 C 69.421875 20.742188 69.46875 20.273438 69.46875 19.816406 " fill-opacity="1" fill-rule="nonzero"/><path fill="#4f4e4c" d="M 67.675781 25.121094 C 67.691406 25.101562 67.703125 25.078125 67.714844 25.058594 C 67.703125 25.078125 67.691406 25.101562 67.675781 25.121094 " fill-opacity="1" fill-rule="nonzero"/><path fill="#97daef" d="M 63.527344 16.421875 L 62.683594 15.929688 C 63.695312 15.347656 64.660156 15.152344 65.464844 15.363281 C 65.214844 15.46875 64.964844 15.59375 64.710938 15.742188 L 63.527344 16.421875 " fill-opacity="1" fill-rule="nonzero"/><path fill="#97daef" d="M 64.714844 17.109375 C 65.976562 16.378906 67.167969 16.257812 68.066406 16.769531 C 67.171875 16.257812 65.980469 16.378906 64.714844 17.109375 " fill-opacity="1" fill-rule="nonzero"/><path fill="#97daef" d="M 26.421875 69.328125 L 25.574219 68.835938 L 25.75 68.535156 L 26.769531 69.125 L 26.421875 69.328125 " fill-opacity="1" fill-rule="nonzero"/><path fill="#97daef" d="M 27.605469 70.015625 L 27.78125 69.714844 L 27.605469 70.015625 " fill-opacity="1" fill-rule="nonzero"/><path fill="#97daef" d="M 54.25 21.972656 L 54.40625 21.707031 L 54.25 21.972656 L 54.082031 22.265625 L 54.078125 22.265625 L 54.25 21.972656 " fill-opacity="1" fill-rule="nonzero"/><path fill="#97daef" d="M 54.921875 22.757812 L 64.714844 17.109375 L 54.921875 22.757812 " fill-opacity="1" fill-rule="nonzero"/><path fill="#97daef" d="M 54.425781 21.671875 L 53.578125 21.179688 L 62.683594 15.929688 L 63.527344 16.421875 L 54.425781 21.671875 " fill-opacity="1" fill-rule="nonzero"/><path fill="#97daef" d="M 27.78125 69.714844 L 54.921875 22.757812 L 27.78125 69.714844 " fill-opacity="1" fill-rule="nonzero"/><path fill="#97daef" d="M 54.082031 22.265625 L 36.046875 53.464844 L 54.078125 22.265625 Z M 54.082031 22.265625 " fill-opacity="1" fill-rule="nonzero"/><path fill="#97daef" d="M 27.109375 68.929688 L 26.769531 69.125 L 25.75 68.535156 L 25.917969 68.242188 L 27.109375 68.929688 " fill-opacity="1" fill-rule="nonzero"/><path fill="#969693" d="M 17.359375 88.191406 L 17.355469 86.820312 L 27.144531 81.175781 L 54.460938 33.917969 L 64.746094 27.988281 L 64.75 29.355469 L 54.957031 35.003906 L 27.640625 82.261719 L 17.359375 88.191406 " fill-opacity="1" fill-rule="nonzero"/><path fill="#595856" d="M 54.40625 21.707031 L 54.25 21.972656 L 54.078125 22.265625 L 36.046875 53.464844 L 27.109375 68.929688 L 25.917969 68.242188 L 25.078125 67.753906 L 52.21875 20.792969 L 52.394531 20.492188 L 53.578125 21.179688 L 54.425781 21.671875 L 54.40625 21.707031 " fill-opacity="1" fill-rule="nonzero"/><path fill="#7fbfd3" d="M 11.410156 84.585938 C 11.410156 84.660156 11.40625 84.734375 11.40625 84.804688 C 11.40625 85.074219 11.425781 85.328125 11.453125 85.578125 C 11.109375 85.222656 10.855469 84.753906 10.714844 84.179688 L 11.410156 84.585938 " fill-opacity="1" fill-rule="nonzero"/><path fill="#7fbfd3" d="M 54.460938 33.917969 L 27.144531 81.175781 L 17.355469 86.820312 C 16.089844 87.550781 14.894531 87.675781 14 87.164062 C 13.378906 86.808594 12.953125 86.1875 12.746094 85.359375 C 13.667969 83.019531 15.375 80.824219 17.335938 79.691406 L 27.371094 73.90625 L 54.6875 26.648438 L 64.722656 20.859375 C 66.199219 20.007812 67.53125 19.925781 68.5 20.476562 C 68.820312 20.65625 69.097656 20.90625 69.328125 21.222656 C 69.113281 22.335938 68.660156 23.480469 68.046875 24.527344 C 67.941406 24.707031 67.832031 24.886719 67.714844 25.058594 C 67.703125 25.078125 67.691406 25.101562 67.675781 25.121094 C 66.871094 26.320312 65.851562 27.347656 64.746094 27.988281 L 54.460938 33.917969 " fill-opacity="1" fill-rule="nonzero"/><path fill="#97daef" d="M 17.320312 74.574219 C 16.949219 74.789062 16.589844 75.039062 16.238281 75.316406 C 16.234375 75.3125 16.230469 75.308594 16.226562 75.308594 L 15.570312 74.925781 C 15.476562 74.871094 15.382812 74.816406 15.292969 74.765625 L 25.574219 68.835938 L 26.421875 69.328125 L 17.320312 74.574219 " fill-opacity="1" fill-rule="nonzero"/><path fill="#97daef" d="M 17.324219 75.945312 L 27.605469 70.015625 L 17.324219 75.945312 " fill-opacity="1" fill-rule="nonzero"/><path fill="#97daef" d="M 11.410156 84.585938 L 10.714844 84.179688 C 10.621094 83.804688 10.570312 83.390625 10.570312 82.9375 C 10.566406 81.4375 11.09375 79.769531 11.949219 78.289062 C 12.347656 78.519531 12.742188 78.75 13.136719 78.980469 C 12.105469 80.761719 11.457031 82.761719 11.410156 84.585938 " fill-opacity="1" fill-rule="nonzero"/><path fill="#97daef" d="M 15.730469 77.1875 C 15.691406 77.226562 15.648438 77.269531 15.605469 77.3125 C 15.710938 77.207031 15.8125 77.101562 15.917969 77 C 15.855469 77.0625 15.792969 77.125 15.730469 77.1875 " fill-opacity="1" fill-rule="nonzero"/><path fill="#97daef" d="M 14.164062 79.167969 C 14.164062 79.175781 14.160156 79.179688 14.15625 79.183594 C 14.210938 79.097656 14.261719 79.011719 14.316406 78.925781 C 14.261719 79.003906 14.214844 79.085938 14.164062 79.167969 " fill-opacity="1" fill-rule="nonzero"/><path fill="#97daef" d="M 16.226562 75.308594 C 16.230469 75.308594 16.234375 75.3125 16.238281 75.316406 C 15.039062 76.261719 13.96875 77.550781 13.136719 78.980469 C 12.742188 78.75 12.347656 78.519531 11.949219 78.289062 C 12.804688 76.8125 13.988281 75.519531 15.292969 74.765625 C 15.382812 74.816406 15.476562 74.871094 15.570312 74.925781 C 15.777344 75.046875 16 75.175781 16.226562 75.308594 " fill-opacity="1" fill-rule="nonzero"/><path fill="#97daef" d="M 14.910156 78.109375 C 14.890625 78.132812 14.867188 78.160156 14.847656 78.1875 C 14.921875 78.089844 14.992188 77.996094 15.070312 77.902344 C 15.015625 77.96875 14.964844 78.039062 14.910156 78.109375 " fill-opacity="1" fill-rule="nonzero"/><path fill="#97daef" d="M 14.539062 78.605469 C 14.527344 78.621094 14.515625 78.640625 14.503906 78.65625 C 14.5625 78.570312 14.617188 78.484375 14.679688 78.402344 C 14.628906 78.46875 14.585938 78.539062 14.539062 78.605469 " fill-opacity="1" fill-rule="nonzero"/><path fill="#97daef" d="M 16.839844 76.253906 C 16.777344 76.292969 16.71875 76.34375 16.65625 76.390625 C 16.558594 76.460938 16.464844 76.527344 16.371094 76.605469 C 16.304688 76.660156 16.238281 76.722656 16.171875 76.78125 C 16.089844 76.847656 16.011719 76.914062 15.933594 76.988281 C 16.371094 76.578125 16.839844 76.222656 17.324219 75.945312 C 17.160156 76.039062 17 76.140625 16.839844 76.253906 " fill-opacity="1" fill-rule="nonzero"/><path fill="#97daef" d="M 15.308594 77.632812 C 15.273438 77.671875 15.238281 77.710938 15.203125 77.75 C 15.296875 77.644531 15.386719 77.535156 15.484375 77.433594 C 15.484375 77.433594 15.484375 77.433594 15.484375 77.4375 C 15.421875 77.5 15.367188 77.566406 15.308594 77.632812 " fill-opacity="1" fill-rule="nonzero"/><path fill="#97daef" d="M 13.980469 79.46875 C 14.039062 79.367188 14.101562 79.269531 14.164062 79.167969 C 14.214844 79.085938 14.261719 79.003906 14.316406 78.925781 C 14.386719 78.816406 14.460938 78.710938 14.539062 78.605469 C 14.585938 78.539062 14.628906 78.46875 14.679688 78.402344 C 14.753906 78.300781 14.832031 78.207031 14.910156 78.109375 C 14.964844 78.039062 15.015625 77.96875 15.070312 77.902344 C 15.148438 77.808594 15.226562 77.722656 15.308594 77.632812 C 15.367188 77.566406 15.421875 77.5 15.484375 77.4375 C 15.5625 77.347656 15.648438 77.269531 15.730469 77.1875 C 15.792969 77.125 15.855469 77.0625 15.917969 77 C 16 76.921875 16.085938 76.851562 16.171875 76.78125 C 16.238281 76.722656 16.304688 76.660156 16.371094 76.605469 C 16.464844 76.527344 16.558594 76.460938 16.65625 76.390625 C 16.71875 76.34375 16.777344 76.292969 16.839844 76.253906 C 17 76.140625 17.160156 76.039062 17.324219 75.945312 L 27.605469 70.015625 L 27.78125 69.714844 L 54.921875 22.757812 L 64.714844 17.109375 C 65.980469 16.378906 67.171875 16.257812 68.066406 16.769531 C 68.964844 17.28125 69.460938 18.363281 69.46875 19.816406 C 69.46875 20.273438 69.421875 20.742188 69.328125 21.222656 C 69.097656 20.90625 68.820312 20.65625 68.5 20.476562 C 67.53125 19.925781 66.199219 20.007812 64.722656 20.859375 L 54.6875 26.648438 L 27.371094 73.90625 L 17.335938 79.691406 C 15.375 80.824219 13.667969 83.019531 12.746094 85.359375 C 12.648438 84.984375 12.601562 84.570312 12.601562 84.117188 C 12.597656 82.617188 13.125 80.949219 13.980469 79.472656 C 13.980469 79.472656 13.980469 79.472656 13.980469 79.46875 " fill-opacity="1" fill-rule="nonzero"/><path fill="#3e3b3a" d="M 11.410156 84.585938 C 11.457031 82.761719 12.105469 80.761719 13.136719 78.980469 C 13.96875 77.550781 15.039062 76.261719 16.238281 75.316406 C 16.589844 75.039062 16.949219 74.789062 17.320312 74.574219 L 26.421875 69.328125 L 26.769531 69.125 L 27.109375 68.929688 L 36.046875 53.464844 L 54.082031 22.265625 L 54.25 21.972656 L 54.40625 21.707031 L 54.425781 21.671875 L 63.527344 16.421875 L 64.710938 15.742188 C 64.964844 15.59375 65.214844 15.46875 65.464844 15.363281 C 66.761719 14.800781 67.964844 14.777344 68.910156 15.316406 C 70.03125 15.957031 70.652344 17.3125 70.65625 19.128906 C 70.667969 22.882812 68.015625 27.472656 64.75 29.355469 L 64.746094 27.988281 C 65.851562 27.347656 66.871094 26.320312 67.675781 25.121094 C 67.691406 25.101562 67.703125 25.078125 67.714844 25.058594 C 67.832031 24.886719 67.941406 24.707031 68.046875 24.527344 C 68.660156 23.480469 69.113281 22.335938 69.328125 21.222656 C 69.421875 20.742188 69.46875 20.273438 69.46875 19.816406 C 69.460938 18.363281 68.964844 17.28125 68.066406 16.769531 C 67.167969 16.257812 65.976562 16.378906 64.714844 17.109375 L 54.921875 22.757812 L 27.78125 69.714844 L 27.605469 70.015625 L 17.324219 75.945312 C 16.839844 76.222656 16.371094 76.578125 15.933594 76.988281 C 15.925781 76.992188 15.921875 76.996094 15.917969 77 C 15.8125 77.101562 15.710938 77.207031 15.605469 77.3125 C 15.566406 77.351562 15.523438 77.390625 15.484375 77.433594 C 15.386719 77.535156 15.296875 77.644531 15.203125 77.75 C 15.160156 77.800781 15.113281 77.851562 15.070312 77.902344 C 14.992188 77.996094 14.921875 78.089844 14.847656 78.1875 C 14.792969 78.257812 14.734375 78.328125 14.679688 78.402344 C 14.617188 78.484375 14.5625 78.570312 14.503906 78.65625 C 14.441406 78.746094 14.375 78.832031 14.316406 78.925781 C 14.261719 79.011719 14.210938 79.097656 14.15625 79.183594 C 14.097656 79.28125 14.035156 79.375 13.980469 79.46875 C 13.980469 79.46875 13.980469 79.472656 13.980469 79.472656 C 13.125 80.949219 12.597656 82.617188 12.601562 84.117188 C 12.601562 84.570312 12.648438 84.984375 12.746094 85.359375 C 12.953125 86.1875 13.378906 86.808594 14 87.164062 C 14.894531 87.675781 16.089844 87.550781 17.355469 86.820312 L 17.359375 88.191406 C 15.773438 89.105469 14.28125 89.257812 13.160156 88.617188 C 12.199219 88.070312 11.609375 87.003906 11.453125 85.578125 C 11.425781 85.328125 11.40625 85.074219 11.40625 84.804688 C 11.40625 84.734375 11.410156 84.660156 11.410156 84.585938 " fill-opacity="1" fill-rule="nonzero"/><g clip-path="url(#fb9799c15d)"><path fill="#6d6e6c" d="M 52.394531 20.492188 L 54.425781 21.671875 L 64.710938 15.742188 C 66.292969 14.828125 67.785156 14.675781 68.910156 15.316406 L 66.878906 14.140625 C 65.753906 13.5 64.265625 13.648438 62.679688 14.5625 L 52.394531 20.492188 " fill-opacity="1" fill-rule="nonzero"/></g><g clip-path="url(#6aab30602b)"><path fill="#6d6e6c" d="M 9.375 83.625 C 9.382812 85.445312 10.003906 86.796875 11.128906 87.4375 L 13.160156 88.617188 C 12.035156 87.972656 11.414062 86.621094 11.40625 84.804688 C 11.398438 81.050781 14.050781 76.460938 17.320312 74.574219 L 27.109375 68.929688 L 25.078125 67.753906 L 15.289062 73.398438 C 12.019531 75.28125 9.363281 79.875 9.375 83.625 " fill-opacity="1" fill-rule="nonzero"/></g><path fill="#d8d8d3" d="M 75.503906 45.300781 L 86.5 38.933594 L 65.777344 26.992188 L 54.78125 33.359375 L 75.503906 45.300781 " fill-opacity="1" fill-rule="nonzero"/><path fill="#b5b5b1" d="M 54.78125 33.371094 L 54.78125 35.285156 L 75.503906 47.222656 L 75.503906 45.308594 L 54.78125 33.371094 " fill-opacity="1" fill-rule="nonzero"/><path fill="#4f4e4c" d="M 51.550781 36.886719 L 54.800781 35.015625 L 70.109375 43.84375 L 66.863281 45.71875 L 51.550781 36.886719 " fill-opacity="1" fill-rule="nonzero"/><path fill="#3e3b3a" d="M 66.863281 45.722656 L 66.863281 49.46875 L 51.550781 40.640625 L 51.550781 36.894531 L 66.863281 45.722656 " fill-opacity="1" fill-rule="nonzero"/><path fill="#4f4e4c" d="M 48.304688 42.546875 L 51.550781 40.675781 L 66.863281 49.503906 L 63.613281 51.375 L 48.304688 42.546875 " fill-opacity="1" fill-rule="nonzero"/><path fill="#3e3b3a" d="M 63.613281 51.382812 L 63.613281 55.125 L 48.304688 46.296875 L 48.304688 42.550781 L 63.613281 51.382812 " fill-opacity="1" fill-rule="nonzero"/><path fill="#4f4e4c" d="M 45.058594 48.207031 L 48.304688 46.332031 L 63.613281 55.164062 L 60.367188 57.035156 L 45.058594 48.207031 " fill-opacity="1" fill-rule="nonzero"/><path fill="#3e3b3a" d="M 60.367188 57.039062 L 60.367188 60.785156 L 45.058594 51.957031 L 45.058594 48.210938 L 60.367188 57.039062 " fill-opacity="1" fill-rule="nonzero"/><path fill="#4f4e4c" d="M 41.808594 53.863281 L 45.058594 51.992188 L 60.367188 60.820312 L 57.121094 62.695312 L 41.808594 53.863281 " fill-opacity="1" fill-rule="nonzero"/><path fill="#3e3b3a" d="M 57.121094 62.699219 L 57.121094 66.441406 L 41.808594 57.613281 L 41.808594 53.871094 L 57.121094 62.699219 " fill-opacity="1" fill-rule="nonzero"/><path fill="#4f4e4c" d="M 38.5625 59.523438 L 41.808594 57.652344 L 57.121094 66.480469 L 53.875 68.351562 L 38.5625 59.523438 " fill-opacity="1" fill-rule="nonzero"/><path fill="#3e3b3a" d="M 53.875 68.355469 L 53.875 72.101562 L 38.5625 63.273438 L 38.5625 59.527344 L 53.875 68.355469 " fill-opacity="1" fill-rule="nonzero"/><path fill="#4f4e4c" d="M 35.316406 65.179688 L 38.5625 63.308594 L 53.875 72.136719 L 50.625 74.011719 L 35.316406 65.179688 " fill-opacity="1" fill-rule="nonzero"/><path fill="#3e3b3a" d="M 50.625 74.015625 L 50.625 77.761719 L 35.316406 68.929688 L 35.316406 65.1875 L 50.625 74.015625 " fill-opacity="1" fill-rule="nonzero"/><path fill="#4f4e4c" d="M 32.070312 70.839844 L 35.316406 68.96875 L 50.625 77.796875 L 47.378906 79.667969 L 32.070312 70.839844 " fill-opacity="1" fill-rule="nonzero"/><path fill="#3e3b3a" d="M 47.378906 79.675781 L 47.378906 83.417969 L 32.070312 74.589844 L 32.070312 70.84375 L 47.378906 79.675781 " fill-opacity="1" fill-rule="nonzero"/><path fill="#4f4e4c" d="M 28.824219 76.496094 L 32.070312 74.625 L 47.378906 83.457031 L 44.132812 85.328125 L 28.824219 76.496094 " fill-opacity="1" fill-rule="nonzero"/><path fill="#3e3b3a" d="M 44.132812 85.332031 L 44.132812 89.078125 L 28.824219 80.25 L 28.824219 76.503906 L 44.132812 85.332031 " fill-opacity="1" fill-rule="nonzero"/><path fill="#d8d8d3" d="M 38.53125 98.554688 L 49.527344 92.183594 L 28.804688 80.246094 L 17.808594 86.613281 L 38.53125 98.554688 " fill-opacity="1" fill-rule="nonzero"/><g clip-path="url(#ae32bd18ed)"><path fill="#b5b5b1" d="M 17.808594 86.621094 L 17.808594 88.535156 L 38.53125 100.476562 L 38.53125 98.5625 L 17.808594 86.621094 " fill-opacity="1" fill-rule="nonzero"/></g><path fill="#4f4e4c" d="M 87 39.835938 L 87.003906 41.207031 L 87 39.835938 " fill-opacity="1" fill-rule="nonzero"/><path fill="#4f4e4c" d="M 91.722656 31.667969 C 91.71875 30.214844 91.222656 29.132812 90.324219 28.621094 C 91.222656 29.132812 91.71875 30.214844 91.722656 31.667969 C 91.722656 32.125 91.675781 32.59375 91.585938 33.070312 C 91.371094 34.1875 90.917969 35.332031 90.304688 36.378906 C 90.917969 35.332031 91.371094 34.1875 91.585938 33.070312 C 91.675781 32.59375 91.722656 32.125 91.722656 31.667969 " fill-opacity="1" fill-rule="nonzero"/><path fill="#4f4e4c" d="M 89.933594 36.972656 C 89.945312 36.953125 89.957031 36.929688 89.972656 36.910156 C 89.957031 36.929688 89.945312 36.953125 89.933594 36.972656 " fill-opacity="1" fill-rule="nonzero"/><path fill="#97daef" d="M 85.785156 28.273438 L 84.9375 27.78125 C 85.953125 27.199219 86.914062 27.003906 87.722656 27.210938 C 87.472656 27.320312 87.222656 27.445312 86.964844 27.589844 L 85.785156 28.273438 " fill-opacity="1" fill-rule="nonzero"/><path fill="#97daef" d="M 86.96875 28.960938 C 88.234375 28.230469 89.425781 28.109375 90.324219 28.621094 C 89.425781 28.109375 88.234375 28.230469 86.96875 28.960938 " fill-opacity="1" fill-rule="nonzero"/><path fill="#97daef" d="M 48.679688 81.179688 L 47.832031 80.6875 L 48.007812 80.382812 L 49.027344 80.976562 L 48.679688 81.179688 " fill-opacity="1" fill-rule="nonzero"/><path fill="#97daef" d="M 49.863281 81.867188 L 50.039062 81.5625 L 49.863281 81.867188 " fill-opacity="1" fill-rule="nonzero"/><path fill="#97daef" d="M 76.507812 33.824219 L 76.660156 33.558594 L 76.507812 33.824219 L 76.335938 34.117188 L 76.507812 33.824219 " fill-opacity="1" fill-rule="nonzero"/><path fill="#97daef" d="M 77.179688 34.605469 L 86.96875 28.960938 L 77.179688 34.605469 " fill-opacity="1" fill-rule="nonzero"/><path fill="#97daef" d="M 76.679688 33.523438 L 75.835938 33.03125 L 84.9375 27.78125 L 85.785156 28.273438 L 76.679688 33.523438 " fill-opacity="1" fill-rule="nonzero"/><path fill="#97daef" d="M 50.039062 81.5625 L 77.179688 34.605469 L 50.039062 81.5625 " fill-opacity="1" fill-rule="nonzero"/><path fill="#97daef" d="M 76.335938 34.117188 L 58.304688 65.3125 Z M 76.335938 34.117188 " fill-opacity="1" fill-rule="nonzero"/><path fill="#97daef" d="M 49.363281 80.78125 L 49.027344 80.976562 L 48.007812 80.382812 L 48.175781 80.09375 L 49.363281 80.78125 " fill-opacity="1" fill-rule="nonzero"/><g clip-path="url(#593d68505b)"><path fill="#969693" d="M 39.613281 100.042969 L 39.609375 98.671875 L 49.398438 93.027344 L 76.714844 45.769531 L 87 39.835938 L 87.003906 41.207031 L 77.214844 46.851562 L 49.898438 94.109375 L 39.613281 100.042969 " fill-opacity="1" fill-rule="nonzero"/></g><path fill="#595856" d="M 76.660156 33.558594 L 76.507812 33.824219 L 76.335938 34.117188 L 58.304688 65.3125 L 49.363281 80.78125 L 48.175781 80.09375 L 47.332031 79.605469 L 74.476562 32.644531 L 74.648438 32.34375 L 75.835938 33.03125 L 76.679688 33.523438 L 76.660156 33.558594 " fill-opacity="1" fill-rule="nonzero"/><path fill="#7fbfd3" d="M 33.667969 96.4375 C 33.667969 96.511719 33.664062 96.582031 33.664062 96.65625 C 33.664062 96.925781 33.679688 97.179688 33.707031 97.429688 C 33.363281 97.074219 33.113281 96.601562 32.96875 96.03125 L 33.667969 96.4375 " fill-opacity="1" fill-rule="nonzero"/><path fill="#7fbfd3" d="M 76.714844 45.769531 L 49.398438 93.027344 L 39.609375 98.671875 C 38.34375 99.402344 37.152344 99.527344 36.253906 99.011719 C 35.636719 98.660156 35.207031 98.039062 35 97.210938 C 35.925781 94.871094 37.632812 92.671875 39.589844 91.542969 L 49.628906 85.753906 L 76.941406 38.496094 L 86.980469 32.710938 C 88.453125 31.859375 89.789062 31.777344 90.757812 32.328125 C 91.074219 32.507812 91.355469 32.757812 91.585938 33.070312 C 91.371094 34.1875 90.917969 35.332031 90.304688 36.378906 C 90.195312 36.558594 90.089844 36.734375 89.972656 36.910156 C 89.957031 36.929688 89.945312 36.953125 89.933594 36.972656 C 89.125 38.171875 88.109375 39.199219 87 39.835938 L 76.714844 45.769531 " fill-opacity="1" fill-rule="nonzero"/><path fill="#97daef" d="M 39.578125 86.425781 C 39.207031 86.640625 38.847656 86.890625 38.496094 87.164062 C 38.492188 87.164062 38.488281 87.160156 38.484375 87.160156 L 37.828125 86.777344 C 37.730469 86.722656 37.636719 86.667969 37.550781 86.617188 L 47.832031 80.6875 L 48.679688 81.179688 L 39.578125 86.425781 " fill-opacity="1" fill-rule="nonzero"/><path fill="#97daef" d="M 39.582031 87.796875 L 49.863281 81.867188 L 39.582031 87.796875 " fill-opacity="1" fill-rule="nonzero"/><path fill="#97daef" d="M 36.234375 91.324219 C 36.234375 91.320312 36.234375 91.320312 36.238281 91.320312 C 36.234375 91.320312 36.234375 91.320312 36.234375 91.324219 " fill-opacity="1" fill-rule="nonzero"/><path fill="#97daef" d="M 33.667969 96.4375 L 32.96875 96.03125 C 32.875 95.65625 32.828125 95.242188 32.824219 94.789062 C 32.820312 93.289062 33.351562 91.621094 34.207031 90.140625 C 34.601562 90.371094 35 90.601562 35.394531 90.832031 C 34.363281 92.613281 33.710938 94.613281 33.667969 96.4375 " fill-opacity="1" fill-rule="nonzero"/><path fill="#97daef" d="M 37.988281 89.039062 C 37.945312 89.078125 37.902344 89.121094 37.863281 89.164062 C 37.964844 89.054688 38.070312 88.949219 38.175781 88.851562 C 38.175781 88.851562 38.171875 88.851562 38.171875 88.851562 C 38.109375 88.910156 38.050781 88.976562 37.988281 89.039062 " fill-opacity="1" fill-rule="nonzero"/><path fill="#97daef" d="M 36.421875 91.019531 C 36.417969 91.023438 36.414062 91.03125 36.410156 91.035156 C 36.464844 90.949219 36.515625 90.859375 36.570312 90.777344 C 36.519531 90.855469 36.472656 90.9375 36.421875 91.019531 " fill-opacity="1" fill-rule="nonzero"/><path fill="#97daef" d="M 38.484375 87.160156 C 38.488281 87.160156 38.492188 87.164062 38.496094 87.164062 C 37.296875 88.113281 36.222656 89.402344 35.394531 90.832031 C 35 90.601562 34.601562 90.371094 34.207031 90.140625 C 35.0625 88.664062 36.242188 87.371094 37.550781 86.617188 C 37.636719 86.667969 37.730469 86.722656 37.828125 86.777344 C 38.035156 86.898438 38.257812 87.027344 38.484375 87.160156 " fill-opacity="1" fill-rule="nonzero"/><path fill="#97daef" d="M 37.164062 89.957031 C 37.144531 89.984375 37.125 90.011719 37.105469 90.035156 C 37.179688 89.941406 37.25 89.84375 37.324219 89.753906 C 37.269531 89.820312 37.21875 89.890625 37.164062 89.957031 " fill-opacity="1" fill-rule="nonzero"/><path fill="#97daef" d="M 36.792969 90.457031 C 36.78125 90.472656 36.769531 90.488281 36.757812 90.507812 C 36.816406 90.421875 36.875 90.335938 36.9375 90.25 C 36.9375 90.253906 36.9375 90.253906 36.9375 90.253906 C 36.886719 90.320312 36.839844 90.390625 36.792969 90.457031 " fill-opacity="1" fill-rule="nonzero"/><path fill="#97daef" d="M 39.097656 88.101562 C 39.035156 88.144531 38.972656 88.195312 38.914062 88.242188 C 38.816406 88.3125 38.71875 88.378906 38.628906 88.457031 C 38.558594 88.511719 38.492188 88.574219 38.425781 88.632812 C 38.347656 88.699219 38.265625 88.765625 38.1875 88.839844 C 38.628906 88.429688 39.097656 88.074219 39.582031 87.796875 C 39.417969 87.890625 39.253906 87.992188 39.097656 88.101562 " fill-opacity="1" fill-rule="nonzero"/><path fill="#97daef" d="M 37.5625 89.484375 C 37.53125 89.523438 37.496094 89.5625 37.460938 89.601562 C 37.554688 89.496094 37.644531 89.386719 37.738281 89.285156 C 37.679688 89.351562 37.621094 89.417969 37.5625 89.484375 " fill-opacity="1" fill-rule="nonzero"/><path fill="#97daef" d="M 36.238281 91.320312 C 36.296875 91.21875 36.359375 91.121094 36.421875 91.019531 C 36.472656 90.9375 36.519531 90.855469 36.570312 90.777344 C 36.644531 90.667969 36.71875 90.5625 36.792969 90.457031 C 36.839844 90.390625 36.886719 90.320312 36.9375 90.253906 C 37.011719 90.152344 37.089844 90.054688 37.164062 89.957031 C 37.21875 89.890625 37.269531 89.820312 37.324219 89.753906 C 37.402344 89.660156 37.484375 89.574219 37.5625 89.484375 C 37.621094 89.417969 37.679688 89.351562 37.738281 89.285156 C 37.820312 89.199219 37.902344 89.121094 37.988281 89.039062 C 38.050781 88.976562 38.109375 88.910156 38.171875 88.851562 C 38.257812 88.773438 38.34375 88.703125 38.425781 88.632812 C 38.492188 88.574219 38.558594 88.511719 38.628906 88.457031 C 38.71875 88.378906 38.816406 88.3125 38.914062 88.242188 C 38.972656 88.195312 39.035156 88.144531 39.097656 88.101562 C 39.253906 87.992188 39.417969 87.890625 39.582031 87.796875 L 49.863281 81.867188 L 50.039062 81.5625 L 77.179688 34.605469 L 86.96875 28.960938 C 88.234375 28.230469 89.425781 28.109375 90.324219 28.621094 C 91.222656 29.132812 91.71875 30.214844 91.722656 31.667969 C 91.722656 32.125 91.675781 32.59375 91.585938 33.070312 C 91.355469 32.757812 91.074219 32.507812 90.757812 32.328125 C 89.789062 31.777344 88.453125 31.859375 86.980469 32.710938 L 76.941406 38.496094 L 49.628906 85.753906 L 39.589844 91.542969 C 37.632812 92.671875 35.925781 94.871094 35 97.210938 C 34.90625 96.835938 34.859375 96.417969 34.855469 95.96875 C 34.851562 94.46875 35.378906 92.800781 36.234375 91.324219 C 36.234375 91.320312 36.234375 91.320312 36.238281 91.320312 " fill-opacity="1" fill-rule="nonzero"/><g clip-path="url(#f2a6da080d)"><path fill="#3e3b3a" d="M 33.667969 96.4375 C 33.710938 94.613281 34.363281 92.613281 35.394531 90.832031 C 36.222656 89.402344 37.296875 88.113281 38.496094 87.164062 C 38.847656 86.890625 39.207031 86.640625 39.578125 86.425781 L 48.679688 81.179688 L 49.027344 80.976562 L 49.363281 80.78125 L 58.304688 65.3125 L 76.335938 34.117188 L 76.507812 33.824219 L 76.660156 33.558594 L 76.679688 33.523438 L 85.785156 28.273438 L 86.964844 27.589844 C 87.222656 27.445312 87.472656 27.320312 87.722656 27.210938 C 89.019531 26.652344 90.222656 26.628906 91.164062 27.167969 C 92.289062 27.804688 92.910156 29.160156 92.914062 30.980469 C 92.925781 34.734375 90.273438 39.320312 87.003906 41.207031 L 87 39.835938 C 88.109375 39.199219 89.125 38.171875 89.933594 36.972656 C 89.945312 36.953125 89.957031 36.929688 89.972656 36.910156 C 90.089844 36.734375 90.195312 36.558594 90.304688 36.378906 C 90.917969 35.332031 91.371094 34.1875 91.585938 33.070312 C 91.675781 32.59375 91.722656 32.125 91.722656 31.667969 C 91.71875 30.214844 91.222656 29.132812 90.324219 28.621094 C 89.425781 28.109375 88.234375 28.230469 86.96875 28.960938 L 77.179688 34.605469 L 50.039062 81.5625 L 49.863281 81.867188 L 39.582031 87.796875 C 39.097656 88.074219 38.628906 88.429688 38.1875 88.839844 C 38.183594 88.84375 38.179688 88.847656 38.175781 88.851562 C 38.070312 88.949219 37.964844 89.054688 37.863281 89.164062 C 37.824219 89.203125 37.78125 89.242188 37.738281 89.285156 C 37.644531 89.386719 37.554688 89.496094 37.460938 89.601562 C 37.414062 89.652344 37.371094 89.703125 37.324219 89.753906 C 37.25 89.84375 37.179688 89.941406 37.105469 90.035156 C 37.046875 90.109375 36.992188 90.179688 36.9375 90.25 C 36.875 90.335938 36.816406 90.421875 36.757812 90.507812 C 36.695312 90.597656 36.632812 90.683594 36.570312 90.777344 C 36.515625 90.859375 36.464844 90.949219 36.410156 91.035156 C 36.351562 91.132812 36.292969 91.222656 36.238281 91.320312 C 36.234375 91.320312 36.234375 91.320312 36.234375 91.324219 C 35.378906 92.800781 34.851562 94.46875 34.855469 95.96875 C 34.859375 96.417969 34.90625 96.835938 35 97.210938 C 35.207031 98.039062 35.636719 98.660156 36.253906 99.011719 C 37.152344 99.527344 38.34375 99.402344 39.609375 98.671875 L 39.613281 100.042969 C 38.03125 100.957031 36.535156 101.109375 35.414062 100.46875 C 34.457031 99.921875 33.867188 98.855469 33.707031 97.429688 C 33.679688 97.179688 33.664062 96.925781 33.664062 96.65625 C 33.664062 96.582031 33.667969 96.511719 33.667969 96.4375 " fill-opacity="1" fill-rule="nonzero"/></g><path fill="#6d6e6c" d="M 74.648438 32.34375 L 76.679688 33.523438 L 86.964844 27.589844 C 88.550781 26.679688 90.039062 26.527344 91.164062 27.167969 L 89.136719 25.988281 C 88.007812 25.347656 86.519531 25.5 84.933594 26.414062 L 74.648438 32.34375 " fill-opacity="1" fill-rule="nonzero"/><g clip-path="url(#483945a370)"><path fill="#6d6e6c" d="M 31.632812 95.476562 C 31.636719 97.292969 32.257812 98.648438 33.382812 99.289062 L 35.414062 100.46875 C 34.289062 99.824219 33.671875 98.472656 33.664062 96.65625 C 33.652344 92.902344 36.304688 88.3125 39.578125 86.425781 L 49.367188 80.78125 L 47.332031 79.605469 L 37.546875 85.25 C 34.273438 87.132812 31.621094 91.722656 31.632812 95.476562 " fill-opacity="1" fill-rule="nonzero"/></g><path fill="#698aae" d="M 50.117188 65.238281 C 50.117188 65.238281 49.839844 66.730469 49.988281 66.984375 C 50.140625 67.242188 51.632812 67.09375 51.824219 66.835938 C 52.019531 66.582031 54.667969 65.214844 54.601562 64.9375 C 54.539062 64.660156 53.023438 64.425781 52.273438 64.683594 C 51.527344 64.9375 50.222656 65.386719 50.117188 65.238281 " fill-opacity="1" fill-rule="nonzero"/><path fill="#698aae" d="M 46.65625 62.789062 C 46.65625 62.789062 46.441406 64.40625 46.65625 64.746094 C 46.871094 65.089844 48.367188 64.960938 48.515625 64.746094 C 48.667969 64.535156 50.992188 62.933594 50.757812 62.59375 C 50.523438 62.25 49.214844 62.613281 48.792969 62.679688 C 48.367188 62.742188 46.871094 62.9375 46.65625 62.789062 " fill-opacity="1" fill-rule="nonzero"/><path fill="#604c40" d="M 46.832031 38.328125 C 46.832031 38.328125 45.261719 43.941406 45.261719 44.828125 C 45.261719 45.714844 47.605469 48.707031 47.605469 48.707031 C 47.605469 48.707031 47.261719 38.960938 46.832031 38.328125 " fill-opacity="1" fill-rule="nonzero"/><path fill="#385877" d="M 47.003906 48.488281 C 47.003906 48.488281 46.90625 54.414062 47.003906 55.007812 C 47.105469 55.605469 46.457031 62.808594 46.707031 63.054688 C 46.957031 63.304688 47.710938 64.050781 48.179688 63.601562 C 48.644531 63.15625 49.828125 56.402344 49.613281 55.480469 C 49.402344 54.554688 48.792969 48.488281 48.792969 48.488281 L 47.003906 48.488281 " fill-opacity="1" fill-rule="nonzero"/><path fill="#4d7093" d="M 52.574219 49.707031 C 52.574219 49.707031 53.019531 56.09375 52.921875 56.882812 C 52.824219 57.671875 52.574219 65.03125 52.125 65.242188 C 51.679688 65.453125 50.097656 65.835938 50.03125 65.359375 C 49.964844 64.886719 49.925781 57.726562 49.890625 56.882812 C 49.855469 56.039062 48.398438 51.246094 48.894531 50.132812 C 49.390625 49.019531 52.574219 49.707031 52.574219 49.707031 " fill-opacity="1" fill-rule="nonzero"/><path fill="#7d6553" d="M 49.851562 37.957031 C 49.851562 37.957031 51.984375 39.273438 52.6875 40.382812 C 53.386719 41.492188 53.542969 50.277344 52.890625 50.851562 C 51.578125 52.007812 45.683594 50.808594 46.160156 48.226562 C 46.648438 45.574219 45.78125 38.191406 46.398438 37.695312 C 47.015625 37.199219 49.851562 37.957031 49.851562 37.957031 " fill-opacity="1" fill-rule="nonzero"/><path fill="#db9d77" d="M 49.449219 34.089844 C 49.859375 34.042969 50.234375 34.320312 50.324219 34.722656 C 50.570312 35.859375 51.03125 38.253906 50.628906 38.800781 C 50.097656 39.519531 47.386719 38.214844 46.707031 36.832031 C 46.128906 35.652344 47.960938 34.257812 49.449219 34.089844 " fill-opacity="1" fill-rule="nonzero"/><path fill="#a36e4e" d="M 49.019531 33.371094 C 49.105469 33.359375 50.582031 33.320312 50.582031 35.199219 C 50.582031 37.082031 49.097656 36.804688 49.183594 37.652344 C 49.265625 38.5 48.5625 39.328125 47.757812 39.003906 C 46.949219 38.679688 45.601562 37.242188 46.007812 35.925781 C 46.410156 34.609375 47.945312 33.535156 49.019531 33.371094 " fill-opacity="1" fill-rule="nonzero"/><path fill="#db9d77" d="M 54.929688 51.511719 C 54.929688 51.511719 55.542969 54.304688 55.042969 54.605469 C 54.546875 54.90625 53.304688 52.132812 53.304688 52.132812 L 54.929688 51.511719 " fill-opacity="1" fill-rule="nonzero"/><path fill="#604c40" d="M 51.464844 40.851562 C 51.210938 41.109375 51.464844 45.339844 51.761719 46.375 C 52.0625 47.410156 53.003906 52.503906 53.449219 52.820312 C 53.898438 53.136719 55.144531 52.277344 55.242188 51.976562 C 55.34375 51.679688 53.800781 46.402344 53.800781 45.835938 C 53.800781 45.273438 53.253906 39.015625 51.464844 40.851562 " fill-opacity="1" fill-rule="nonzero"/></svg>