<svg xmlns="http://www.w3.org/2000/svg" xmlns:xlink="http://www.w3.org/1999/xlink" width="150" zoomAndPan="magnify" viewBox="0 0 112.5 112.499997" height="150" preserveAspectRatio="xMidYMid meet" version="1.0"><defs><clipPath id="4d2b851e35"><path d="M 32 23 L 80 23 L 80 89.601562 L 32 89.601562 Z M 32 23 " clip-rule="nonzero"/></clipPath><clipPath id="1f703215c9"><path d="M 32 32 L 59 32 L 59 89.601562 L 32 89.601562 Z M 32 32 " clip-rule="nonzero"/></clipPath></defs><g clip-path="url(#4d2b851e35)"><path fill="#c4673d" d="M 77.648438 68.75 C 74.742188 69.601562 71.957031 70.210938 68.082031 68.75 C 64.207031 67.292969 55.125 54.410156 54.398438 50.070312 C 53.671875 45.730469 56.089844 41.765625 56.9375 34.351562 C 57.785156 26.9375 53.1875 22.441406 47.375 24.058594 C 41.5625 25.675781 43.136719 33.015625 43.136719 33.015625 C 43.148438 33.027344 43.160156 33.039062 43.175781 33.050781 C 43.164062 33.039062 43.148438 33.027344 43.136719 33.015625 C 43.136719 33.015625 38.414062 35.082031 35.75 34.351562 C 33.085938 33.625 31.269531 35.203125 32.964844 36.90625 C 34.660156 38.605469 38.117188 40.023438 41.835938 38.765625 C 43.945312 38.054688 46.371094 36.734375 48.082031 35.722656 C 49.582031 36.53125 51.800781 39.027344 48.828125 42.007812 C 45.195312 45.65625 42.289062 47.238281 39.988281 53.4375 C 38.007812 58.765625 38.984375 67.78125 44.917969 73.667969 C 44.597656 74.066406 44.0625 74.785156 44.0625 75.152344 C 44.0625 75.679688 44.628906 75.359375 44.628906 75.359375 C 44.535156 75.550781 44.460938 75.746094 44.410156 75.953125 L 39.058594 80.746094 C 39.058594 80.746094 35.507812 77.867188 33.691406 77.867188 C 31.875 77.867188 33.691406 80.058594 33.691406 80.058594 C 33.691406 80.058594 32.304688 80.300781 32.304688 81.636719 C 32.304688 82.972656 39.382812 82.730469 40.472656 81.636719 C 41.109375 80.996094 43.535156 78.726562 45.433594 76.960938 C 45.496094 77.300781 45.660156 77.746094 46.082031 77.746094 C 46.769531 77.746094 46.929688 77.015625 46.929688 77.015625 C 46.929688 77.015625 48.132812 76.914062 48.847656 76.648438 C 50.367188 77.542969 51.949219 78.308594 53.597656 78.945312 C 53.804688 79.4375 54.109375 79.863281 54.511719 80.214844 C 54.4375 80.449219 54.464844 80.671875 54.597656 80.882812 C 54.730469 81.078125 55.148438 80.984375 55.453125 80.882812 C 56.179688 82.769531 56.832031 84.777344 56.757812 85.175781 C 56.605469 85.949219 52.277344 86.960938 51.066406 87.15625 C 49.855469 87.351562 50.582031 88.050781 52.507812 87.996094 C 54.429688 87.9375 52.6875 88.648438 53.710938 89.097656 C 54.734375 89.546875 58.511719 87.5625 58.734375 86.429688 C 58.871094 85.726562 57.867188 82.917969 57.085938 80.886719 C 57.171875 80.796875 57.230469 80.691406 57.253906 80.566406 C 57.253906 80.566406 57.761719 81.105469 58.113281 80.582031 C 58.171875 80.492188 58.195312 80.390625 58.1875 80.28125 C 61.855469 81.011719 64.207031 80.664062 64.207031 80.664062 C 64.207031 80.664062 68.804688 80.785156 70.863281 80.054688 C 72.921875 79.328125 71.953125 78.355469 71.953125 78.355469 C 71.953125 78.355469 74.671875 78.164062 76.558594 76.269531 C 78.445312 74.378906 75.222656 73.613281 75.222656 73.613281 C 79.464844 72.882812 80.554688 67.902344 77.648438 68.75 Z M 43.308594 33.152344 C 43.289062 33.140625 43.273438 33.125 43.253906 33.113281 C 43.269531 33.125 43.289062 33.140625 43.308594 33.152344 Z M 43.308594 33.152344 " fill-opacity="1" fill-rule="nonzero"/></g><g clip-path="url(#1f703215c9)"><path fill="#ffb246" d="M 57.085938 80.886719 C 56.902344 81.0625 56.6875 81.140625 56.433594 81.117188 C 55.691406 81.105469 55.808594 80.746094 55.808594 80.746094 C 55.808594 80.746094 55.65625 80.816406 55.453125 80.882812 C 56.179688 82.769531 56.832031 84.777344 56.757812 85.175781 C 56.605469 85.949219 52.277344 86.960938 51.066406 87.15625 C 49.855469 87.351562 50.585938 88.050781 52.507812 87.996094 C 54.429688 87.9375 52.6875 88.648438 53.710938 89.097656 C 54.734375 89.546875 58.511719 87.5625 58.734375 86.429688 C 58.871094 85.726562 57.867188 82.917969 57.085938 80.886719 Z M 54.796875 87.761719 C 54.78125 87.761719 54.773438 87.753906 54.769531 87.738281 C 54.765625 87.722656 54.773438 87.714844 54.789062 87.707031 C 55.925781 87.355469 56.773438 86.648438 57.324219 85.589844 C 57.332031 85.578125 57.339844 85.574219 57.351562 85.578125 C 57.359375 85.582031 57.367188 85.589844 57.363281 85.601562 C 57.101562 86.785156 55.996094 87.6875 54.796875 87.761719 Z M 44.507812 76.652344 C 44.34375 76.488281 44.351562 76.210938 44.410156 75.953125 L 39.058594 80.746094 C 39.058594 80.746094 35.507812 77.867188 33.691406 77.867188 C 31.875 77.867188 33.691406 80.058594 33.691406 80.058594 C 33.691406 80.058594 32.304688 80.300781 32.304688 81.636719 C 32.304688 82.972656 39.382812 82.730469 40.472656 81.636719 C 41.109375 80.996094 43.535156 78.726562 45.433594 76.960938 C 45.410156 76.832031 45.398438 76.703125 45.394531 76.570312 C 45.394531 76.570312 44.871094 77.015625 44.507812 76.652344 Z M 35.917969 79.703125 C 36.484375 79.929688 37.039062 80.179688 37.609375 80.402344 C 37.621094 80.40625 37.625 80.414062 37.621094 80.425781 C 37.617188 80.433594 37.613281 80.4375 37.601562 80.4375 C 36.976562 80.347656 36.410156 80.121094 35.894531 79.757812 C 35.871094 79.738281 35.886719 79.691406 35.917969 79.703125 Z M 38.695312 81.3125 C 37.464844 81.632812 35.949219 81.523438 34.871094 80.800781 C 34.855469 80.789062 34.851562 80.777344 34.859375 80.761719 C 34.867188 80.746094 34.878906 80.742188 34.894531 80.746094 C 36.191406 81.121094 37.328125 81.382812 38.691406 81.289062 C 38.707031 81.289062 38.707031 81.308594 38.695312 81.3125 Z M 52.460938 34.351562 C 53.429688 33.378906 52.351562 32.855469 51.371094 33.015625 C 51.371094 33.015625 44.933594 34.195312 43.308594 33.152344 C 43.246094 33.113281 43.1875 33.066406 43.136719 33.015625 C 43.136719 33.015625 38.414062 35.082031 35.75 34.351562 C 33.085938 33.625 31.269531 35.203125 32.964844 36.90625 C 34.660156 38.605469 38.117188 40.023438 41.835938 38.765625 C 43.945312 38.054688 46.371094 36.734375 48.082031 35.722656 C 49.390625 34.945312 50.28125 34.351562 50.28125 34.351562 C 50.28125 34.351562 51.492188 35.324219 52.460938 34.351562 Z M 41.566406 37.542969 C 39.082031 38.511719 36.140625 37.371094 34.519531 35.382812 C 34.511719 35.371094 34.523438 35.359375 34.535156 35.367188 C 36.386719 37.351562 38.949219 37.851562 41.523438 37.386719 C 41.578125 37.371094 41.609375 37.390625 41.625 37.445312 C 41.636719 37.496094 41.621094 37.527344 41.566406 37.542969 Z M 43.546875 36.789062 C 43.214844 37.011719 42.855469 37.15625 42.460938 37.21875 C 42.449219 37.222656 42.441406 37.21875 42.4375 37.207031 C 42.433594 37.199219 42.433594 37.191406 42.445312 37.183594 C 42.765625 36.949219 43.125 36.792969 43.515625 36.714844 C 43.539062 36.710938 43.554688 36.71875 43.5625 36.738281 C 43.574219 36.761719 43.566406 36.777344 43.546875 36.789062 Z M 43.546875 36.789062 " fill-opacity="1" fill-rule="nonzero"/></g><path fill="#ffffff" d="M 48.84375 29.140625 C 48.84375 29.535156 48.683594 29.855469 48.488281 29.855469 C 48.289062 29.855469 48.128906 29.535156 48.128906 29.140625 C 48.128906 28.742188 48.289062 28.421875 48.488281 28.421875 C 48.683594 28.421875 48.84375 28.742188 48.84375 29.140625 Z M 47.953125 29.960938 C 47.851562 29.960938 47.773438 30.125 47.773438 30.320312 C 47.773438 30.519531 47.851562 30.679688 47.953125 30.679688 C 48.050781 30.679688 48.128906 30.519531 48.128906 30.320312 C 48.128906 30.125 48.050781 29.960938 47.953125 29.960938 Z M 41.523438 37.386719 C 38.949219 37.851562 36.386719 37.351562 34.535156 35.367188 C 34.523438 35.359375 34.511719 35.371094 34.519531 35.382812 C 36.140625 37.371094 39.082031 38.511719 41.566406 37.542969 C 41.617188 37.527344 41.636719 37.496094 41.621094 37.445312 C 41.609375 37.390625 41.574219 37.375 41.523438 37.386719 Z M 43.515625 36.714844 C 43.125 36.792969 42.765625 36.949219 42.445312 37.183594 C 42.433594 37.191406 42.433594 37.199219 42.4375 37.210938 C 42.441406 37.21875 42.449219 37.222656 42.460938 37.21875 C 42.855469 37.15625 43.214844 37.015625 43.546875 36.789062 C 43.566406 36.777344 43.570312 36.761719 43.5625 36.738281 C 43.554688 36.71875 43.539062 36.710938 43.515625 36.714844 Z M 43.515625 36.714844 " fill-opacity="1" fill-rule="nonzero"/><path fill="#653239" d="M 57.363281 85.601562 C 57.101562 86.785156 55.996094 87.6875 54.796875 87.761719 C 54.78125 87.761719 54.773438 87.753906 54.769531 87.738281 C 54.765625 87.722656 54.773438 87.714844 54.789062 87.707031 C 55.925781 87.355469 56.773438 86.648438 57.324219 85.589844 C 57.332031 85.578125 57.339844 85.574219 57.351562 85.578125 C 57.359375 85.582031 57.367188 85.589844 57.363281 85.601562 Z M 54.511719 80.214844 C 54.4375 80.449219 54.464844 80.671875 54.597656 80.882812 C 54.730469 81.078125 55.148438 80.984375 55.453125 80.882812 C 55.65625 80.816406 55.808594 80.746094 55.808594 80.746094 C 55.808594 80.746094 55.691406 81.105469 56.433594 81.117188 C 56.6875 81.140625 56.902344 81.0625 57.085938 80.886719 C 57.171875 80.796875 57.230469 80.691406 57.253906 80.566406 C 57.253906 80.566406 57.761719 81.105469 58.113281 80.582031 C 58.171875 80.492188 58.195312 80.390625 58.1875 80.28125 C 56.617188 79.964844 55.089844 79.519531 53.597656 78.945312 C 53.804688 79.4375 54.109375 79.863281 54.511719 80.214844 Z M 38.691406 81.289062 C 37.328125 81.382812 36.191406 81.121094 34.894531 80.746094 C 34.878906 80.742188 34.867188 80.746094 34.859375 80.761719 C 34.851562 80.777344 34.855469 80.789062 34.871094 80.800781 C 35.949219 81.523438 37.464844 81.632812 38.695312 81.3125 C 38.707031 81.308594 38.707031 81.289062 38.691406 81.289062 Z M 37.601562 80.4375 C 37.613281 80.4375 37.617188 80.433594 37.621094 80.425781 C 37.625 80.414062 37.621094 80.40625 37.609375 80.402344 C 37.039062 80.179688 36.484375 79.929688 35.917969 79.703125 C 35.886719 79.691406 35.871094 79.738281 35.894531 79.757812 C 36.410156 80.121094 36.976562 80.347656 37.601562 80.4375 Z M 47.011719 29.855469 C 47.011719 28.746094 47.511719 27.847656 48.128906 27.847656 C 48.75 27.847656 49.25 28.746094 49.25 29.855469 C 49.25 30.964844 48.75 31.859375 48.128906 31.859375 C 47.511719 31.859375 47.011719 30.960938 47.011719 29.855469 Z M 48.128906 29.140625 C 48.128906 29.535156 48.289062 29.855469 48.488281 29.855469 C 48.683594 29.855469 48.84375 29.535156 48.84375 29.140625 C 48.84375 28.742188 48.683594 28.421875 48.488281 28.421875 C 48.289062 28.421875 48.128906 28.742188 48.128906 29.140625 Z M 47.773438 30.320312 C 47.773438 30.519531 47.851562 30.679688 47.953125 30.679688 C 48.050781 30.679688 48.128906 30.519531 48.128906 30.320312 C 48.128906 30.125 48.050781 29.960938 47.953125 29.960938 C 47.851562 29.960938 47.773438 30.125 47.773438 30.320312 Z M 60.511719 74.125 C 60.949219 73.527344 61.035156 72.746094 60.492188 72.199219 C 60.464844 72.171875 60.410156 72.210938 60.433594 72.246094 C 60.867188 72.882812 60.542969 73.722656 59.90625 74.082031 C 59.183594 74.488281 58.253906 74.292969 57.5 74.117188 C 56.34375 73.84375 55.207031 73.5 54.09375 73.082031 C 51.777344 72.222656 49.566406 70.992188 47.785156 69.265625 C 47.28125 68.78125 46.820312 68.261719 46.398438 67.703125 C 47.035156 67.851562 47.753906 67.644531 48.117188 67.003906 C 48.121094 67 48.117188 66.992188 48.113281 66.996094 C 47.398438 67.472656 46.667969 67.53125 46.03125 67.191406 C 45.1875 65.972656 44.621094 64.636719 44.335938 63.179688 C 43.875 60.734375 44.34375 58.082031 45.457031 55.878906 C 45.460938 55.871094 45.457031 55.863281 45.449219 55.855469 C 45.4375 55.851562 45.429688 55.851562 45.425781 55.863281 C 42.628906 59.652344 43.207031 64.601562 46.007812 68.214844 C 47.378906 69.984375 49.183594 71.390625 51.148438 72.4375 C 53.25 73.558594 55.699219 74.511719 58.0625 74.851562 C 58.933594 74.976562 59.949219 74.890625 60.511719 74.125 Z M 57.589844 66.03125 C 57.046875 65.636719 56.410156 65.339844 55.847656 65.050781 C 55.835938 65.046875 55.820312 65.0625 55.832031 65.070312 C 57.046875 66.0625 59.46875 67.28125 58.316406 69.234375 C 58.300781 69.257812 58.335938 69.28125 58.355469 69.265625 C 59.058594 68.660156 58.953125 67.804688 58.53125 67.046875 C 58.308594 66.667969 58.023438 66.347656 57.664062 66.089844 C 58.679688 65.542969 58.578125 64.199219 58.160156 63.238281 C 57.457031 61.632812 55.753906 60.371094 54.421875 59.300781 C 54.421875 59.300781 54.417969 59.300781 54.417969 59.300781 C 54.414062 59.304688 54.414062 59.304688 54.417969 59.308594 C 55.1875 60.203125 56.066406 61.003906 56.84375 61.890625 C 57.683594 62.851562 58.921875 64.9375 57.589844 66.03125 Z M 60.078125 70.925781 C 60.332031 71.472656 60.15625 72.296875 59.5 72.449219 C 59.128906 72.53125 58.714844 72.4375 58.351562 72.359375 C 57.050781 72.085938 55.816406 71.550781 54.644531 70.929688 C 54.632812 70.921875 54.621094 70.925781 54.613281 70.9375 C 54.605469 70.953125 54.609375 70.960938 54.621094 70.96875 C 55.546875 71.550781 56.519531 72.023438 57.542969 72.390625 C 58.234375 72.636719 59.09375 72.996094 59.824219 72.683594 C 60.066406 72.589844 60.253906 72.429688 60.386719 72.207031 C 60.523438 71.988281 60.578125 71.746094 60.554688 71.488281 C 60.484375 70.515625 59.59375 70.0625 59.023438 69.40625 C 59 69.375 58.960938 69.417969 58.980469 69.445312 C 59.347656 69.910156 59.824219 70.390625 60.078125 70.925781 Z M 50.367188 67.570312 C 51.121094 67.878906 52.246094 68.457031 52.898438 67.710938 C 53.988281 68.773438 55.9375 69.773438 57.4375 69.542969 C 57.46875 69.539062 57.457031 69.496094 57.429688 69.492188 C 55.773438 69.273438 54.394531 68.417969 52.980469 67.597656 C 52.992188 67.582031 53.003906 67.570312 53.015625 67.554688 C 53.558594 66.710938 53.449219 65.257812 53.09375 64.371094 C 53.089844 64.355469 53.082031 64.351562 53.066406 64.355469 C 53.054688 64.359375 53.050781 64.367188 53.054688 64.378906 C 53.21875 65.242188 53.175781 66.09375 52.921875 66.933594 C 52.582031 68.054688 51.246094 67.652344 50.378906 67.527344 C 50.367188 67.523438 50.355469 67.527344 50.351562 67.542969 C 50.347656 67.558594 50.355469 67.566406 50.367188 67.570312 Z M 48.042969 69.027344 C 48.488281 69.617188 49.195312 69.953125 49.933594 69.769531 C 50.605469 69.601562 51.125 69.089844 51.171875 68.382812 C 51.171875 68.355469 51.15625 68.339844 51.132812 68.332031 C 51.109375 68.328125 51.089844 68.335938 51.078125 68.355469 C 50.402344 69.507812 49.171875 69.660156 48.074219 68.996094 C 48.054688 68.984375 48.027344 69.007812 48.042969 69.027344 Z M 42.261719 51.207031 C 41.304688 52.246094 40.558594 54.136719 42.214844 54.914062 C 42.25 54.929688 42.289062 54.886719 42.257812 54.855469 C 41.078125 53.726562 41.683594 52.457031 42.28125 51.222656 C 42.289062 51.210938 42.273438 51.195312 42.261719 51.207031 Z M 40.988281 56.832031 C 40.929688 56.386719 40.953125 55.949219 41.0625 55.515625 C 41.066406 55.492188 41.058594 55.472656 41.039062 55.460938 C 41.019531 55.449219 41 55.449219 40.980469 55.46875 C 40.789062 55.660156 40.6875 55.890625 40.683594 56.164062 C 40.667969 56.433594 40.75 56.667969 40.929688 56.867188 C 40.953125 56.898438 40.992188 56.863281 40.988281 56.832031 Z M 40.820312 63.429688 C 40.640625 62.878906 40.730469 62.367188 40.742188 61.808594 C 40.742188 61.800781 40.734375 61.792969 40.726562 61.789062 C 40.714844 61.789062 40.710938 61.789062 40.703125 61.800781 C 40.046875 62.882812 40.515625 64.632812 41.859375 64.859375 C 41.882812 64.871094 41.898438 64.863281 41.910156 64.839844 C 41.917969 64.8125 41.914062 64.796875 41.886719 64.785156 C 41.371094 64.460938 41.015625 64.011719 40.820312 63.429688 Z M 42.679688 65.289062 C 42.679688 65.269531 42.652344 65.253906 42.636719 65.269531 C 42.257812 65.753906 42.585938 66.519531 43.179688 66.613281 C 43.207031 66.617188 43.238281 66.582031 43.210938 66.558594 C 42.828125 66.222656 42.652344 65.796875 42.679688 65.289062 Z M 46.105469 46.21875 C 46.386719 45.46875 46.886719 44.851562 47.625 44.535156 C 47.636719 44.53125 47.632812 44.511719 47.621094 44.511719 C 46.742188 44.546875 45.964844 45.3125 46.019531 46.207031 C 46.019531 46.230469 46.03125 46.246094 46.058594 46.25 C 46.082031 46.253906 46.097656 46.242188 46.105469 46.21875 Z M 46.933594 47.210938 C 46.246094 47.570312 45.90625 48.417969 46.257812 49.136719 C 46.265625 49.148438 46.277344 49.152344 46.289062 49.148438 C 46.304688 49.144531 46.308594 49.132812 46.308594 49.121094 C 46.28125 48.410156 46.5 47.789062 46.964844 47.25 C 46.976562 47.242188 46.976562 47.230469 46.964844 47.21875 C 46.957031 47.207031 46.945312 47.203125 46.933594 47.210938 Z M 44.65625 52.105469 C 44.671875 51.878906 44.726562 51.664062 44.824219 51.457031 C 44.867188 51.363281 44.921875 51.277344 44.988281 51.199219 C 45.058594 51.136719 45.117188 51.070312 45.167969 50.992188 C 45.171875 50.984375 45.167969 50.96875 45.15625 50.964844 C 44.933594 50.933594 44.710938 51.199219 44.617188 51.371094 C 44.472656 51.617188 44.464844 51.867188 44.589844 52.125 C 44.605469 52.160156 44.65625 52.140625 44.65625 52.105469 Z M 49.761719 42.628906 C 49.875 42.242188 50.035156 41.875 50.238281 41.527344 C 50.464844 41.199219 50.730469 40.902344 51.03125 40.644531 C 51.042969 40.632812 51.042969 40.621094 51.035156 40.609375 C 51.027344 40.597656 51.019531 40.59375 51.003906 40.597656 C 50.195312 40.863281 49.617188 41.777344 49.683594 42.617188 C 49.679688 42.640625 49.691406 42.65625 49.714844 42.660156 C 49.742188 42.664062 49.753906 42.652344 49.761719 42.628906 Z M 74.867188 73.597656 C 73.847656 73.738281 72.875 73.894531 71.84375 73.808594 C 70.734375 73.710938 69.640625 73.511719 68.570312 73.21875 C 68.539062 73.210938 68.523438 73.222656 68.515625 73.25 C 68.507812 73.277344 68.515625 73.296875 68.542969 73.304688 C 70.496094 73.933594 72.933594 74.730469 74.878906 73.628906 C 74.898438 73.621094 74.882812 73.59375 74.867188 73.597656 Z M 71.484375 78.113281 C 69.96875 77.859375 68.507812 77.652344 67.054688 77.121094 C 67.039062 77.117188 67.027344 77.125 67.023438 77.136719 C 67.015625 77.152344 67.019531 77.164062 67.035156 77.171875 C 68.390625 77.855469 69.933594 78.332031 71.46875 78.207031 C 71.519531 78.203125 71.539062 78.125 71.484375 78.113281 Z M 63.390625 78.539062 C 61.574219 79.265625 59.925781 78.964844 58.089844 78.449219 C 58.050781 78.4375 58.023438 78.496094 58.0625 78.515625 C 59.65625 79.234375 61.953125 80.003906 63.417969 78.585938 C 63.433594 78.566406 63.414062 78.53125 63.390625 78.539062 Z M 55.164062 78.316406 C 55.125 78.285156 55.078125 78.332031 55.109375 78.367188 C 55.589844 78.871094 56.421875 79.191406 57.023438 78.6875 C 57.03125 78.679688 57.035156 78.667969 57.03125 78.65625 C 57.027344 78.644531 57.015625 78.640625 57.003906 78.640625 C 56.367188 78.707031 55.695312 78.746094 55.160156 78.316406 Z M 50.707031 75.238281 C 49.5 75.203125 48.425781 74.804688 47.488281 74.042969 C 47.472656 74.03125 47.457031 74.03125 47.445312 74.042969 C 47.429688 74.058594 47.429688 74.074219 47.445312 74.089844 C 47.839844 74.574219 48.328125 74.929688 48.914062 75.148438 C 49.5 75.363281 50.101562 75.417969 50.714844 75.308594 C 50.753906 75.300781 50.742188 75.238281 50.707031 75.238281 Z M 47.675781 73.320312 C 47.496094 73.25 47.328125 73.15625 47.175781 73.042969 C 47.039062 72.929688 46.910156 72.808594 46.789062 72.683594 C 46.769531 72.664062 46.734375 72.683594 46.746094 72.707031 C 46.878906 73.078125 47.28125 73.332031 47.65625 73.386719 C 47.679688 73.390625 47.691406 73.382812 47.695312 73.363281 C 47.703125 73.339844 47.695312 73.328125 47.675781 73.320312 Z M 47.675781 73.320312 " fill-opacity="1" fill-rule="nonzero"/></svg>