<svg xmlns="http://www.w3.org/2000/svg" xmlns:xlink="http://www.w3.org/1999/xlink" width="150" zoomAndPan="magnify" viewBox="0 0 112.5 112.499997" height="150" preserveAspectRatio="xMidYMid meet" version="1.0"><defs><clipPath id="2287540c5c"><path d="M 11.199219 39 L 93 39 L 93 80 L 11.199219 80 Z M 11.199219 39 " clip-rule="nonzero"/></clipPath></defs><g clip-path="url(#2287540c5c)"><path fill="#1f1d21" d="M 43.867188 66.835938 C 49.542969 64.175781 56.757812 63.839844 60.113281 64.019531 C 61.441406 64.089844 62.152344 64.539062 62.152344 64.539062 C 62.960938 65.210938 63.027344 65.445312 63.050781 66.078125 C 63.519531 77.894531 53.429688 78.238281 53.429688 78.238281 C 42.652344 78.898438 43.867188 66.835938 43.867188 66.835938 Z M 70.710938 62.925781 C 70.710938 62.925781 71.210938 62.25 72.425781 61.699219 C 75.484375 60.308594 82.328125 57.996094 88.578125 58.402344 C 88.578125 58.402344 94.082031 69.199219 83.800781 72.511719 C 83.800781 72.511719 74.273438 75.867188 70.429688 64.6875 C 70.222656 64.089844 70.199219 63.847656 70.710938 62.925781 Z M 11.214844 51.351562 C 11.214844 51.351562 11.765625 52.816406 13.6875 52.453125 C 13.6875 52.453125 17.347656 50.800781 22.886719 54.652344 L 40.03125 67.535156 L 40.304688 68.976562 C 40.304688 68.976562 42.125 68.597656 42.457031 70.382812 C 42.457031 70.382812 42.855469 78.695312 50.578125 79.542969 C 50.578125 79.542969 64.8125 81.160156 64.386719 66.6875 C 64.386719 66.6875 64.949219 64.800781 66.675781 64.828125 C 68.269531 64.175781 69.484375 65.726562 69.484375 65.726562 C 74.328125 79.367188 87.003906 72.675781 87.003906 72.675781 C 93.890625 69.070312 91.25 61.183594 91.25 61.183594 C 90.914062 59.398438 92.746094 59.089844 92.746094 59.089844 L 92.1875 56.101562 C 91.625 56.070312 91.066406 56.050781 90.515625 56.042969 L 71.371094 41.714844 C 71.371094 41.714844 65.117188 37.863281 60.453125 40.890625 C 60.453125 40.890625 61 42.359375 62.921875 41.992188 C 62.921875 41.992188 66.585938 40.339844 72.121094 44.195312 L 87.964844 56.097656 C 78 56.628906 69.984375 60.75 69.984375 60.75 C 68.453125 61.738281 66.144531 62 66.144531 62 C 66.144531 62 63.898438 62.59375 62.113281 62.234375 C 62.113281 62.234375 50.886719 61.082031 40.273438 65.753906 L 22.136719 52.175781 C 22.136719 52.175781 15.882812 48.324219 11.214844 51.351562 " fill-opacity="1" fill-rule="nonzero"/></g></svg>