<svg xmlns="http://www.w3.org/2000/svg" xmlns:xlink="http://www.w3.org/1999/xlink" width="150" zoomAndPan="magnify" viewBox="0 0 112.5 112.499997" height="150" preserveAspectRatio="xMidYMid meet" version="1.0"><defs><clipPath id="eea7057300"><path d="M 14.113281 17.140625 L 97.699219 17.140625 L 97.699219 94.789062 L 14.113281 94.789062 Z M 14.113281 17.140625 " clip-rule="nonzero"/></clipPath><clipPath id="755e56533b"><path d="M 14.113281 41.820312 L 61.839844 41.820312 L 61.839844 94.789062 L 14.113281 94.789062 Z M 14.113281 41.820312 " clip-rule="nonzero"/></clipPath><clipPath id="2c85f5052f"><path d="M 18.417969 17.140625 L 97.699219 17.140625 L 97.699219 94.714844 L 18.417969 94.714844 Z M 18.417969 17.140625 " clip-rule="nonzero"/></clipPath></defs><g clip-path="url(#eea7057300)"><path fill="#f1d276" d="M 97.671875 44.164062 C 97.59375 42.097656 97.269531 40.105469 96.425781 38.207031 C 95.664062 36.492188 94.519531 34.917969 93.089844 33.695312 C 93.074219 33.65625 93.046875 33.621094 93.011719 33.597656 C 93.375 33.039062 93.519531 32.324219 93.574219 31.664062 C 93.601562 31.523438 93.59375 31.390625 93.539062 31.269531 C 93.265625 30.640625 92.222656 30.171875 91.726562 29.890625 C 90.683594 29.296875 89.515625 28.949219 88.347656 28.6875 C 87.078125 28.40625 85.8125 28.167969 84.503906 28.226562 C 84.480469 28.214844 84.453125 28.210938 84.421875 28.207031 C 83.65625 28.15625 82.777344 28.25 82.121094 28.6875 C 82.109375 28.695312 82.101562 28.707031 82.089844 28.714844 C 82.039062 28.75 81.996094 28.789062 81.953125 28.828125 C 81.996094 28.789062 82.039062 28.75 82.089844 28.714844 C 81.0625 25.140625 79.5 21.496094 76.328125 19.34375 C 74.65625 18.210938 72.671875 17.671875 70.679688 17.5 C 68.136719 17.273438 65.574219 17.085938 63.019531 17.152344 C 60.695312 17.214844 58.457031 17.566406 56.367188 18.621094 C 56.027344 18.792969 55.691406 18.980469 55.367188 19.175781 C 54.746094 19.460938 54.140625 19.789062 53.546875 20.171875 C 51.875 21.261719 50.421875 22.660156 49.277344 24.296875 C 48.777344 25.011719 48.394531 25.78125 48.019531 26.5625 C 44.496094 26.300781 40.964844 26.007812 37.429688 26.007812 C 34.167969 26.007812 30.828125 26.242188 27.710938 27.257812 C 27.699219 27.261719 27.683594 27.265625 27.671875 27.273438 C 27.609375 27.28125 27.550781 27.292969 27.488281 27.300781 C 27.425781 27.3125 27.378906 27.34375 27.351562 27.382812 C 24.710938 28.3125 22.367188 29.921875 20.816406 32.296875 C 18.710938 35.523438 18.398438 39.546875 18.585938 43.292969 C 18.691406 45.355469 18.746094 47.417969 18.609375 49.472656 C 18.117188 50.113281 17.679688 50.796875 17.316406 51.527344 C 16.265625 53.113281 15.496094 54.957031 14.984375 57.101562 C 14.214844 60.324219 14.113281 63.902344 14.113281 66.976562 C 14.113281 73.167969 17.777344 80.65625 21.183594 84.996094 C 23.210938 87.578125 26.027344 90.042969 29.121094 91.933594 C 32.082031 93.75 34.910156 94.789062 36.886719 94.789062 C 37.847656 94.789062 38.835938 94.738281 39.839844 94.644531 C 41.648438 94.523438 43.421875 94.167969 45.226562 93.835938 C 47.6875 93.378906 50.039062 92.765625 52.339844 91.765625 C 56.722656 89.863281 60.554688 86.914062 64.136719 83.796875 C 64.894531 83.136719 65.640625 82.46875 66.382812 81.792969 C 68.691406 82.441406 71.039062 82.9375 73.402344 83.324219 C 75.757812 83.710938 78.15625 84.011719 80.542969 83.980469 C 81.25 83.972656 81.964844 83.902344 82.65625 83.757812 C 82.683594 83.765625 82.714844 83.773438 82.75 83.773438 C 87.882812 83.617188 92.773438 80.992188 95.109375 76.304688 C 96.34375 73.832031 96.539062 70.984375 96.820312 68.28125 C 97.144531 65.175781 97.28125 62.050781 97.359375 58.933594 C 97.421875 56.480469 97.449219 54.027344 97.515625 51.578125 C 97.585938 49.105469 97.769531 46.636719 97.671875 44.164062 " fill-opacity="1" fill-rule="nonzero"/></g><path fill="#ee6945" d="M 47.28125 78.351562 C 46.132812 79.09375 44.570312 79.46875 42.628906 79.46875 C 41.960938 79.46875 41.242188 79.421875 40.496094 79.335938 C 39.0625 79.164062 36.066406 77.929688 33.695312 75.226562 C 32.238281 73.570312 30.363281 70.117188 29.890625 67.621094 C 29.171875 63.839844 29.722656 58.695312 32.621094 56.332031 C 34.597656 54.722656 37.636719 53.722656 40.554688 53.722656 C 44.824219 53.722656 49.300781 57.425781 51.515625 61.089844 C 52.738281 63.113281 53.386719 65.457031 53.386719 67.863281 C 53.386719 72.019531 51.160156 75.84375 47.28125 78.351562 Z M 39.875 50.246094 C 36.257812 50.246094 32.488281 51.492188 30.039062 53.5 C 26.441406 56.449219 25.761719 62.859375 26.652344 67.574219 C 27.238281 70.6875 29.5625 74.988281 31.367188 77.054688 C 34.308594 80.421875 38.019531 81.960938 39.800781 82.175781 C 40.984375 82.316406 42.375 82.460938 43.734375 82.460938 C 45.882812 82.460938 47.480469 82.101562 48.625 81.359375 C 53.105469 78.445312 55.78125 73.40625 55.78125 67.875 C 55.78125 64.875 54.980469 61.953125 53.460938 59.429688 C 50.71875 54.867188 45.167969 50.246094 39.875 50.246094 " fill-opacity="1" fill-rule="nonzero"/><path fill="#ee6945" d="M 41.964844 33.71875 C 41.996094 33.703125 42.027344 33.699219 42.058594 33.699219 C 42.929688 33.488281 43.792969 33.875 43.960938 34.824219 C 44.117188 35.726562 43.464844 36.628906 42.589844 36.847656 C 41.78125 37.046875 40.957031 36.601562 40.773438 35.757812 C 40.566406 34.816406 41.097656 34.054688 41.964844 33.71875 Z M 40.417969 38.007812 C 41.625 37.605469 42.828125 37.191406 44.019531 36.75 C 43.992188 36.679688 43.976562 36.59375 43.996094 36.503906 C 44.203125 35.339844 44.539062 34.21875 44.953125 33.121094 C 44.511719 32.574219 43.953125 32.140625 43.25 31.9375 C 42.230469 31.648438 41.125 32.066406 40.332031 32.703125 C 39.515625 33.351562 39.082031 34.375 38.996094 35.394531 C 38.910156 36.429688 39.300781 37.382812 39.9375 38.167969 C 40.097656 38.117188 40.257812 38.0625 40.417969 38.007812 " fill-opacity="1" fill-rule="nonzero"/><path fill="#ee6945" d="M 77.191406 34.996094 C 77.273438 34.398438 76.96875 33.644531 76.335938 33.488281 C 76.296875 33.480469 76.261719 33.480469 76.230469 33.484375 C 75.007812 33.230469 75.050781 35.226562 75.949219 35.683594 C 76.515625 35.972656 77.113281 35.597656 77.191406 34.996094 " fill-opacity="1" fill-rule="nonzero"/><path fill="#ee6945" d="M 76.746094 37.824219 C 76.683594 37.828125 76.632812 37.855469 76.597656 37.890625 C 75.425781 38.375 76.050781 40.617188 77.316406 39.988281 C 77.773438 39.765625 78.011719 39.214844 77.960938 38.71875 C 77.898438 38.078125 77.347656 37.769531 76.746094 37.824219 " fill-opacity="1" fill-rule="nonzero"/><path fill="#ee6945" d="M 86.875 48.058594 C 86.613281 48.664062 85.992188 48.972656 85.390625 49.125 C 84.140625 49.445312 82.582031 49.0625 81.652344 48.167969 C 81.085938 47.617188 80.945312 46.757812 81.324219 46.066406 C 81.71875 45.347656 82.621094 45.121094 83.378906 45.230469 C 83.386719 45.230469 83.398438 45.230469 83.40625 45.230469 C 83.421875 45.234375 83.441406 45.238281 83.460938 45.238281 C 84.542969 45.308594 85.847656 45.492188 86.636719 46.3125 C 87.082031 46.773438 87.121094 47.492188 86.875 48.058594 Z M 87.320312 46.496094 C 86.664062 45.132812 84.804688 44.851562 83.460938 44.769531 C 83.457031 44.769531 83.453125 44.769531 83.453125 44.769531 C 82.628906 44.660156 81.835938 44.835938 81.226562 45.425781 C 80.617188 46.015625 80.5 46.953125 80.796875 47.71875 C 81.402344 49.269531 83.589844 49.863281 85.085938 49.65625 C 85.824219 49.554688 86.605469 49.269531 87.066406 48.648438 C 87.511719 48.050781 87.648438 47.179688 87.320312 46.496094 " fill-opacity="1" fill-rule="nonzero"/><path fill="#ee6945" d="M 42.039062 49.769531 C 46.859375 51.527344 51.347656 55.695312 53.871094 59.824219 C 55.210938 62.015625 56.089844 64.460938 56.464844 67.011719 C 56.328125 64.1875 55.507812 61.457031 54.070312 59.066406 C 51.589844 54.941406 46.882812 50.777344 42.039062 49.769531 " fill-opacity="1" fill-rule="nonzero"/><path fill="#ee6945" d="M 83.625 36.496094 C 83.640625 36.496094 83.648438 36.492188 83.664062 36.492188 C 84.824219 36.628906 85.910156 37.527344 85.9375 38.757812 C 85.972656 40.121094 84.34375 40.601562 83.238281 40.390625 C 82.207031 40.195312 81.527344 39.214844 81.515625 38.199219 C 81.5 36.988281 82.535156 36.433594 83.625 36.496094 Z M 83.109375 40.847656 C 84.4375 41.148438 86.253906 40.511719 86.398438 38.984375 C 86.539062 37.511719 85.300781 36.308594 83.929688 36.054688 C 83.839844 36.039062 83.746094 36.03125 83.65625 36.019531 C 83.632812 36.015625 83.613281 36.019531 83.59375 36.019531 C 82.253906 35.957031 81.113281 36.710938 81.042969 38.125 C 80.984375 39.390625 81.890625 40.566406 83.109375 40.847656 " fill-opacity="1" fill-rule="nonzero"/><path fill="#ee6945" d="M 29.730469 39.132812 C 29.734375 39.128906 29.734375 39.121094 29.734375 39.117188 C 29.792969 38.585938 29.832031 38.058594 29.945312 37.539062 C 29.972656 37.425781 29.921875 37.339844 29.84375 37.289062 C 29.796875 37.214844 29.710938 37.167969 29.597656 37.195312 C 26.589844 38 23.535156 37.851562 20.605469 36.832031 C 20.5625 36.800781 20.503906 36.78125 20.449219 36.777344 C 20.449219 36.777344 20.445312 36.777344 20.445312 36.777344 C 20.234375 36.703125 20.113281 36.929688 20.175781 37.097656 C 20.035156 37.640625 20.019531 38.207031 19.992188 38.769531 C 19.984375 38.863281 20.027344 38.925781 20.089844 38.960938 C 20.089844 38.964844 20.089844 38.964844 20.089844 38.96875 C 20.453125 39.335938 21.03125 39.496094 21.507812 39.636719 C 22.332031 39.878906 23.195312 40.011719 24.050781 40.101562 C 25.871094 40.289062 27.980469 40.273438 29.617188 39.351562 C 29.710938 39.296875 29.742188 39.214844 29.730469 39.132812 " fill-opacity="1" fill-rule="nonzero"/><path fill="#ee6945" d="M 28.027344 28.902344 C 28.046875 28.894531 28.0625 28.882812 28.085938 28.875 C 28.890625 28.605469 30.019531 28.6875 30.507812 29.492188 C 30.988281 30.289062 30.359375 31.007812 29.59375 31.261719 C 28.71875 31.550781 27.539062 31.585938 27.0625 30.625 C 26.664062 29.820312 27.304688 29.144531 28.027344 28.902344 Z M 30.859375 32.980469 C 32.339844 32.238281 33.832031 30.492188 33.015625 28.757812 C 32.605469 27.890625 31.546875 27.40625 30.667969 27.207031 C 30.46875 27.160156 30.265625 27.132812 30.066406 27.113281 C 29.277344 27.277344 28.496094 27.480469 27.734375 27.738281 C 27.269531 27.894531 26.8125 28.074219 26.367188 28.273438 C 26.023438 28.425781 25.683594 28.59375 25.355469 28.773438 C 25.25 28.828125 25.152344 28.886719 25.050781 28.945312 C 24.464844 30.019531 24.582031 31.480469 25.386719 32.445312 C 26.742188 34.078125 29.136719 33.847656 30.859375 32.980469 " fill-opacity="1" fill-rule="nonzero"/><g clip-path="url(#755e56533b)"><path fill="#96dbd7" d="M 55.039062 79.585938 C 53.460938 82.445312 51.191406 84.875 48.480469 86.609375 C 46.957031 87.585938 44.871094 88.058594 42.105469 88.058594 C 40.417969 88.058594 38.703125 87.882812 37.25 87.710938 C 34.96875 87.441406 30.226562 85.523438 26.511719 81.335938 C 24.261719 78.800781 21.351562 73.5 20.613281 69.660156 C 19.996094 66.445312 20.011719 63.003906 20.660156 59.972656 C 21.398438 56.527344 22.898438 53.808594 25.007812 52.109375 C 28.164062 49.566406 32.808594 48.050781 37.4375 48.050781 C 44.15625 48.050781 51.152344 53.75 54.59375 59.378906 C 56.511719 62.515625 57.523438 66.140625 57.523438 69.863281 C 57.523438 73.277344 56.664062 76.636719 55.039062 79.585938 Z M 53.519531 50.640625 C 48.914062 45.390625 41.828125 41.996094 35.472656 41.996094 C 33.164062 41.996094 30.265625 42.695312 27.3125 43.964844 C 24.839844 45.03125 22.519531 46.425781 20.617188 47.972656 C 20.0625 48.496094 19.539062 49.058594 19.070312 49.652344 C 18.886719 49.886719 18.707031 50.128906 18.539062 50.375 C 18.554688 50.210938 18.570312 50.046875 18.582031 49.882812 C 18.59375 49.746094 18.601562 49.609375 18.609375 49.472656 C 18.117188 50.113281 17.679688 50.796875 17.316406 51.527344 C 16.265625 53.113281 15.496094 54.957031 14.984375 57.101562 C 14.214844 60.324219 14.113281 63.902344 14.113281 66.976562 C 14.113281 73.167969 17.777344 80.65625 21.183594 84.996094 C 23.210938 87.578125 26.027344 90.042969 29.121094 91.933594 C 32.082031 93.75 34.910156 94.789062 36.886719 94.789062 C 37.847656 94.789062 38.835938 94.738281 39.839844 94.644531 C 41.992188 94.4375 44.199219 94.015625 46.265625 93.410156 C 47.09375 93.167969 47.886719 92.898438 48.640625 92.601562 C 51 91.683594 52.976562 90.527344 54.429688 89.203125 C 56.882812 86.96875 58.753906 84.082031 59.996094 80.621094 C 61.152344 77.402344 61.734375 73.765625 61.734375 69.808594 C 61.734375 66.738281 60.824219 63.136719 59.097656 59.390625 C 57.625 56.191406 55.59375 53.003906 53.519531 50.640625 " fill-opacity="1" fill-rule="nonzero"/></g><path fill="#96dbd7" d="M 74.617188 56.910156 C 74.597656 56.84375 74.578125 56.78125 74.558594 56.71875 C 74.515625 56.585938 74.472656 56.449219 74.429688 56.316406 C 74.410156 56.257812 74.390625 56.195312 74.371094 56.136719 C 74.308594 55.949219 74.242188 55.761719 74.175781 55.574219 C 74.160156 55.53125 74.144531 55.484375 74.128906 55.441406 C 72.375 55.964844 70.5625 56.445312 68.902344 57.21875 C 68.957031 57.410156 69.011719 57.605469 69.066406 57.800781 C 69.070312 57.808594 69.074219 57.820312 69.074219 57.828125 C 69.121094 58 69.164062 58.167969 69.207031 58.339844 C 69.21875 58.375 69.226562 58.410156 69.234375 58.445312 C 69.261719 58.554688 69.289062 58.660156 69.3125 58.769531 C 69.382812 59.074219 69.453125 59.382812 69.511719 59.691406 C 71.25 58.910156 72.988281 58.117188 74.78125 57.476562 C 74.777344 57.460938 74.773438 57.449219 74.769531 57.433594 C 74.71875 57.257812 74.667969 57.082031 74.617188 56.910156 " fill-opacity="1" fill-rule="nonzero"/><path fill="#96dbd7" d="M 76.230469 33.484375 C 76.261719 33.480469 76.296875 33.480469 76.335938 33.488281 C 76.96875 33.644531 77.273438 34.398438 77.191406 34.996094 C 77.113281 35.597656 76.515625 35.972656 75.949219 35.683594 C 75.050781 35.226562 75.007812 33.230469 76.230469 33.484375 Z M 77.960938 38.71875 C 78.011719 39.214844 77.773438 39.765625 77.316406 39.988281 C 76.050781 40.617188 75.425781 38.375 76.597656 37.890625 C 76.632812 37.855469 76.683594 37.828125 76.746094 37.824219 C 77.347656 37.769531 77.898438 38.078125 77.960938 38.71875 Z M 45.507812 34.085938 C 45.503906 34.097656 45.5 34.113281 45.492188 34.125 C 45.21875 34.914062 44.949219 35.707031 44.6875 36.5 C 44.75 36.476562 44.8125 36.453125 44.871094 36.429688 C 44.871094 36.429688 44.875 36.425781 44.875 36.425781 C 45.066406 36.351562 45.253906 36.277344 45.445312 36.203125 C 45.640625 36.125 45.839844 36.042969 46.035156 35.964844 C 46.058594 35.902344 46.105469 35.851562 46.183594 35.824219 C 47.183594 35.515625 48.203125 35.25 49.234375 35.054688 C 54.078125 34.140625 59.109375 34.679688 63.480469 37.050781 C 65.75 38.28125 67.714844 39.910156 69.515625 41.746094 C 71.195312 43.457031 72.75 45.308594 74.046875 47.328125 C 74.160156 47.5 74.269531 47.675781 74.375 47.851562 C 74.402344 47.898438 74.429688 47.941406 74.457031 47.984375 C 74.558594 48.152344 74.65625 48.324219 74.753906 48.492188 C 74.761719 48.5 74.765625 48.507812 74.769531 48.515625 C 74.875 48.699219 74.976562 48.886719 75.078125 49.070312 C 75.097656 49.105469 75.113281 49.140625 75.132812 49.175781 C 75.230469 49.355469 75.328125 49.539062 75.417969 49.722656 C 75.421875 49.726562 75.421875 49.730469 75.425781 49.734375 C 75.523438 49.929688 75.621094 50.128906 75.714844 50.328125 C 75.726562 50.347656 75.734375 50.367188 75.742188 50.386719 C 75.933594 50.789062 76.113281 51.195312 76.277344 51.609375 C 76.28125 51.613281 76.285156 51.621094 76.285156 51.628906 C 76.371094 51.835938 76.453125 52.046875 76.53125 52.257812 C 76.761719 52.878906 76.96875 53.507812 77.144531 54.148438 C 76.832031 48.90625 76.097656 43.667969 74.847656 38.578125 C 74.539062 37.320312 74.199219 36.070312 73.8125 34.835938 C 73.460938 33.722656 73.125 32.570312 72.589844 31.527344 C 72.089844 30.5625 71.433594 29.660156 70.542969 29.023438 C 69.996094 28.628906 69.390625 28.308594 68.757812 28.039062 C 68.480469 27.921875 68.199219 27.8125 67.917969 27.714844 C 67.914062 27.714844 67.910156 27.714844 67.910156 27.710938 C 67.769531 27.664062 67.632812 27.617188 67.492188 27.574219 C 67.484375 27.570312 67.480469 27.570312 67.472656 27.566406 C 67.335938 27.523438 67.199219 27.484375 67.058594 27.441406 C 64.414062 26.667969 61.652344 26.441406 58.921875 26.160156 C 58.71875 26.140625 58.511719 26.121094 58.304688 26.101562 C 55.480469 25.824219 52.644531 25.660156 49.808594 25.65625 C 49.503906 25.65625 49.503906 25.183594 49.808594 25.183594 C 53.71875 25.191406 57.605469 25.523438 61.488281 25.960938 C 63.242188 26.15625 65.007812 26.386719 66.71875 26.855469 C 68.214844 27.265625 69.8125 27.816406 71.035156 28.808594 C 72.746094 30.199219 73.476562 32.242188 74.128906 34.277344 C 74.933594 36.777344 75.558594 39.335938 76.0625 41.914062 C 76.921875 46.351562 77.460938 50.859375 77.679688 55.375 C 77.714844 54.964844 77.75 54.558594 77.78125 54.152344 C 77.78125 54.148438 77.78125 54.148438 77.78125 54.148438 C 77.808594 53.800781 77.835938 53.457031 77.863281 53.109375 C 77.871094 53.042969 77.875 52.980469 77.882812 52.914062 C 77.910156 52.542969 77.9375 52.171875 77.96875 51.800781 C 77.96875 51.800781 77.96875 51.800781 77.96875 51.796875 L 78.070312 50.351562 C 78.070312 50.34375 78.070312 50.332031 78.070312 50.328125 C 78.09375 49.984375 78.117188 49.640625 78.136719 49.296875 C 78.140625 49.25 78.144531 49.203125 78.144531 49.15625 C 78.167969 48.789062 78.1875 48.421875 78.203125 48.054688 C 78.28125 46.503906 78.332031 44.949219 78.351562 43.394531 C 78.367188 42.171875 78.40625 40.941406 78.316406 39.722656 C 78.179688 37.863281 77.8125 35.957031 78.152344 34.097656 C 78.203125 33.816406 78.269531 33.546875 78.355469 33.28125 C 78.351562 33.273438 78.34375 33.269531 78.34375 33.257812 C 76.3125 28.128906 73.574219 22.632812 68.0625 20.605469 C 65.46875 19.648438 62.648438 19.351562 59.902344 19.558594 C 59.761719 19.570312 59.625 19.582031 59.488281 19.59375 C 59.464844 19.597656 59.445312 19.597656 59.421875 19.601562 C 59.289062 19.613281 59.15625 19.628906 59.027344 19.644531 C 59 19.644531 58.976562 19.648438 58.953125 19.652344 C 58.820312 19.667969 58.683594 19.683594 58.550781 19.703125 C 58.535156 19.703125 58.519531 19.707031 58.503906 19.707031 C 58.363281 19.726562 58.222656 19.746094 58.082031 19.769531 C 58.082031 19.769531 58.082031 19.769531 58.078125 19.769531 C 57.9375 19.792969 57.796875 19.816406 57.65625 19.84375 C 57.640625 19.847656 57.625 19.847656 57.609375 19.851562 C 57.472656 19.878906 57.335938 19.90625 57.199219 19.933594 C 57.183594 19.9375 57.167969 19.941406 57.15625 19.945312 C 57.011719 19.976562 56.871094 20.007812 56.730469 20.039062 C 56.4375 20.113281 56.148438 20.191406 55.863281 20.28125 C 55.855469 20.285156 55.847656 20.285156 55.839844 20.289062 C 55.699219 20.332031 55.5625 20.378906 55.421875 20.425781 C 55.417969 20.429688 55.414062 20.429688 55.40625 20.429688 C 55.089844 20.542969 54.78125 20.667969 54.476562 20.800781 C 54.371094 20.851562 54.265625 20.898438 54.164062 20.949219 C 54.160156 20.953125 54.152344 20.953125 54.148438 20.957031 C 54.015625 21.023438 53.882812 21.089844 53.753906 21.160156 C 53.75 21.160156 53.75 21.160156 53.75 21.160156 C 53.484375 21.304688 53.222656 21.460938 52.972656 21.628906 C 52.96875 21.632812 52.96875 21.632812 52.96875 21.632812 C 52.65625 21.839844 52.355469 22.066406 52.066406 22.316406 C 50 24.09375 48.65625 26.609375 47.519531 29.050781 C 46.753906 30.691406 46.105469 32.378906 45.507812 34.085938 " fill-opacity="1" fill-rule="nonzero"/><path fill="#96dbd7" d="M 20.445312 36.777344 C 20.445312 36.777344 20.449219 36.777344 20.449219 36.777344 C 20.503906 36.78125 20.5625 36.800781 20.605469 36.832031 C 23.535156 37.851562 26.589844 38 29.597656 37.195312 C 29.710938 37.167969 29.796875 37.214844 29.84375 37.289062 C 29.921875 37.339844 29.972656 37.425781 29.945312 37.539062 C 29.832031 38.058594 29.792969 38.585938 29.734375 39.117188 C 29.734375 39.121094 29.734375 39.128906 29.730469 39.132812 C 29.742188 39.214844 29.710938 39.296875 29.617188 39.351562 C 27.980469 40.273438 25.871094 40.289062 24.050781 40.101562 C 23.195312 40.011719 22.332031 39.878906 21.507812 39.636719 C 21.03125 39.496094 20.453125 39.335938 20.089844 38.96875 C 20.089844 38.964844 20.089844 38.964844 20.089844 38.960938 C 20.027344 38.925781 19.984375 38.863281 19.992188 38.769531 C 20.019531 38.207031 20.035156 37.640625 20.175781 37.097656 C 20.113281 36.929688 20.234375 36.703125 20.445312 36.777344 Z M 25.050781 28.945312 C 25.152344 28.886719 25.25 28.828125 25.355469 28.773438 C 25.683594 28.59375 26.023438 28.425781 26.367188 28.273438 C 26.8125 28.074219 27.269531 27.894531 27.734375 27.738281 C 28.496094 27.480469 29.277344 27.277344 30.066406 27.113281 C 30.265625 27.132812 30.46875 27.160156 30.667969 27.207031 C 31.546875 27.40625 32.605469 27.890625 33.015625 28.757812 C 33.832031 30.492188 32.339844 32.238281 30.859375 32.980469 C 29.136719 33.847656 26.742188 34.078125 25.386719 32.445312 C 24.582031 31.480469 24.464844 30.019531 25.050781 28.945312 Z M 25.652344 43.867188 C 29.109375 41.984375 32.8125 40.597656 36.523438 39.316406 C 37.65625 38.921875 38.796875 38.546875 39.9375 38.167969 C 39.300781 37.382812 38.910156 36.429688 38.996094 35.394531 C 39.082031 34.375 39.515625 33.351562 40.332031 32.703125 C 41.125 32.066406 42.230469 31.648438 43.25 31.9375 C 43.953125 32.140625 44.511719 32.574219 44.953125 33.121094 C 45.046875 33.238281 45.136719 33.359375 45.21875 33.484375 C 46.007812 31.273438 46.890625 29.097656 48.003906 27.035156 C 48.003906 27.027344 48.007812 27.023438 48.011719 27.019531 C 48.078125 26.894531 48.144531 26.769531 48.214844 26.644531 C 48.175781 26.601562 48.121094 26.570312 48.046875 26.5625 C 48.039062 26.5625 48.027344 26.5625 48.019531 26.5625 C 44.496094 26.300781 40.964844 26.007812 37.429688 26.007812 C 34.167969 26.007812 30.828125 26.242188 27.710938 27.257812 C 27.699219 27.261719 27.683594 27.265625 27.671875 27.273438 C 27.609375 27.28125 27.550781 27.292969 27.488281 27.300781 C 27.425781 27.3125 27.378906 27.34375 27.351562 27.382812 C 24.710938 28.3125 22.367188 29.921875 20.816406 32.296875 C 18.710938 35.523438 18.398438 39.546875 18.585938 43.292969 C 18.691406 45.355469 18.746094 47.417969 18.609375 49.472656 C 18.773438 49.261719 18.945312 49.054688 19.117188 48.851562 C 20.90625 46.773438 23.277344 45.160156 25.652344 43.867188 " fill-opacity="1" fill-rule="nonzero"/><path fill="#96dbd7" d="M 65.933594 43.195312 C 64.457031 43.816406 63.03125 44.546875 61.636719 45.332031 C 62.007812 45.695312 62.371094 46.070312 62.722656 46.453125 C 62.941406 46.6875 63.15625 46.929688 63.367188 47.171875 C 64.769531 46.386719 66.160156 45.566406 67.613281 44.882812 C 67.074219 44.300781 66.511719 43.738281 65.933594 43.195312 " fill-opacity="1" fill-rule="nonzero"/><path fill="#96dbd7" d="M 59.664062 43.589844 C 59.78125 43.683594 59.894531 43.773438 60.011719 43.871094 C 60.101562 43.945312 60.191406 44.023438 60.28125 44.101562 C 60.378906 44.1875 60.480469 44.269531 60.582031 44.355469 C 60.636719 44.40625 60.6875 44.457031 60.742188 44.503906 C 60.875 44.621094 61.003906 44.738281 61.136719 44.855469 C 62.523438 44.070312 63.941406 43.339844 65.402344 42.707031 C 65.175781 42.503906 64.945312 42.304688 64.714844 42.105469 C 64.496094 41.925781 64.277344 41.742188 64.054688 41.566406 C 64.03125 41.542969 64 41.519531 63.972656 41.5 C 63.75 41.320312 63.527344 41.144531 63.296875 40.96875 C 63.292969 40.96875 63.289062 40.964844 63.285156 40.960938 C 61.738281 41.464844 60.230469 42.113281 58.835938 42.945312 C 59.035156 43.09375 59.234375 43.246094 59.429688 43.398438 C 59.507812 43.460938 59.585938 43.527344 59.664062 43.589844 " fill-opacity="1" fill-rule="nonzero"/><path fill="#96dbd7" d="M 62.636719 40.480469 C 62.59375 40.445312 62.546875 40.414062 62.5 40.382812 C 62.492188 40.375 62.484375 40.371094 62.480469 40.367188 C 62.339844 40.265625 62.199219 40.167969 62.058594 40.070312 C 62.039062 40.058594 62.019531 40.046875 62.003906 40.03125 C 61.875 39.945312 61.746094 39.859375 61.617188 39.773438 C 61.589844 39.753906 61.558594 39.734375 61.53125 39.71875 C 61.382812 39.617188 61.234375 39.519531 61.082031 39.421875 C 59.53125 40.054688 57.933594 40.585938 56.449219 41.355469 C 57.066406 41.722656 57.667969 42.109375 58.253906 42.523438 C 59.625 41.675781 61.113281 41.007812 62.636719 40.480469 " fill-opacity="1" fill-rule="nonzero"/><path fill="#96dbd7" d="M 72.042969 50.941406 C 72.003906 50.867188 71.960938 50.796875 71.921875 50.722656 C 71.855469 50.609375 71.789062 50.496094 71.722656 50.382812 C 71.695312 50.339844 71.667969 50.292969 71.640625 50.25 C 71.566406 50.125 71.492188 50.003906 71.417969 49.882812 C 71.402344 49.855469 71.382812 49.828125 71.367188 49.800781 C 69.800781 50.496094 68.304688 51.339844 66.796875 52.15625 C 66.867188 52.28125 66.933594 52.410156 67 52.535156 C 67.011719 52.5625 67.027344 52.585938 67.039062 52.609375 C 67.085938 52.703125 67.132812 52.796875 67.179688 52.890625 C 67.210938 52.953125 67.242188 53.011719 67.273438 53.074219 C 67.285156 53.097656 67.296875 53.121094 67.308594 53.144531 C 67.445312 53.429688 67.582031 53.71875 67.710938 54.007812 C 69.246094 53.148438 70.855469 52.425781 72.457031 51.695312 C 72.371094 51.53125 72.28125 51.367188 72.191406 51.203125 C 72.144531 51.117188 72.09375 51.03125 72.042969 50.941406 " fill-opacity="1" fill-rule="nonzero"/><path fill="#96dbd7" d="M 55.773438 40.96875 C 57.238281 40.160156 58.832031 39.617188 60.386719 38.996094 C 60.390625 38.996094 60.390625 38.996094 60.390625 38.996094 C 60.113281 38.828125 59.832031 38.667969 59.550781 38.511719 C 59.535156 38.503906 59.519531 38.496094 59.503906 38.488281 C 59.332031 38.390625 59.15625 38.296875 58.980469 38.203125 C 58.976562 38.203125 58.972656 38.199219 58.96875 38.199219 C 58.960938 38.195312 58.953125 38.191406 58.945312 38.1875 C 57.96875 38.5 57.046875 39.027344 56.175781 39.542969 C 55.691406 39.832031 55.210938 40.128906 54.722656 40.414062 C 54.878906 40.492188 55.035156 40.570312 55.191406 40.652344 C 55.386719 40.753906 55.582031 40.859375 55.773438 40.96875 " fill-opacity="1" fill-rule="nonzero"/><path fill="#96dbd7" d="M 70.550781 48.554688 C 70.527344 48.515625 70.5 48.476562 70.472656 48.4375 C 70.316406 48.214844 70.160156 47.996094 70 47.777344 C 68.464844 48.4375 66.953125 49.160156 65.527344 50.035156 C 65.558594 50.078125 65.589844 50.125 65.617188 50.171875 C 65.824219 50.488281 66.023438 50.808594 66.21875 51.132812 C 66.304688 51.28125 66.394531 51.429688 66.476562 51.578125 C 67.976562 50.769531 69.460938 49.941406 71.011719 49.242188 C 70.863281 49.011719 70.707031 48.78125 70.550781 48.554688 " fill-opacity="1" fill-rule="nonzero"/><path fill="#96dbd7" d="M 69.597656 47.238281 C 69.59375 47.234375 69.589844 47.230469 69.585938 47.226562 C 69.519531 47.136719 69.449219 47.050781 69.382812 46.964844 C 69.308594 46.867188 69.230469 46.769531 69.15625 46.675781 C 69.089844 46.59375 69.023438 46.511719 68.957031 46.429688 C 68.867188 46.320312 68.777344 46.210938 68.683594 46.101562 C 68.632812 46.039062 68.578125 45.972656 68.523438 45.910156 C 68.375 45.734375 68.226562 45.5625 68.074219 45.390625 C 66.789062 45.980469 65.558594 46.6875 64.328125 47.386719 C 64.152344 47.488281 63.972656 47.589844 63.796875 47.6875 C 64.027344 47.96875 64.25 48.25 64.46875 48.539062 C 64.476562 48.550781 64.484375 48.5625 64.496094 48.574219 C 64.503906 48.582031 64.511719 48.59375 64.515625 48.605469 C 64.738281 48.894531 64.949219 49.1875 65.15625 49.488281 C 66.570312 48.613281 68.070312 47.898438 69.597656 47.238281 " fill-opacity="1" fill-rule="nonzero"/><path fill="#96dbd7" d="M 47.152344 38.128906 C 47.21875 38.136719 47.285156 38.148438 47.355469 38.15625 C 47.417969 38.164062 47.480469 38.171875 47.542969 38.179688 C 47.800781 38.21875 48.0625 38.257812 48.320312 38.304688 C 49.011719 38.425781 49.695312 38.578125 50.371094 38.761719 C 51.5625 38.21875 52.730469 37.628906 53.921875 37.089844 C 54.320312 36.910156 54.71875 36.734375 55.125 36.570312 C 54.945312 36.511719 54.765625 36.457031 54.585938 36.40625 C 54.5625 36.398438 54.535156 36.390625 54.511719 36.382812 C 54.335938 36.332031 54.160156 36.285156 53.984375 36.238281 C 53.960938 36.230469 53.933594 36.222656 53.910156 36.21875 C 53.730469 36.171875 53.550781 36.125 53.367188 36.085938 C 53.355469 36.082031 53.339844 36.078125 53.324219 36.074219 C 53.144531 36.035156 52.964844 35.996094 52.785156 35.957031 C 52.773438 35.957031 52.765625 35.957031 52.757812 35.953125 C 50.707031 36.511719 48.714844 37.257812 46.761719 38.085938 C 46.871094 38.097656 46.984375 38.109375 47.09375 38.121094 C 47.113281 38.125 47.132812 38.128906 47.152344 38.128906 " fill-opacity="1" fill-rule="nonzero"/><path fill="#96dbd7" d="M 73.324219 73.308594 C 73.363281 73.222656 73.402344 73.132812 73.445312 73.046875 C 73.460938 73.007812 73.480469 72.96875 73.496094 72.929688 C 73.574219 72.765625 73.648438 72.597656 73.71875 72.433594 C 73.742188 72.382812 73.761719 72.335938 73.785156 72.285156 C 73.851562 72.125 73.921875 71.964844 73.988281 71.800781 C 74.007812 71.75 74.03125 71.699219 74.050781 71.644531 C 74.136719 71.4375 74.21875 71.226562 74.296875 71.015625 C 72.476562 71.675781 70.644531 72.324219 68.929688 73.207031 C 68.878906 73.410156 68.832031 73.613281 68.78125 73.8125 C 68.628906 74.417969 68.46875 75.019531 68.296875 75.621094 C 69.582031 74.859375 70.960938 74.253906 72.355469 73.691406 C 72.675781 73.5625 72.996094 73.4375 73.320312 73.3125 C 73.320312 73.3125 73.320312 73.3125 73.324219 73.308594 " fill-opacity="1" fill-rule="nonzero"/><path fill="#96dbd7" d="M 72.167969 75.574219 C 72.171875 75.570312 72.171875 75.566406 72.175781 75.5625 C 72.289062 75.351562 72.402344 75.144531 72.511719 74.929688 C 72.527344 74.898438 72.542969 74.867188 72.5625 74.835938 C 72.675781 74.617188 72.789062 74.398438 72.898438 74.175781 C 71.207031 74.84375 69.53125 75.570312 68.023438 76.554688 C 67.9375 76.84375 67.847656 77.132812 67.753906 77.421875 C 67.742188 77.460938 67.730469 77.5 67.71875 77.539062 C 67.617188 77.867188 67.511719 78.195312 67.402344 78.519531 C 67.785156 78.253906 68.175781 78 68.570312 77.753906 C 69.757812 77.003906 70.980469 76.316406 72.167969 75.574219 " fill-opacity="1" fill-rule="nonzero"/><path fill="#96dbd7" d="M 70.632812 77.269531 C 69.40625 77.996094 68.179688 78.730469 67.042969 79.589844 C 66.878906 80.070312 66.710938 80.550781 66.539062 81.027344 C 66.945312 80.65625 67.351562 80.285156 67.753906 79.910156 C 68.714844 79.027344 69.671875 78.140625 70.632812 77.269531 " fill-opacity="1" fill-rule="nonzero"/><path fill="#96dbd7" d="M 73.605469 54.121094 C 73.53125 53.941406 73.453125 53.761719 73.375 53.582031 C 73.355469 53.539062 73.335938 53.496094 73.316406 53.453125 C 73.246094 53.296875 73.175781 53.144531 73.101562 52.988281 C 73.085938 52.949219 73.066406 52.914062 73.046875 52.875 C 72.964844 52.699219 72.878906 52.527344 72.792969 52.351562 C 72.78125 52.328125 72.769531 52.304688 72.757812 52.28125 C 71.140625 53.015625 69.519531 53.75 67.972656 54.621094 C 68.242188 55.265625 68.484375 55.917969 68.703125 56.582031 C 70.359375 55.824219 72.152344 55.339844 73.890625 54.820312 C 73.816406 54.628906 73.738281 54.441406 73.660156 54.25 C 73.640625 54.207031 73.625 54.164062 73.605469 54.121094 " fill-opacity="1" fill-rule="nonzero"/><path fill="#96dbd7" d="M 75.191406 68.027344 C 73.335938 68.808594 71.472656 69.582031 69.542969 70.144531 C 69.515625 70.3125 69.488281 70.484375 69.457031 70.652344 C 69.453125 70.667969 69.453125 70.6875 69.449219 70.703125 C 69.414062 70.890625 69.378906 71.078125 69.34375 71.261719 C 69.339844 71.300781 69.332031 71.335938 69.324219 71.371094 C 69.292969 71.519531 69.265625 71.671875 69.234375 71.820312 C 69.230469 71.851562 69.222656 71.878906 69.214844 71.910156 C 69.183594 72.0625 69.152344 72.21875 69.117188 72.371094 C 70.875 71.519531 72.742188 70.882812 74.578125 70.210938 C 74.820312 69.496094 75.027344 68.769531 75.191406 68.027344 " fill-opacity="1" fill-rule="nonzero"/><path fill="#96dbd7" d="M 49.871094 35.601562 C 49.71875 35.597656 49.566406 35.589844 49.414062 35.589844 C 49.355469 35.589844 49.308594 35.570312 49.273438 35.542969 C 48.371094 35.714844 47.472656 35.933594 46.585938 36.199219 C 46.558594 36.234375 46.523438 36.269531 46.472656 36.289062 C 45.058594 36.886719 43.613281 37.417969 42.160156 37.921875 C 43.230469 37.902344 44.300781 37.910156 45.367188 37.972656 C 45.605469 37.867188 45.847656 37.761719 46.089844 37.65625 C 46.507812 37.476562 46.933594 37.296875 47.355469 37.125 C 48.628906 36.605469 49.921875 36.125 51.230469 35.710938 C 50.78125 35.660156 50.328125 35.621094 49.871094 35.601562 " fill-opacity="1" fill-rule="nonzero"/><path fill="#96dbd7" d="M 53.425781 39.820312 C 53.621094 39.902344 53.8125 39.988281 54.003906 40.074219 C 55.375 39.300781 56.6875 38.359375 58.128906 37.78125 C 58.128906 37.777344 58.132812 37.777344 58.132812 37.777344 C 58.070312 37.75 58.007812 37.71875 57.945312 37.691406 C 57.882812 37.660156 57.816406 37.628906 57.753906 37.601562 C 57.632812 37.546875 57.511719 37.492188 57.390625 37.4375 C 57.328125 37.410156 57.261719 37.382812 57.195312 37.351562 C 57.070312 37.296875 56.941406 37.246094 56.8125 37.191406 C 56.753906 37.167969 56.699219 37.144531 56.640625 37.121094 C 56.457031 37.046875 56.269531 36.972656 56.082031 36.902344 C 54.449219 37.503906 52.894531 38.296875 51.316406 39.039062 C 52.007812 39.257812 52.6875 39.507812 53.355469 39.789062 C 53.378906 39.800781 53.402344 39.8125 53.425781 39.820312 " fill-opacity="1" fill-rule="nonzero"/><path fill="#96dbd7" d="M 69.984375 65.804688 C 71.839844 64.890625 73.726562 64.027344 75.644531 63.246094 C 75.644531 63.246094 75.648438 63.246094 75.648438 63.246094 C 75.648438 63.230469 75.644531 63.214844 75.644531 63.203125 C 75.640625 63.023438 75.636719 62.847656 75.625 62.671875 C 75.625 62.628906 75.621094 62.585938 75.621094 62.542969 C 75.613281 62.386719 75.601562 62.230469 75.589844 62.070312 C 75.585938 62.042969 75.585938 62.011719 75.582031 61.980469 C 75.570312 61.800781 75.554688 61.625 75.535156 61.445312 C 75.53125 61.402344 75.523438 61.359375 75.519531 61.316406 C 75.5 61.132812 75.480469 60.953125 75.457031 60.769531 C 73.65625 61.726562 71.820312 62.605469 69.972656 63.46875 C 70 64.050781 70.011719 64.632812 70 65.222656 C 69.996094 65.417969 69.988281 65.609375 69.984375 65.804688 " fill-opacity="1" fill-rule="nonzero"/><path fill="#96dbd7" d="M 75.417969 66.820312 C 75.5625 65.867188 75.640625 64.914062 75.652344 63.957031 C 73.714844 64.746094 71.820312 65.625 69.945312 66.558594 C 69.941406 66.644531 69.933594 66.730469 69.929688 66.820312 C 69.90625 67.125 69.882812 67.425781 69.851562 67.730469 C 69.84375 67.820312 69.839844 67.90625 69.828125 67.996094 C 69.816406 68.105469 69.804688 68.214844 69.792969 68.328125 C 69.777344 68.453125 69.765625 68.582031 69.746094 68.710938 C 69.738281 68.792969 69.726562 68.871094 69.714844 68.953125 C 69.695312 69.109375 69.675781 69.265625 69.652344 69.421875 C 71.59375 68.832031 73.472656 68.042969 75.34375 67.25 C 75.371094 67.109375 75.394531 66.964844 75.417969 66.820312 " fill-opacity="1" fill-rule="nonzero"/><path fill="#96dbd7" d="M 75.292969 59.734375 C 75.273438 59.617188 75.25 59.503906 75.230469 59.386719 C 75.214844 59.320312 75.203125 59.253906 75.191406 59.191406 C 75.164062 59.066406 75.140625 58.945312 75.113281 58.820312 C 75.101562 58.765625 75.089844 58.707031 75.074219 58.652344 C 75.035156 58.472656 74.992188 58.296875 74.949219 58.117188 C 73.140625 58.765625 71.386719 59.566406 69.632812 60.355469 C 69.65625 60.488281 69.675781 60.621094 69.695312 60.753906 C 69.707031 60.820312 69.71875 60.886719 69.726562 60.953125 C 69.742188 61.058594 69.757812 61.167969 69.769531 61.273438 C 69.785156 61.367188 69.796875 61.460938 69.808594 61.550781 C 69.820312 61.640625 69.828125 61.734375 69.839844 61.824219 C 69.851562 61.933594 69.863281 62.046875 69.875 62.15625 C 69.894531 62.355469 69.914062 62.558594 69.929688 62.761719 C 71.757812 61.90625 73.574219 61.03125 75.351562 60.074219 C 75.34375 60.027344 75.335938 59.984375 75.328125 59.941406 C 75.316406 59.871094 75.304688 59.804688 75.292969 59.734375 " fill-opacity="1" fill-rule="nonzero"/><path fill="#96dbd7" d="M 86.398438 38.984375 C 86.253906 40.511719 84.4375 41.148438 83.109375 40.847656 C 81.890625 40.566406 80.984375 39.390625 81.042969 38.125 C 81.113281 36.710938 82.253906 35.957031 83.59375 36.019531 C 83.613281 36.019531 83.632812 36.015625 83.65625 36.019531 C 83.746094 36.03125 83.839844 36.039062 83.929688 36.054688 C 85.300781 36.308594 86.539062 37.511719 86.398438 38.984375 Z M 87.320312 46.496094 C 87.648438 47.179688 87.511719 48.050781 87.066406 48.648438 C 86.605469 49.269531 85.824219 49.554688 85.085938 49.65625 C 83.589844 49.863281 81.402344 49.269531 80.796875 47.71875 C 80.5 46.953125 80.617188 46.015625 81.226562 45.425781 C 81.835938 44.835938 82.628906 44.660156 83.453125 44.769531 C 83.453125 44.769531 83.457031 44.769531 83.460938 44.769531 C 84.804688 44.851562 86.664062 45.132812 87.320312 46.496094 Z M 93.089844 33.695312 C 93.074219 33.65625 93.046875 33.621094 93.011719 33.597656 C 92.964844 33.566406 92.902344 33.558594 92.828125 33.585938 C 92.664062 33.648438 92.5 33.707031 92.332031 33.761719 C 92.5 33.308594 92.609375 32.847656 92.667969 32.371094 C 92.570312 32.378906 92.46875 32.378906 92.378906 32.378906 C 92.3125 32.378906 92.253906 32.375 92.199219 32.375 C 92.199219 32.375 92.199219 32.375 92.195312 32.375 C 92.128906 32.863281 92 33.335938 91.816406 33.796875 C 91.800781 33.839844 91.796875 33.878906 91.800781 33.910156 C 91.527344 33.980469 91.25 34.039062 90.96875 34.082031 C 91.046875 33.488281 91.15625 32.902344 91.292969 32.320312 C 91.292969 32.316406 91.292969 32.316406 91.292969 32.316406 C 91.136719 32.304688 90.976562 32.289062 90.820312 32.269531 C 90.820312 32.273438 90.820312 32.273438 90.820312 32.273438 C 90.675781 32.890625 90.570312 33.515625 90.488281 34.144531 C 90.488281 34.144531 90.488281 34.144531 90.488281 34.148438 C 90.164062 34.183594 89.839844 34.203125 89.515625 34.210938 C 89.585938 33.519531 89.828125 32.855469 89.902344 32.160156 C 89.902344 32.160156 89.902344 32.160156 89.902344 32.15625 C 89.746094 32.136719 89.589844 32.113281 89.4375 32.089844 C 89.4375 32.09375 89.4375 32.09375 89.4375 32.09375 C 89.375 32.8125 89.113281 33.496094 89.042969 34.214844 C 88.746094 34.210938 88.445312 34.195312 88.148438 34.171875 C 88.328125 33.4375 88.554688 32.71875 88.667969 31.972656 C 88.667969 31.972656 88.667969 31.96875 88.667969 31.96875 C 88.515625 31.945312 88.363281 31.917969 88.207031 31.890625 C 88.101562 32.652344 87.855469 33.382812 87.675781 34.125 C 87.296875 34.082031 86.921875 34.019531 86.546875 33.949219 C 86.769531 33.21875 87.042969 32.503906 87.179688 31.75 C 87.183594 31.730469 87.183594 31.714844 87.183594 31.695312 C 87.03125 31.664062 86.882812 31.632812 86.730469 31.601562 C 86.726562 31.609375 86.726562 31.617188 86.722656 31.625 C 86.585938 32.390625 86.308594 33.113281 86.085938 33.855469 C 85.816406 33.792969 85.550781 33.726562 85.289062 33.65625 C 85.269531 33.644531 85.257812 33.628906 85.238281 33.617188 C 85.214844 33.59375 85.195312 33.570312 85.183594 33.546875 C 85.015625 33.507812 84.847656 33.464844 84.679688 33.421875 C 84.675781 33.417969 84.671875 33.417969 84.667969 33.417969 C 84.886719 32.699219 85.152344 31.992188 85.488281 31.320312 C 85.488281 31.316406 85.488281 31.316406 85.488281 31.316406 C 85.335938 31.277344 85.179688 31.234375 85.023438 31.195312 C 84.695312 31.871094 84.429688 32.574219 84.214844 33.289062 C 84.128906 33.265625 84.046875 33.238281 83.964844 33.214844 C 83.945312 33.207031 83.921875 33.203125 83.902344 33.195312 C 83.820312 33.167969 83.738281 33.140625 83.65625 33.113281 C 83.636719 33.109375 83.621094 33.101562 83.601562 33.097656 C 83.515625 33.066406 83.429688 33.035156 83.34375 33.007812 C 83.335938 33.003906 83.324219 33 83.316406 32.996094 C 83.226562 32.964844 83.136719 32.929688 83.046875 32.894531 C 83.042969 32.894531 83.042969 32.894531 83.039062 32.890625 C 83.234375 32.1875 83.652344 31.589844 84.007812 30.960938 C 83.847656 30.929688 83.6875 30.898438 83.523438 30.859375 C 83.175781 31.460938 82.796875 32.039062 82.601562 32.714844 C 82.589844 32.710938 82.582031 32.707031 82.574219 32.703125 C 82.472656 32.660156 82.371094 32.613281 82.273438 32.566406 C 82.273438 32.566406 82.269531 32.566406 82.269531 32.566406 C 82.160156 32.515625 82.054688 32.464844 81.949219 32.414062 C 81.945312 32.410156 81.945312 32.410156 81.945312 32.410156 C 81.839844 32.359375 81.738281 32.304688 81.636719 32.253906 C 81.625 32.246094 81.609375 32.238281 81.597656 32.230469 C 81.503906 32.179688 81.40625 32.128906 81.316406 32.074219 C 81.3125 32.074219 81.3125 32.070312 81.308594 32.070312 C 81.605469 31.484375 82.0625 30.992188 82.496094 30.492188 C 82.476562 30.480469 82.453125 30.472656 82.433594 30.460938 C 82.332031 30.402344 82.207031 30.332031 82.085938 30.246094 C 81.65625 30.75 81.214844 31.246094 80.910156 31.828125 C 80.820312 31.769531 80.730469 31.710938 80.640625 31.648438 C 80.617188 31.632812 80.59375 31.617188 80.566406 31.597656 C 80.5 31.550781 80.429688 31.5 80.363281 31.449219 C 80.351562 31.441406 80.335938 31.429688 80.324219 31.421875 C 80.539062 30.988281 80.855469 30.621094 81.171875 30.253906 C 81.320312 30.085938 81.457031 29.878906 81.613281 29.691406 C 81.601562 29.648438 81.59375 29.601562 81.59375 29.550781 C 81.59375 29.53125 81.597656 29.511719 81.601562 29.488281 C 81.621094 29.363281 81.660156 29.242188 81.71875 29.132812 C 81.726562 29.113281 81.738281 29.097656 81.75 29.078125 C 81.804688 28.988281 81.875 28.902344 81.953125 28.828125 C 81.921875 28.832031 81.894531 28.839844 81.863281 28.855469 C 81.386719 29.101562 81.082031 29.636719 80.738281 30.039062 C 80.34375 30.5 79.980469 30.957031 79.761719 31.53125 C 79.75 31.554688 79.746094 31.578125 79.746094 31.601562 C 79.738281 31.609375 79.734375 31.621094 79.726562 31.628906 C 79.695312 31.675781 79.664062 31.71875 79.632812 31.761719 C 79.609375 31.800781 79.582031 31.839844 79.558594 31.878906 C 79.535156 31.914062 79.511719 31.949219 79.492188 31.988281 C 79.457031 32.039062 79.425781 32.09375 79.394531 32.148438 C 79.382812 32.167969 79.371094 32.1875 79.359375 32.210938 C 79.167969 32.546875 79.007812 32.902344 78.878906 33.269531 C 78.875 33.277344 78.875 33.28125 78.871094 33.289062 C 78.847656 33.359375 78.824219 33.433594 78.800781 33.507812 C 78.796875 33.519531 78.792969 33.53125 78.789062 33.542969 C 78.765625 33.617188 78.746094 33.691406 78.726562 33.769531 C 78.722656 33.78125 78.71875 33.792969 78.714844 33.808594 C 78.695312 33.882812 78.679688 33.957031 78.660156 34.03125 C 78.660156 34.046875 78.65625 34.0625 78.652344 34.078125 C 78.636719 34.148438 78.621094 34.222656 78.609375 34.292969 C 78.605469 34.3125 78.601562 34.332031 78.597656 34.351562 C 78.585938 34.417969 78.574219 34.488281 78.566406 34.5625 C 78.5625 34.582031 78.558594 34.605469 78.554688 34.625 C 78.546875 34.695312 78.539062 34.765625 78.53125 34.832031 C 78.53125 34.859375 78.527344 34.882812 78.523438 34.90625 C 78.515625 34.976562 78.511719 35.046875 78.507812 35.117188 C 78.507812 35.140625 78.503906 35.164062 78.503906 35.1875 C 78.496094 35.285156 78.496094 35.378906 78.492188 35.472656 C 78.488281 35.609375 78.488281 35.742188 78.492188 35.878906 C 78.492188 35.890625 78.492188 35.902344 78.492188 35.914062 C 78.496094 36.039062 78.5 36.167969 78.503906 36.292969 C 78.550781 37.53125 78.730469 38.761719 78.808594 39.996094 C 78.8125 40.097656 78.820312 40.195312 78.824219 40.296875 C 78.824219 40.316406 78.824219 40.335938 78.828125 40.355469 C 78.832031 40.441406 78.832031 40.527344 78.835938 40.617188 C 78.839844 40.664062 78.839844 40.710938 78.839844 40.757812 C 78.839844 40.820312 78.84375 40.882812 78.84375 40.945312 C 78.84375 41.058594 78.84375 41.175781 78.839844 41.289062 C 78.789062 44.355469 78.742188 47.417969 78.535156 50.480469 C 78.375 52.871094 78.191406 55.269531 77.957031 57.65625 C 77.945312 57.753906 77.890625 57.820312 77.820312 57.855469 C 77.902344 58.773438 77.921875 59.699219 77.871094 60.632812 C 77.722656 63.246094 77.164062 65.878906 76.410156 68.378906 C 75.660156 70.863281 74.65625 73.285156 73.25 75.472656 C 73.253906 75.53125 73.230469 75.589844 73.171875 75.644531 C 73.078125 75.726562 72.980469 75.8125 72.886719 75.894531 C 72.882812 75.894531 72.878906 75.898438 72.878906 75.902344 C 70.816406 77.699219 68.816406 79.574219 66.792969 81.417969 C 68.960938 82.015625 71.160156 82.480469 73.375 82.84375 C 75.730469 83.230469 78.148438 83.5625 80.542969 83.507812 C 82.1875 83.472656 83.882812 83.144531 85.25 82.175781 C 86.378906 81.371094 87.195312 80.207031 87.707031 78.929688 C 88.921875 75.882812 88.910156 72.449219 88.941406 69.222656 C 88.957031 67.582031 88.949219 65.9375 89.054688 64.300781 C 89.183594 62.28125 89.421875 60.273438 89.695312 58.269531 C 90.289062 53.890625 91.066406 49.445312 90.734375 45.011719 C 90.574219 42.902344 90.160156 40.777344 89.273438 38.84375 C 89.21875 38.726562 89.164062 38.609375 89.105469 38.492188 C 89.085938 38.453125 89.066406 38.414062 89.046875 38.375 C 89.007812 38.300781 88.96875 38.222656 88.929688 38.148438 C 88.90625 38.101562 88.878906 38.054688 88.855469 38.007812 C 88.820312 37.941406 88.78125 37.875 88.746094 37.808594 C 88.71875 37.757812 88.691406 37.710938 88.660156 37.660156 C 88.625 37.601562 88.589844 37.539062 88.554688 37.476562 C 88.523438 37.425781 88.492188 37.375 88.460938 37.324219 C 88.425781 37.265625 88.390625 37.210938 88.355469 37.15625 C 88.273438 37.027344 88.191406 36.894531 88.105469 36.769531 C 88.089844 36.75 88.078125 36.730469 88.0625 36.710938 C 88.015625 36.640625 87.96875 36.570312 87.917969 36.503906 C 87.894531 36.472656 87.875 36.4375 87.847656 36.40625 C 87.800781 36.335938 87.746094 36.265625 87.695312 36.199219 C 87.675781 36.167969 87.652344 36.140625 87.632812 36.113281 C 87.578125 36.039062 87.519531 35.96875 87.464844 35.898438 C 87.449219 35.875 87.429688 35.855469 87.414062 35.835938 C 87.351562 35.757812 87.289062 35.679688 87.226562 35.601562 C 87.222656 35.601562 87.222656 35.597656 87.222656 35.597656 C 86.851562 35.152344 86.453125 34.730469 86.035156 34.328125 C 86.035156 34.328125 86.035156 34.328125 86.035156 34.324219 C 86.070312 34.335938 86.109375 34.34375 86.148438 34.351562 C 86.179688 34.363281 86.214844 34.371094 86.246094 34.371094 C 86.726562 34.46875 87.214844 34.550781 87.707031 34.605469 C 87.785156 34.664062 87.894531 34.679688 87.976562 34.632812 C 88.375 34.667969 88.777344 34.6875 89.175781 34.691406 C 89.226562 34.707031 89.285156 34.707031 89.335938 34.6875 C 90.578125 34.679688 91.8125 34.484375 92.957031 34.039062 C 93.109375 33.980469 93.140625 33.816406 93.089844 33.695312 " fill-opacity="1" fill-rule="nonzero"/><path fill="#57b5a8" d="M 27.148438 80.773438 C 24.96875 78.320312 22.160156 73.203125 21.449219 69.5 C 20.371094 63.898438 21.195312 56.273438 25.539062 52.769531 C 28.503906 50.382812 33.0625 48.898438 37.4375 48.898438 C 38.972656 48.898438 40.523438 49.214844 42.039062 49.769531 C 46.882812 50.777344 51.589844 54.941406 54.070312 59.066406 C 55.507812 61.457031 56.328125 64.1875 56.464844 67.011719 C 56.605469 67.949219 56.675781 68.902344 56.675781 69.863281 C 56.675781 76.4375 53.441406 82.429688 48.023438 85.894531 C 46.640625 86.777344 44.703125 87.207031 42.105469 87.207031 C 40.460938 87.207031 38.777344 87.035156 37.347656 86.867188 C 35.195312 86.613281 30.707031 84.78125 27.148438 80.773438 Z M 42.105469 88.058594 C 44.871094 88.058594 46.957031 87.585938 48.480469 86.609375 C 51.191406 84.875 53.460938 82.445312 55.039062 79.585938 C 56.664062 76.636719 57.523438 73.277344 57.523438 69.863281 C 57.523438 66.140625 56.511719 62.515625 54.59375 59.378906 C 51.152344 53.75 44.15625 48.050781 37.4375 48.050781 C 32.808594 48.050781 28.164062 49.566406 25.007812 52.109375 C 22.898438 53.808594 21.398438 56.527344 20.660156 59.972656 C 20.011719 63.003906 19.996094 66.445312 20.613281 69.660156 C 21.351562 73.5 24.261719 78.800781 26.511719 81.335938 C 30.226562 85.523438 34.96875 87.441406 37.25 87.710938 C 38.703125 87.882812 40.417969 88.058594 42.105469 88.058594 " fill-opacity="1" fill-rule="nonzero"/><path fill="#57b5a8" d="M 90.488281 34.144531 C 90.570312 33.515625 90.675781 32.890625 90.820312 32.273438 C 90.605469 32.25 90.394531 32.226562 90.179688 32.199219 C 90.089844 32.1875 89.996094 32.171875 89.902344 32.160156 C 89.828125 32.855469 89.585938 33.519531 89.515625 34.210938 C 89.839844 34.203125 90.164062 34.183594 90.488281 34.148438 C 90.488281 34.144531 90.488281 34.144531 90.488281 34.144531 " fill-opacity="1" fill-rule="nonzero"/><path fill="#57b5a8" d="M 93.011719 33.597656 C 93.375 33.039062 93.519531 32.324219 93.574219 31.664062 C 93.550781 31.792969 93.496094 31.925781 93.421875 32.054688 C 93.347656 32.183594 93.207031 32.261719 93.046875 32.308594 C 92.929688 32.34375 92.796875 32.359375 92.667969 32.371094 C 92.609375 32.847656 92.5 33.308594 92.332031 33.761719 C 92.5 33.707031 92.664062 33.648438 92.828125 33.585938 C 92.902344 33.558594 92.964844 33.566406 93.011719 33.597656 " fill-opacity="1" fill-rule="nonzero"/><path fill="#57b5a8" d="M 91.816406 33.796875 C 92 33.335938 92.128906 32.863281 92.195312 32.375 C 92.1875 32.375 92.179688 32.375 92.171875 32.375 C 91.878906 32.363281 91.585938 32.34375 91.292969 32.320312 C 91.15625 32.902344 91.046875 33.488281 90.96875 34.082031 C 91.25 34.039062 91.527344 33.980469 91.800781 33.910156 C 91.796875 33.878906 91.800781 33.839844 91.816406 33.796875 " fill-opacity="1" fill-rule="nonzero"/><path fill="#57b5a8" d="M 87.675781 34.125 C 87.855469 33.382812 88.101562 32.652344 88.207031 31.890625 C 87.867188 31.832031 87.523438 31.765625 87.183594 31.695312 C 87.183594 31.714844 87.183594 31.730469 87.179688 31.75 C 87.042969 32.503906 86.769531 33.21875 86.546875 33.949219 C 86.921875 34.019531 87.296875 34.082031 87.675781 34.125 " fill-opacity="1" fill-rule="nonzero"/><path fill="#57b5a8" d="M 81.945312 32.410156 C 81.945312 32.410156 81.945312 32.410156 81.949219 32.414062 C 82.054688 32.464844 82.160156 32.515625 82.269531 32.566406 C 82.269531 32.566406 82.273438 32.566406 82.273438 32.566406 C 82.382812 32.617188 82.492188 32.667969 82.601562 32.714844 C 82.796875 32.039062 83.175781 31.460938 83.523438 30.859375 C 83.167969 30.777344 82.816406 30.664062 82.496094 30.492188 C 82.0625 30.992188 81.605469 31.484375 81.308594 32.070312 C 81.515625 32.191406 81.726562 32.304688 81.945312 32.410156 " fill-opacity="1" fill-rule="nonzero"/><path fill="#57b5a8" d="M 83.316406 32.996094 C 83.324219 33 83.335938 33.003906 83.34375 33.007812 C 83.429688 33.035156 83.515625 33.066406 83.601562 33.097656 C 83.621094 33.101562 83.636719 33.109375 83.65625 33.113281 C 83.738281 33.140625 83.820312 33.167969 83.902344 33.195312 C 83.921875 33.203125 83.945312 33.207031 83.964844 33.214844 C 84.046875 33.242188 84.128906 33.265625 84.214844 33.292969 C 84.429688 32.574219 84.695312 31.871094 85.023438 31.195312 C 84.695312 31.109375 84.367188 31.027344 84.039062 30.964844 C 84.027344 30.964844 84.019531 30.960938 84.007812 30.960938 C 83.652344 31.589844 83.234375 32.1875 83.039062 32.894531 C 83.132812 32.929688 83.222656 32.960938 83.316406 32.996094 " fill-opacity="1" fill-rule="nonzero"/><path fill="#57b5a8" d="M 85.183594 33.546875 C 85.195312 33.570312 85.214844 33.59375 85.238281 33.617188 C 85.257812 33.628906 85.269531 33.644531 85.289062 33.65625 C 85.550781 33.726562 85.816406 33.792969 86.085938 33.855469 C 86.308594 33.113281 86.585938 32.390625 86.722656 31.625 C 86.726562 31.617188 86.726562 31.609375 86.730469 31.601562 C 86.488281 31.550781 86.246094 31.5 86.007812 31.445312 C 85.835938 31.40625 85.660156 31.363281 85.488281 31.320312 C 85.152344 31.992188 84.886719 32.699219 84.667969 33.417969 C 84.839844 33.464844 85.011719 33.507812 85.183594 33.546875 " fill-opacity="1" fill-rule="nonzero"/><path fill="#57b5a8" d="M 81.621094 29.730469 C 81.617188 29.71875 81.617188 29.707031 81.613281 29.691406 C 81.457031 29.878906 81.320312 30.085938 81.171875 30.253906 C 80.855469 30.621094 80.539062 30.988281 80.320312 31.421875 C 80.511719 31.5625 80.707031 31.699219 80.910156 31.828125 C 81.214844 31.246094 81.65625 30.75 82.085938 30.246094 C 81.886719 30.109375 81.691406 29.9375 81.621094 29.730469 " fill-opacity="1" fill-rule="nonzero"/><path fill="#57b5a8" d="M 89.042969 34.214844 C 89.113281 33.496094 89.375 32.8125 89.4375 32.09375 C 89.179688 32.054688 88.925781 32.015625 88.667969 31.972656 C 88.554688 32.71875 88.328125 33.4375 88.148438 34.171875 C 88.445312 34.195312 88.746094 34.210938 89.042969 34.214844 " fill-opacity="1" fill-rule="nonzero"/><g clip-path="url(#2c85f5052f)"><path fill="#57b5a8" d="M 67.042969 79.589844 C 68.179688 78.730469 69.40625 77.996094 70.632812 77.269531 C 69.269531 78.507812 67.910156 79.773438 66.539062 81.027344 C 66.710938 80.550781 66.878906 80.070312 67.042969 79.589844 Z M 66.21875 51.132812 C 66.023438 50.808594 65.824219 50.488281 65.617188 50.171875 C 65.589844 50.125 65.558594 50.078125 65.527344 50.03125 C 65.527344 50.03125 65.527344 50.035156 65.527344 50.035156 C 66.953125 49.160156 68.464844 48.4375 70 47.777344 C 70.160156 47.996094 70.316406 48.214844 70.472656 48.4375 C 70.5 48.476562 70.527344 48.515625 70.550781 48.554688 C 70.707031 48.78125 70.859375 49.011719 71.011719 49.242188 C 69.460938 49.941406 67.976562 50.773438 66.476562 51.578125 C 66.394531 51.429688 66.304688 51.28125 66.21875 51.132812 Z M 64.515625 48.605469 C 64.511719 48.59375 64.503906 48.582031 64.496094 48.574219 C 64.484375 48.5625 64.476562 48.550781 64.46875 48.539062 C 64.25 48.25 64.027344 47.964844 63.796875 47.6875 C 63.972656 47.589844 64.152344 47.488281 64.328125 47.386719 C 65.558594 46.6875 66.789062 45.980469 68.074219 45.390625 C 68.226562 45.5625 68.375 45.734375 68.523438 45.910156 C 68.578125 45.972656 68.632812 46.039062 68.683594 46.101562 C 68.777344 46.210938 68.867188 46.320312 68.957031 46.429688 C 69.023438 46.511719 69.089844 46.59375 69.15625 46.675781 C 69.230469 46.769531 69.308594 46.867188 69.382812 46.964844 C 69.449219 47.050781 69.519531 47.136719 69.585938 47.226562 C 69.589844 47.230469 69.59375 47.234375 69.597656 47.238281 C 68.070312 47.898438 66.570312 48.613281 65.15625 49.488281 C 64.949219 49.1875 64.738281 48.894531 64.515625 48.605469 Z M 62.722656 46.453125 C 62.371094 46.070312 62.007812 45.695312 61.636719 45.332031 C 63.03125 44.546875 64.457031 43.816406 65.933594 43.195312 C 66.511719 43.738281 67.074219 44.300781 67.613281 44.882812 C 66.160156 45.566406 64.769531 46.386719 63.367188 47.171875 C 63.15625 46.929688 62.941406 46.6875 62.722656 46.453125 Z M 60.742188 44.503906 C 60.6875 44.457031 60.636719 44.40625 60.582031 44.355469 C 60.480469 44.269531 60.378906 44.1875 60.28125 44.101562 C 60.191406 44.023438 60.101562 43.945312 60.011719 43.871094 C 59.894531 43.773438 59.78125 43.683594 59.664062 43.589844 C 59.585938 43.527344 59.507812 43.460938 59.429688 43.398438 C 59.230469 43.246094 59.035156 43.09375 58.832031 42.941406 C 58.835938 42.945312 58.835938 42.945312 58.835938 42.945312 C 60.230469 42.113281 61.738281 41.464844 63.285156 40.960938 C 63.289062 40.964844 63.292969 40.96875 63.296875 40.96875 C 63.527344 41.144531 63.75 41.320312 63.972656 41.5 C 64 41.519531 64.03125 41.542969 64.054688 41.566406 C 64.277344 41.742188 64.496094 41.925781 64.714844 42.105469 C 64.945312 42.304688 65.175781 42.503906 65.402344 42.707031 C 63.941406 43.339844 62.523438 44.070312 61.136719 44.855469 C 61.136719 44.859375 61.136719 44.859375 61.136719 44.859375 C 61.007812 44.738281 60.875 44.621094 60.742188 44.503906 Z M 56.449219 41.355469 C 57.933594 40.585938 59.53125 40.054688 61.082031 39.421875 C 61.234375 39.519531 61.382812 39.617188 61.53125 39.71875 C 61.558594 39.734375 61.589844 39.753906 61.617188 39.773438 C 61.746094 39.859375 61.875 39.945312 62.003906 40.03125 C 62.019531 40.046875 62.039062 40.058594 62.058594 40.070312 C 62.199219 40.167969 62.339844 40.265625 62.480469 40.367188 C 62.484375 40.371094 62.492188 40.375 62.5 40.382812 C 62.546875 40.414062 62.59375 40.445312 62.636719 40.480469 C 61.113281 41.007812 59.625 41.675781 58.253906 42.523438 C 57.667969 42.109375 57.066406 41.722656 56.449219 41.355469 Z M 55.191406 40.652344 C 55.03125 40.570312 54.871094 40.488281 54.710938 40.410156 C 54.714844 40.410156 54.71875 40.414062 54.722656 40.414062 C 55.210938 40.128906 55.691406 39.832031 56.175781 39.542969 C 57.046875 39.027344 57.96875 38.5 58.945312 38.1875 C 58.953125 38.191406 58.960938 38.195312 58.96875 38.199219 C 58.972656 38.199219 58.976562 38.203125 58.980469 38.203125 C 59.15625 38.296875 59.332031 38.390625 59.503906 38.488281 C 59.519531 38.496094 59.535156 38.503906 59.550781 38.511719 C 59.832031 38.667969 60.113281 38.828125 60.390625 38.996094 C 60.390625 38.996094 60.390625 38.996094 60.386719 38.996094 C 58.832031 39.617188 57.238281 40.160156 55.773438 40.96875 C 55.582031 40.859375 55.386719 40.753906 55.191406 40.652344 Z M 53.425781 39.820312 C 53.402344 39.8125 53.378906 39.800781 53.355469 39.789062 C 52.683594 39.507812 52 39.257812 51.308594 39.039062 C 51.3125 39.039062 51.316406 39.039062 51.316406 39.039062 C 52.894531 38.296875 54.449219 37.503906 56.082031 36.902344 C 56.269531 36.972656 56.457031 37.046875 56.640625 37.121094 C 56.699219 37.144531 56.753906 37.167969 56.8125 37.191406 C 56.941406 37.246094 57.070312 37.296875 57.195312 37.351562 C 57.261719 37.382812 57.328125 37.410156 57.390625 37.4375 C 57.511719 37.492188 57.632812 37.546875 57.753906 37.601562 C 57.816406 37.628906 57.882812 37.660156 57.945312 37.691406 C 58.007812 37.71875 58.070312 37.75 58.132812 37.777344 C 58.132812 37.777344 58.128906 37.777344 58.128906 37.78125 C 56.6875 38.359375 55.375 39.300781 54.003906 40.074219 C 54.011719 40.078125 54.015625 40.078125 54.023438 40.082031 C 53.824219 39.992188 53.625 39.90625 53.425781 39.820312 Z M 50.371094 38.761719 C 49.695312 38.578125 49.011719 38.425781 48.320312 38.304688 C 48.0625 38.257812 47.800781 38.21875 47.542969 38.179688 C 47.480469 38.171875 47.417969 38.164062 47.355469 38.15625 C 47.285156 38.148438 47.21875 38.136719 47.152344 38.128906 C 47.132812 38.128906 47.113281 38.125 47.09375 38.121094 C 46.980469 38.109375 46.871094 38.097656 46.757812 38.085938 C 46.757812 38.085938 46.761719 38.085938 46.761719 38.085938 C 48.714844 37.257812 50.707031 36.511719 52.757812 35.953125 C 52.765625 35.957031 52.773438 35.957031 52.785156 35.957031 C 52.964844 35.996094 53.144531 36.035156 53.324219 36.074219 C 53.339844 36.078125 53.355469 36.082031 53.367188 36.085938 C 53.550781 36.125 53.730469 36.171875 53.910156 36.21875 C 53.933594 36.222656 53.960938 36.230469 53.984375 36.238281 C 54.160156 36.285156 54.335938 36.332031 54.511719 36.382812 C 54.535156 36.390625 54.5625 36.398438 54.585938 36.40625 C 54.765625 36.457031 54.945312 36.511719 55.125 36.570312 C 54.71875 36.734375 54.320312 36.910156 53.921875 37.089844 C 52.730469 37.628906 51.5625 38.21875 50.371094 38.761719 Z M 45.367188 37.972656 C 44.300781 37.910156 43.230469 37.902344 42.160156 37.921875 C 43.613281 37.417969 45.058594 36.886719 46.472656 36.289062 C 46.523438 36.269531 46.558594 36.234375 46.585938 36.199219 C 47.472656 35.933594 48.371094 35.714844 49.273438 35.542969 C 49.308594 35.570312 49.355469 35.589844 49.414062 35.589844 C 49.566406 35.589844 49.71875 35.597656 49.871094 35.601562 C 50.328125 35.621094 50.78125 35.660156 51.230469 35.710938 C 49.484375 36.261719 47.773438 36.929688 46.089844 37.65625 C 45.847656 37.761719 45.605469 37.867188 45.367188 37.972656 Z M 52.375 35.882812 C 51.996094 35.8125 51.617188 35.757812 51.234375 35.714844 C 51.617188 35.757812 51.996094 35.8125 52.375 35.882812 Z M 45.492188 34.125 C 45.5 34.113281 45.503906 34.097656 45.507812 34.085938 C 46.105469 32.378906 46.753906 30.691406 47.519531 29.050781 C 48.65625 26.609375 50 24.09375 52.066406 22.316406 C 52.355469 22.066406 52.65625 21.839844 52.96875 21.632812 C 52.96875 21.632812 52.96875 21.632812 52.972656 21.628906 C 53.222656 21.460938 53.484375 21.304688 53.75 21.160156 C 53.75 21.160156 53.75 21.160156 53.753906 21.160156 C 53.882812 21.089844 54.015625 21.023438 54.148438 20.957031 C 54.152344 20.953125 54.160156 20.953125 54.164062 20.949219 C 54.566406 20.753906 54.980469 20.582031 55.40625 20.429688 C 55.414062 20.429688 55.417969 20.429688 55.421875 20.425781 C 55.5625 20.378906 55.699219 20.332031 55.839844 20.289062 C 55.847656 20.285156 55.855469 20.285156 55.863281 20.28125 C 56.148438 20.191406 56.4375 20.113281 56.730469 20.039062 C 56.871094 20.007812 57.011719 19.976562 57.15625 19.945312 C 57.167969 19.941406 57.183594 19.9375 57.199219 19.933594 C 57.335938 19.90625 57.472656 19.878906 57.609375 19.851562 C 57.625 19.847656 57.640625 19.847656 57.65625 19.84375 C 57.796875 19.816406 57.9375 19.792969 58.078125 19.769531 C 58.082031 19.769531 58.082031 19.769531 58.082031 19.769531 C 58.222656 19.746094 58.363281 19.726562 58.503906 19.707031 C 58.519531 19.707031 58.535156 19.703125 58.550781 19.703125 C 58.683594 19.683594 58.820312 19.667969 58.953125 19.652344 C 58.976562 19.648438 59 19.644531 59.027344 19.644531 C 59.15625 19.628906 59.289062 19.613281 59.421875 19.601562 C 59.445312 19.597656 59.464844 19.597656 59.488281 19.59375 C 59.625 19.582031 59.761719 19.570312 59.902344 19.558594 C 62.648438 19.351562 65.46875 19.648438 68.0625 20.605469 C 73.574219 22.632812 76.3125 28.128906 78.34375 33.257812 C 78.34375 33.269531 78.351562 33.273438 78.355469 33.28125 C 78.269531 33.546875 78.203125 33.816406 78.152344 34.097656 C 77.8125 35.957031 78.179688 37.863281 78.316406 39.722656 C 78.40625 40.941406 78.367188 42.171875 78.351562 43.394531 C 78.332031 44.949219 78.28125 46.503906 78.203125 48.054688 C 78.1875 48.421875 78.167969 48.789062 78.144531 49.15625 C 78.144531 49.203125 78.140625 49.25 78.136719 49.296875 C 78.117188 49.640625 78.09375 49.984375 78.070312 50.328125 C 78.070312 50.332031 78.070312 50.332031 78.070312 50.339844 L 78.070312 50.351562 C 78.039062 50.832031 78.003906 51.316406 77.96875 51.796875 L 77.96875 51.800781 C 77.9375 52.171875 77.910156 52.542969 77.882812 52.914062 C 77.875 52.980469 77.871094 53.042969 77.863281 53.109375 C 77.835938 53.457031 77.808594 53.800781 77.78125 54.148438 C 77.78125 54.148438 77.78125 54.148438 77.78125 54.152344 C 77.75 54.558594 77.714844 54.964844 77.679688 55.375 C 77.460938 50.859375 76.921875 46.351562 76.0625 41.914062 C 75.558594 39.335938 74.933594 36.777344 74.128906 34.277344 C 73.476562 32.242188 72.746094 30.199219 71.035156 28.808594 C 69.8125 27.816406 68.214844 27.265625 66.71875 26.855469 C 65.007812 26.386719 63.242188 26.15625 61.488281 25.960938 C 57.605469 25.523438 53.71875 25.191406 49.808594 25.183594 C 49.503906 25.183594 49.503906 25.65625 49.808594 25.65625 C 52.644531 25.660156 55.480469 25.824219 58.304688 26.101562 C 58.511719 26.121094 58.71875 26.140625 58.921875 26.160156 C 61.652344 26.441406 64.414062 26.667969 67.058594 27.441406 C 67.199219 27.484375 67.335938 27.523438 67.472656 27.566406 C 67.480469 27.570312 67.484375 27.570312 67.492188 27.574219 C 67.632812 27.617188 67.769531 27.664062 67.910156 27.710938 C 67.910156 27.714844 67.914062 27.714844 67.917969 27.714844 C 68.199219 27.8125 68.480469 27.921875 68.757812 28.039062 C 69.390625 28.308594 69.996094 28.628906 70.542969 29.023438 C 71.433594 29.660156 72.089844 30.5625 72.589844 31.527344 C 73.125 32.570312 73.460938 33.722656 73.8125 34.835938 C 74.199219 36.070312 74.539062 37.320312 74.847656 38.578125 C 76.097656 43.667969 76.832031 48.90625 77.144531 54.148438 C 76.96875 53.507812 76.761719 52.878906 76.53125 52.257812 C 76.453125 52.046875 76.371094 51.835938 76.285156 51.628906 C 76.285156 51.621094 76.28125 51.613281 76.277344 51.609375 C 76.113281 51.195312 75.933594 50.789062 75.742188 50.386719 C 75.734375 50.367188 75.726562 50.347656 75.714844 50.328125 C 75.621094 50.128906 75.523438 49.929688 75.425781 49.734375 C 75.421875 49.730469 75.421875 49.726562 75.417969 49.722656 C 75.328125 49.539062 75.230469 49.355469 75.132812 49.175781 C 75.113281 49.140625 75.097656 49.105469 75.078125 49.070312 C 74.976562 48.886719 74.875 48.699219 74.769531 48.515625 C 74.765625 48.507812 74.761719 48.5 74.753906 48.492188 C 74.65625 48.324219 74.558594 48.152344 74.457031 47.984375 C 74.429688 47.941406 74.402344 47.898438 74.375 47.851562 C 74.269531 47.675781 74.160156 47.5 74.046875 47.328125 C 72.75 45.308594 71.195312 43.457031 69.515625 41.746094 C 67.714844 39.910156 65.75 38.28125 63.480469 37.050781 C 59.109375 34.679688 54.078125 34.140625 49.234375 35.054688 C 48.203125 35.25 47.183594 35.515625 46.183594 35.824219 C 46.105469 35.851562 46.058594 35.902344 46.035156 35.964844 C 45.839844 36.042969 45.640625 36.125 45.445312 36.203125 C 45.253906 36.277344 45.066406 36.351562 44.875 36.425781 C 44.875 36.425781 44.871094 36.429688 44.871094 36.429688 C 44.8125 36.453125 44.75 36.476562 44.6875 36.5 C 44.949219 35.707031 45.21875 34.914062 45.492188 34.125 Z M 75.417969 66.820312 C 75.394531 66.964844 75.371094 67.109375 75.34375 67.25 C 73.472656 68.042969 71.59375 68.832031 69.652344 69.421875 C 69.652344 69.421875 69.652344 69.425781 69.652344 69.429688 C 69.675781 69.269531 69.695312 69.109375 69.714844 68.953125 C 69.726562 68.871094 69.738281 68.792969 69.746094 68.710938 C 69.765625 68.582031 69.777344 68.453125 69.792969 68.328125 C 69.804688 68.214844 69.816406 68.105469 69.828125 67.996094 C 69.839844 67.90625 69.84375 67.820312 69.851562 67.730469 C 69.882812 67.425781 69.90625 67.125 69.929688 66.820312 C 69.933594 66.730469 69.941406 66.644531 69.945312 66.554688 C 69.945312 66.554688 69.945312 66.558594 69.945312 66.558594 C 71.820312 65.625 73.714844 64.746094 75.652344 63.957031 C 75.640625 64.914062 75.5625 65.867188 75.417969 66.820312 Z M 74.578125 70.210938 C 72.742188 70.882812 70.875 71.519531 69.117188 72.371094 C 69.117188 72.375 69.117188 72.375 69.117188 72.378906 C 69.152344 72.222656 69.183594 72.066406 69.214844 71.910156 C 69.222656 71.878906 69.230469 71.851562 69.234375 71.820312 C 69.265625 71.671875 69.292969 71.519531 69.324219 71.371094 C 69.332031 71.335938 69.339844 71.300781 69.34375 71.261719 C 69.378906 71.078125 69.414062 70.890625 69.449219 70.703125 C 69.453125 70.6875 69.453125 70.667969 69.457031 70.652344 C 69.488281 70.480469 69.515625 70.3125 69.542969 70.140625 C 69.542969 70.144531 69.542969 70.144531 69.542969 70.144531 C 71.472656 69.582031 73.335938 68.808594 75.191406 68.027344 C 75.027344 68.769531 74.820312 69.496094 74.578125 70.210938 Z M 74.050781 71.644531 C 74.03125 71.699219 74.007812 71.75 73.988281 71.800781 C 73.921875 71.964844 73.851562 72.125 73.785156 72.285156 C 73.761719 72.335938 73.742188 72.382812 73.71875 72.433594 C 73.648438 72.597656 73.574219 72.765625 73.496094 72.929688 C 73.480469 72.96875 73.460938 73.007812 73.445312 73.046875 C 73.402344 73.132812 73.363281 73.222656 73.324219 73.308594 C 73.320312 73.3125 73.320312 73.3125 73.320312 73.3125 C 72.996094 73.4375 72.675781 73.5625 72.355469 73.691406 C 70.960938 74.253906 69.582031 74.859375 68.296875 75.621094 C 68.46875 75.019531 68.628906 74.417969 68.78125 73.8125 C 68.832031 73.613281 68.878906 73.410156 68.929688 73.207031 C 70.644531 72.324219 72.476562 71.675781 74.296875 71.015625 C 74.21875 71.226562 74.136719 71.4375 74.050781 71.644531 Z M 74.804688 57.558594 C 74.855469 57.746094 74.902344 57.929688 74.949219 58.117188 C 74.902344 57.929688 74.855469 57.746094 74.804688 57.558594 Z M 75.351562 60.074219 C 73.574219 61.03125 71.757812 61.90625 69.929688 62.761719 C 69.914062 62.558594 69.894531 62.355469 69.875 62.15625 C 69.863281 62.046875 69.851562 61.933594 69.839844 61.824219 C 69.828125 61.734375 69.820312 61.640625 69.808594 61.550781 C 69.796875 61.460938 69.785156 61.367188 69.769531 61.273438 C 69.757812 61.167969 69.742188 61.058594 69.726562 60.953125 C 69.71875 60.886719 69.707031 60.820312 69.695312 60.753906 C 69.675781 60.617188 69.65625 60.484375 69.632812 60.351562 C 69.632812 60.351562 69.632812 60.355469 69.632812 60.355469 C 71.386719 59.566406 73.140625 58.765625 74.949219 58.117188 C 74.992188 58.296875 75.035156 58.472656 75.074219 58.652344 C 75.089844 58.707031 75.101562 58.765625 75.113281 58.820312 C 75.140625 58.945312 75.164062 59.066406 75.191406 59.191406 C 75.203125 59.253906 75.214844 59.320312 75.230469 59.386719 C 75.25 59.503906 75.273438 59.617188 75.292969 59.734375 C 75.304688 59.804688 75.316406 59.871094 75.328125 59.941406 C 75.335938 59.984375 75.34375 60.027344 75.351562 60.074219 Z M 75.644531 63.246094 C 73.726562 64.027344 71.839844 64.890625 69.984375 65.804688 C 69.988281 65.609375 69.996094 65.417969 70 65.222656 C 70.011719 64.632812 70 64.046875 69.972656 63.464844 C 69.972656 63.464844 69.972656 63.46875 69.972656 63.46875 C 71.820312 62.605469 73.65625 61.726562 75.457031 60.769531 C 75.480469 60.953125 75.5 61.132812 75.519531 61.316406 C 75.523438 61.359375 75.53125 61.402344 75.535156 61.445312 C 75.554688 61.625 75.570312 61.800781 75.582031 61.980469 C 75.585938 62.011719 75.585938 62.042969 75.589844 62.070312 C 75.601562 62.230469 75.613281 62.386719 75.621094 62.542969 C 75.621094 62.585938 75.625 62.628906 75.625 62.671875 C 75.636719 62.847656 75.640625 63.023438 75.644531 63.203125 C 75.644531 63.214844 75.648438 63.230469 75.648438 63.246094 C 75.648438 63.246094 75.644531 63.246094 75.644531 63.246094 Z M 73.890625 54.824219 C 73.988281 55.074219 74.085938 55.324219 74.175781 55.574219 C 74.242188 55.761719 74.308594 55.949219 74.371094 56.136719 C 74.390625 56.195312 74.410156 56.257812 74.429688 56.316406 C 74.472656 56.449219 74.515625 56.585938 74.558594 56.71875 C 74.578125 56.78125 74.597656 56.84375 74.617188 56.910156 C 74.667969 57.082031 74.71875 57.257812 74.769531 57.433594 C 74.773438 57.449219 74.777344 57.460938 74.78125 57.480469 C 72.988281 58.117188 71.25 58.910156 69.511719 59.691406 C 69.453125 59.382812 69.382812 59.074219 69.3125 58.769531 C 69.289062 58.660156 69.261719 58.554688 69.234375 58.445312 C 69.226562 58.410156 69.21875 58.375 69.207031 58.339844 C 69.164062 58.167969 69.121094 58 69.074219 57.828125 C 69.074219 57.820312 69.070312 57.808594 69.066406 57.800781 C 69.011719 57.605469 68.957031 57.410156 68.902344 57.214844 C 68.902344 57.21875 68.902344 57.21875 68.902344 57.21875 C 70.5625 56.445312 72.375 55.964844 74.128906 55.441406 C 74.050781 55.234375 73.972656 55.027344 73.890625 54.824219 Z M 72.757812 52.28125 C 72.769531 52.304688 72.78125 52.328125 72.792969 52.351562 C 72.878906 52.527344 72.964844 52.699219 73.046875 52.875 C 73.066406 52.914062 73.085938 52.949219 73.101562 52.988281 C 73.175781 53.144531 73.246094 53.296875 73.316406 53.453125 C 73.335938 53.496094 73.355469 53.539062 73.375 53.582031 C 73.453125 53.761719 73.53125 53.941406 73.605469 54.121094 C 73.625 54.164062 73.640625 54.207031 73.660156 54.25 C 73.738281 54.441406 73.816406 54.628906 73.890625 54.820312 C 72.152344 55.339844 70.359375 55.824219 68.703125 56.582031 C 68.703125 56.582031 68.703125 56.582031 68.703125 56.585938 C 68.488281 55.921875 68.242188 55.265625 67.972656 54.617188 C 67.972656 54.617188 67.972656 54.617188 67.972656 54.621094 C 69.519531 53.75 71.140625 53.015625 72.757812 52.28125 Z M 71.367188 49.800781 C 71.382812 49.828125 71.402344 49.855469 71.417969 49.882812 C 71.492188 50.003906 71.570312 50.125 71.640625 50.25 C 71.667969 50.292969 71.695312 50.339844 71.722656 50.382812 C 71.789062 50.496094 71.855469 50.609375 71.921875 50.722656 C 71.960938 50.796875 72.003906 50.867188 72.042969 50.941406 C 72.09375 51.03125 72.144531 51.117188 72.191406 51.203125 C 72.28125 51.367188 72.371094 51.53125 72.457031 51.695312 C 70.855469 52.425781 69.246094 53.148438 67.710938 54.007812 C 67.582031 53.71875 67.445312 53.429688 67.308594 53.144531 C 67.296875 53.121094 67.285156 53.097656 67.273438 53.074219 C 67.242188 53.011719 67.210938 52.953125 67.179688 52.890625 C 67.132812 52.796875 67.085938 52.703125 67.039062 52.609375 C 67.027344 52.585938 67.011719 52.5625 67 52.535156 C 66.933594 52.410156 66.867188 52.28125 66.796875 52.152344 C 66.796875 52.152344 66.796875 52.152344 66.796875 52.15625 C 68.304688 51.339844 69.800781 50.496094 71.367188 49.800781 Z M 72.5625 74.835938 C 72.542969 74.867188 72.527344 74.898438 72.511719 74.929688 C 72.402344 75.144531 72.289062 75.351562 72.175781 75.5625 C 72.171875 75.566406 72.171875 75.570312 72.167969 75.574219 C 70.980469 76.316406 69.757812 77.003906 68.570312 77.753906 C 68.175781 78 67.785156 78.253906 67.402344 78.519531 C 67.511719 78.195312 67.617188 77.867188 67.71875 77.539062 C 67.730469 77.5 67.742188 77.460938 67.753906 77.421875 C 67.847656 77.132812 67.9375 76.84375 68.023438 76.554688 C 69.53125 75.570312 71.207031 74.84375 72.898438 74.175781 C 72.789062 74.398438 72.675781 74.617188 72.5625 74.835938 Z M 97.671875 44.164062 C 97.59375 42.097656 97.269531 40.105469 96.425781 38.207031 C 95.664062 36.492188 94.519531 34.917969 93.089844 33.695312 C 93.140625 33.816406 93.109375 33.980469 92.957031 34.039062 C 91.8125 34.484375 90.578125 34.679688 89.335938 34.6875 C 89.285156 34.707031 89.226562 34.707031 89.175781 34.691406 C 88.777344 34.6875 88.375 34.667969 87.976562 34.632812 C 87.894531 34.679688 87.785156 34.664062 87.707031 34.605469 C 87.214844 34.550781 86.726562 34.46875 86.246094 34.371094 C 86.214844 34.371094 86.179688 34.363281 86.148438 34.351562 C 86.109375 34.34375 86.070312 34.335938 86.035156 34.324219 C 86.035156 34.328125 86.035156 34.328125 86.035156 34.328125 C 86.453125 34.730469 86.851562 35.152344 87.222656 35.597656 C 87.222656 35.597656 87.222656 35.601562 87.226562 35.601562 C 87.289062 35.679688 87.351562 35.757812 87.414062 35.835938 C 87.429688 35.855469 87.449219 35.875 87.464844 35.898438 C 87.519531 35.96875 87.578125 36.039062 87.632812 36.113281 C 87.652344 36.140625 87.675781 36.167969 87.695312 36.199219 C 87.746094 36.265625 87.800781 36.335938 87.847656 36.40625 C 87.875 36.4375 87.894531 36.472656 87.917969 36.503906 C 87.96875 36.574219 88.015625 36.640625 88.0625 36.710938 C 88.078125 36.730469 88.089844 36.75 88.105469 36.769531 C 88.191406 36.894531 88.273438 37.027344 88.355469 37.15625 C 88.390625 37.210938 88.425781 37.265625 88.460938 37.324219 C 88.492188 37.375 88.523438 37.425781 88.554688 37.476562 C 88.589844 37.539062 88.625 37.601562 88.660156 37.660156 C 88.691406 37.710938 88.71875 37.757812 88.746094 37.808594 C 88.78125 37.875 88.820312 37.941406 88.855469 38.007812 C 88.878906 38.054688 88.90625 38.101562 88.929688 38.148438 C 88.96875 38.222656 89.007812 38.300781 89.046875 38.375 C 89.066406 38.414062 89.085938 38.453125 89.105469 38.492188 C 89.164062 38.609375 89.21875 38.726562 89.273438 38.84375 C 90.160156 40.777344 90.574219 42.902344 90.734375 45.011719 C 91.066406 49.445312 90.289062 53.890625 89.695312 58.269531 C 89.421875 60.273438 89.183594 62.28125 89.054688 64.300781 C 88.949219 65.9375 88.957031 67.582031 88.941406 69.222656 C 88.910156 72.449219 88.921875 75.882812 87.707031 78.929688 C 87.195312 80.207031 86.378906 81.371094 85.25 82.175781 C 83.882812 83.144531 82.1875 83.472656 80.542969 83.507812 C 78.148438 83.5625 75.730469 83.230469 73.375 82.84375 C 71.160156 82.480469 68.960938 82.015625 66.792969 81.417969 C 68.816406 79.574219 70.816406 77.699219 72.878906 75.902344 C 72.878906 75.898438 72.878906 75.898438 72.882812 75.898438 C 72.882812 75.894531 72.882812 75.894531 72.886719 75.894531 C 72.980469 75.8125 73.078125 75.726562 73.171875 75.644531 C 73.230469 75.589844 73.253906 75.53125 73.25 75.472656 C 74.65625 73.285156 75.660156 70.863281 76.410156 68.378906 C 77.164062 65.878906 77.722656 63.246094 77.871094 60.632812 C 77.921875 59.699219 77.902344 58.773438 77.820312 57.855469 C 77.890625 57.820312 77.945312 57.753906 77.957031 57.65625 C 78.191406 55.269531 78.375 52.871094 78.535156 50.480469 C 78.742188 47.417969 78.789062 44.355469 78.839844 41.289062 C 78.84375 41.175781 78.84375 41.058594 78.84375 40.945312 C 78.84375 40.882812 78.839844 40.820312 78.839844 40.757812 C 78.839844 40.710938 78.839844 40.664062 78.835938 40.617188 C 78.832031 40.527344 78.832031 40.441406 78.828125 40.355469 C 78.824219 40.335938 78.824219 40.316406 78.824219 40.296875 C 78.820312 40.195312 78.8125 40.097656 78.808594 39.996094 C 78.730469 38.761719 78.550781 37.53125 78.503906 36.292969 C 78.503906 36.292969 78.503906 36.292969 78.503906 36.296875 C 78.503906 36.292969 78.503906 36.292969 78.503906 36.292969 C 78.5 36.167969 78.496094 36.039062 78.492188 35.914062 C 78.492188 35.902344 78.492188 35.890625 78.492188 35.878906 C 78.492188 35.742188 78.488281 35.609375 78.492188 35.472656 C 78.496094 35.378906 78.496094 35.285156 78.503906 35.1875 C 78.503906 35.164062 78.507812 35.140625 78.507812 35.117188 C 78.511719 35.046875 78.515625 34.976562 78.523438 34.90625 C 78.527344 34.882812 78.53125 34.859375 78.53125 34.832031 C 78.539062 34.765625 78.546875 34.695312 78.554688 34.625 C 78.558594 34.605469 78.5625 34.582031 78.566406 34.5625 C 78.574219 34.488281 78.585938 34.417969 78.597656 34.351562 C 78.601562 34.332031 78.605469 34.3125 78.609375 34.292969 C 78.621094 34.21875 78.636719 34.148438 78.652344 34.078125 C 78.65625 34.0625 78.660156 34.046875 78.660156 34.03125 C 78.679688 33.957031 78.695312 33.882812 78.714844 33.808594 C 78.71875 33.792969 78.722656 33.78125 78.726562 33.769531 C 78.746094 33.691406 78.765625 33.617188 78.789062 33.542969 C 78.792969 33.53125 78.796875 33.519531 78.800781 33.507812 C 78.824219 33.433594 78.847656 33.359375 78.871094 33.289062 C 78.875 33.28125 78.878906 33.273438 78.878906 33.269531 C 79.007812 32.902344 79.167969 32.546875 79.359375 32.210938 L 79.359375 32.207031 C 79.371094 32.1875 79.382812 32.167969 79.394531 32.148438 C 79.425781 32.09375 79.457031 32.039062 79.492188 31.988281 C 79.511719 31.949219 79.535156 31.914062 79.558594 31.878906 C 79.582031 31.839844 79.609375 31.800781 79.632812 31.761719 C 79.664062 31.71875 79.695312 31.675781 79.726562 31.628906 C 79.734375 31.621094 79.738281 31.609375 79.746094 31.601562 C 79.746094 31.578125 79.75 31.554688 79.761719 31.53125 C 79.980469 30.957031 80.34375 30.5 80.738281 30.039062 C 81.082031 29.636719 81.386719 29.101562 81.863281 28.855469 C 81.894531 28.839844 81.921875 28.832031 81.953125 28.828125 C 81.996094 28.789062 82.039062 28.75 82.089844 28.714844 C 81.0625 25.140625 79.5 21.496094 76.328125 19.34375 C 74.65625 18.210938 72.671875 17.671875 70.679688 17.5 C 68.136719 17.273438 65.574219 17.085938 63.019531 17.152344 C 60.695312 17.214844 58.457031 17.566406 56.367188 18.621094 C 56.027344 18.792969 55.691406 18.980469 55.367188 19.175781 C 54.746094 19.460938 54.140625 19.789062 53.546875 20.171875 C 51.875 21.261719 50.421875 22.660156 49.277344 24.296875 C 48.777344 25.011719 48.394531 25.78125 48.019531 26.5625 C 48.027344 26.5625 48.039062 26.5625 48.046875 26.5625 C 48.121094 26.570312 48.175781 26.601562 48.214844 26.644531 C 48.144531 26.769531 48.078125 26.894531 48.011719 27.019531 C 48.007812 27.023438 48.003906 27.027344 48.003906 27.035156 C 46.890625 29.097656 46.007812 31.273438 45.21875 33.484375 C 45.136719 33.359375 45.046875 33.238281 44.953125 33.121094 C 44.539062 34.21875 44.203125 35.339844 43.996094 36.503906 C 43.976562 36.59375 43.992188 36.679688 44.019531 36.75 C 42.828125 37.191406 41.625 37.605469 40.417969 38.007812 C 40.257812 38.0625 40.097656 38.117188 39.9375 38.167969 C 38.796875 38.546875 37.65625 38.921875 36.523438 39.316406 C 32.8125 40.597656 29.109375 41.984375 25.652344 43.867188 C 23.277344 45.160156 20.90625 46.773438 19.117188 48.851562 C 18.945312 49.054688 18.773438 49.261719 18.609375 49.472656 C 18.601562 49.609375 18.59375 49.746094 18.582031 49.882812 C 18.570312 50.046875 18.554688 50.210938 18.539062 50.375 C 18.707031 50.128906 18.886719 49.886719 19.070312 49.652344 C 19.539062 49.058594 20.0625 48.496094 20.617188 47.972656 C 22.519531 46.425781 24.839844 45.03125 27.3125 43.964844 C 30.265625 42.695312 33.164062 41.996094 35.472656 41.996094 C 41.828125 41.996094 48.914062 45.390625 53.519531 50.640625 C 55.59375 53.003906 57.625 56.191406 59.097656 59.390625 C 60.824219 63.136719 61.734375 66.738281 61.734375 69.808594 C 61.734375 73.765625 61.152344 77.402344 59.996094 80.621094 C 58.753906 84.082031 56.882812 86.96875 54.429688 89.203125 C 52.976562 90.527344 51 91.683594 48.640625 92.601562 C 47.886719 92.898438 47.09375 93.167969 46.265625 93.410156 C 44.199219 94.015625 41.992188 94.4375 39.839844 94.644531 C 41.648438 94.523438 43.421875 94.167969 45.226562 93.835938 C 47.6875 93.378906 50.039062 92.765625 52.339844 91.765625 C 56.722656 89.863281 60.554688 86.914062 64.136719 83.796875 C 64.894531 83.136719 65.640625 82.46875 66.382812 81.792969 C 68.691406 82.441406 71.039062 82.9375 73.402344 83.324219 C 75.757812 83.710938 78.15625 84.011719 80.542969 83.980469 C 81.25 83.972656 81.964844 83.902344 82.65625 83.757812 C 82.683594 83.765625 82.714844 83.773438 82.75 83.773438 C 87.882812 83.617188 92.773438 80.992188 95.109375 76.304688 C 96.34375 73.832031 96.539062 70.984375 96.820312 68.28125 C 97.144531 65.175781 97.28125 62.050781 97.359375 58.933594 C 97.421875 56.480469 97.449219 54.027344 97.515625 51.578125 C 97.585938 49.105469 97.769531 46.636719 97.671875 44.164062 " fill-opacity="1" fill-rule="nonzero"/></g><path fill="#ffffff" d="M 22.402344 34.472656 C 22.597656 33.742188 23 33.113281 23.523438 32.578125 C 24.050781 32.03125 23.222656 31.199219 22.691406 31.746094 C 22.03125 32.425781 21.519531 33.238281 21.269531 34.160156 C 21.074219 34.890625 22.207031 35.203125 22.402344 34.472656 " fill-opacity="1" fill-rule="nonzero"/><path fill="#ffffff" d="M 86.226562 30.707031 C 88.125 31.019531 90.027344 31.996094 91.960938 31.359375 C 92.558594 31.164062 92.304688 30.21875 91.703125 30.414062 C 89.972656 30.984375 88.191406 30.042969 86.484375 29.761719 C 85.867188 29.660156 85.605469 30.605469 86.226562 30.707031 " fill-opacity="1" fill-rule="nonzero"/><path fill="#ffffff" d="M 83.355469 30.054688 C 83.707031 30.171875 84.046875 30.324219 84.398438 30.445312 C 84.652344 30.53125 84.933594 30.347656 85 30.101562 C 85.074219 29.835938 84.910156 29.585938 84.660156 29.5 C 84.308594 29.382812 83.96875 29.230469 83.617188 29.109375 C 83.363281 29.023438 83.082031 29.207031 83.015625 29.453125 C 82.941406 29.71875 83.105469 29.96875 83.355469 30.054688 " fill-opacity="1" fill-rule="nonzero"/><path fill="#ffffff" d="M 91.847656 36.539062 C 94.496094 40.660156 95.128906 45.214844 94.90625 50.027344 C 94.675781 54.996094 93.996094 59.859375 94.375 64.84375 C 94.433594 65.59375 95.605469 65.597656 95.550781 64.84375 C 95.160156 59.761719 95.859375 54.789062 96.09375 49.722656 C 96.320312 44.828125 95.539062 40.117188 92.859375 35.945312 C 92.453125 35.308594 91.4375 35.898438 91.847656 36.539062 " fill-opacity="1" fill-rule="nonzero"/><path fill="#ffffff" d="M 93.984375 68.109375 C 93.976562 69.433594 93.847656 70.722656 93.484375 72 C 93.273438 72.730469 94.40625 73.039062 94.617188 72.3125 C 95.007812 70.9375 95.148438 69.535156 95.15625 68.109375 C 95.164062 67.351562 93.988281 67.351562 93.984375 68.109375 " fill-opacity="1" fill-rule="nonzero"/><path fill="#ffffff" d="M 51.253906 52.066406 C 53.59375 54.882812 55.792969 57.890625 57.113281 61.339844 C 58.425781 64.761719 58.601562 68.417969 58.121094 72.027344 C 58.023438 72.777344 59.199219 72.765625 59.296875 72.027344 C 59.804688 68.207031 59.535156 64.390625 58.148438 60.773438 C 56.789062 57.226562 54.492188 54.132812 52.082031 51.238281 C 51.597656 50.652344 50.769531 51.488281 51.253906 52.066406 " fill-opacity="1" fill-rule="nonzero"/><path fill="#ffffff" d="M 57.230469 76.832031 C 56.640625 78.847656 56.066406 80.847656 54.644531 82.449219 C 54.140625 83.015625 54.96875 83.851562 55.472656 83.28125 C 57.039062 81.515625 57.710938 79.371094 58.363281 77.144531 C 58.574219 76.417969 57.441406 76.105469 57.230469 76.832031 " fill-opacity="1" fill-rule="nonzero"/><path fill="#ffffff" d="M 48.761719 41.1875 C 51.902344 42.527344 55 44.050781 57.671875 46.207031 C 60.394531 48.402344 62.421875 51.265625 63.621094 54.550781 C 63.878906 55.257812 65.011719 54.953125 64.753906 54.238281 C 63.507812 50.828125 61.476562 47.886719 58.703125 45.542969 C 55.941406 43.207031 52.660156 41.582031 49.355469 40.175781 C 48.667969 39.882812 48.066406 40.894531 48.761719 41.1875 " fill-opacity="1" fill-rule="nonzero"/><path fill="#ffffff" d="M 64.851562 56.910156 C 65.101562 57.4375 65.203125 58.03125 65.316406 58.601562 C 65.464844 59.34375 66.597656 59.027344 66.449219 58.289062 C 66.3125 57.609375 66.164062 56.945312 65.867188 56.320312 C 65.542969 55.632812 64.53125 56.230469 64.851562 56.910156 " fill-opacity="1" fill-rule="nonzero"/><path fill="#ffffff" d="M 62.324219 39.230469 C 65.945312 41.613281 69.386719 44.207031 71.765625 47.902344 C 72.171875 48.535156 73.1875 47.945312 72.777344 47.308594 C 70.289062 43.441406 66.710938 40.710938 62.917969 38.214844 C 62.28125 37.796875 61.695312 38.816406 62.324219 39.230469 " fill-opacity="1" fill-rule="nonzero"/><path fill="#ffffff" d="M 73.070312 50.644531 C 73.273438 51.058594 73.417969 51.488281 73.53125 51.9375 C 73.71875 52.671875 74.851562 52.363281 74.664062 51.628906 C 74.523438 51.078125 74.332031 50.558594 74.082031 50.050781 C 73.941406 49.761719 73.539062 49.6875 73.28125 49.839844 C 72.988281 50.007812 72.925781 50.355469 73.070312 50.644531 " fill-opacity="1" fill-rule="nonzero"/><path fill="#ffffff" d="M 71.191406 19.769531 C 74.578125 21.324219 76.761719 23.792969 78.097656 27.257812 C 78.363281 27.957031 79.5 27.652344 79.226562 26.945312 C 77.785156 23.203125 75.460938 20.441406 71.785156 18.757812 C 71.101562 18.445312 70.503906 19.457031 71.191406 19.769531 " fill-opacity="1" fill-rule="nonzero"/><path fill="#ffffff" d="M 78.769531 29.164062 C 78.722656 29.207031 78.679688 29.253906 78.636719 29.296875 C 78.410156 29.523438 78.410156 29.902344 78.636719 30.128906 C 78.863281 30.355469 79.242188 30.355469 79.46875 30.128906 C 79.511719 30.082031 79.554688 30.039062 79.597656 29.996094 C 79.824219 29.769531 79.824219 29.390625 79.597656 29.164062 C 79.371094 28.941406 78.996094 28.941406 78.769531 29.164062 " fill-opacity="1" fill-rule="nonzero"/><path fill="#ffffff" d="M 20 52.722656 C 21.789062 50.988281 23.574219 49.222656 25.660156 47.839844 C 27.753906 46.449219 30.132812 45.691406 32.628906 45.449219 C 33.375 45.375 33.382812 44.199219 32.628906 44.273438 C 29.996094 44.53125 27.539062 45.28125 25.285156 46.683594 C 23.011719 48.097656 21.085938 50.035156 19.171875 51.890625 C 18.628906 52.417969 19.457031 53.25 20 52.722656 " fill-opacity="1" fill-rule="nonzero"/><path fill="#ffffff" d="M 34.871094 45.296875 C 35.597656 45.183594 36.332031 45.210938 37.035156 45.429688 C 37.761719 45.652344 38.070312 44.515625 37.347656 44.292969 C 36.433594 44.011719 35.496094 44.019531 34.558594 44.164062 C 33.8125 44.277344 34.128906 45.410156 34.871094 45.296875 " fill-opacity="1" fill-rule="nonzero"/><path fill="#ffffff" d="M 42.398438 34.746094 C 42.300781 35.039062 42.199219 35.335938 42.101562 35.628906 C 42 35.933594 42.21875 36.269531 42.511719 36.351562 C 42.832031 36.441406 43.132812 36.246094 43.234375 35.941406 C 43.332031 35.648438 43.429688 35.355469 43.527344 35.058594 C 43.628906 34.753906 43.414062 34.417969 43.117188 34.335938 C 42.796875 34.25 42.496094 34.445312 42.398438 34.746094 " fill-opacity="1" fill-rule="nonzero"/><path fill="#ffffff" d="M 28.488281 29.710938 C 28.488281 29.761719 28.484375 29.808594 28.480469 29.855469 C 28.496094 29.667969 28.484375 29.808594 28.472656 29.855469 C 28.4375 30 28.523438 29.761719 28.484375 29.839844 C 28.417969 29.964844 28.5625 29.757812 28.5 29.824219 C 28.4375 29.890625 28.640625 29.734375 28.519531 29.804688 C 28.441406 29.851562 28.675781 29.753906 28.53125 29.796875 C 28.488281 29.808594 28.34375 29.824219 28.535156 29.804688 C 28.484375 29.808594 28.4375 29.808594 28.390625 29.808594 C 28.070312 29.8125 27.800781 30.074219 27.800781 30.398438 C 27.800781 30.714844 28.070312 30.988281 28.390625 30.984375 C 28.738281 30.980469 29.070312 30.898438 29.328125 30.652344 C 29.582031 30.414062 29.65625 30.046875 29.660156 29.710938 C 29.664062 29.390625 29.390625 29.125 29.074219 29.125 C 28.753906 29.125 28.492188 29.390625 28.488281 29.710938 " fill-opacity="1" fill-rule="nonzero"/><path fill="#ffffff" d="M 83.746094 38.546875 C 83.78125 38.5625 83.8125 38.582031 83.847656 38.605469 C 83.804688 38.566406 83.808594 38.570312 83.859375 38.617188 C 83.90625 38.667969 83.910156 38.667969 83.875 38.621094 C 83.894531 38.648438 83.910156 38.683594 83.929688 38.714844 C 83.902344 38.65625 83.902344 38.660156 83.921875 38.726562 C 83.917969 38.660156 83.917969 38.664062 83.921875 38.738281 C 83.925781 38.792969 83.910156 38.839844 83.867188 38.957031 C 83.753906 39.261719 83.988281 39.601562 84.277344 39.683594 C 84.605469 39.773438 84.886719 39.570312 84.996094 39.273438 C 85.246094 38.59375 84.972656 37.871094 84.335938 37.53125 C 84.054688 37.378906 83.699219 37.457031 83.535156 37.742188 C 83.378906 38.011719 83.460938 38.394531 83.746094 38.546875 " fill-opacity="1" fill-rule="nonzero"/><path fill="#ffffff" d="M 84.898438 47.464844 C 84.972656 47.535156 85.050781 47.605469 85.125 47.679688 C 85.222656 47.773438 85.058594 47.570312 85.132812 47.683594 C 85.160156 47.738281 85.15625 47.730469 85.121094 47.652344 C 85.113281 47.570312 85.113281 47.566406 85.117188 47.636719 C 85.171875 47.5 85.230469 47.359375 85.289062 47.222656 C 85.210938 47.296875 85.402344 47.15625 85.265625 47.238281 C 85.210938 47.265625 85.226562 47.261719 85.3125 47.21875 C 85.28125 47.230469 85.246094 47.238281 85.210938 47.246094 C 85.394531 47.207031 85.214844 47.238281 85.167969 47.242188 C 85.085938 47.246094 85.003906 47.246094 84.921875 47.246094 C 84.601562 47.246094 84.332031 47.511719 84.332031 47.832031 C 84.332031 48.152344 84.601562 48.421875 84.921875 48.421875 C 85.125 48.421875 85.320312 48.410156 85.523438 48.378906 C 85.742188 48.34375 85.929688 48.21875 86.089844 48.078125 C 86.386719 47.828125 86.308594 47.390625 86.144531 47.089844 C 86.046875 46.90625 85.875 46.777344 85.726562 46.632812 C 85.5 46.410156 85.125 46.40625 84.898438 46.632812 C 84.675781 46.859375 84.667969 47.242188 84.898438 47.464844 " fill-opacity="1" fill-rule="nonzero"/><path fill="#ffffff" d="M 71.464844 27.535156 C 72.683594 28.015625 73.167969 28.953125 73.5 30.164062 C 73.699219 30.890625 74.828125 30.582031 74.628906 29.847656 C 74.183594 28.203125 73.398438 27.042969 71.777344 26.402344 C 71.070312 26.125 70.769531 27.261719 71.464844 27.535156 " fill-opacity="1" fill-rule="nonzero"/><path fill="#ffffff" d="M 35.195312 28.222656 C 36.433594 27.949219 37.6875 27.859375 38.953125 27.851562 C 39.710938 27.847656 39.710938 26.671875 38.953125 26.675781 C 37.582031 26.683594 36.222656 26.792969 34.882812 27.089844 C 34.144531 27.25 34.457031 28.382812 35.195312 28.222656 " fill-opacity="1" fill-rule="nonzero"/></svg>