<svg xmlns="http://www.w3.org/2000/svg" xmlns:xlink="http://www.w3.org/1999/xlink" width="150" zoomAndPan="magnify" viewBox="0 0 112.5 112.499997" height="150" preserveAspectRatio="xMidYMid meet" version="1.0"><defs><clipPath id="988254596a"><path d="M 46.417969 21 L 65.832031 21 L 65.832031 106.527344 L 46.417969 106.527344 Z M 46.417969 21 " clip-rule="nonzero"/></clipPath><clipPath id="fb1e479874"><path d="M 46.417969 13.191406 L 65.832031 13.191406 L 65.832031 56 L 46.417969 56 Z M 46.417969 13.191406 " clip-rule="nonzero"/></clipPath><clipPath id="bee5e8a28a"><path d="M 46.417969 22 L 65 22 L 65 106.527344 L 46.417969 106.527344 Z M 46.417969 22 " clip-rule="nonzero"/></clipPath><clipPath id="10e6335b9e"><path d="M 47 58 L 54 58 L 54 106.527344 L 47 106.527344 Z M 47 58 " clip-rule="nonzero"/></clipPath><clipPath id="9f4b351b4a"><path d="M 46.417969 47 L 65 47 L 65 99 L 46.417969 99 Z M 46.417969 47 " clip-rule="nonzero"/></clipPath><clipPath id="561e8b4dcc"><path d="M 46.417969 33 L 65.832031 33 L 65.832031 106.527344 L 46.417969 106.527344 Z M 46.417969 33 " clip-rule="nonzero"/></clipPath></defs><g clip-path="url(#988254596a)"><path fill="#fbdaa5" d="M 65.738281 56.714844 L 64.984375 59.082031 L 64.984375 106.433594 L 47.199219 106.433594 L 47.199219 59.082031 L 46.445312 56.714844 L 47.199219 55.773438 L 47.542969 55.773438 L 47.542969 51.972656 C 47.542969 51.726562 47.484375 51.484375 47.375 51.261719 L 47.265625 51.03125 C 47.222656 50.945312 47.199219 50.851562 47.199219 50.757812 L 47.199219 48.882812 L 64.984375 48.882812 L 64.984375 50.757812 C 64.984375 50.851562 64.964844 50.945312 64.921875 51.03125 L 64.808594 51.261719 C 64.699219 51.484375 64.644531 51.726562 64.644531 51.972656 L 64.644531 55.773438 L 64.984375 55.773438 Z M 56.21875 21.859375 C 56.171875 21.75 56.015625 21.75 55.96875 21.859375 L 47.734375 41.757812 L 64.449219 41.757812 Z M 65.578125 47.152344 L 63.847656 47.152344 L 63.847656 42.515625 L 64.449219 41.757812 L 47.734375 41.757812 L 48.339844 42.515625 L 48.339844 47.152344 L 46.445312 47.152344 L 46.445312 47.941406 L 65.578125 47.941406 Z M 65.578125 47.152344 " fill-opacity="1" fill-rule="nonzero"/></g><g clip-path="url(#fb1e479874)"><path fill="#e6a225" d="M 55.839844 20.542969 C 55.816406 20.445312 55.808594 20.34375 55.816406 20.242188 C 55.816406 20.140625 55.828125 20.039062 55.84375 19.941406 C 55.871094 19.738281 55.921875 19.535156 55.964844 19.335938 C 56.054688 18.933594 56.054688 18.527344 56.015625 18.125 C 55.996094 17.925781 55.964844 17.722656 55.945312 17.519531 C 55.921875 17.320312 55.90625 17.117188 55.90625 16.917969 C 55.910156 16.515625 55.917969 16.109375 55.929688 15.707031 C 55.960938 14.902344 56 14.09375 56.09375 13.289062 C 56.183594 14.09375 56.222656 14.902344 56.253906 15.707031 C 56.269531 16.109375 56.277344 16.515625 56.277344 16.917969 C 56.277344 17.117188 56.265625 17.320312 56.242188 17.519531 C 56.21875 17.722656 56.191406 17.925781 56.171875 18.125 C 56.132812 18.527344 56.128906 18.933594 56.21875 19.335938 C 56.261719 19.535156 56.316406 19.738281 56.34375 19.941406 C 56.359375 20.039062 56.367188 20.140625 56.371094 20.242188 C 56.378906 20.34375 56.371094 20.445312 56.34375 20.542969 C 56.320312 20.644531 56.28125 20.746094 56.25 20.847656 C 56.21875 20.949219 56.199219 21.046875 56.195312 21.148438 C 56.191406 21.351562 56.1875 21.550781 56.1875 21.753906 C 56.191406 22.15625 56.210938 22.558594 56.273438 22.964844 L 55.910156 22.964844 C 55.972656 22.558594 55.992188 22.15625 55.996094 21.753906 C 56 21.550781 55.996094 21.351562 55.988281 21.148438 C 55.988281 21.046875 55.96875 20.949219 55.9375 20.847656 C 55.90625 20.746094 55.867188 20.644531 55.839844 20.542969 Z M 46.445312 47.941406 L 47.199219 48.882812 L 64.984375 48.882812 L 65.738281 47.941406 Z M 56.09375 51.597656 C 55.738281 51.597656 55.449219 51.882812 55.449219 52.234375 L 55.449219 55.078125 L 56.738281 55.078125 L 56.738281 52.234375 C 56.738281 51.882812 56.449219 51.597656 56.09375 51.597656 Z M 59.410156 51.597656 C 59.089844 51.597656 58.832031 51.855469 58.832031 52.167969 L 58.832031 55.078125 L 59.988281 55.078125 L 59.988281 52.167969 C 59.988281 51.855469 59.730469 51.597656 59.410156 51.597656 Z M 63.554688 44.15625 C 63.554688 43.921875 63.363281 43.730469 63.125 43.730469 C 62.890625 43.730469 62.699219 43.921875 62.699219 44.15625 L 62.699219 47.152344 L 63.554688 47.152344 Z M 59.5 33.808594 L 59.148438 33.808594 L 59.148438 35.964844 L 59.5 35.964844 Z M 52.101562 36.125 L 52.632812 36.125 L 52.632812 33.910156 L 52.785156 33.910156 L 52.785156 33.804688 L 52.367188 33.429688 L 51.949219 33.804688 L 51.949219 33.910156 L 52.101562 33.910156 Z M 52.101562 36.125 " fill-opacity="1" fill-rule="nonzero"/></g><path fill="#987b1e" d="M 53.351562 52.167969 L 53.351562 55.773438 L 50.542969 55.773438 L 50.542969 51.601562 C 50.542969 51.027344 50.789062 50.480469 51.21875 50.097656 C 51.542969 49.8125 52.019531 49.78125 52.375 50.027344 L 52.476562 50.097656 C 53.023438 50.476562 53.351562 51.097656 53.351562 51.757812 Z M 49.175781 50.453125 C 48.949219 50.089844 48.402344 50.117188 48.21875 50.503906 L 48.179688 50.582031 C 47.960938 51.039062 47.84375 51.542969 47.84375 52.054688 L 47.84375 55.773438 L 49.691406 55.773438 L 49.691406 52.25 C 49.691406 51.613281 49.511719 50.992188 49.175781 50.453125 Z M 64.003906 50.582031 L 63.96875 50.503906 C 63.78125 50.117188 63.238281 50.089844 63.011719 50.453125 C 62.675781 50.992188 62.496094 51.613281 62.496094 52.25 L 62.496094 55.773438 L 64.339844 55.773438 L 64.339844 52.054688 C 64.339844 51.542969 64.226562 51.039062 64.003906 50.582031 Z M 57.730469 51.480469 L 57.730469 55.773438 L 54.453125 55.773438 L 54.453125 51.480469 C 54.453125 50.585938 55.1875 49.863281 56.09375 49.863281 C 56.996094 49.863281 57.730469 50.585938 57.730469 51.480469 Z M 56.738281 52.234375 C 56.738281 52.039062 56.648438 51.863281 56.507812 51.746094 C 56.648438 51.863281 56.738281 52.039062 56.738281 52.234375 L 56.359375 52.8125 C 56.136719 53.148438 56.058594 53.558594 56.140625 53.953125 L 56.378906 55.078125 L 56.738281 55.078125 Z M 56.433594 51.695312 C 56.414062 51.683594 56.394531 51.671875 56.371094 51.664062 C 56.394531 51.671875 56.414062 51.683594 56.433594 51.695312 Z M 60.964844 50.097656 C 60.644531 49.8125 60.167969 49.78125 59.8125 50.027344 L 59.710938 50.097656 C 59.160156 50.476562 58.832031 51.097656 58.832031 51.757812 L 58.832031 52.167969 C 58.832031 51.855469 59.089844 51.597656 59.410156 51.597656 C 59.730469 51.597656 59.988281 51.855469 59.988281 52.167969 L 59.988281 55.078125 L 58.832031 55.078125 L 58.832031 55.773438 L 61.644531 55.773438 L 61.644531 51.601562 C 61.644531 51.027344 61.398438 50.480469 60.964844 50.097656 Z M 56.828125 44.457031 C 56.828125 44.054688 56.496094 43.730469 56.09375 43.730469 C 55.6875 43.730469 55.359375 44.054688 55.359375 44.457031 L 55.359375 47.152344 L 56.828125 47.152344 Z M 60.722656 44.457031 C 60.722656 44.054688 60.394531 43.730469 59.988281 43.730469 C 59.582031 43.730469 59.253906 44.054688 59.253906 44.457031 L 59.253906 47.152344 L 60.722656 47.152344 Z M 58.914062 33.808594 L 58.054688 33.808594 L 58.054688 34.558594 L 58.914062 35.964844 Z M 52.785156 33.804688 L 52.785156 33.910156 L 52.632812 33.910156 L 52.632812 36.125 L 53.054688 36.125 L 53.507812 33.429688 L 52.367188 33.429688 Z M 52.785156 33.804688 " fill-opacity="1" fill-rule="nonzero"/><g clip-path="url(#bee5e8a28a)"><path fill="#e6a225" d="M 48.339844 42.515625 L 47.734375 41.757812 L 55.703125 22.5 L 54.058594 41.757812 C 55.613281 42.207031 56.679688 43.613281 56.679688 45.214844 L 56.679688 47.152344 L 54.828125 47.152344 L 56.394531 58.96875 C 54.296875 64.898438 55.015625 71.445312 58.34375 76.796875 L 64.984375 87.460938 L 64.984375 106.433594 L 47.199219 106.433594 L 47.199219 59.082031 L 46.445312 56.714844 L 47.199219 55.773438 L 47.542969 55.773438 L 47.542969 51.972656 C 47.542969 51.726562 47.484375 51.484375 47.375 51.261719 L 47.261719 51.03125 C 47.222656 50.945312 47.199219 50.855469 47.199219 50.757812 L 47.199219 48.882812 L 46.445312 47.941406 L 46.445312 47.152344 L 48.339844 47.152344 Z M 48.339844 42.515625 " fill-opacity="0.5" fill-rule="nonzero"/></g><g clip-path="url(#10e6335b9e)"><path fill="#e6a225" d="M 50.855469 74.605469 L 52.488281 106.433594 L 47.199219 106.433594 L 47.105469 58.96875 L 53.996094 58.992188 L 52.628906 62.757812 C 51.253906 66.550781 50.648438 70.578125 50.855469 74.605469 Z M 50.855469 74.605469 " fill-opacity="1" fill-rule="nonzero"/></g><g clip-path="url(#9f4b351b4a)"><path fill="#987b1e" d="M 64.078125 64.03125 L 64.078125 66.640625 L 63.113281 66.640625 L 63.113281 64.03125 C 63.113281 63.765625 63.328125 63.554688 63.59375 63.554688 C 63.863281 63.554688 64.078125 63.765625 64.078125 64.03125 Z M 59.425781 59.84375 L 59.390625 59.84375 C 59.230469 59.84375 59.105469 59.972656 59.105469 60.125 L 59.105469 61.5625 L 59.710938 61.5625 L 59.710938 60.125 C 59.710938 59.972656 59.582031 59.84375 59.425781 59.84375 Z M 62.738281 59.84375 L 62.703125 59.84375 C 62.546875 59.84375 62.417969 59.972656 62.417969 60.125 L 62.417969 61.5625 L 63.023438 61.5625 L 63.023438 60.125 C 63.023438 59.972656 62.894531 59.84375 62.738281 59.84375 Z M 59.992188 71.824219 L 60.476562 71.824219 L 60.476562 70.398438 L 59.992188 70.398438 Z M 55.839844 74.769531 L 56.507812 74.769531 L 56.507812 72.964844 L 55.839844 72.964844 Z M 46.445312 47.941406 L 47.199219 48.90625 L 50.542969 48.882812 L 48.085938 47.941406 Z M 56.679688 98.382812 L 55.34375 98.382812 L 55.34375 93.765625 L 56.679688 93.765625 Z M 56.679688 98.382812 " fill-opacity="1" fill-rule="nonzero"/></g><path fill="#987b1e" d="M 51.613281 76.351562 L 50.574219 76.351562 L 50.574219 75.964844 L 51.613281 75.964844 Z M 59.027344 72.886719 L 57.992188 72.886719 L 57.992188 73.277344 L 59.027344 73.277344 Z M 50.226562 68.675781 L 49.191406 68.675781 L 49.191406 69.066406 L 50.226562 69.066406 Z M 52.304688 75.460938 L 51.265625 75.460938 L 51.265625 75.851562 L 52.304688 75.851562 Z M 50.925781 75.460938 L 49.890625 75.460938 L 49.890625 75.851562 L 50.925781 75.851562 Z M 58.503906 76.855469 L 59.539062 76.855469 L 59.539062 76.46875 L 58.503906 76.46875 Z M 48.511719 89.371094 L 49.546875 89.371094 L 49.546875 88.984375 L 48.511719 88.984375 Z M 48.703125 96.035156 L 49.742188 96.035156 L 49.742188 95.648438 L 48.703125 95.648438 Z M 52.640625 75.851562 L 53.679688 75.851562 L 53.679688 75.460938 L 52.640625 75.460938 Z M 52.324219 81.617188 L 51.289062 81.617188 L 51.289062 82.003906 L 52.324219 82.003906 Z M 52.992188 77.222656 L 51.953125 77.222656 L 51.953125 77.609375 L 52.992188 77.609375 Z M 53.011719 82.121094 L 51.976562 82.121094 L 51.976562 82.507812 L 53.011719 82.507812 Z M 53.699219 82.621094 L 52.660156 82.621094 L 52.660156 83.011719 L 53.699219 83.011719 Z M 51.953125 72.773438 L 52.992188 72.773438 L 52.992188 72.386719 L 51.953125 72.386719 Z M 52.992188 73.390625 L 51.953125 73.390625 L 51.953125 73.777344 L 52.992188 73.777344 Z M 51.265625 73.277344 L 52.304688 73.277344 L 52.304688 72.886719 L 51.265625 72.886719 Z M 53.332031 76.351562 L 54.371094 76.351562 L 54.371094 75.964844 L 53.332031 75.964844 Z M 59.714844 72.386719 L 58.679688 72.386719 L 58.679688 72.773438 L 59.714844 72.773438 Z M 62.074219 99.730469 L 61.035156 99.730469 L 61.035156 100.117188 L 62.074219 100.117188 Z M 61.4375 90.535156 L 62.476562 90.535156 L 62.476562 90.148438 L 61.4375 90.148438 Z M 62.25 95.648438 L 61.210938 95.648438 L 61.210938 96.035156 L 62.25 96.035156 Z M 63.085938 80.316406 L 62.046875 80.316406 L 62.046875 80.703125 L 63.085938 80.703125 Z M 61.359375 81.207031 L 62.398438 81.207031 L 62.398438 80.816406 L 61.359375 80.816406 Z M 63.605469 70.386719 L 62.570312 70.386719 L 62.570312 70.773438 L 63.605469 70.773438 Z M 61.5625 96.148438 L 60.523438 96.148438 L 60.523438 96.539062 L 61.5625 96.539062 Z M 61.097656 90.148438 L 60.058594 90.148438 L 60.058594 90.535156 L 61.097656 90.535156 Z M 62.738281 81.207031 L 63.777344 81.207031 L 63.777344 80.816406 L 62.738281 80.816406 Z M 61.359375 80.199219 L 62.398438 80.199219 L 62.398438 79.8125 L 61.359375 79.8125 Z M 61.257812 77.859375 L 62.296875 77.859375 L 62.296875 77.472656 L 61.257812 77.472656 Z M 61.605469 75.964844 L 60.566406 75.964844 L 60.566406 76.351562 L 61.605469 76.351562 Z M 51.976562 83.511719 L 53.011719 83.511719 L 53.011719 83.125 L 51.976562 83.125 Z M 64.140625 99.226562 L 63.101562 99.226562 L 63.101562 99.613281 L 64.140625 99.613281 Z M 63.164062 90.652344 L 62.125 90.652344 L 62.125 91.039062 L 63.164062 91.039062 Z M 64.292969 70.886719 L 63.257812 70.886719 L 63.257812 71.277344 L 64.292969 71.277344 Z M 60.917969 76.46875 L 59.882812 76.46875 L 59.882812 76.855469 L 60.917969 76.855469 Z M 52.324219 82.621094 L 51.289062 82.621094 L 51.289062 83.011719 L 52.324219 83.011719 Z M 55.175781 95.53125 L 56.214844 95.53125 L 56.214844 95.144531 L 55.175781 95.144531 Z M 53.800781 101.375 L 54.839844 101.375 L 54.839844 100.984375 L 53.800781 100.984375 Z M 57.816406 77.359375 L 58.851562 77.359375 L 58.851562 76.96875 L 57.816406 76.96875 Z M 60.230469 76.96875 L 59.195312 76.96875 L 59.195312 77.359375 L 60.230469 77.359375 Z M 54.148438 99.226562 L 53.109375 99.226562 L 53.109375 99.613281 L 54.148438 99.613281 Z M 52.449219 96.148438 L 51.410156 96.148438 L 51.410156 96.539062 L 52.449219 96.539062 Z M 53.460938 98.722656 L 52.421875 98.722656 L 52.421875 99.113281 L 53.460938 99.113281 Z M 54.488281 100.871094 L 55.527344 100.871094 L 55.527344 100.484375 L 54.488281 100.484375 Z M 60.867188 96.652344 L 59.832031 96.652344 L 59.832031 97.039062 L 60.867188 97.039062 Z M 63.949219 71.777344 L 64.984375 71.777344 L 64.984375 71.390625 L 63.949219 71.390625 Z M 63.949219 70.386719 L 63.949219 70.773438 L 64.984375 70.773438 L 64.984375 70.386719 Z M 64.832031 100.734375 L 63.792969 100.734375 L 63.792969 101.121094 L 64.832031 101.121094 Z M 63.894531 103.460938 L 64.933594 103.460938 L 64.933594 103.074219 L 63.894531 103.074219 Z M 60.347656 100.621094 L 61.386719 100.621094 L 61.386719 100.230469 L 60.347656 100.230469 Z M 62.414062 100.117188 L 63.453125 100.117188 L 63.453125 99.730469 L 62.414062 99.730469 Z M 61.726562 100.621094 L 62.765625 100.621094 L 62.765625 100.230469 L 61.726562 100.230469 Z M 49.375 101.429688 L 50.414062 101.429688 L 50.414062 101.042969 L 49.375 101.042969 Z M 52.640625 72.269531 L 53.679688 72.269531 L 53.679688 71.882812 L 52.640625 71.882812 Z M 52.820312 63.941406 L 51.785156 63.941406 L 51.785156 64.328125 L 52.820312 64.328125 Z M 53.332031 73.777344 L 54.371094 73.777344 L 54.371094 73.390625 L 53.332031 73.390625 Z M 51.441406 63.941406 L 50.40625 63.941406 L 50.40625 64.328125 L 51.441406 64.328125 Z M 50.226562 67.671875 L 49.191406 67.671875 L 49.191406 68.058594 L 50.226562 68.058594 Z M 53.351562 82.507812 L 54.390625 82.507812 L 54.390625 82.121094 L 53.351562 82.121094 Z M 54.390625 83.628906 L 53.351562 83.628906 L 53.351562 84.015625 L 54.390625 84.015625 Z M 54.839844 98.722656 L 53.800781 98.722656 L 53.800781 99.113281 L 54.839844 99.113281 Z M 47.132812 90.378906 L 48.167969 90.378906 L 48.167969 89.988281 L 47.132812 89.988281 Z M 48.847656 67.671875 L 47.8125 67.671875 L 47.8125 68.058594 L 48.847656 68.058594 Z M 49.546875 89.988281 L 48.511719 89.988281 L 48.511719 90.378906 L 49.546875 90.378906 Z M 53.699219 96.652344 L 52.660156 96.652344 L 52.660156 97.039062 L 53.699219 97.039062 Z M 49.910156 83.011719 L 50.945312 83.011719 L 50.945312 82.621094 L 49.910156 82.621094 Z M 49.71875 100.539062 L 48.683594 100.539062 L 48.683594 100.929688 L 49.71875 100.929688 Z M 49.539062 68.175781 L 48.503906 68.175781 L 48.503906 68.5625 L 49.539062 68.5625 Z M 48.164062 68.175781 L 47.125 68.175781 L 47.125 68.5625 L 48.164062 68.5625 Z M 52.304688 77.722656 L 51.265625 77.722656 L 51.265625 78.113281 L 52.304688 78.113281 Z M 52.304688 77.722656 " fill-opacity="0.5" fill-rule="nonzero"/><g clip-path="url(#561e8b4dcc)"><path fill="#000000" d="M 49.160156 60.125 C 49.160156 60.054688 49.1875 59.992188 49.230469 59.945312 C 49.15625 59.980469 49.097656 60.054688 49.074219 60.148438 C 49.046875 60.046875 49.09375 59.921875 49.1875 59.847656 C 49.285156 59.773438 49.429688 59.746094 49.550781 59.800781 C 49.675781 59.847656 49.769531 59.96875 49.789062 60.101562 C 49.792969 60.121094 49.792969 60.136719 49.792969 60.152344 L 49.796875 60.191406 L 49.796875 60.421875 C 49.796875 60.625 49.792969 60.832031 49.773438 61.035156 C 49.773438 61.0625 49.769531 61.089844 49.765625 61.117188 L 49.765625 61.5625 L 49.707031 61.5625 C 49.699219 61.589844 49.695312 61.621094 49.691406 61.648438 C 49.683594 61.621094 49.679688 61.589844 49.671875 61.5625 L 49.160156 61.5625 Z M 53.082031 61.515625 L 53.082031 60.125 C 53.082031 59.972656 52.953125 59.84375 52.796875 59.84375 L 52.761719 59.84375 C 52.605469 59.84375 52.476562 59.972656 52.476562 60.125 L 52.476562 61.5625 L 53.082031 61.5625 Z M 56.394531 60.125 C 56.394531 59.972656 56.269531 59.84375 56.109375 59.84375 L 56.074219 59.84375 C 55.917969 59.84375 55.789062 59.972656 55.789062 60.125 L 55.789062 61.5625 L 56.394531 61.5625 Z M 55.449219 64.191406 L 55.449219 66.640625 L 56.738281 66.640625 L 56.738281 64.191406 C 56.738281 63.839844 56.449219 63.554688 56.09375 63.554688 C 55.738281 63.554688 55.449219 63.839844 55.449219 64.191406 Z M 52.195312 70.398438 L 51.710938 70.398438 L 51.710938 71.824219 L 52.195312 71.824219 Z M 59.710938 60.125 C 59.710938 59.972656 59.582031 59.84375 59.425781 59.84375 L 59.390625 59.84375 C 59.230469 59.84375 59.105469 59.972656 59.105469 60.125 L 59.105469 61.5625 L 59.234375 60.652344 C 59.273438 60.398438 59.460938 60.191406 59.710938 60.125 Z M 48.339844 42.515625 C 48.339844 42.515625 48.339844 42.515625 48.34375 42.515625 C 49.636719 42.558594 50.933594 42.585938 52.230469 42.597656 C 52.878906 42.609375 53.527344 42.609375 54.175781 42.617188 L 55.566406 42.621094 L 56.125 42.621094 L 58.070312 42.617188 C 58.71875 42.613281 59.367188 42.609375 60.015625 42.597656 C 61.292969 42.585938 62.570312 42.558594 63.847656 42.515625 C 63.867188 42.515625 63.886719 42.515625 63.90625 42.515625 C 63.886719 42.515625 63.867188 42.515625 63.847656 42.511719 C 62.570312 42.472656 61.292969 42.445312 60.015625 42.429688 C 59.367188 42.421875 58.71875 42.417969 58.070312 42.414062 L 56.125 42.40625 L 55.320312 42.410156 L 54.175781 42.414062 C 53.527344 42.417969 52.878906 42.421875 52.230469 42.429688 C 51.214844 42.441406 50.199219 42.460938 49.179688 42.492188 L 48.6875 41.785156 C 49.765625 41.8125 50.839844 41.832031 51.914062 41.84375 C 52.609375 41.851562 53.308594 41.855469 54.003906 41.859375 L 54.363281 41.863281 L 56.09375 41.867188 L 58.183594 41.859375 C 58.878906 41.855469 59.574219 41.851562 60.273438 41.84375 C 61.664062 41.828125 63.058594 41.800781 64.449219 41.757812 C 63.058594 41.71875 61.664062 41.6875 60.273438 41.675781 C 59.574219 41.664062 58.878906 41.664062 58.183594 41.65625 L 56.09375 41.652344 L 54.066406 41.65625 L 54.003906 41.65625 C 53.308594 41.664062 52.609375 41.664062 51.914062 41.675781 C 50.835938 41.683594 49.757812 41.703125 48.679688 41.734375 L 51.261719 33.238281 L 51.261719 33.234375 L 47.734375 41.757812 L 48.15625 42.289062 Z M 50.542969 48.882812 L 47.199219 48.90625 L 47.199219 50.21875 L 47.84375 49.242188 Z M 49.03125 47.207031 L 51.394531 47.234375 C 52.546875 47.25 53.695312 47.253906 54.84375 47.257812 C 55.269531 47.257812 55.695312 47.261719 56.125 47.261719 C 57.699219 47.257812 59.273438 47.257812 60.851562 47.238281 L 63.214844 47.207031 C 64.003906 47.1875 64.789062 47.179688 65.578125 47.152344 C 65.574219 47.152344 65.574219 47.152344 65.574219 47.152344 C 64.996094 47.136719 64.421875 47.125 63.847656 47.113281 C 63.75 47.113281 63.652344 47.109375 63.554688 47.109375 C 63.441406 47.105469 63.328125 47.101562 63.214844 47.101562 L 62.699219 47.09375 L 60.851562 47.070312 C 60.808594 47.070312 60.765625 47.070312 60.722656 47.070312 C 60.234375 47.0625 59.746094 47.058594 59.253906 47.054688 C 58.445312 47.050781 57.636719 47.046875 56.828125 47.046875 C 56.777344 47.046875 56.730469 47.046875 56.679688 47.046875 C 56.496094 47.046875 56.308594 47.046875 56.125 47.046875 C 56.015625 47.046875 55.910156 47.046875 55.800781 47.046875 L 55.9375 45.707031 C 55.980469 45.242188 56.238281 44.828125 56.621094 44.570312 C 56.6875 44.527344 56.753906 44.488281 56.828125 44.457031 C 56.828125 44.160156 56.644531 43.90625 56.386719 43.792969 C 56.296875 43.753906 56.195312 43.730469 56.09375 43.730469 C 55.6875 43.730469 55.359375 44.054688 55.359375 44.457031 L 55.359375 47.046875 C 54.550781 47.050781 53.738281 47.050781 52.929688 47.058594 L 52.929688 44.457031 C 52.929688 44.054688 52.601562 43.730469 52.195312 43.730469 C 51.792969 43.730469 51.464844 44.054688 51.464844 44.457031 L 51.464844 47.070312 C 51.441406 47.070312 51.417969 47.070312 51.394531 47.070312 L 49.488281 47.09375 L 49.488281 44.15625 C 49.488281 43.921875 49.296875 43.730469 49.058594 43.730469 C 48.824219 43.730469 48.632812 43.921875 48.632812 44.15625 L 48.632812 47.109375 C 48.535156 47.109375 48.4375 47.113281 48.339844 47.113281 C 47.78125 47.125 47.226562 47.136719 46.667969 47.152344 C 46.667969 47.152344 46.667969 47.152344 46.671875 47.152344 C 47.457031 47.179688 48.246094 47.1875 49.03125 47.207031 Z M 47.253906 55.773438 C 47.25 55.773438 47.25 55.773438 47.25 55.773438 C 47.347656 55.769531 47.445312 55.769531 47.542969 55.765625 C 47.644531 55.761719 47.742188 55.761719 47.84375 55.757812 C 48.023438 55.753906 48.207031 55.75 48.386719 55.746094 L 49.03125 52.859375 C 49.128906 52.425781 48.792969 52.011719 48.339844 52.011719 C 48.339844 51.042969 48.503906 50.5 48.707031 50.199219 C 48.886719 50.195312 49.066406 50.277344 49.175781 50.453125 C 49.511719 50.992188 49.691406 51.613281 49.691406 52.25 L 49.691406 55.71875 C 49.972656 55.710938 50.257812 55.707031 50.542969 55.703125 C 50.871094 55.699219 51.199219 55.695312 51.53125 55.691406 L 51.742188 51.753906 C 51.769531 51.238281 51.4375 50.765625 50.941406 50.609375 L 50.828125 50.574219 C 50.933594 50.398438 51.0625 50.238281 51.21875 50.097656 C 51.542969 49.8125 52.019531 49.78125 52.375 50.027344 L 52.476562 50.097656 C 53.023438 50.476562 53.351562 51.097656 53.351562 51.757812 L 53.351562 52.167969 C 53.351562 51.855469 53.09375 51.597656 52.773438 51.597656 C 52.457031 51.597656 52.195312 51.855469 52.195312 52.167969 L 52.195312 55.078125 L 53.351562 55.078125 L 53.351562 55.675781 C 53.535156 55.675781 53.722656 55.671875 53.90625 55.671875 L 54.453125 55.671875 L 54.453125 51.480469 C 54.453125 50.902344 54.761719 50.394531 55.222656 50.109375 C 55.472656 49.953125 55.773438 49.863281 56.09375 49.863281 C 56.996094 49.863281 57.730469 50.585938 57.730469 51.480469 L 57.730469 55.671875 L 58.34375 55.671875 C 58.503906 55.671875 58.667969 55.675781 58.832031 55.675781 L 58.832031 55.078125 L 59.988281 55.078125 L 59.988281 52.167969 C 59.988281 51.855469 59.730469 51.597656 59.410156 51.597656 C 59.089844 51.597656 58.832031 51.855469 58.832031 52.167969 L 58.832031 51.757812 C 58.832031 51.097656 59.160156 50.476562 59.710938 50.097656 L 59.8125 50.027344 C 60.167969 49.78125 60.644531 49.8125 60.964844 50.097656 C 61.398438 50.480469 61.644531 51.027344 61.644531 51.601562 L 61.644531 55.703125 C 61.925781 55.707031 62.210938 55.710938 62.496094 55.714844 L 62.496094 52.25 C 62.496094 51.613281 62.675781 50.992188 63.011719 50.453125 C 63.238281 50.089844 63.78125 50.117188 63.96875 50.503906 L 64.003906 50.582031 C 64.210938 51.007812 64.324219 51.46875 64.339844 51.941406 C 63.894531 52.035156 63.53125 52.417969 63.53125 52.917969 L 63.53125 55.738281 C 63.800781 55.742188 64.070312 55.75 64.339844 55.757812 C 64.441406 55.757812 64.542969 55.761719 64.644531 55.765625 C 64.761719 55.769531 64.878906 55.769531 64.996094 55.773438 C 64.992188 55.773438 64.988281 55.773438 64.984375 55.773438 C 64.871094 55.777344 64.757812 55.78125 64.644531 55.78125 C 63.28125 55.820312 61.921875 55.84375 60.5625 55.859375 C 59.820312 55.867188 59.082031 55.871094 58.34375 55.875 L 56.125 55.882812 L 55.984375 55.882812 L 53.90625 55.875 C 53.164062 55.871094 52.425781 55.867188 51.6875 55.859375 C 50.304688 55.84375 48.921875 55.820312 47.542969 55.78125 C 47.449219 55.777344 47.355469 55.777344 47.265625 55.773438 C 47.261719 55.773438 47.257812 55.773438 47.253906 55.773438 Z M 55.476562 52.042969 C 55.457031 52.105469 55.449219 52.167969 55.449219 52.234375 L 55.449219 55.078125 L 56.738281 55.078125 L 56.738281 52.234375 C 56.738281 51.882812 56.449219 51.597656 56.09375 51.597656 C 55.804688 51.597656 55.558594 51.785156 55.476562 52.042969 Z M 65.738281 56.714844 C 64.957031 56.691406 64.179688 56.679688 63.402344 56.664062 L 60.976562 56.632812 C 59.359375 56.613281 57.742188 56.609375 56.125 56.609375 C 56.109375 56.609375 56.097656 56.609375 56.082031 56.609375 C 54.480469 56.609375 52.875 56.613281 51.269531 56.632812 L 48.84375 56.664062 C 48.046875 56.679688 47.246094 56.691406 46.445312 56.714844 C 46.4375 56.714844 46.429688 56.714844 46.417969 56.714844 C 46.429688 56.714844 46.4375 56.714844 46.445312 56.714844 C 47.246094 56.738281 48.046875 56.75 48.84375 56.769531 L 51.269531 56.796875 C 52.882812 56.816406 54.496094 56.820312 56.109375 56.824219 C 56.113281 56.824219 56.121094 56.824219 56.125 56.824219 C 57.742188 56.820312 59.359375 56.816406 60.976562 56.796875 L 63.402344 56.769531 C 64.179688 56.75 64.960938 56.742188 65.738281 56.71875 C 65.769531 56.71875 65.796875 56.714844 65.828125 56.714844 C 65.796875 56.714844 65.769531 56.714844 65.738281 56.714844 Z M 65.023438 58.96875 C 63.558594 58.925781 62.09375 58.898438 60.632812 58.886719 C 59.878906 58.875 59.128906 58.875 58.378906 58.867188 L 56.382812 58.863281 L 56.125 58.863281 L 53.867188 58.867188 C 53.117188 58.875 52.367188 58.875 51.613281 58.886719 C 50.132812 58.898438 48.648438 58.925781 47.164062 58.96875 C 47.144531 58.96875 47.125 58.96875 47.105469 58.96875 C 47.125 58.96875 47.144531 58.972656 47.164062 58.972656 C 48.648438 59.011719 50.132812 59.039062 51.613281 59.054688 C 52.367188 59.0625 53.117188 59.066406 53.867188 59.070312 L 53.96875 59.070312 L 56.125 59.078125 L 56.359375 59.078125 L 58.378906 59.070312 C 59.128906 59.066406 59.878906 59.0625 60.632812 59.054688 C 62.09375 59.039062 63.558594 59.011719 65.019531 58.972656 C 65.0625 58.972656 65.101562 58.972656 65.140625 58.96875 C 65.101562 58.96875 65.0625 58.96875 65.023438 58.96875 Z M 48.746094 63.492188 C 48.589844 63.457031 48.425781 63.488281 48.296875 63.570312 C 48.230469 63.613281 48.179688 63.667969 48.144531 63.734375 C 48.109375 63.800781 48.097656 63.875 48.109375 63.945312 C 48.117188 63.890625 48.136719 63.847656 48.164062 63.804688 C 48.128906 63.871094 48.109375 63.949219 48.109375 64.03125 L 48.109375 66.640625 L 49.074219 66.640625 L 49.074219 65.679688 C 49.101562 65.46875 49.117188 65.261719 49.128906 65.050781 C 49.140625 64.914062 49.144531 64.78125 49.148438 64.644531 L 49.15625 64.234375 L 49.152344 64.03125 L 49.152344 63.980469 C 49.152344 63.960938 49.152344 63.949219 49.152344 63.921875 C 49.148438 63.878906 49.136719 63.835938 49.121094 63.792969 C 49.054688 63.628906 48.902344 63.523438 48.746094 63.492188 Z M 52.078125 98.472656 C 52.6875 98.476562 53.292969 98.480469 53.898438 98.484375 L 56.117188 98.492188 L 58.335938 98.484375 C 59.074219 98.480469 59.8125 98.476562 60.550781 98.46875 C 62.03125 98.453125 63.507812 98.425781 64.984375 98.382812 C 63.507812 98.339844 62.03125 98.3125 60.550781 98.300781 C 59.8125 98.289062 59.074219 98.289062 58.335938 98.28125 L 56.691406 98.277344 C 56.71875 97.929688 56.738281 97.578125 56.753906 97.230469 L 56.773438 96.652344 L 56.785156 96.074219 L 56.789062 95.496094 L 56.789062 94.921875 C 56.785156 94.535156 56.773438 94.152344 56.761719 93.765625 L 56.761719 93.761719 C 56.757812 93.71875 56.722656 93.6875 56.679688 93.6875 C 56.570312 93.691406 56.457031 93.695312 56.347656 93.703125 C 56.234375 93.707031 56.125 93.710938 56.011719 93.71875 C 55.789062 93.730469 55.566406 93.746094 55.34375 93.765625 C 55.566406 93.789062 55.789062 93.800781 56.011719 93.8125 C 56.125 93.820312 56.234375 93.824219 56.347656 93.832031 C 56.429688 93.835938 56.515625 93.839844 56.601562 93.839844 C 56.585938 94.203125 56.578125 94.5625 56.574219 94.921875 L 56.574219 95.496094 L 56.578125 96.074219 L 56.589844 96.652344 L 56.609375 97.230469 C 56.625 97.578125 56.644531 97.929688 56.671875 98.277344 L 55.34375 98.277344 L 53.898438 98.28125 C 53.289062 98.285156 52.679688 98.289062 52.070312 98.296875 C 51.941406 98.296875 51.8125 98.296875 51.683594 98.300781 C 50.46875 98.3125 49.253906 98.332031 48.042969 98.363281 L 47.746094 90.378906 L 47.730469 89.988281 L 47.199219 75.617188 L 47.199219 75.605469 L 47.136719 73.867188 L 47.167969 89.988281 L 47.167969 90.378906 L 47.199219 106.433594 L 48.339844 106.433594 L 48.246094 103.894531 C 49.390625 103.921875 50.535156 103.941406 51.683594 103.953125 C 51.910156 103.957031 52.132812 103.957031 52.359375 103.957031 C 52.875 103.964844 53.386719 103.964844 53.898438 103.96875 L 56.117188 103.976562 L 58.335938 103.96875 C 59.074219 103.964844 59.8125 103.960938 60.550781 103.953125 C 62.03125 103.9375 63.507812 103.910156 64.984375 103.867188 C 63.507812 103.828125 62.03125 103.796875 60.550781 103.785156 C 59.8125 103.773438 59.074219 103.773438 58.335938 103.765625 L 56.117188 103.761719 L 53.898438 103.765625 C 53.382812 103.769531 52.867188 103.773438 52.351562 103.777344 C 52.128906 103.78125 51.90625 103.78125 51.683594 103.785156 C 50.535156 103.796875 49.390625 103.816406 48.242188 103.84375 L 48.042969 98.402344 C 49.257812 98.433594 50.46875 98.457031 51.683594 98.46875 C 51.816406 98.46875 51.945312 98.46875 52.078125 98.472656 Z M 52.078125 98.472656 " fill-opacity="1" fill-rule="nonzero"/></g></svg>