<svg xmlns="http://www.w3.org/2000/svg" xmlns:xlink="http://www.w3.org/1999/xlink" width="150" zoomAndPan="magnify" viewBox="0 0 112.5 112.499997" height="150" preserveAspectRatio="xMidYMid meet" version="1.0"><defs><clipPath id="12176765c7"><path d="M 15.59375 38.578125 L 83.132812 38.578125 L 83.132812 84.503906 L 15.59375 84.503906 Z M 15.59375 38.578125 " clip-rule="nonzero"/></clipPath><clipPath id="64cfa38322"><path d="M 16.214844 64.679688 L 78.878906 64.679688 L 78.878906 84.503906 L 16.214844 84.503906 Z M 16.214844 64.679688 " clip-rule="nonzero"/></clipPath><clipPath id="8466e3a0bb"><path d="M 27.914062 64.679688 L 77.816406 64.679688 L 77.816406 79.417969 L 27.914062 79.417969 Z M 27.914062 64.679688 " clip-rule="nonzero"/></clipPath><clipPath id="89dc0613a1"><path d="M 78.867188 73.195312 C 70.53125 83.308594 55.820312 86.003906 37.421875 83.773438 C 22.257812 81.941406 17.65625 70.773438 16.292969 65.160156 C 20.277344 64.847656 28.441406 64.355469 31.273438 65.355469 C 35.078125 66.703125 44.144531 85.066406 78.867188 73.195312 " clip-rule="nonzero"/></clipPath><clipPath id="9e63fe2393"><path d="M 22.773438 64.679688 L 74.980469 64.679688 L 74.980469 82.257812 L 22.773438 82.257812 Z M 22.773438 64.679688 " clip-rule="nonzero"/></clipPath><clipPath id="ad5fd44d2a"><path d="M 78.867188 73.195312 C 70.53125 83.308594 55.820312 86.003906 37.421875 83.773438 C 22.257812 81.941406 17.65625 70.773438 16.292969 65.160156 C 20.277344 64.847656 28.441406 64.355469 31.273438 65.355469 C 35.078125 66.703125 44.144531 85.066406 78.867188 73.195312 " clip-rule="nonzero"/></clipPath><clipPath id="5b60873cfa"><path d="M 19.226562 64.679688 L 65.585938 64.679688 L 65.585938 84.503906 L 19.226562 84.503906 Z M 19.226562 64.679688 " clip-rule="nonzero"/></clipPath><clipPath id="594de8cf82"><path d="M 78.867188 73.195312 C 70.53125 83.308594 55.820312 86.003906 37.421875 83.773438 C 22.257812 81.941406 17.65625 70.773438 16.292969 65.160156 C 20.277344 64.847656 28.441406 64.355469 31.273438 65.355469 C 35.078125 66.703125 44.144531 85.066406 78.867188 73.195312 " clip-rule="nonzero"/></clipPath><clipPath id="3a9fc75078"><path d="M 16.835938 64.679688 L 42.714844 64.679688 L 42.714844 84.503906 L 16.835938 84.503906 Z M 16.835938 64.679688 " clip-rule="nonzero"/></clipPath><clipPath id="179e5dda80"><path d="M 78.867188 73.195312 C 70.53125 83.308594 55.820312 86.003906 37.421875 83.773438 C 22.257812 81.941406 17.65625 70.773438 16.292969 65.160156 C 20.277344 64.847656 28.441406 64.355469 31.273438 65.355469 C 35.078125 66.703125 44.144531 85.066406 78.867188 73.195312 " clip-rule="nonzero"/></clipPath><clipPath id="ea8e5a28e9"><path d="M 81.097656 53.847656 L 96.230469 53.847656 L 96.230469 65.746094 L 81.097656 65.746094 Z M 81.097656 53.847656 " clip-rule="nonzero"/></clipPath></defs><path fill="#d6eef2" d="M 38.972656 40.429688 C 38.972656 40.429688 39.9375 35.144531 37.148438 35.171875 C 34.074219 35.203125 34.257812 31.972656 36.386719 31.742188 C 38.515625 31.515625 39.429688 32.960938 39.429688 32.960938 C 39.429688 32.960938 38.898438 29.382812 41.101562 29.457031 C 43.308594 29.535156 42.777344 32.125 42.320312 32.65625 C 42.320312 32.65625 44.296875 31.210938 45.667969 31.972656 C 47.035156 32.734375 47.085938 35.109375 45.292969 35.203125 C 44.789062 35.226562 43.164062 35.058594 43.085938 36.582031 C 43.011719 38.105469 43.011719 39.894531 43.46875 40.277344 C 43.925781 40.65625 39.902344 41.488281 38.972656 40.429688 " fill-opacity="1" fill-rule="nonzero"/><g clip-path="url(#12176765c7)"><path fill="#4f6dbe" d="M 83.132812 64.199219 C 83.132812 65.722656 82.355469 67.84375 81.761719 68.921875 C 80.90625 70.472656 79.941406 71.894531 78.867188 73.195312 C 70.53125 83.308594 55.820312 86.003906 37.421875 83.773438 C 22.257812 81.941406 17.65625 70.773438 16.292969 65.160156 C 15.820312 63.226562 15.734375 61.953125 15.734375 61.953125 L 15.738281 61.949219 C 15.644531 61.1875 15.59375 60.414062 15.59375 59.628906 C 15.59375 48.890625 24.621094 40.058594 36.179688 39.011719 C 36.367188 38.972656 36.550781 38.9375 36.738281 38.90625 C 47.535156 37.230469 62.445312 43.628906 64.878906 55.210938 C 67.3125 66.789062 76.4375 67.398438 76.4375 67.398438 C 79.589844 68.257812 80.546875 63.894531 80.546875 63.894531 L 83.132812 64.199219 " fill-opacity="1" fill-rule="nonzero"/></g><g clip-path="url(#64cfa38322)"><path fill="#d6eef2" d="M 78.867188 73.195312 C 70.53125 83.308594 55.820312 86.003906 37.421875 83.773438 C 22.257812 81.941406 17.65625 70.773438 16.292969 65.160156 C 20.277344 64.847656 28.441406 64.355469 31.273438 65.355469 C 35.078125 66.703125 44.144531 85.066406 78.867188 73.195312 " fill-opacity="1" fill-rule="nonzero"/></g><g clip-path="url(#8466e3a0bb)"><g clip-path="url(#89dc0613a1)"><path fill="#b9dcdd" d="M 57.820312 79.371094 C 57.125 79.371094 56.433594 79.351562 55.746094 79.316406 C 50.210938 79.023438 44.980469 77.566406 40.195312 74.980469 C 32.046875 70.578125 27.960938 64.332031 27.921875 64.269531 L 28.515625 63.882812 C 28.554688 63.945312 32.5625 70.058594 40.558594 74.371094 C 47.933594 78.347656 60.320312 81.5625 77.453125 74.304688 L 77.730469 74.960938 C 70.816406 77.890625 64.128906 79.371094 57.820312 79.371094 " fill-opacity="1" fill-rule="nonzero"/></g></g><g clip-path="url(#9e63fe2393)"><g clip-path="url(#ad5fd44d2a)"><path fill="#b9dcdd" d="M 56.261719 82.230469 C 54.949219 82.230469 53.652344 82.167969 52.363281 82.042969 C 46.609375 81.484375 41.113281 79.679688 36.027344 76.679688 C 27.375 71.574219 22.847656 64.667969 22.800781 64.597656 L 23.398438 64.214844 C 23.441406 64.28125 27.894531 71.066406 36.414062 76.082031 C 44.261719 80.703125 57.277344 84.730469 74.707031 77.65625 L 74.972656 78.316406 C 68.558594 80.917969 62.28125 82.230469 56.261719 82.230469 " fill-opacity="1" fill-rule="nonzero"/></g></g><g clip-path="url(#5b60873cfa)"><g clip-path="url(#594de8cf82)"><path fill="#b9dcdd" d="M 56.335938 85.449219 C 50.996094 85.449219 46.09375 84.804688 41.691406 83.515625 C 36.203125 81.90625 31.46875 79.304688 27.621094 75.78125 C 21.058594 69.773438 19.375 63.261719 19.308594 62.988281 L 19.996094 62.816406 C 20.011719 62.878906 21.710938 69.421875 28.128906 75.285156 C 34.058594 80.699219 45.355469 86.632812 65.484375 84.152344 L 65.570312 84.859375 C 62.367188 85.253906 59.285156 85.449219 56.335938 85.449219 " fill-opacity="1" fill-rule="nonzero"/></g></g><g clip-path="url(#3a9fc75078)"><g clip-path="url(#179e5dda80)"><path fill="#b9dcdd" d="M 42.519531 86.867188 C 37.195312 85.777344 32.535156 83.847656 28.664062 81.125 C 25.558594 78.945312 22.953125 76.257812 20.921875 73.132812 C 17.457031 67.8125 16.863281 63.140625 16.839844 62.945312 L 17.542969 62.859375 C 17.546875 62.90625 18.148438 67.585938 21.535156 72.773438 C 24.65625 77.554688 30.851562 83.757812 42.660156 86.167969 L 42.519531 86.867188 " fill-opacity="1" fill-rule="nonzero"/></g></g><path fill="#2b1413" d="M 30.726562 61.5625 C 30.726562 62.953125 29.605469 64.078125 28.21875 64.078125 C 26.832031 64.078125 25.710938 62.953125 25.710938 61.5625 C 25.710938 60.175781 26.832031 59.050781 28.21875 59.050781 C 29.605469 59.050781 30.726562 60.175781 30.726562 61.5625 " fill-opacity="1" fill-rule="nonzero"/><path fill="#ffffff" d="M 29.816406 60.761719 C 29.816406 61.207031 29.460938 61.5625 29.019531 61.5625 C 28.578125 61.5625 28.21875 61.207031 28.21875 60.761719 C 28.21875 60.320312 28.578125 59.960938 29.019531 59.960938 C 29.460938 59.960938 29.816406 60.320312 29.816406 60.761719 " fill-opacity="1" fill-rule="nonzero"/><path fill="#2b1413" d="M 20.710938 67.910156 C 20.277344 67.910156 19.882812 67.855469 19.539062 67.773438 C 18.28125 67.480469 17.433594 66.824219 17.292969 66.675781 C 17.125 66.503906 17.195312 66.324219 17.261719 66.246094 C 17.328125 66.167969 17.480469 66.058594 17.738281 66.238281 C 17.785156 66.269531 17.820312 66.3125 17.839844 66.359375 C 18.105469 66.558594 18.765625 66.980469 19.664062 67.191406 C 21.066406 67.523438 22.394531 67.207031 23.601562 66.25 C 23.730469 66.148438 23.917969 66.171875 24.019531 66.300781 C 24.121094 66.429688 24.097656 66.617188 23.96875 66.71875 C 22.808594 67.636719 21.664062 67.910156 20.710938 67.910156 " fill-opacity="1" fill-rule="nonzero"/><path fill="#fab9d9" d="M 35.488281 65.421875 C 35.488281 66.308594 34.421875 67.027344 33.109375 67.027344 C 31.792969 67.027344 30.726562 66.308594 30.726562 65.421875 C 30.726562 64.535156 31.792969 63.816406 33.109375 63.816406 C 34.421875 63.816406 35.488281 64.535156 35.488281 65.421875 " fill-opacity="1" fill-rule="nonzero"/><path fill="#4f6dbe" d="M 81.714844 64.40625 C 81.714844 64.40625 85.824219 57.703125 80.042969 54.503906 C 74.261719 51.304688 73.65625 50.390625 73.199219 48.253906 C 73.199219 48.253906 64.375 62.273438 81.714844 64.40625 " fill-opacity="1" fill-rule="nonzero"/><g clip-path="url(#ea8e5a28e9)"><path fill="#4f6dbe" d="M 81.179688 64.277344 C 81.179688 64.277344 80.644531 56.429688 87.25 56.285156 C 93.851562 56.136719 94.8125 55.609375 96.207031 53.933594 C 96.207031 53.933594 97.527344 70.449219 81.179688 64.277344 " fill-opacity="1" fill-rule="nonzero"/></g><path fill="#4f6dbe" d="M 40.953125 70.363281 C 40.953125 70.363281 39.886719 74.007812 43.269531 77.6875 C 46.648438 81.367188 47.230469 75.789062 47.007812 72.949219 L 40.953125 70.363281 " fill-opacity="1" fill-rule="nonzero"/><path fill="#d6eef2" d="M 38.5 30.859375 C 38.5 30.859375 38.207031 25.746094 35.304688 27.339844 C 35.304688 27.339844 34.136719 28.238281 36.265625 29.113281 C 38.394531 29.992188 38.5 30.859375 38.5 30.859375 " fill-opacity="1" fill-rule="nonzero"/><path fill="#d6eef2" d="M 43.660156 30.226562 C 43.660156 30.226562 45.597656 24.078125 47.785156 26.5625 C 48.175781 27.007812 48.488281 28.617188 46.21875 29.011719 C 43.953125 29.40625 43.660156 30.226562 43.660156 30.226562 " fill-opacity="1" fill-rule="nonzero"/><path fill="#a9b8e0" d="M 61.007812 59.523438 C 59.4375 59.523438 56.433594 52.453125 55.246094 51.21875 C 51.910156 47.761719 49.019531 47.738281 46.671875 45.539062 C 44.464844 43.46875 47.328125 43.054688 48.59375 43.054688 C 48.746094 43.054688 48.875 43.0625 48.972656 43.070312 C 62.308594 44.449219 61.691406 58.789062 61.691406 58.789062 C 61.519531 59.304688 61.285156 59.523438 61.007812 59.523438 " fill-opacity="1" fill-rule="nonzero"/></svg>