<svg xmlns="http://www.w3.org/2000/svg" xmlns:xlink="http://www.w3.org/1999/xlink" width="150" zoomAndPan="magnify" viewBox="0 0 112.5 112.499997" height="150" preserveAspectRatio="xMidYMid meet" version="1.0"><defs><clipPath id="5ade927ee3"><path d="M 39 11.199219 L 45 11.199219 L 45 22 L 39 22 Z M 39 11.199219 " clip-rule="nonzero"/></clipPath><clipPath id="d1f558ff60"><path d="M 44.445312 15.164062 L 100.335938 15.164062 L 100.335938 51 L 44.445312 51 Z M 44.445312 15.164062 " clip-rule="nonzero"/></clipPath></defs><path fill="#ababaf" d="M 54.398438 39.128906 L 50.769531 40.65625 L 66.039062 76.980469 L 69.671875 75.449219 L 54.398438 39.128906 " fill-opacity="1" fill-rule="nonzero"/><path fill="#d3297a" d="M 69.882812 73.015625 L 68.625 73.503906 L 65.589844 74.683594 L 64.335938 75.179688 L 67.890625 84.28125 L 69.867188 89.339844 C 70.105469 90.988281 69.21875 92.671875 67.5 93.34375 C 65.660156 94.0625 63.707031 93.082031 62.84375 91.464844 C 61.621094 88.328125 60.035156 84.300781 60.035156 84.300781 L 54.78125 86.359375 C 54.78125 86.359375 58.234375 94.695312 58.308594 94.890625 C 59.765625 98.617188 64.605469 100.675781 69.636719 98.714844 C 76.066406 96.203125 77.257812 91.382812 75.804688 87.648438 C 75.699219 87.386719 69.882812 73.015625 69.882812 73.015625 " fill-opacity="1" fill-rule="nonzero"/><g clip-path="url(#5ade927ee3)"><path fill="#a8a9ac" d="M 42.027344 21.488281 C 42.027344 21.488281 37.949219 12.617188 39.449219 11.988281 C 41.152344 11.273438 43.464844 19.203125 44.613281 20.316406 L 42.027344 21.488281 " fill-opacity="1" fill-rule="nonzero"/></g><path fill="#d3297a" d="M 40.753906 20.324219 C 19.496094 30.273438 8.492188 52.613281 15.265625 71.953125 C 17.351562 69.746094 21.003906 66.671875 25.128906 66.699219 C 31.542969 66.746094 35.71875 70.695312 35.71875 70.695312 C 35.71875 70.695312 35.726562 70.667969 35.726562 70.664062 C 26.289062 36.554688 38.019531 22.925781 40.753906 20.324219 " fill-opacity="1" fill-rule="nonzero"/><path fill="#ebe628" d="M 44.824219 18.625 C 44.105469 18.886719 43.398438 19.113281 42.6875 19.410156 C 42.027344 19.691406 41.394531 20.019531 40.753906 20.324219 C 38.019531 22.925781 26.289062 36.554688 35.726562 70.664062 C 35.785156 70.496094 40.113281 56.53125 56.074219 49.605469 C 71.992188 42.695312 87.148438 51.042969 87.148438 51.042969 C 87.148438 51.042969 87.148438 50.996094 87.144531 50.953125 C 69.472656 19.789062 49.566406 18.460938 44.824219 18.625 " fill-opacity="1" fill-rule="nonzero"/><g clip-path="url(#d1f558ff60)"><path fill="#37a295" d="M 44.824219 18.625 C 49.566406 18.460938 69.472656 19.789062 87.144531 50.953125 C 87.085938 50.007812 86.617188 38.347656 100.351562 38.46875 C 92.011719 18.789062 67.511719 10.222656 44.824219 18.625 " fill-opacity="1" fill-rule="nonzero"/></g></svg>