<svg xmlns="http://www.w3.org/2000/svg" xmlns:xlink="http://www.w3.org/1999/xlink" width="150" zoomAndPan="magnify" viewBox="0 0 112.5 112.499997" height="150" preserveAspectRatio="xMidYMid meet" version="1.0"><defs><clipPath id="f2a508628a"><path d="M 20.621094 12.765625 L 96.785156 12.765625 L 96.785156 93 L 20.621094 93 Z M 20.621094 12.765625 " clip-rule="nonzero"/></clipPath></defs><g clip-path="url(#f2a508628a)"><path fill="#017f8d" d="M 96.296875 73.605469 C 96.242188 73.621094 96.183594 73.636719 96.128906 73.652344 C 96.023438 73.683594 95.914062 73.714844 95.800781 73.746094 C 95.734375 73.765625 95.664062 73.785156 95.59375 73.800781 C 95.496094 73.828125 95.398438 73.859375 95.296875 73.886719 C 95.222656 73.902344 95.148438 73.925781 95.074219 73.945312 C 94.976562 73.972656 94.878906 73.996094 94.777344 74.023438 C 94.703125 74.042969 94.625 74.0625 94.546875 74.082031 C 94.449219 74.109375 94.347656 74.132812 94.246094 74.160156 C 94.167969 74.179688 94.085938 74.199219 94.003906 74.21875 C 93.90625 74.242188 93.804688 74.269531 93.707031 74.292969 C 93.621094 74.3125 93.535156 74.332031 93.453125 74.351562 C 93.355469 74.375 93.253906 74.398438 93.15625 74.421875 C 93.070312 74.441406 92.980469 74.460938 92.894531 74.480469 C 92.792969 74.503906 92.695312 74.527344 92.59375 74.550781 C 92.503906 74.570312 92.414062 74.589844 92.324219 74.609375 C 92.226562 74.632812 92.121094 74.65625 92.019531 74.675781 C 91.929688 74.699219 91.835938 74.71875 91.746094 74.738281 C 91.644531 74.757812 91.539062 74.78125 91.4375 74.804688 C 91.34375 74.820312 91.25 74.84375 91.15625 74.863281 C 91.050781 74.882812 90.949219 74.90625 90.84375 74.925781 C 90.75 74.945312 90.652344 74.964844 90.558594 74.984375 C 90.453125 75.003906 90.347656 75.027344 90.242188 75.046875 C 90.144531 75.066406 90.042969 75.085938 89.945312 75.105469 C 89.839844 75.128906 89.734375 75.148438 89.628906 75.167969 C 89.53125 75.1875 89.429688 75.207031 89.328125 75.226562 C 89.222656 75.246094 89.117188 75.265625 89.007812 75.285156 C 88.90625 75.304688 88.800781 75.324219 88.699219 75.34375 C 88.59375 75.363281 88.484375 75.382812 88.378906 75.402344 C 88.277344 75.421875 88.171875 75.441406 88.066406 75.457031 C 87.957031 75.476562 87.847656 75.496094 87.738281 75.515625 C 87.632812 75.535156 87.527344 75.550781 87.421875 75.570312 C 87.3125 75.589844 87.203125 75.609375 87.089844 75.628906 C 86.984375 75.644531 86.875 75.664062 86.769531 75.679688 C 86.65625 75.699219 86.546875 75.71875 86.4375 75.738281 C 86.328125 75.753906 86.214844 75.773438 86.105469 75.789062 C 85.996094 75.808594 85.882812 75.828125 85.773438 75.84375 C 85.664062 75.863281 85.550781 75.878906 85.441406 75.898438 C 85.328125 75.914062 85.214844 75.933594 85.101562 75.949219 C 84.988281 75.96875 84.875 75.984375 84.757812 76 C 84.648438 76.019531 84.535156 76.035156 84.425781 76.050781 C 84.308594 76.070312 84.191406 76.085938 84.074219 76.105469 C 83.964844 76.121094 83.851562 76.136719 83.742188 76.15625 C 83.621094 76.171875 83.503906 76.1875 83.382812 76.207031 C 83.269531 76.222656 83.15625 76.238281 83.042969 76.257812 C 82.925781 76.273438 82.804688 76.289062 82.683594 76.308594 C 82.574219 76.324219 82.460938 76.339844 82.347656 76.355469 C 82.226562 76.371094 82.101562 76.390625 81.980469 76.40625 C 81.867188 76.421875 81.757812 76.433594 81.644531 76.453125 C 81.519531 76.46875 81.394531 76.484375 81.269531 76.503906 C 81.15625 76.515625 81.042969 76.53125 80.933594 76.546875 C 80.804688 76.5625 80.679688 76.578125 80.550781 76.597656 C 80.441406 76.609375 80.328125 76.625 80.21875 76.636719 C 80.085938 76.65625 79.957031 76.671875 79.828125 76.6875 C 79.71875 76.703125 79.609375 76.714844 79.5 76.730469 C 79.363281 76.746094 79.234375 76.761719 79.097656 76.777344 C 78.992188 76.792969 78.882812 76.804688 78.777344 76.816406 C 78.640625 76.832031 78.5 76.851562 78.363281 76.867188 C 78.257812 76.878906 78.152344 76.894531 78.046875 76.90625 C 77.90625 76.921875 77.765625 76.9375 77.625 76.953125 C 77.519531 76.96875 77.417969 76.976562 77.3125 76.992188 C 77.171875 77.007812 77.027344 77.023438 76.882812 77.039062 C 76.78125 77.050781 76.679688 77.0625 76.578125 77.074219 C 76.429688 77.09375 76.28125 77.109375 76.128906 77.125 C 76.035156 77.136719 75.941406 77.144531 75.847656 77.15625 C 75.691406 77.171875 75.535156 77.191406 75.375 77.207031 C 75.289062 77.214844 75.199219 77.226562 75.113281 77.234375 C 74.949219 77.253906 74.78125 77.269531 74.617188 77.289062 C 74.539062 77.296875 74.457031 77.304688 74.378906 77.3125 C 74.207031 77.332031 74.03125 77.351562 73.859375 77.367188 C 73.785156 77.375 73.71875 77.382812 73.644531 77.390625 C 73.460938 77.410156 73.277344 77.429688 73.089844 77.445312 C 73.050781 77.449219 73.011719 77.453125 72.972656 77.457031 C 70.75 77.679688 68.484375 77.878906 66.203125 78.066406 C 66.1875 78.066406 66.175781 78.066406 66.15625 78.066406 C 65.917969 78.085938 65.675781 78.105469 65.433594 78.125 C 65.414062 78.125 65.398438 78.128906 65.378906 78.128906 C 65.148438 78.148438 64.914062 78.167969 64.683594 78.183594 C 64.652344 78.183594 64.621094 78.1875 64.589844 78.191406 C 64.359375 78.207031 64.125 78.226562 63.894531 78.242188 C 63.867188 78.242188 63.839844 78.246094 63.8125 78.25 C 63.585938 78.265625 63.359375 78.28125 63.132812 78.300781 C 63.097656 78.300781 63.058594 78.304688 63.023438 78.308594 C 62.804688 78.324219 62.578125 78.339844 62.359375 78.355469 C 62.320312 78.359375 62.277344 78.363281 62.238281 78.363281 C 62.019531 78.378906 61.804688 78.394531 61.585938 78.410156 C 61.542969 78.414062 61.496094 78.414062 61.453125 78.417969 C 61.230469 78.433594 61.007812 78.449219 60.78125 78.464844 C 60.75 78.464844 60.714844 78.46875 60.679688 78.472656 C 60.453125 78.488281 60.226562 78.5 60 78.515625 C 59.96875 78.519531 59.933594 78.523438 59.898438 78.523438 C 59.667969 78.539062 59.441406 78.554688 59.210938 78.566406 C 59.183594 78.570312 59.152344 78.574219 59.121094 78.574219 C 58.894531 78.589844 58.667969 78.601562 58.445312 78.617188 C 58.40625 78.617188 58.375 78.621094 58.335938 78.625 C 58.109375 78.636719 57.882812 78.652344 57.65625 78.667969 C 57.625 78.667969 57.59375 78.667969 57.566406 78.671875 C 57.339844 78.6875 57.113281 78.703125 56.882812 78.714844 C 56.851562 78.714844 56.820312 78.71875 56.785156 78.71875 C 56.554688 78.734375 56.328125 78.746094 56.097656 78.761719 C 56.070312 78.761719 56.046875 78.765625 56.019531 78.765625 C 55.789062 78.78125 55.558594 78.792969 55.332031 78.804688 C 55.300781 78.808594 55.269531 78.808594 55.242188 78.8125 C 55.007812 78.824219 54.769531 78.835938 54.539062 78.851562 C 54.523438 78.851562 54.507812 78.851562 54.492188 78.855469 C 54.25 78.867188 54.007812 78.878906 53.761719 78.894531 C 53.753906 78.894531 53.742188 78.898438 53.730469 78.898438 C 53.484375 78.910156 53.242188 78.921875 52.996094 78.9375 C 52.988281 78.9375 52.976562 78.9375 52.96875 78.9375 C 52.722656 78.949219 52.476562 78.964844 52.230469 78.976562 C 52.230469 78.976562 52.226562 78.976562 52.226562 78.976562 C 52.167969 78.980469 52.105469 78.984375 52.046875 78.988281 L 51.386719 77.351562 C 51.160156 76.789062 50.925781 76.222656 50.695312 75.660156 L 50.378906 74.890625 C 50.066406 74.132812 49.742188 73.34375 49.398438 72.582031 L 49.332031 72.433594 C 49.199219 72.132812 49.0625 71.824219 48.933594 71.511719 C 48.925781 71.328125 48.917969 71.144531 48.910156 70.957031 C 48.898438 70.664062 48.886719 70.367188 48.871094 70.070312 L 48.703125 70.089844 C 48.703125 70.085938 48.703125 70.082031 48.703125 70.078125 L 48.695312 69.921875 L 89.160156 64.980469 C 89.414062 64.945312 89.605469 64.722656 89.585938 64.46875 C 89.007812 54.570312 86.121094 45.753906 81 38.253906 C 76.90625 32.257812 71.390625 27.09375 64.597656 22.90625 C 54.285156 16.550781 43.964844 14.371094 42.003906 14 L 41.890625 13.980469 C 41.890625 13.980469 41.875 13.898438 41.855469 13.804688 C 41.910156 13.8125 41.96875 13.824219 42.03125 13.835938 C 41.996094 13.640625 41.972656 13.519531 41.964844 13.480469 C 41.960938 13.472656 41.960938 13.46875 41.960938 13.464844 C 41.890625 13.113281 41.546875 12.878906 41.195312 12.949219 C 40.839844 13.015625 40.605469 13.359375 40.675781 13.714844 C 40.675781 13.71875 40.675781 13.726562 40.679688 13.738281 C 40.679688 13.742188 40.679688 13.746094 40.679688 13.75 C 40.6875 13.777344 40.695312 13.828125 40.707031 13.890625 C 40.710938 13.898438 40.710938 13.90625 40.710938 13.914062 C 40.746094 14.097656 40.808594 14.414062 40.886719 14.847656 C 40.898438 14.914062 40.914062 14.984375 40.925781 15.050781 C 40.902344 15.085938 40.878906 15.121094 40.863281 15.160156 C 40.167969 16.9375 23.875 58.890625 23.300781 73.441406 C 23.296875 73.589844 23.359375 73.734375 23.46875 73.828125 L 23.59375 73.921875 L 23.539062 74.042969 C 23.453125 74.238281 23.355469 74.460938 23.273438 74.679688 C 23.0625 75.265625 22.867188 75.816406 22.6875 76.359375 L 22.523438 76.839844 C 22.394531 77.226562 22.261719 77.617188 22.136719 78.007812 L 21.859375 78.878906 C 21.832031 78.960938 21.804688 79.046875 21.773438 79.136719 C 21.703125 79.332031 21.632812 79.535156 21.601562 79.726562 C 21.589844 79.78125 21.59375 79.832031 21.609375 79.878906 L 21.625 79.929688 C 21.566406 79.929688 21.507812 79.929688 21.449219 79.929688 C 21.246094 79.933594 21.078125 79.933594 20.949219 79.933594 C 20.90625 79.933594 20.867188 79.933594 20.835938 79.933594 C 20.832031 79.933594 20.832031 79.933594 20.828125 79.933594 C 20.800781 79.933594 20.773438 79.933594 20.753906 79.933594 C 20.738281 79.933594 20.730469 79.933594 20.71875 79.933594 C 20.703125 79.933594 20.695312 79.933594 20.683594 79.933594 C 20.679688 79.933594 20.675781 79.933594 20.671875 79.933594 C 20.660156 79.933594 20.652344 79.933594 20.644531 79.933594 C 20.628906 79.933594 20.621094 79.933594 20.621094 79.933594 C 20.621094 79.933594 26.089844 89.867188 30.960938 91.285156 C 35.246094 92.53125 75.449219 93.3125 84.792969 89.664062 C 94.136719 86.019531 96.777344 73.460938 96.777344 73.460938 C 96.621094 73.507812 96.457031 73.554688 96.296875 73.605469 Z M 47.574219 70.375 C 47.578125 70.429688 47.582031 70.484375 47.582031 70.542969 C 47.648438 72.003906 47.703125 73.457031 47.742188 74.902344 C 47.742188 74.902344 47.742188 74.90625 47.742188 74.90625 C 47.761719 75.628906 47.777344 76.347656 47.789062 77.0625 C 47.789062 77.0625 47.789062 77.0625 47.789062 77.066406 C 47.800781 77.78125 47.808594 78.496094 47.8125 79.203125 C 47.167969 79.234375 46.53125 79.261719 45.898438 79.289062 C 45.898438 79.289062 45.894531 79.289062 45.894531 79.289062 C 45.839844 79.292969 45.78125 79.292969 45.726562 79.296875 L 45.726562 79.273438 C 45.738281 79.183594 45.742188 79.089844 45.75 78.996094 C 45.757812 78.871094 45.765625 78.746094 45.777344 78.625 L 45.898438 77.386719 C 45.925781 77.117188 45.953125 76.851562 45.980469 76.582031 C 46.039062 76.019531 46.097656 75.4375 46.148438 74.863281 C 46.191406 74.320312 46.238281 73.777344 46.285156 73.238281 L 46.355469 72.378906 C 46.390625 71.96875 46.421875 71.554688 46.449219 71.140625 L 46.460938 70.960938 C 46.472656 70.839844 46.480469 70.714844 46.484375 70.59375 L 46.492188 70.445312 L 46.640625 70.433594 C 46.960938 70.410156 47.273438 70.390625 47.574219 70.375 Z M 49.160156 73.207031 C 49.390625 73.847656 49.644531 74.5 49.867188 75.074219 L 50.132812 75.765625 C 50.363281 76.363281 50.59375 76.957031 50.828125 77.550781 L 51.410156 79.03125 C 51.347656 79.03125 51.289062 79.035156 51.230469 79.039062 C 50.523438 79.074219 49.820312 79.109375 49.125 79.144531 C 49.121094 78.660156 49.117188 78.175781 49.109375 77.691406 C 49.109375 77.683594 49.109375 77.683594 49.109375 77.675781 C 49.101562 77.195312 49.09375 76.710938 49.082031 76.222656 C 49.082031 76.21875 49.082031 76.214844 49.082031 76.210938 C 49.0625 75.234375 49.035156 74.253906 49.003906 73.265625 C 49.003906 73.253906 49.003906 73.246094 49 73.238281 Z M 48.824219 53.445312 C 48.910156 56.726562 48.84375 59.945312 48.625 63.015625 L 48.453125 63.015625 C 48.453125 63.011719 48.453125 63.007812 48.457031 63 C 48.421875 62.511719 48.386719 62.019531 48.347656 61.527344 C 48.347656 61.527344 48.347656 61.527344 48.347656 61.523438 C 48.3125 61.035156 48.273438 60.546875 48.234375 60.058594 C 48.234375 60.054688 48.234375 60.054688 48.234375 60.054688 C 48.195312 59.5625 48.152344 59.078125 48.113281 58.589844 C 48.113281 58.589844 48.113281 58.585938 48.113281 58.585938 C 48.074219 58.101562 48.03125 57.613281 47.988281 57.125 C 47.945312 56.636719 47.902344 56.15625 47.855469 55.671875 C 47.855469 55.667969 47.855469 55.667969 47.855469 55.664062 C 47.722656 54.214844 47.582031 52.773438 47.433594 51.347656 C 47.433594 51.34375 47.433594 51.34375 47.433594 51.339844 C 47.382812 50.867188 47.335938 50.394531 47.285156 49.925781 C 47.285156 49.925781 47.285156 49.917969 47.285156 49.917969 C 47.234375 49.449219 47.183594 48.980469 47.132812 48.515625 C 47.132812 48.515625 47.132812 48.511719 47.132812 48.507812 C 47.082031 48.042969 47.03125 47.582031 46.976562 47.117188 C 46.976562 47.113281 46.976562 47.109375 46.976562 47.105469 C 46.925781 46.648438 46.871094 46.1875 46.820312 45.734375 C 46.816406 45.726562 46.816406 45.722656 46.816406 45.714844 C 46.761719 45.261719 46.710938 44.8125 46.65625 44.363281 C 46.65625 44.355469 46.65625 44.351562 46.652344 44.34375 C 46.597656 43.894531 46.546875 43.449219 46.492188 43.007812 C 46.492188 43.003906 46.492188 42.996094 46.488281 42.988281 C 46.433594 42.546875 46.382812 42.109375 46.328125 41.675781 C 46.324219 41.664062 46.324219 41.652344 46.324219 41.640625 C 46.269531 41.207031 46.214844 40.777344 46.160156 40.347656 C 46.15625 40.34375 46.15625 40.335938 46.15625 40.328125 C 46.097656 39.898438 46.046875 39.472656 45.988281 39.046875 C 45.988281 39.039062 45.988281 39.03125 45.984375 39.023438 C 45.929688 38.601562 45.875 38.179688 45.820312 37.765625 C 45.816406 37.757812 45.816406 37.75 45.816406 37.738281 C 45.761719 37.324219 45.703125 36.914062 45.648438 36.507812 C 45.648438 36.496094 45.644531 36.484375 45.644531 36.476562 C 45.589844 36.070312 45.535156 35.667969 45.476562 35.273438 C 45.476562 35.257812 45.472656 35.242188 45.472656 35.226562 C 45.417969 34.832031 45.363281 34.441406 45.308594 34.050781 C 45.304688 34.039062 45.304688 34.027344 45.304688 34.011719 C 45.246094 33.621094 45.191406 33.238281 45.136719 32.855469 C 45.136719 32.847656 45.132812 32.835938 45.132812 32.828125 C 45.078125 32.445312 45.023438 32.0625 44.96875 31.6875 C 44.96875 31.675781 44.964844 31.667969 44.964844 31.660156 C 44.910156 31.285156 44.855469 30.914062 44.800781 30.546875 C 44.796875 30.539062 44.796875 30.53125 44.796875 30.523438 C 44.742188 30.15625 44.6875 29.792969 44.632812 29.433594 C 44.632812 29.425781 44.632812 29.414062 44.628906 29.40625 C 44.574219 29.046875 44.523438 28.695312 44.46875 28.347656 C 44.46875 28.339844 44.46875 28.332031 44.464844 28.324219 C 44.410156 27.976562 44.359375 27.628906 44.304688 27.289062 C 44.304688 27.28125 44.304688 27.277344 44.304688 27.269531 C 44.25 26.929688 44.199219 26.59375 44.148438 26.261719 C 44.144531 26.257812 44.144531 26.25 44.144531 26.242188 C 44.09375 25.914062 44.042969 25.589844 43.992188 25.273438 C 43.988281 25.261719 43.988281 25.25 43.988281 25.242188 C 43.933594 24.925781 43.886719 24.609375 43.835938 24.300781 C 43.835938 24.296875 43.835938 24.292969 43.835938 24.289062 C 43.785156 23.980469 43.734375 23.671875 43.6875 23.371094 C 43.6875 23.367188 43.683594 23.367188 43.683594 23.363281 C 43.636719 23.0625 43.589844 22.765625 43.539062 22.472656 C 43.539062 22.472656 43.539062 22.46875 43.539062 22.464844 L 43.703125 22.425781 C 47.597656 35.238281 48.636719 46.367188 48.824219 53.445312 Z M 40.863281 14.632812 C 40.789062 14.441406 40.8125 14.230469 40.914062 14.058594 C 40.949219 14.246094 40.996094 14.5 41.054688 14.816406 L 41.074219 14.910156 L 41 14.972656 C 40.996094 14.976562 40.996094 14.976562 40.992188 14.980469 C 40.949219 14.863281 40.90625 14.75 40.863281 14.632812 Z M 41.347656 18.3125 L 41.511719 18.3125 C 41.511719 18.320312 41.511719 18.328125 41.515625 18.335938 C 41.515625 18.339844 41.515625 18.339844 41.515625 18.34375 C 41.539062 18.46875 41.558594 18.59375 41.582031 18.722656 C 41.585938 18.734375 41.585938 18.75 41.589844 18.765625 C 41.660156 19.175781 41.734375 19.609375 41.8125 20.0625 C 41.8125 20.070312 41.816406 20.078125 41.816406 20.085938 C 41.839844 20.226562 41.867188 20.367188 41.890625 20.511719 C 41.894531 20.53125 41.898438 20.550781 41.898438 20.570312 C 41.925781 20.710938 41.949219 20.851562 41.972656 20.996094 C 41.972656 21.011719 41.976562 21.023438 41.976562 21.039062 C 42.058594 21.511719 42.140625 22.007812 42.226562 22.523438 C 42.230469 22.554688 42.238281 22.585938 42.242188 22.617188 C 42.261719 22.757812 42.289062 22.898438 42.3125 23.042969 C 42.316406 23.074219 42.324219 23.109375 42.328125 23.140625 C 42.414062 23.664062 42.5 24.207031 42.589844 24.765625 C 42.59375 24.800781 42.597656 24.832031 42.605469 24.863281 C 42.632812 25.019531 42.65625 25.179688 42.683594 25.34375 C 42.6875 25.375 42.691406 25.40625 42.699219 25.4375 C 42.726562 25.613281 42.753906 25.792969 42.78125 25.972656 C 42.785156 25.988281 42.785156 25.996094 42.789062 26.011719 C 42.851562 26.40625 42.914062 26.8125 42.976562 27.222656 C 42.980469 27.246094 42.988281 27.273438 42.988281 27.296875 C 43.015625 27.46875 43.042969 27.640625 43.070312 27.8125 C 43.074219 27.859375 43.082031 27.90625 43.089844 27.949219 C 43.117188 28.125 43.144531 28.300781 43.167969 28.476562 C 43.175781 28.503906 43.175781 28.53125 43.183594 28.5625 C 43.246094 28.984375 43.3125 29.414062 43.378906 29.851562 C 43.382812 29.875 43.382812 29.894531 43.386719 29.917969 C 43.417969 30.109375 43.445312 30.300781 43.472656 30.496094 C 43.480469 30.539062 43.488281 30.578125 43.492188 30.621094 C 43.519531 30.800781 43.546875 30.984375 43.574219 31.167969 C 43.582031 31.207031 43.585938 31.25 43.59375 31.289062 C 43.660156 31.742188 43.726562 32.195312 43.792969 32.660156 C 43.792969 32.660156 43.792969 32.660156 43.792969 32.664062 C 43.824219 32.886719 43.855469 33.113281 43.890625 33.335938 C 43.898438 33.375 43.902344 33.417969 43.910156 33.457031 C 43.933594 33.648438 43.960938 33.84375 43.992188 34.039062 C 43.996094 34.082031 44.003906 34.128906 44.011719 34.175781 C 44.039062 34.386719 44.070312 34.597656 44.097656 34.808594 C 44.101562 34.832031 44.105469 34.851562 44.105469 34.871094 C 44.175781 35.351562 44.242188 35.835938 44.308594 36.324219 C 44.3125 36.363281 44.320312 36.402344 44.324219 36.441406 C 44.351562 36.648438 44.378906 36.855469 44.410156 37.0625 C 44.414062 37.105469 44.421875 37.152344 44.425781 37.195312 C 44.453125 37.410156 44.484375 37.628906 44.511719 37.84375 C 44.519531 37.875 44.519531 37.902344 44.527344 37.933594 C 44.59375 38.4375 44.660156 38.945312 44.726562 39.457031 C 44.730469 39.480469 44.734375 39.503906 44.738281 39.527344 C 44.769531 39.757812 44.796875 39.988281 44.828125 40.21875 C 44.832031 40.261719 44.839844 40.300781 44.84375 40.339844 C 44.875 40.558594 44.902344 40.78125 44.929688 41.003906 C 44.933594 41.042969 44.9375 41.082031 44.941406 41.121094 C 45.042969 41.898438 45.140625 42.691406 45.238281 43.488281 C 45.242188 43.523438 45.246094 43.5625 45.25 43.597656 C 45.28125 43.832031 45.304688 44.066406 45.335938 44.296875 C 45.339844 44.335938 45.34375 44.371094 45.347656 44.40625 C 45.378906 44.667969 45.410156 44.929688 45.441406 45.191406 C 45.441406 45.195312 45.441406 45.195312 45.441406 45.199219 C 45.507812 45.75 45.570312 46.308594 45.632812 46.867188 C 45.636719 46.886719 45.640625 46.910156 45.640625 46.929688 C 45.671875 47.179688 45.699219 47.429688 45.726562 47.679688 C 45.730469 47.71875 45.734375 47.757812 45.738281 47.796875 C 45.769531 48.046875 45.796875 48.304688 45.824219 48.558594 C 45.824219 48.574219 45.828125 48.59375 45.832031 48.613281 C 45.890625 49.175781 45.953125 49.746094 46.015625 50.316406 C 46.015625 50.328125 46.019531 50.339844 46.019531 50.355469 C 46.046875 50.617188 46.074219 50.878906 46.101562 51.140625 C 46.105469 51.179688 46.109375 51.222656 46.117188 51.261719 C 46.140625 51.511719 46.167969 51.757812 46.191406 52.007812 C 46.195312 52.039062 46.199219 52.070312 46.203125 52.101562 C 46.289062 52.953125 46.371094 53.808594 46.453125 54.667969 C 46.457031 54.707031 46.460938 54.746094 46.464844 54.78125 C 46.488281 55.035156 46.511719 55.285156 46.535156 55.539062 C 46.539062 55.574219 46.539062 55.609375 46.542969 55.648438 C 46.625 56.511719 46.703125 57.378906 46.773438 58.25 C 46.777344 58.28125 46.78125 58.308594 46.78125 58.339844 C 46.804688 58.597656 46.824219 58.855469 46.847656 59.117188 C 46.851562 59.15625 46.855469 59.191406 46.855469 59.230469 C 46.878906 59.5 46.902344 59.769531 46.921875 60.042969 C 46.925781 60.058594 46.925781 60.074219 46.925781 60.089844 C 46.972656 60.679688 47.019531 61.269531 47.0625 61.863281 C 47.0625 61.878906 47.0625 61.894531 47.066406 61.914062 C 47.085938 62.179688 47.105469 62.449219 47.125 62.71875 C 47.128906 62.761719 47.132812 62.804688 47.132812 62.851562 C 47.152344 63.105469 47.171875 63.359375 47.1875 63.613281 C 47.191406 63.648438 47.191406 63.683594 47.195312 63.71875 C 47.234375 64.308594 47.273438 64.898438 47.3125 65.488281 C 47.3125 65.496094 47.3125 65.503906 47.3125 65.511719 L 47.152344 65.542969 C 46.160156 62.621094 44.710938 57.964844 43.453125 52.347656 C 41.546875 43.835938 39.636719 31.019531 41.347656 18.3125 Z M 22.074219 79.855469 C 22.152344 79.667969 22.210938 79.460938 22.269531 79.261719 C 22.289062 79.199219 22.308594 79.132812 22.328125 79.070312 L 22.589844 78.199219 C 22.714844 77.78125 22.832031 77.363281 22.953125 76.945312 L 23.082031 76.492188 C 23.242188 75.921875 23.398438 75.34375 23.542969 74.777344 C 23.605469 74.535156 23.660156 74.285156 23.703125 74.074219 L 23.730469 73.957031 L 23.851562 73.941406 L 23.886719 73.9375 C 24.023438 73.910156 37.84375 71.140625 46.179688 70.46875 L 46.398438 70.453125 L 46.359375 70.664062 C 46.34375 70.753906 46.332031 70.84375 46.316406 70.933594 C 46.304688 71.007812 46.292969 71.085938 46.28125 71.160156 C 46.210938 71.566406 46.144531 71.976562 46.082031 72.382812 L 45.957031 73.195312 C 45.875 73.746094 45.789062 74.296875 45.707031 74.847656 C 45.621094 75.414062 45.542969 75.992188 45.46875 76.550781 C 45.429688 76.816406 45.394531 77.078125 45.359375 77.34375 L 45.1875 78.585938 C 45.167969 78.710938 45.148438 78.832031 45.125 78.960938 C 45.105469 79.082031 45.085938 79.203125 45.066406 79.328125 C 45.011719 79.328125 44.953125 79.332031 44.898438 79.335938 C 44.59375 79.347656 44.296875 79.359375 43.996094 79.371094 C 43.9375 79.371094 43.882812 79.375 43.824219 79.378906 C 43.554688 79.390625 43.285156 79.398438 43.015625 79.410156 C 42.988281 79.410156 42.953125 79.414062 42.925781 79.414062 C 42.617188 79.421875 42.308594 79.4375 42.003906 79.449219 C 41.988281 79.449219 41.972656 79.449219 41.953125 79.449219 C 41.675781 79.460938 41.398438 79.46875 41.121094 79.480469 C 41.074219 79.480469 41.023438 79.484375 40.972656 79.484375 C 40.703125 79.492188 40.433594 79.503906 40.167969 79.511719 C 40.148438 79.511719 40.125 79.515625 40.101562 79.515625 C 39.804688 79.527344 39.507812 79.535156 39.210938 79.542969 C 39.203125 79.542969 39.191406 79.542969 39.175781 79.546875 C 38.910156 79.554688 38.640625 79.5625 38.375 79.574219 C 38.324219 79.574219 38.273438 79.578125 38.222656 79.578125 C 37.960938 79.585938 37.703125 79.59375 37.445312 79.601562 C 37.429688 79.601562 37.414062 79.605469 37.402344 79.605469 C 37.117188 79.613281 36.835938 79.621094 36.554688 79.628906 C 36.535156 79.628906 36.515625 79.632812 36.496094 79.632812 C 36.246094 79.640625 35.996094 79.644531 35.753906 79.652344 C 35.710938 79.65625 35.667969 79.65625 35.625 79.65625 C 35.089844 79.671875 34.566406 79.6875 34.054688 79.699219 C 34.019531 79.703125 33.988281 79.703125 33.953125 79.703125 C 33.734375 79.710938 33.515625 79.714844 33.300781 79.722656 C 33.253906 79.722656 33.203125 79.722656 33.15625 79.722656 C 32.914062 79.730469 32.675781 79.738281 32.441406 79.742188 C 32.441406 79.742188 32.4375 79.742188 32.433594 79.742188 C 32.1875 79.746094 31.945312 79.753906 31.703125 79.757812 C 31.667969 79.761719 31.632812 79.761719 31.597656 79.761719 C 31.394531 79.765625 31.195312 79.773438 30.996094 79.777344 C 30.953125 79.777344 30.914062 79.777344 30.871094 79.78125 C 30.410156 79.789062 29.957031 79.800781 29.515625 79.808594 C 29.496094 79.808594 29.476562 79.8125 29.457031 79.8125 C 29.261719 79.816406 29.074219 79.820312 28.886719 79.824219 C 28.84375 79.824219 28.804688 79.824219 28.761719 79.824219 C 28.347656 79.832031 27.949219 79.839844 27.566406 79.847656 C 27.523438 79.847656 27.484375 79.847656 27.445312 79.847656 C 27.28125 79.851562 27.121094 79.855469 26.960938 79.855469 C 26.933594 79.855469 26.902344 79.859375 26.875 79.859375 C 26.503906 79.863281 26.148438 79.871094 25.804688 79.875 C 25.761719 79.875 25.71875 79.878906 25.675781 79.878906 C 25.542969 79.878906 25.410156 79.882812 25.28125 79.882812 C 25.25 79.882812 25.21875 79.886719 25.191406 79.886719 C 24.867188 79.890625 24.558594 79.894531 24.265625 79.898438 C 24.234375 79.898438 24.203125 79.898438 24.171875 79.898438 C 24.058594 79.902344 23.945312 79.902344 23.832031 79.90625 C 23.800781 79.90625 23.765625 79.90625 23.734375 79.90625 C 23.601562 79.90625 23.472656 79.910156 23.351562 79.910156 C 23.339844 79.910156 23.324219 79.910156 23.3125 79.910156 C 23.199219 79.914062 23.089844 79.914062 22.984375 79.914062 C 22.953125 79.914062 22.925781 79.914062 22.894531 79.917969 C 22.796875 79.917969 22.703125 79.917969 22.609375 79.917969 C 22.59375 79.917969 22.574219 79.917969 22.558594 79.917969 C 22.445312 79.921875 22.339844 79.921875 22.234375 79.921875 C 22.171875 79.921875 22.113281 79.925781 22.050781 79.925781 Z M 22.074219 79.855469 " fill-opacity="1" fill-rule="nonzero"/></g><path fill="#ecb920" d="M 49.003906 73.265625 C 48.976562 72.503906 48.945312 71.734375 48.914062 70.964844 C 48.933594 71.027344 48.949219 71.082031 48.96875 71.140625 C 48.976562 71.15625 48.980469 71.171875 48.988281 71.1875 C 49.011719 71.253906 49.03125 71.3125 49.054688 71.375 C 49.210938 71.761719 49.386719 72.140625 49.554688 72.519531 C 49.910156 73.308594 50.238281 74.109375 50.566406 74.910156 C 50.894531 75.703125 51.226562 76.5 51.546875 77.292969 C 51.710938 77.707031 51.878906 78.117188 52.046875 78.527344 C 52.105469 78.679688 52.167969 78.832031 52.230469 78.984375 C 51.898438 79 51.5625 79.019531 51.230469 79.035156 C 51.207031 78.972656 51.183594 78.910156 51.15625 78.847656 C 50.996094 78.433594 50.832031 78.023438 50.671875 77.609375 C 50.347656 76.785156 50.03125 75.960938 49.710938 75.132812 C 49.605469 74.867188 49.503906 74.601562 49.402344 74.335938 C 49.375 74.265625 49.351562 74.199219 49.324219 74.128906 C 49.21875 73.84375 49.105469 73.554688 49.003906 73.265625 Z M 45.917969 78.964844 C 45.925781 78.855469 45.933594 78.75 45.945312 78.644531 C 45.984375 78.230469 46.027344 77.816406 46.066406 77.402344 C 46.148438 76.5625 46.242188 75.722656 46.3125 74.878906 C 46.386719 74.050781 46.453125 73.222656 46.523438 72.394531 C 46.558594 71.980469 46.589844 71.566406 46.617188 71.152344 C 46.621094 71.09375 46.625 71.035156 46.628906 70.972656 C 46.640625 70.847656 46.648438 70.722656 46.652344 70.601562 C 46.503906 70.609375 46.347656 70.621094 46.195312 70.636719 C 46.175781 70.746094 46.160156 70.851562 46.140625 70.960938 C 46.132812 71.015625 46.125 71.074219 46.117188 71.128906 C 46.046875 71.539062 45.980469 71.945312 45.917969 72.355469 C 45.789062 73.175781 45.660156 73.996094 45.539062 74.816406 C 45.414062 75.648438 45.304688 76.484375 45.191406 77.316406 C 45.132812 77.730469 45.074219 78.144531 45.019531 78.558594 C 45 78.683594 44.976562 78.8125 44.957031 78.941406 C 44.933594 79.066406 44.910156 79.199219 44.894531 79.328125 C 45.226562 79.3125 45.558594 79.300781 45.894531 79.285156 C 45.90625 79.179688 45.910156 79.070312 45.917969 78.964844 Z M 22.230469 79.921875 C 22.339844 79.660156 22.40625 79.386719 22.488281 79.117188 C 22.574219 78.828125 22.664062 78.535156 22.75 78.246094 C 22.921875 77.675781 23.082031 77.105469 23.242188 76.535156 C 23.40625 75.964844 23.5625 75.394531 23.707031 74.820312 C 23.742188 74.6875 23.773438 74.554688 23.800781 74.421875 C 23.824219 74.316406 23.847656 74.210938 23.871094 74.109375 C 23.84375 74.109375 23.816406 74.117188 23.789062 74.117188 C 23.644531 74.117188 23.503906 74.066406 23.390625 73.976562 C 23.351562 74.066406 23.3125 74.15625 23.273438 74.242188 C 23.21875 74.371094 23.164062 74.496094 23.117188 74.621094 C 22.914062 75.179688 22.71875 75.742188 22.527344 76.308594 C 22.34375 76.859375 22.152344 77.40625 21.980469 77.960938 C 21.886719 78.25 21.792969 78.539062 21.703125 78.828125 C 21.609375 79.113281 21.484375 79.40625 21.4375 79.699219 C 21.429688 79.738281 21.429688 79.773438 21.429688 79.8125 C 21.429688 79.816406 21.429688 79.820312 21.429688 79.824219 C 21.433594 79.859375 21.441406 79.898438 21.453125 79.929688 C 21.671875 79.925781 21.929688 79.925781 22.230469 79.921875 Z M 24.492188 72.65625 C 27.824219 72.003906 40.117188 69.671875 47.269531 69.25 C 46.429688 67.058594 44.1875 60.84375 42.34375 52.625 C 40.511719 44.449219 38.761719 32.785156 39.894531 20.9375 C 35.484375 32.734375 25.382812 60.808594 24.492188 72.65625 Z M 23.789062 74.113281 C 23.644531 74.113281 23.503906 74.066406 23.390625 73.976562 C 23.382812 73.96875 23.375 73.964844 23.367188 73.957031 C 23.210938 73.828125 23.128906 73.636719 23.136719 73.4375 C 23.710938 58.859375 40.015625 16.878906 40.710938 15.101562 C 40.730469 15.050781 40.753906 15.007812 40.785156 14.964844 C 40.789062 14.960938 40.792969 14.957031 40.796875 14.953125 C 40.824219 14.914062 40.855469 14.878906 40.890625 14.847656 C 41.039062 15.636719 41.25 16.820312 41.515625 18.335938 C 41.039062 21.871094 40.84375 25.410156 40.847656 28.867188 C 40.847656 28.878906 40.847656 28.890625 40.847656 28.902344 C 40.851562 29.269531 40.855469 29.632812 40.859375 30 C 40.859375 30.023438 40.859375 30.050781 40.859375 30.074219 C 40.867188 30.429688 40.875 30.785156 40.882812 31.140625 C 40.882812 31.171875 40.882812 31.203125 40.886719 31.238281 C 40.894531 31.585938 40.910156 31.9375 40.921875 32.285156 C 40.921875 32.316406 40.925781 32.347656 40.925781 32.382812 C 40.941406 32.730469 40.957031 33.082031 40.972656 33.425781 C 40.976562 33.453125 40.976562 33.476562 40.976562 33.503906 C 40.996094 33.859375 41.015625 34.214844 41.039062 34.566406 C 41.039062 34.574219 41.039062 34.582031 41.039062 34.589844 C 41.203125 37.128906 41.453125 39.59375 41.765625 41.941406 C 41.773438 42.007812 41.78125 42.070312 41.792969 42.132812 C 41.828125 42.394531 41.863281 42.648438 41.898438 42.90625 C 41.914062 43.003906 41.925781 43.101562 41.941406 43.199219 C 41.972656 43.433594 42.007812 43.664062 42.042969 43.894531 C 42.0625 44.011719 42.078125 44.132812 42.097656 44.25 C 42.132812 44.464844 42.164062 44.675781 42.199219 44.890625 C 42.21875 45.019531 42.238281 45.148438 42.261719 45.277344 C 42.292969 45.476562 42.324219 45.675781 42.359375 45.875 C 42.382812 46.011719 42.40625 46.152344 42.429688 46.289062 C 42.460938 46.476562 42.496094 46.664062 42.527344 46.851562 C 42.554688 46.996094 42.582031 47.140625 42.605469 47.285156 C 42.636719 47.460938 42.667969 47.636719 42.703125 47.808594 C 42.730469 47.964844 42.757812 48.117188 42.789062 48.269531 C 42.816406 48.429688 42.847656 48.589844 42.878906 48.75 C 42.910156 48.914062 42.941406 49.074219 42.972656 49.234375 C 43.003906 49.382812 43.03125 49.527344 43.058594 49.671875 C 43.09375 49.847656 43.128906 50.015625 43.164062 50.1875 C 43.191406 50.316406 43.21875 50.449219 43.246094 50.578125 C 43.285156 50.769531 43.324219 50.960938 43.367188 51.148438 C 43.386719 51.25 43.410156 51.355469 43.429688 51.457031 C 43.492188 51.75 43.554688 52.035156 43.621094 52.316406 C 43.695312 52.652344 43.769531 52.984375 43.847656 53.316406 C 43.851562 53.339844 43.859375 53.363281 43.863281 53.386719 C 43.933594 53.695312 44.007812 54 44.082031 54.300781 C 44.089844 54.332031 44.09375 54.363281 44.101562 54.394531 C 44.175781 54.6875 44.246094 54.980469 44.316406 55.269531 C 44.324219 55.300781 44.332031 55.335938 44.339844 55.371094 C 44.414062 55.65625 44.484375 55.941406 44.554688 56.222656 C 44.5625 56.25 44.570312 56.28125 44.578125 56.308594 C 44.652344 56.597656 44.726562 56.882812 44.804688 57.167969 C 44.808594 57.183594 44.8125 57.203125 44.816406 57.21875 C 44.972656 57.8125 45.132812 58.394531 45.289062 58.957031 C 45.296875 58.976562 45.300781 58.992188 45.304688 59.011719 C 45.382812 59.273438 45.453125 59.535156 45.527344 59.792969 C 45.535156 59.816406 45.542969 59.84375 45.546875 59.867188 C 45.621094 60.117188 45.691406 60.363281 45.761719 60.605469 C 45.769531 60.632812 45.777344 60.652344 45.785156 60.675781 C 45.855469 60.921875 45.929688 61.164062 46 61.402344 C 46.003906 61.417969 46.011719 61.4375 46.015625 61.453125 C 46.089844 61.699219 46.164062 61.941406 46.234375 62.179688 C 46.238281 62.1875 46.238281 62.191406 46.242188 62.195312 C 46.390625 62.6875 46.542969 63.160156 46.683594 63.609375 C 46.683594 63.613281 46.6875 63.613281 46.6875 63.617188 C 46.757812 63.835938 46.828125 64.054688 46.898438 64.261719 C 46.898438 64.269531 46.902344 64.28125 46.90625 64.289062 C 46.972656 64.496094 47.039062 64.695312 47.105469 64.890625 C 47.105469 64.898438 47.109375 64.902344 47.109375 64.910156 C 47.175781 65.113281 47.242188 65.304688 47.304688 65.496094 C 47.414062 67.179688 47.503906 68.867188 47.582031 70.542969 C 47.28125 70.558594 46.96875 70.578125 46.648438 70.601562 C 46.5 70.613281 46.347656 70.625 46.191406 70.636719 C 46.191406 70.636719 46.191406 70.636719 46.1875 70.636719 C 45.550781 70.6875 44.878906 70.753906 44.183594 70.828125 C 44.171875 70.828125 44.160156 70.832031 44.148438 70.832031 C 44.027344 70.84375 43.902344 70.855469 43.78125 70.871094 C 43.757812 70.871094 43.730469 70.875 43.707031 70.878906 C 43.589844 70.890625 43.46875 70.90625 43.347656 70.917969 C 43.320312 70.921875 43.292969 70.925781 43.269531 70.929688 C 43.148438 70.941406 43.027344 70.957031 42.90625 70.972656 C 42.878906 70.976562 42.847656 70.976562 42.824219 70.980469 C 42.703125 70.996094 42.578125 71.007812 42.457031 71.027344 C 42.429688 71.027344 42.402344 71.03125 42.375 71.035156 C 42.25 71.050781 42.125 71.066406 41.996094 71.082031 C 41.976562 71.085938 41.953125 71.085938 41.929688 71.089844 C 41.796875 71.105469 41.664062 71.121094 41.53125 71.140625 C 41.519531 71.140625 41.511719 71.144531 41.5 71.144531 C 40.3125 71.296875 39.089844 71.472656 37.875 71.65625 C 37.859375 71.65625 37.847656 71.660156 37.832031 71.664062 C 37.695312 71.683594 37.554688 71.703125 37.417969 71.722656 C 37.398438 71.726562 37.378906 71.730469 37.359375 71.734375 C 37.21875 71.753906 37.082031 71.773438 36.945312 71.796875 C 36.929688 71.800781 36.910156 71.800781 36.894531 71.804688 C 36.757812 71.828125 36.617188 71.847656 36.476562 71.871094 C 36.460938 71.875 36.449219 71.875 36.433594 71.878906 C 36.289062 71.898438 36.148438 71.921875 36.003906 71.945312 C 36 71.945312 35.996094 71.945312 35.992188 71.945312 C 34.773438 72.140625 33.574219 72.339844 32.433594 72.535156 C 32.433594 72.535156 32.429688 72.535156 32.429688 72.535156 C 32.296875 72.558594 32.160156 72.578125 32.027344 72.605469 C 32.015625 72.605469 32 72.609375 31.988281 72.609375 C 31.859375 72.632812 31.734375 72.65625 31.609375 72.675781 C 31.59375 72.679688 31.574219 72.679688 31.558594 72.683594 C 31.433594 72.707031 31.3125 72.726562 31.191406 72.75 C 31.175781 72.75 31.160156 72.753906 31.140625 72.757812 C 31.015625 72.78125 30.890625 72.800781 30.769531 72.824219 C 30.761719 72.824219 30.753906 72.824219 30.75 72.824219 C 29.824219 72.988281 28.953125 73.148438 28.167969 73.292969 C 28.15625 73.292969 28.148438 73.292969 28.136719 73.296875 C 28.03125 73.316406 27.929688 73.335938 27.828125 73.351562 C 27.816406 73.355469 27.808594 73.355469 27.800781 73.359375 C 27.703125 73.375 27.605469 73.394531 27.511719 73.410156 C 27.496094 73.414062 27.480469 73.417969 27.460938 73.421875 C 27.375 73.4375 27.292969 73.453125 27.207031 73.46875 C 27.183594 73.472656 27.15625 73.480469 27.128906 73.484375 C 27.054688 73.496094 26.976562 73.511719 26.902344 73.527344 C 26.875 73.53125 26.847656 73.539062 26.820312 73.542969 C 26.746094 73.554688 26.671875 73.570312 26.601562 73.582031 C 26.574219 73.589844 26.546875 73.59375 26.523438 73.597656 C 26.453125 73.609375 26.382812 73.625 26.316406 73.636719 C 26.292969 73.640625 26.265625 73.644531 26.242188 73.648438 C 26.171875 73.664062 26.105469 73.675781 26.039062 73.6875 C 26.027344 73.691406 26.011719 73.691406 26 73.695312 C 25.519531 73.789062 25.109375 73.867188 24.78125 73.929688 C 24.761719 73.933594 24.742188 73.9375 24.722656 73.941406 C 24.691406 73.949219 24.660156 73.957031 24.628906 73.960938 C 24.601562 73.964844 24.574219 73.972656 24.546875 73.976562 C 24.523438 73.980469 24.503906 73.984375 24.480469 73.988281 C 24.453125 73.996094 24.429688 74 24.40625 74.003906 C 24.375 74.011719 24.347656 74.015625 24.320312 74.023438 C 24.308594 74.023438 24.296875 74.027344 24.289062 74.027344 C 24.261719 74.03125 24.238281 74.039062 24.210938 74.042969 C 24.191406 74.046875 24.167969 74.050781 24.152344 74.054688 C 24.140625 74.058594 24.132812 74.058594 24.121094 74.058594 C 24.09375 74.066406 24.066406 74.070312 24.046875 74.074219 C 24.042969 74.074219 24.042969 74.074219 24.042969 74.074219 C 24.023438 74.078125 24.003906 74.082031 23.988281 74.085938 C 23.984375 74.085938 23.980469 74.085938 23.976562 74.089844 C 23.941406 74.09375 23.921875 74.097656 23.917969 74.097656 C 23.898438 74.101562 23.882812 74.101562 23.867188 74.105469 C 23.84375 74.109375 23.816406 74.113281 23.789062 74.113281 Z M 39.894531 20.9375 C 35.484375 32.734375 25.382812 60.808594 24.492188 72.65625 C 27.824219 72.003906 40.117188 69.671875 47.269531 69.25 C 46.429688 67.058594 44.1875 60.84375 42.34375 52.625 C 40.511719 44.449219 38.761719 32.785156 39.894531 20.9375 Z M 39.894531 20.9375 " fill-opacity="1" fill-rule="nonzero"/><path fill="#e17e23" d="M 49.96875 53.460938 C 49.738281 44.5625 48.246094 30.792969 42.496094 15.261719 C 45.625 15.914062 54.785156 18.1875 64.039062 23.90625 C 74.371094 30.292969 86.933594 42.402344 88.414062 63.929688 L 49.15625 68.726562 C 49.476562 66.699219 50.167969 61.296875 49.96875 53.460938 Z M 41.574219 13.753906 C 41.589844 13.757812 41.746094 13.785156 42.035156 13.835938 C 42.167969 13.863281 42.328125 13.894531 42.511719 13.933594 C 42.527344 13.9375 42.539062 13.9375 42.550781 13.941406 C 42.585938 13.945312 42.617188 13.957031 42.652344 13.960938 C 42.675781 13.964844 42.699219 13.972656 42.722656 13.976562 C 42.753906 13.980469 42.785156 13.988281 42.816406 13.996094 C 42.847656 14.003906 42.875 14.007812 42.90625 14.015625 C 42.9375 14.023438 42.96875 14.03125 43 14.035156 C 43.03125 14.042969 43.066406 14.050781 43.097656 14.058594 C 43.128906 14.0625 43.160156 14.070312 43.195312 14.078125 C 43.230469 14.085938 43.269531 14.09375 43.3125 14.105469 C 43.339844 14.109375 43.371094 14.117188 43.398438 14.125 C 43.449219 14.132812 43.5 14.144531 43.546875 14.15625 C 43.574219 14.160156 43.59375 14.167969 43.621094 14.171875 C 43.691406 14.1875 43.765625 14.207031 43.839844 14.222656 C 43.847656 14.226562 43.855469 14.226562 43.867188 14.230469 C 43.941406 14.246094 44.019531 14.265625 44.097656 14.285156 C 44.117188 14.289062 44.140625 14.296875 44.164062 14.300781 C 44.226562 14.3125 44.289062 14.328125 44.355469 14.347656 C 44.382812 14.351562 44.410156 14.359375 44.4375 14.367188 C 44.496094 14.378906 44.558594 14.398438 44.621094 14.410156 C 44.652344 14.417969 44.683594 14.425781 44.714844 14.433594 C 44.773438 14.449219 44.835938 14.464844 44.898438 14.480469 C 44.933594 14.488281 44.964844 14.496094 44.996094 14.503906 C 45.0625 14.519531 45.128906 14.539062 45.195312 14.554688 C 45.226562 14.5625 45.257812 14.570312 45.289062 14.578125 C 45.359375 14.597656 45.433594 14.617188 45.507812 14.636719 C 45.535156 14.644531 45.558594 14.652344 45.585938 14.65625 C 45.675781 14.679688 45.769531 14.707031 45.863281 14.730469 C 45.875 14.734375 45.882812 14.734375 45.894531 14.738281 C 46.109375 14.796875 46.332031 14.855469 46.558594 14.917969 C 46.582031 14.925781 46.601562 14.933594 46.625 14.9375 C 46.714844 14.964844 46.804688 14.988281 46.898438 15.015625 C 46.925781 15.023438 46.957031 15.03125 46.988281 15.039062 C 47.074219 15.0625 47.160156 15.089844 47.246094 15.113281 C 47.28125 15.125 47.3125 15.132812 47.347656 15.144531 C 47.433594 15.171875 47.519531 15.195312 47.605469 15.222656 C 47.640625 15.230469 47.675781 15.242188 47.710938 15.253906 C 47.800781 15.277344 47.886719 15.304688 47.976562 15.332031 C 48.011719 15.34375 48.046875 15.351562 48.082031 15.363281 C 48.179688 15.390625 48.273438 15.421875 48.371094 15.453125 C 48.398438 15.460938 48.429688 15.46875 48.457031 15.480469 C 48.582031 15.519531 48.703125 15.554688 48.828125 15.59375 C 48.832031 15.597656 48.835938 15.597656 48.839844 15.597656 C 49.101562 15.679688 49.371094 15.769531 49.644531 15.859375 C 49.671875 15.867188 49.699219 15.875 49.726562 15.882812 C 49.832031 15.917969 49.941406 15.957031 50.050781 15.992188 C 50.089844 16.003906 50.128906 16.019531 50.167969 16.03125 C 50.265625 16.066406 50.363281 16.097656 50.460938 16.132812 C 50.503906 16.144531 50.546875 16.164062 50.59375 16.175781 C 50.691406 16.210938 50.789062 16.242188 50.886719 16.277344 C 50.929688 16.292969 50.976562 16.308594 51.019531 16.324219 C 51.121094 16.359375 51.21875 16.394531 51.324219 16.433594 C 51.367188 16.445312 51.40625 16.460938 51.449219 16.476562 C 51.558594 16.515625 51.671875 16.554688 51.78125 16.597656 C 51.816406 16.609375 51.847656 16.621094 51.882812 16.632812 C 52.023438 16.683594 52.164062 16.734375 52.304688 16.789062 C 52.3125 16.789062 52.316406 16.792969 52.320312 16.792969 C 52.476562 16.851562 52.628906 16.910156 52.785156 16.96875 C 52.792969 16.96875 52.796875 16.972656 52.804688 16.972656 C 52.945312 17.027344 53.089844 17.082031 53.234375 17.136719 C 53.273438 17.152344 53.3125 17.167969 53.351562 17.183594 C 53.464844 17.226562 53.578125 17.269531 53.691406 17.3125 C 53.738281 17.332031 53.789062 17.351562 53.835938 17.371094 C 53.941406 17.410156 54.046875 17.453125 54.148438 17.496094 C 54.203125 17.519531 54.257812 17.539062 54.3125 17.5625 C 54.417969 17.601562 54.519531 17.644531 54.621094 17.683594 C 54.675781 17.707031 54.730469 17.730469 54.785156 17.753906 C 54.890625 17.796875 54.996094 17.839844 55.101562 17.886719 C 55.15625 17.90625 55.207031 17.929688 55.257812 17.949219 C 55.375 18 55.492188 18.046875 55.609375 18.097656 C 55.648438 18.117188 55.691406 18.132812 55.734375 18.152344 C 55.886719 18.21875 56.039062 18.28125 56.191406 18.347656 C 56.199219 18.351562 56.207031 18.355469 56.214844 18.359375 C 56.378906 18.429688 56.546875 18.503906 56.710938 18.578125 C 56.738281 18.589844 56.769531 18.601562 56.796875 18.617188 C 56.929688 18.675781 57.0625 18.734375 57.195312 18.796875 C 57.25 18.820312 57.300781 18.84375 57.351562 18.867188 C 57.464844 18.917969 57.574219 18.96875 57.683594 19.023438 C 57.746094 19.050781 57.804688 19.078125 57.863281 19.105469 C 57.96875 19.15625 58.074219 19.203125 58.179688 19.253906 C 58.242188 19.285156 58.304688 19.3125 58.367188 19.34375 C 58.472656 19.394531 58.574219 19.445312 58.679688 19.492188 C 58.742188 19.523438 58.808594 19.554688 58.871094 19.585938 C 58.976562 19.636719 59.082031 19.6875 59.1875 19.742188 C 59.25 19.773438 59.3125 19.804688 59.375 19.832031 C 59.488281 19.890625 59.601562 19.949219 59.71875 20.007812 C 59.769531 20.035156 59.824219 20.058594 59.875 20.085938 C 60.035156 20.164062 60.191406 20.246094 60.351562 20.328125 C 60.359375 20.332031 60.371094 20.339844 60.378906 20.34375 C 60.550781 20.429688 60.71875 20.519531 60.890625 20.609375 C 60.9375 20.636719 60.984375 20.660156 61.03125 20.6875 C 61.152344 20.75 61.273438 20.816406 61.398438 20.882812 C 61.460938 20.914062 61.523438 20.949219 61.585938 20.984375 C 61.691406 21.042969 61.800781 21.097656 61.90625 21.160156 C 61.976562 21.199219 62.042969 21.234375 62.113281 21.273438 C 62.214844 21.328125 62.316406 21.386719 62.421875 21.445312 C 62.492188 21.484375 62.5625 21.523438 62.632812 21.5625 C 62.734375 21.621094 62.835938 21.679688 62.9375 21.738281 C 63.007812 21.777344 63.078125 21.816406 63.148438 21.859375 C 63.253906 21.917969 63.355469 21.980469 63.460938 22.042969 C 63.527344 22.082031 63.59375 22.121094 63.660156 22.160156 C 63.777344 22.226562 63.890625 22.292969 64.003906 22.363281 C 64.0625 22.398438 64.121094 22.429688 64.175781 22.464844 C 64.347656 22.566406 64.519531 22.671875 64.6875 22.777344 C 71.5 26.980469 77.035156 32.160156 81.140625 38.171875 C 86.277344 45.695312 89.175781 54.542969 89.757812 64.46875 C 89.777344 64.816406 89.527344 65.117188 89.183594 65.15625 L 48.871094 70.082031 L 48.4375 70.132812 C 48.410156 70.136719 48.382812 70.140625 48.355469 70.140625 C 48.175781 70.140625 48.003906 70.066406 47.878906 69.929688 C 47.734375 69.777344 47.675781 69.566406 47.714844 69.359375 C 47.722656 69.324219 48.167969 67.019531 48.457031 63.003906 C 48.46875 62.847656 48.476562 62.691406 48.488281 62.527344 C 48.488281 62.519531 48.488281 62.511719 48.488281 62.5 C 48.519531 62.046875 48.546875 61.574219 48.570312 61.078125 C 48.574219 61.03125 48.574219 60.980469 48.578125 60.933594 C 48.585938 60.800781 48.589844 60.667969 48.597656 60.53125 C 48.601562 60.453125 48.605469 60.371094 48.605469 60.292969 C 48.613281 60.164062 48.617188 60.039062 48.625 59.910156 C 48.625 59.808594 48.632812 59.707031 48.632812 59.605469 C 48.640625 59.425781 48.644531 59.25 48.652344 59.070312 C 48.65625 58.925781 48.660156 58.78125 48.664062 58.636719 C 48.667969 58.535156 48.667969 58.433594 48.667969 58.332031 C 48.671875 58.191406 48.675781 58.054688 48.675781 57.914062 C 48.679688 57.8125 48.679688 57.714844 48.683594 57.613281 C 48.683594 57.449219 48.6875 57.285156 48.6875 57.121094 C 48.6875 57.039062 48.6875 56.960938 48.6875 56.878906 C 48.691406 56.636719 48.691406 56.390625 48.691406 56.140625 C 48.691406 56.074219 48.691406 56.011719 48.691406 55.945312 C 48.691406 55.75 48.6875 55.554688 48.6875 55.359375 C 48.6875 55.269531 48.683594 55.179688 48.683594 55.089844 C 48.683594 54.902344 48.679688 54.714844 48.675781 54.527344 C 48.675781 54.441406 48.671875 54.359375 48.671875 54.273438 C 48.667969 54.003906 48.660156 53.730469 48.652344 53.457031 C 48.648438 53.195312 48.640625 52.929688 48.628906 52.664062 C 48.625 52.578125 48.625 52.488281 48.621094 52.398438 C 48.613281 52.21875 48.605469 52.035156 48.597656 51.847656 C 48.59375 51.738281 48.589844 51.628906 48.585938 51.519531 C 48.578125 51.351562 48.570312 51.179688 48.5625 51.007812 C 48.554688 50.886719 48.550781 50.765625 48.542969 50.644531 C 48.535156 50.476562 48.523438 50.304688 48.515625 50.132812 C 48.507812 50.007812 48.5 49.886719 48.492188 49.757812 C 48.480469 49.566406 48.46875 49.367188 48.453125 49.167969 C 48.441406 48.949219 48.425781 48.722656 48.410156 48.496094 C 48.398438 48.335938 48.386719 48.179688 48.375 48.019531 C 48.359375 47.847656 48.347656 47.675781 48.332031 47.503906 C 48.320312 47.367188 48.3125 47.238281 48.296875 47.105469 C 48.28125 46.917969 48.265625 46.730469 48.25 46.542969 C 48.238281 46.421875 48.226562 46.300781 48.214844 46.179688 C 48.195312 45.976562 48.175781 45.773438 48.160156 45.570312 C 48.148438 45.472656 48.140625 45.375 48.128906 45.277344 C 48.019531 44.191406 47.890625 43.066406 47.738281 41.910156 C 47.734375 41.859375 47.726562 41.808594 47.71875 41.757812 C 47.683594 41.476562 47.644531 41.195312 47.605469 40.914062 C 47.597656 40.863281 47.589844 40.816406 47.582031 40.765625 C 46.816406 35.304688 45.558594 29.117188 43.539062 22.480469 C 42.761719 19.925781 41.875 17.308594 40.859375 14.636719 C 40.777344 14.417969 40.816406 14.171875 40.960938 13.988281 C 41.113281 13.808594 41.347656 13.71875 41.574219 13.753906 Z M 42.496094 15.261719 C 48.246094 30.792969 49.738281 44.566406 49.96875 53.464844 C 50.167969 61.296875 49.476562 66.703125 49.15625 68.730469 L 88.414062 63.933594 C 86.933594 42.40625 74.371094 30.292969 64.039062 23.910156 C 54.78125 18.191406 45.621094 15.917969 42.496094 15.261719 Z M 42.496094 15.261719 " fill-opacity="1" fill-rule="nonzero"/><path fill="#055169" d="M 47.8125 81.519531 C 48.25 81.503906 48.6875 81.488281 49.125 81.472656 C 50.058594 81.441406 50.992188 81.40625 51.925781 81.367188 C 56.707031 81.175781 61.480469 80.917969 66.246094 80.523438 C 71.078125 80.121094 75.898438 79.582031 80.691406 78.839844 C 85.390625 78.109375 90.070312 77.191406 94.683594 76.039062 C 95.167969 75.917969 95.386719 76.628906 94.894531 76.761719 C 94.320312 76.917969 93.75 77.070312 93.171875 77.214844 C 88.527344 78.40625 83.8125 79.277344 79.070312 79.964844 C 74.277344 80.660156 69.457031 81.15625 64.628906 81.523438 C 59.851562 81.886719 55.0625 82.117188 50.273438 82.261719 C 49.867188 82.277344 49.457031 82.285156 49.046875 82.296875 C 48.664062 82.308594 48.28125 82.320312 47.898438 82.328125 C 44.082031 82.433594 40.261719 82.511719 36.445312 82.527344 C 34.128906 82.539062 31.8125 82.480469 29.496094 82.429688 C 27.296875 82.378906 25.082031 82.363281 22.890625 82.175781 C 22.664062 82.15625 22.65625 81.832031 22.890625 81.835938 C 23.421875 81.835938 23.953125 81.847656 24.484375 81.863281 C 29.042969 81.988281 33.597656 81.882812 38.152344 81.785156 C 41.375 81.71875 44.597656 81.628906 47.8125 81.519531 Z M 47.8125 81.519531 " fill-opacity="1" fill-rule="nonzero"/></svg>