<svg xmlns="http://www.w3.org/2000/svg" xmlns:xlink="http://www.w3.org/1999/xlink" width="150" zoomAndPan="magnify" viewBox="0 0 112.5 112.499997" height="150" preserveAspectRatio="xMidYMid meet" version="1.0"><defs><clipPath id="f9ef39cccc"><path d="M 6 80 L 100.765625 80 L 100.765625 96.503906 L 6 96.503906 Z M 6 80 " clip-rule="nonzero"/></clipPath><clipPath id="b35ce734cd"><path d="M 26 21.089844 L 47 21.089844 L 47 31 L 26 31 Z M 26 21.089844 " clip-rule="nonzero"/></clipPath><clipPath id="d4a735c4be"><path d="M 37 21.089844 L 43 21.089844 L 43 28 L 37 28 Z M 37 21.089844 " clip-rule="nonzero"/></clipPath><clipPath id="35ef57b447"><path d="M 36 21.089844 L 39 21.089844 L 39 27 L 36 27 Z M 36 21.089844 " clip-rule="nonzero"/></clipPath><clipPath id="4aa5e115b5"><path d="M 34 21.089844 L 37 21.089844 L 37 27 L 34 27 Z M 34 21.089844 " clip-rule="nonzero"/></clipPath><clipPath id="8399ec7200"><path d="M 30 21.089844 L 37 21.089844 L 37 28 L 30 28 Z M 30 21.089844 " clip-rule="nonzero"/></clipPath></defs><g clip-path="url(#f9ef39cccc)"><path fill="#e3bd55" d="M 64.246094 80.464844 C 60.964844 80.34375 56.949219 80.582031 46.304688 80.832031 C 37.585938 81.035156 29.898438 80.707031 22.570312 81.316406 C 15.242188 81.929688 6.164062 83.027344 6.054688 85.222656 C 5.945312 87.417969 13.710938 87.417969 18.523438 89.976562 C 23.335938 92.539062 33.113281 90.703125 38.757812 92.175781 C 51.605469 95.523438 58.121094 96.445312 63.917969 96.199219 C 69.714844 95.957031 75.292969 90.222656 85.246094 93.027344 C 95.199219 95.835938 100.777344 87.78125 100.558594 85.34375 C 100.339844 82.90625 94.324219 80.097656 86.230469 80.953125 C 78.136719 81.808594 64.246094 80.464844 64.246094 80.464844 Z M 64.246094 80.464844 " fill-opacity="1" fill-rule="nonzero"/></g><path fill="#a0543a" d="M 25.390625 85.648438 C 25.390625 85.714844 25.28125 85.773438 25.058594 85.832031 C 24.839844 85.890625 24.527344 85.941406 24.121094 85.984375 C 23.714844 86.03125 23.25 86.0625 22.71875 86.089844 C 22.1875 86.113281 21.636719 86.125 21.0625 86.125 C 20.488281 86.125 19.9375 86.113281 19.40625 86.089844 C 18.875 86.0625 18.40625 86.03125 18.003906 85.984375 C 17.597656 85.941406 17.285156 85.890625 17.0625 85.832031 C 16.84375 85.773438 16.734375 85.714844 16.734375 85.648438 C 16.734375 85.585938 16.84375 85.527344 17.0625 85.46875 C 17.285156 85.410156 17.597656 85.359375 18.003906 85.316406 C 18.40625 85.269531 18.875 85.234375 19.40625 85.210938 C 19.9375 85.1875 20.488281 85.175781 21.0625 85.175781 C 21.636719 85.175781 22.1875 85.1875 22.71875 85.210938 C 23.25 85.234375 23.714844 85.269531 24.121094 85.316406 C 24.527344 85.359375 24.839844 85.410156 25.058594 85.46875 C 25.28125 85.527344 25.390625 85.585938 25.390625 85.648438 Z M 25.390625 85.648438 " fill-opacity="0.4" fill-rule="nonzero"/><path fill="#a0543a" d="M 25.890625 85.609375 C 25.890625 85.609375 25.894531 85.628906 25.894531 85.667969 C 25.890625 85.703125 25.882812 85.761719 25.847656 85.828125 C 25.777344 85.957031 25.625 86.121094 25.40625 86.238281 C 25.351562 86.269531 25.292969 86.292969 25.234375 86.324219 C 25.199219 86.339844 25.171875 86.351562 25.140625 86.367188 C 25.109375 86.378906 25.074219 86.390625 25.042969 86.402344 C 24.976562 86.429688 24.90625 86.453125 24.835938 86.476562 C 24.765625 86.5 24.691406 86.515625 24.621094 86.535156 C 24.542969 86.554688 24.46875 86.574219 24.390625 86.589844 C 24.3125 86.601562 24.234375 86.617188 24.15625 86.628906 C 24 86.65625 23.835938 86.675781 23.675781 86.6875 C 23.59375 86.695312 23.515625 86.703125 23.433594 86.710938 C 23.355469 86.714844 23.273438 86.714844 23.191406 86.71875 C 23.035156 86.726562 22.878906 86.730469 22.726562 86.730469 C 22.421875 86.726562 22.144531 86.707031 21.902344 86.691406 C 21.664062 86.671875 21.460938 86.640625 21.324219 86.625 C 21.183594 86.601562 21.105469 86.589844 21.105469 86.589844 C 21.105469 86.589844 21.183594 86.582031 21.324219 86.566406 C 21.464844 86.558594 21.667969 86.535156 21.90625 86.527344 C 22.144531 86.515625 22.421875 86.484375 22.71875 86.476562 C 22.867188 86.464844 23.023438 86.453125 23.179688 86.445312 C 23.257812 86.4375 23.335938 86.433594 23.414062 86.425781 C 23.492188 86.417969 23.570312 86.410156 23.648438 86.402344 C 23.804688 86.390625 23.964844 86.375 24.117188 86.351562 C 24.195312 86.339844 24.269531 86.332031 24.34375 86.320312 C 24.421875 86.3125 24.496094 86.296875 24.566406 86.285156 C 24.636719 86.269531 24.710938 86.257812 24.777344 86.246094 C 24.847656 86.230469 24.914062 86.214844 24.980469 86.199219 C 25.011719 86.191406 25.042969 86.183594 25.074219 86.175781 C 25.105469 86.167969 25.136719 86.15625 25.164062 86.148438 C 25.222656 86.125 25.28125 86.109375 25.335938 86.089844 C 25.550781 86.003906 25.71875 85.902344 25.800781 85.796875 C 25.847656 85.746094 25.867188 85.695312 25.878906 85.660156 C 25.890625 85.628906 25.890625 85.609375 25.890625 85.609375 Z M 25.890625 85.609375 " fill-opacity="0.5" fill-rule="nonzero"/><path fill="#a0543a" d="M 18.03125 84.820312 C 18.03125 84.820312 17.988281 84.832031 17.917969 84.855469 C 17.84375 84.875 17.742188 84.910156 17.621094 84.9375 C 17.5 84.960938 17.359375 85.003906 17.207031 85.039062 C 17.058594 85.074219 16.894531 85.105469 16.738281 85.144531 C 16.578125 85.183594 16.425781 85.222656 16.285156 85.269531 C 16.148438 85.320312 16.015625 85.363281 15.929688 85.433594 C 15.847656 85.496094 15.792969 85.574219 15.789062 85.644531 C 15.78125 85.679688 15.785156 85.707031 15.785156 85.730469 C 15.789062 85.75 15.789062 85.761719 15.789062 85.761719 C 15.789062 85.761719 15.78125 85.753906 15.769531 85.734375 C 15.761719 85.714844 15.742188 85.691406 15.734375 85.648438 C 15.726562 85.632812 15.722656 85.609375 15.722656 85.582031 C 15.722656 85.570312 15.71875 85.554688 15.71875 85.542969 C 15.71875 85.527344 15.722656 85.515625 15.726562 85.5 C 15.734375 85.441406 15.769531 85.378906 15.8125 85.320312 C 15.90625 85.210938 16.035156 85.109375 16.1875 85.039062 C 16.335938 84.960938 16.503906 84.910156 16.667969 84.867188 C 16.839844 84.828125 17.007812 84.800781 17.167969 84.789062 C 17.328125 84.769531 17.476562 84.777344 17.605469 84.777344 C 17.730469 84.777344 17.839844 84.796875 17.914062 84.800781 C 17.988281 84.8125 18.03125 84.820312 18.03125 84.820312 Z M 18.03125 84.820312 " fill-opacity="0.5" fill-rule="nonzero"/><path fill="#a0543a" d="M 44.464844 85.683594 C 44.464844 85.746094 44.355469 85.808594 44.136719 85.867188 C 43.917969 85.921875 43.605469 85.976562 43.199219 86.019531 C 42.792969 86.0625 42.324219 86.097656 41.792969 86.121094 C 41.265625 86.144531 40.710938 86.15625 40.136719 86.15625 C 39.566406 86.15625 39.011719 86.144531 38.484375 86.121094 C 37.953125 86.097656 37.484375 86.0625 37.078125 86.019531 C 36.671875 85.976562 36.359375 85.921875 36.140625 85.867188 C 35.921875 85.808594 35.8125 85.746094 35.8125 85.683594 C 35.8125 85.621094 35.921875 85.558594 36.140625 85.503906 C 36.359375 85.445312 36.671875 85.394531 37.078125 85.347656 C 37.484375 85.304688 37.953125 85.269531 38.484375 85.246094 C 39.011719 85.222656 39.566406 85.210938 40.136719 85.210938 C 40.710938 85.210938 41.265625 85.222656 41.792969 85.246094 C 42.324219 85.269531 42.792969 85.304688 43.199219 85.347656 C 43.605469 85.394531 43.917969 85.445312 44.136719 85.503906 C 44.355469 85.558594 44.464844 85.621094 44.464844 85.683594 Z M 44.464844 85.683594 " fill-opacity="0.4" fill-rule="nonzero"/><path fill="#ffffff" d="M 63.988281 89.3125 C 63.988281 89.339844 63.851562 89.367188 63.574219 89.390625 C 63.296875 89.414062 62.902344 89.4375 62.390625 89.457031 C 61.878906 89.476562 61.285156 89.492188 60.617188 89.5 C 59.949219 89.511719 59.25 89.515625 58.527344 89.515625 C 57.800781 89.515625 57.105469 89.511719 56.4375 89.5 C 55.765625 89.492188 55.175781 89.476562 54.664062 89.457031 C 54.152344 89.4375 53.757812 89.414062 53.480469 89.390625 C 53.203125 89.367188 53.0625 89.339844 53.0625 89.3125 C 53.0625 89.285156 53.203125 89.261719 53.480469 89.234375 C 53.757812 89.210938 54.152344 89.1875 54.664062 89.167969 C 55.175781 89.148438 55.765625 89.136719 56.4375 89.125 C 57.105469 89.113281 57.800781 89.109375 58.527344 89.109375 C 59.25 89.109375 59.949219 89.113281 60.617188 89.125 C 61.285156 89.136719 61.878906 89.148438 62.390625 89.167969 C 62.902344 89.1875 63.296875 89.210938 63.574219 89.234375 C 63.851562 89.261719 63.988281 89.285156 63.988281 89.3125 Z M 63.988281 89.3125 " fill-opacity="0.5" fill-rule="nonzero"/><path fill="#ffffff" d="M 48.453125 83.382812 C 48.453125 83.410156 48.3125 83.4375 48.035156 83.460938 C 47.757812 83.484375 47.363281 83.507812 46.851562 83.527344 C 46.339844 83.546875 45.75 83.5625 45.078125 83.570312 C 44.410156 83.582031 43.714844 83.585938 42.988281 83.585938 C 42.265625 83.585938 41.566406 83.582031 40.898438 83.570312 C 40.230469 83.5625 39.636719 83.546875 39.125 83.527344 C 38.613281 83.507812 38.21875 83.484375 37.941406 83.460938 C 37.664062 83.4375 37.527344 83.410156 37.527344 83.382812 C 37.527344 83.355469 37.664062 83.332031 37.941406 83.304688 C 38.21875 83.28125 38.613281 83.257812 39.125 83.238281 C 39.636719 83.21875 40.230469 83.207031 40.898438 83.195312 C 41.566406 83.183594 42.265625 83.179688 42.988281 83.179688 C 43.714844 83.179688 44.410156 83.183594 45.078125 83.195312 C 45.75 83.207031 46.339844 83.21875 46.851562 83.238281 C 47.363281 83.257812 47.757812 83.28125 48.035156 83.304688 C 48.3125 83.332031 48.453125 83.355469 48.453125 83.382812 Z M 48.453125 83.382812 " fill-opacity="0.5" fill-rule="nonzero"/><path fill="#ffffff" d="M 35.289062 88.136719 C 35.289062 88.164062 35.148438 88.191406 34.871094 88.214844 C 34.59375 88.242188 34.199219 88.261719 33.6875 88.28125 C 33.175781 88.300781 32.585938 88.316406 31.917969 88.324219 C 31.246094 88.335938 30.550781 88.339844 29.824219 88.339844 C 29.101562 88.339844 28.402344 88.335938 27.734375 88.324219 C 27.066406 88.316406 26.476562 88.300781 25.960938 88.28125 C 25.449219 88.261719 25.054688 88.242188 24.777344 88.214844 C 24.5 88.191406 24.363281 88.164062 24.363281 88.136719 C 24.363281 88.109375 24.5 88.085938 24.777344 88.058594 C 25.054688 88.035156 25.449219 88.011719 25.960938 87.992188 C 26.476562 87.972656 27.066406 87.960938 27.734375 87.949219 C 28.402344 87.9375 29.101562 87.933594 29.824219 87.933594 C 30.550781 87.933594 31.246094 87.9375 31.917969 87.949219 C 32.585938 87.960938 33.175781 87.972656 33.6875 87.992188 C 34.199219 88.011719 34.59375 88.035156 34.871094 88.058594 C 35.148438 88.085938 35.289062 88.109375 35.289062 88.136719 Z M 35.289062 88.136719 " fill-opacity="0.5" fill-rule="nonzero"/><path fill="#a0543a" d="M 92.976562 89 C 92.976562 89.058594 92.933594 89.113281 92.851562 89.167969 C 92.765625 89.222656 92.640625 89.277344 92.476562 89.328125 C 92.3125 89.382812 92.109375 89.429688 91.871094 89.476562 C 91.632812 89.527344 91.359375 89.570312 91.054688 89.609375 C 90.75 89.648438 90.417969 89.683594 90.058594 89.714844 C 89.703125 89.746094 89.324219 89.773438 88.925781 89.796875 C 88.527344 89.816406 88.117188 89.832031 87.695312 89.84375 C 87.273438 89.855469 86.847656 89.859375 86.414062 89.859375 C 85.984375 89.859375 85.558594 89.855469 85.136719 89.84375 C 84.710938 89.832031 84.300781 89.816406 83.902344 89.796875 C 83.507812 89.773438 83.128906 89.746094 82.769531 89.714844 C 82.410156 89.683594 82.082031 89.648438 81.777344 89.609375 C 81.472656 89.570312 81.199219 89.527344 80.960938 89.476562 C 80.71875 89.429688 80.519531 89.382812 80.351562 89.328125 C 80.1875 89.277344 80.0625 89.222656 79.980469 89.167969 C 79.894531 89.113281 79.855469 89.058594 79.855469 89 C 79.855469 88.945312 79.894531 88.886719 79.980469 88.832031 C 80.0625 88.777344 80.1875 88.722656 80.351562 88.671875 C 80.519531 88.617188 80.71875 88.570312 80.960938 88.523438 C 81.199219 88.476562 81.472656 88.433594 81.777344 88.390625 C 82.082031 88.351562 82.410156 88.316406 82.769531 88.285156 C 83.128906 88.253906 83.507812 88.226562 83.902344 88.207031 C 84.300781 88.183594 84.710938 88.167969 85.136719 88.15625 C 85.558594 88.144531 85.984375 88.140625 86.414062 88.140625 C 86.847656 88.140625 87.273438 88.144531 87.695312 88.15625 C 88.117188 88.167969 88.527344 88.183594 88.925781 88.207031 C 89.324219 88.226562 89.703125 88.253906 90.058594 88.285156 C 90.417969 88.316406 90.75 88.351562 91.054688 88.390625 C 91.359375 88.433594 91.632812 88.476562 91.871094 88.523438 C 92.109375 88.570312 92.3125 88.617188 92.476562 88.671875 C 92.640625 88.722656 92.765625 88.777344 92.851562 88.832031 C 92.933594 88.886719 92.976562 88.945312 92.976562 89 Z M 92.976562 89 " fill-opacity="0.4" fill-rule="nonzero"/><path fill="#666028" d="M 86.816406 88.929688 C 86.816406 88.53125 87.65625 76.078125 86.011719 68.144531 C 84.300781 59.863281 81.191406 56.855469 81.191406 56.855469 C 81.191406 56.855469 83.875 60.230469 84.589844 70.199219 C 85.304688 80.167969 84.511719 88.53125 84.511719 88.53125 Z M 86.816406 88.929688 " fill-opacity="1" fill-rule="nonzero"/><path fill="#666028" d="M 84.480469 88.308594 C 84.09375 83.4375 83.597656 80.074219 82.96875 75.214844 C 82.652344 72.78125 82.289062 70.359375 81.859375 67.945312 C 81.417969 65.535156 80.925781 63.128906 80.089844 60.816406 C 81.066406 63.074219 81.714844 65.464844 82.304688 67.851562 C 82.882812 70.242188 83.398438 72.652344 83.867188 75.066406 C 84.796875 79.902344 85.597656 83.230469 86.292969 88.117188 Z M 84.480469 88.308594 " fill-opacity="1" fill-rule="nonzero"/><path fill="#666028" d="M 87.230469 88.914062 C 87.597656 85.605469 88.222656 83.929688 89.066406 80.761719 C 89.488281 79.179688 89.996094 77.625 90.558594 76.097656 C 91.140625 74.570312 91.820312 73.089844 92.589844 71.660156 C 91.957031 73.15625 91.425781 74.683594 90.992188 76.238281 C 90.578125 77.800781 90.222656 79.371094 89.953125 80.960938 C 89.421875 84.128906 89.105469 85.839844 89.050781 89.003906 Z M 87.230469 88.914062 " fill-opacity="1" fill-rule="nonzero"/><path fill="#a39f45" d="M 86.128906 89.089844 C 86.128906 89.089844 86.261719 83.863281 86.65625 78.519531 C 87.054688 73.175781 89.710938 65.941406 89.710938 65.941406 C 89.710938 65.941406 88.59375 70.523438 88.433594 75.785156 C 88.273438 81.046875 88.273438 88.851562 88.273438 88.851562 Z M 86.128906 89.089844 " fill-opacity="1" fill-rule="nonzero"/><path fill="#a39f45" d="M 83.863281 88.796875 C 83.867188 85.449219 83.597656 83.523438 82.789062 80.242188 C 82.371094 78.609375 81.804688 76.988281 80.835938 75.617188 C 80.351562 74.941406 79.738281 74.34375 78.984375 73.972656 C 78.238281 73.597656 77.359375 73.488281 76.507812 73.609375 C 77.34375 73.417969 78.253906 73.4375 79.078125 73.761719 C 79.90625 74.082031 80.617188 74.664062 81.191406 75.332031 C 82.339844 76.6875 84.652344 81.816406 84.980469 83.535156 C 85.300781 85.257812 85.546875 86.976562 85.683594 88.753906 Z M 83.863281 88.796875 " fill-opacity="1" fill-rule="nonzero"/><path fill="#a0543a" d="M 81.652344 84.367188 C 81.652344 84.425781 81.609375 84.480469 81.527344 84.535156 C 81.441406 84.589844 81.316406 84.644531 81.152344 84.695312 C 80.988281 84.75 80.785156 84.796875 80.546875 84.847656 C 80.308594 84.894531 80.035156 84.9375 79.730469 84.976562 C 79.425781 85.015625 79.09375 85.050781 78.738281 85.082031 C 78.378906 85.113281 78 85.140625 77.601562 85.164062 C 77.203125 85.183594 76.792969 85.199219 76.371094 85.210938 C 75.949219 85.222656 75.523438 85.226562 75.089844 85.226562 C 74.660156 85.226562 74.234375 85.222656 73.8125 85.210938 C 73.390625 85.199219 72.980469 85.183594 72.582031 85.164062 C 72.183594 85.140625 71.804688 85.113281 71.445312 85.082031 C 71.089844 85.050781 70.757812 85.015625 70.453125 84.976562 C 70.148438 84.9375 69.875 84.894531 69.636719 84.847656 C 69.398438 84.796875 69.195312 84.75 69.03125 84.695312 C 68.867188 84.644531 68.742188 84.589844 68.65625 84.535156 C 68.574219 84.480469 68.53125 84.425781 68.53125 84.367188 C 68.53125 84.3125 68.574219 84.253906 68.65625 84.199219 C 68.742188 84.144531 68.867188 84.089844 69.03125 84.039062 C 69.195312 83.984375 69.398438 83.9375 69.636719 83.890625 C 69.875 83.84375 70.148438 83.800781 70.453125 83.757812 C 70.757812 83.71875 71.089844 83.683594 71.445312 83.652344 C 71.804688 83.621094 72.183594 83.59375 72.582031 83.574219 C 72.980469 83.550781 73.390625 83.535156 73.8125 83.523438 C 74.234375 83.511719 74.660156 83.507812 75.089844 83.507812 C 75.523438 83.507812 75.949219 83.511719 76.371094 83.523438 C 76.792969 83.535156 77.203125 83.550781 77.601562 83.574219 C 78 83.59375 78.378906 83.621094 78.738281 83.652344 C 79.09375 83.683594 79.425781 83.71875 79.730469 83.757812 C 80.035156 83.800781 80.308594 83.84375 80.546875 83.890625 C 80.785156 83.9375 80.988281 83.984375 81.152344 84.039062 C 81.316406 84.089844 81.441406 84.144531 81.527344 84.199219 C 81.609375 84.253906 81.652344 84.3125 81.652344 84.367188 Z M 81.652344 84.367188 " fill-opacity="0.4" fill-rule="nonzero"/><path fill="#666028" d="M 75.492188 84.296875 C 75.492188 83.898438 76.332031 71.445312 74.691406 63.511719 C 72.976562 55.230469 69.871094 52.222656 69.871094 52.222656 C 69.871094 52.222656 72.550781 55.597656 73.269531 65.566406 C 73.984375 75.535156 73.1875 83.898438 73.1875 83.898438 Z M 75.492188 84.296875 " fill-opacity="1" fill-rule="nonzero"/><path fill="#666028" d="M 73.15625 83.675781 C 72.769531 78.804688 72.273438 75.441406 71.644531 70.582031 C 71.328125 68.148438 70.964844 65.726562 70.535156 63.3125 C 70.09375 60.902344 69.601562 58.496094 68.765625 56.183594 C 69.742188 58.441406 70.390625 60.832031 70.980469 63.21875 C 71.558594 65.609375 72.074219 68.019531 72.542969 70.433594 C 73.476562 75.269531 74.277344 78.597656 74.96875 83.484375 Z M 73.15625 83.675781 " fill-opacity="1" fill-rule="nonzero"/><path fill="#666028" d="M 75.90625 84.28125 C 76.269531 80.972656 76.898438 79.296875 77.738281 76.128906 C 78.160156 74.546875 78.671875 72.992188 79.234375 71.464844 C 79.8125 69.9375 80.492188 68.457031 81.265625 67.027344 C 80.632812 68.523438 80.097656 70.050781 79.667969 71.605469 C 79.25 73.167969 78.898438 74.738281 78.628906 76.328125 C 78.09375 79.496094 77.777344 81.207031 77.726562 84.371094 Z M 75.90625 84.28125 " fill-opacity="1" fill-rule="nonzero"/><path fill="#a39f45" d="M 74.804688 84.457031 C 74.804688 84.457031 74.9375 79.230469 75.335938 73.886719 C 75.730469 68.542969 78.386719 61.308594 78.386719 61.308594 C 78.386719 61.308594 77.269531 65.890625 77.109375 71.152344 C 76.949219 76.414062 76.949219 84.21875 76.949219 84.21875 Z M 74.804688 84.457031 " fill-opacity="1" fill-rule="nonzero"/><path fill="#a39f45" d="M 72.539062 84.164062 C 72.542969 80.8125 72.273438 78.886719 71.464844 75.605469 C 71.050781 73.972656 70.480469 72.351562 69.511719 70.984375 C 69.027344 70.308594 68.414062 69.707031 67.664062 69.339844 C 66.914062 68.960938 66.039062 68.855469 65.1875 68.976562 C 66.019531 68.78125 66.929688 68.804688 67.753906 69.128906 C 68.582031 69.449219 69.292969 70.03125 69.867188 70.699219 C 71.015625 72.054688 73.328125 77.183594 73.65625 78.898438 C 73.980469 80.625 74.222656 82.339844 74.363281 84.121094 Z M 72.539062 84.164062 " fill-opacity="1" fill-rule="nonzero"/><path fill="#a0543a" d="M 75.207031 89.875 C 75.207031 89.933594 75.164062 89.988281 75.082031 90.042969 C 74.996094 90.097656 74.871094 90.152344 74.707031 90.203125 C 74.542969 90.257812 74.339844 90.308594 74.101562 90.355469 C 73.863281 90.402344 73.589844 90.445312 73.285156 90.484375 C 72.980469 90.523438 72.648438 90.558594 72.289062 90.589844 C 71.933594 90.621094 71.554688 90.648438 71.15625 90.671875 C 70.757812 90.691406 70.347656 90.707031 69.925781 90.71875 C 69.503906 90.730469 69.078125 90.734375 68.644531 90.734375 C 68.214844 90.734375 67.789062 90.730469 67.367188 90.71875 C 66.941406 90.707031 66.53125 90.691406 66.136719 90.671875 C 65.738281 90.648438 65.359375 90.621094 65 90.589844 C 64.640625 90.558594 64.3125 90.523438 64.007812 90.484375 C 63.703125 90.445312 63.429688 90.402344 63.191406 90.355469 C 62.949219 90.308594 62.75 90.257812 62.585938 90.203125 C 62.417969 90.152344 62.292969 90.097656 62.210938 90.042969 C 62.125 89.988281 62.085938 89.933594 62.085938 89.875 C 62.085938 89.820312 62.125 89.761719 62.210938 89.707031 C 62.292969 89.652344 62.417969 89.597656 62.585938 89.546875 C 62.75 89.492188 62.949219 89.445312 63.191406 89.398438 C 63.429688 89.351562 63.703125 89.308594 64.007812 89.265625 C 64.3125 89.226562 64.640625 89.191406 65 89.160156 C 65.359375 89.128906 65.738281 89.101562 66.136719 89.082031 C 66.53125 89.058594 66.941406 89.042969 67.367188 89.03125 C 67.789062 89.019531 68.214844 89.015625 68.644531 89.015625 C 69.078125 89.015625 69.503906 89.019531 69.925781 89.03125 C 70.347656 89.042969 70.757812 89.058594 71.15625 89.082031 C 71.554688 89.101562 71.933594 89.128906 72.289062 89.160156 C 72.648438 89.191406 72.980469 89.226562 73.285156 89.265625 C 73.589844 89.308594 73.863281 89.351562 74.101562 89.398438 C 74.339844 89.445312 74.542969 89.492188 74.707031 89.546875 C 74.871094 89.597656 74.996094 89.652344 75.082031 89.707031 C 75.164062 89.761719 75.207031 89.820312 75.207031 89.875 Z M 75.207031 89.875 " fill-opacity="0.4" fill-rule="nonzero"/><path fill="#666028" d="M 69.046875 89.804688 C 69.046875 89.40625 69.886719 76.949219 68.246094 69.015625 C 66.53125 60.738281 63.421875 57.726562 63.421875 57.726562 C 63.421875 57.726562 66.105469 61.105469 66.820312 71.074219 C 67.539062 81.039062 66.742188 89.40625 66.742188 89.40625 Z M 69.046875 89.804688 " fill-opacity="1" fill-rule="nonzero"/><path fill="#666028" d="M 66.710938 89.183594 C 66.324219 84.3125 65.828125 80.949219 65.199219 76.089844 C 64.882812 73.65625 64.519531 71.234375 64.089844 68.820312 C 63.648438 66.410156 63.15625 64.003906 62.320312 61.691406 C 63.296875 63.949219 63.945312 66.339844 64.535156 68.726562 C 65.113281 71.117188 65.628906 73.527344 66.097656 75.941406 C 67.027344 80.777344 67.828125 84.105469 68.523438 88.992188 Z M 66.710938 89.183594 " fill-opacity="1" fill-rule="nonzero"/><path fill="#666028" d="M 69.460938 89.789062 C 69.824219 86.480469 70.449219 84.804688 71.292969 81.636719 C 71.714844 80.054688 72.222656 78.5 72.789062 76.972656 C 73.367188 75.445312 74.046875 73.964844 74.820312 72.539062 C 74.1875 74.03125 73.652344 75.558594 73.222656 77.117188 C 72.804688 78.675781 72.453125 80.246094 72.183594 81.835938 C 71.648438 85.003906 71.332031 86.714844 71.277344 89.878906 Z M 69.460938 89.789062 " fill-opacity="1" fill-rule="nonzero"/><path fill="#a39f45" d="M 68.355469 89.964844 C 68.355469 89.964844 68.488281 84.734375 68.886719 79.394531 C 69.285156 74.050781 71.941406 66.816406 71.941406 66.816406 C 71.941406 66.816406 70.820312 71.394531 70.660156 76.65625 C 70.503906 81.921875 70.503906 89.726562 70.503906 89.726562 Z M 68.355469 89.964844 " fill-opacity="1" fill-rule="nonzero"/><path fill="#a39f45" d="M 66.09375 89.671875 C 66.097656 86.320312 65.828125 84.394531 65.019531 81.113281 C 64.601562 79.480469 64.035156 77.859375 63.066406 76.492188 C 62.582031 75.816406 61.96875 75.214844 61.214844 74.847656 C 60.46875 74.46875 59.589844 74.363281 58.742188 74.484375 C 59.574219 74.289062 60.484375 74.3125 61.308594 74.636719 C 62.136719 74.957031 62.847656 75.539062 63.421875 76.207031 C 64.570312 77.5625 66.882812 82.691406 67.210938 84.40625 C 67.53125 86.132812 67.777344 87.847656 67.914062 89.628906 Z M 66.09375 89.671875 " fill-opacity="1" fill-rule="nonzero"/><path fill="#a0543a" d="M 62.316406 84.453125 C 62.316406 84.511719 62.273438 84.566406 62.1875 84.621094 C 62.105469 84.675781 61.980469 84.730469 61.816406 84.78125 C 61.652344 84.835938 61.449219 84.886719 61.210938 84.933594 C 60.96875 84.980469 60.699219 85.023438 60.394531 85.0625 C 60.089844 85.101562 59.757812 85.136719 59.398438 85.167969 C 59.039062 85.199219 58.664062 85.226562 58.265625 85.25 C 57.867188 85.269531 57.457031 85.285156 57.035156 85.296875 C 56.609375 85.308594 56.183594 85.3125 55.753906 85.3125 C 55.324219 85.3125 54.894531 85.308594 54.472656 85.296875 C 54.050781 85.285156 53.640625 85.269531 53.242188 85.25 C 52.84375 85.226562 52.46875 85.199219 52.109375 85.167969 C 51.75 85.136719 51.417969 85.101562 51.113281 85.0625 C 50.808594 85.023438 50.539062 84.980469 50.296875 84.933594 C 50.058594 84.886719 49.855469 84.835938 49.691406 84.78125 C 49.527344 84.730469 49.402344 84.675781 49.320312 84.621094 C 49.234375 84.566406 49.191406 84.511719 49.191406 84.453125 C 49.191406 84.398438 49.234375 84.339844 49.320312 84.285156 C 49.402344 84.230469 49.527344 84.175781 49.691406 84.125 C 49.855469 84.070312 50.058594 84.023438 50.296875 83.976562 C 50.539062 83.929688 50.808594 83.886719 51.113281 83.84375 C 51.417969 83.804688 51.75 83.769531 52.109375 83.738281 C 52.46875 83.707031 52.84375 83.679688 53.242188 83.660156 C 53.640625 83.636719 54.050781 83.621094 54.472656 83.609375 C 54.894531 83.597656 55.324219 83.59375 55.753906 83.59375 C 56.183594 83.59375 56.609375 83.597656 57.035156 83.609375 C 57.457031 83.621094 57.867188 83.636719 58.265625 83.660156 C 58.664062 83.679688 59.039062 83.707031 59.398438 83.738281 C 59.757812 83.769531 60.089844 83.804688 60.394531 83.84375 C 60.699219 83.886719 60.96875 83.929688 61.210938 83.976562 C 61.449219 84.023438 61.652344 84.070312 61.816406 84.125 C 61.980469 84.175781 62.105469 84.230469 62.1875 84.285156 C 62.273438 84.339844 62.316406 84.398438 62.316406 84.453125 Z M 62.316406 84.453125 " fill-opacity="0.4" fill-rule="nonzero"/><path fill="#666028" d="M 56.15625 84.382812 C 56.15625 83.984375 56.992188 71.53125 55.351562 63.597656 C 53.640625 55.316406 50.53125 52.308594 50.53125 52.308594 C 50.53125 52.308594 53.214844 55.6875 53.929688 65.652344 C 54.644531 75.621094 53.851562 83.984375 53.851562 83.984375 Z M 56.15625 84.382812 " fill-opacity="1" fill-rule="nonzero"/><path fill="#666028" d="M 53.816406 83.765625 C 53.429688 78.890625 52.933594 75.527344 52.304688 70.667969 C 51.988281 68.238281 51.625 65.8125 51.195312 63.402344 C 50.753906 60.992188 50.261719 58.585938 49.425781 56.273438 C 50.402344 58.527344 51.050781 60.917969 51.640625 63.304688 C 52.21875 65.695312 52.734375 68.105469 53.203125 70.523438 C 54.136719 75.359375 54.9375 78.683594 55.628906 83.570312 Z M 53.816406 83.765625 " fill-opacity="1" fill-rule="nonzero"/><path fill="#666028" d="M 56.566406 84.367188 C 56.933594 81.058594 57.558594 79.382812 58.402344 76.21875 C 58.824219 74.636719 59.332031 73.082031 59.898438 71.550781 C 60.476562 70.027344 61.15625 68.542969 61.929688 67.117188 C 61.292969 68.613281 60.761719 70.136719 60.328125 71.695312 C 59.914062 73.253906 59.558594 74.828125 59.289062 76.417969 C 58.757812 79.582031 58.441406 81.296875 58.386719 84.457031 Z M 56.566406 84.367188 " fill-opacity="1" fill-rule="nonzero"/><path fill="#a39f45" d="M 55.464844 84.542969 C 55.464844 84.542969 55.597656 79.316406 55.996094 73.972656 C 56.390625 68.628906 59.046875 61.394531 59.046875 61.394531 C 59.046875 61.394531 57.929688 65.976562 57.769531 71.238281 C 57.609375 76.5 57.609375 84.308594 57.609375 84.308594 Z M 55.464844 84.542969 " fill-opacity="1" fill-rule="nonzero"/><path fill="#a39f45" d="M 53.199219 84.253906 C 53.207031 80.902344 52.933594 78.976562 52.128906 75.695312 C 51.710938 74.0625 51.140625 72.441406 50.171875 71.070312 C 49.6875 70.394531 49.078125 69.796875 48.324219 69.425781 C 47.574219 69.050781 46.699219 68.945312 45.847656 69.0625 C 46.683594 68.871094 47.589844 68.890625 48.417969 69.214844 C 49.246094 69.535156 49.953125 70.117188 50.527344 70.785156 C 51.679688 72.140625 53.992188 77.269531 54.320312 78.988281 C 54.640625 80.714844 54.882812 82.429688 55.023438 84.207031 Z M 53.199219 84.253906 " fill-opacity="1" fill-rule="nonzero"/><path fill="#e3bd55" d="M 38.160156 36.3125 C 38.160156 36.3125 40.328125 37.824219 40.394531 41.332031 C 40.488281 46.378906 40.785156 49.132812 40.785156 49.132812 L 35.820312 48.609375 Z M 38.160156 36.3125 " fill-opacity="1" fill-rule="nonzero"/><path fill="#443d36" d="M 47.957031 56.652344 C 47.945312 56.589844 46.578125 50.605469 43.375 49.886719 L 43.425781 49.660156 C 44.8125 49.972656 46.078125 51.277344 47.082031 53.429688 C 47.832031 55.042969 48.179688 56.585938 48.183594 56.601562 Z M 47.957031 56.652344 " fill-opacity="1" fill-rule="nonzero"/><path fill="#db8e63" d="M 40.785156 49.132812 L 49.257812 52.171875 L 49.300781 54.882812 C 49.300781 54.882812 38.238281 53.789062 37.324219 52.214844 C 36.410156 50.640625 38.5 47.558594 38.5 47.558594 Z M 40.785156 49.132812 " fill-opacity="1" fill-rule="nonzero"/><path fill="#443d36" d="M 26.480469 30.136719 C 26.480469 30.136719 26.21875 31.484375 32.503906 32.101562 C 38.792969 32.71875 40.804688 32.234375 43.25 31.6875 C 45.695312 31.144531 47.058594 30.886719 46.613281 29.921875 C 46.167969 28.960938 40.769531 26.328125 40.769531 26.328125 L 34.285156 25.328125 L 27.117188 29.335938 Z M 26.480469 30.136719 " fill-opacity="1" fill-rule="nonzero"/><path fill="#db8e63" d="M 36.847656 40.296875 C 36.957031 39.988281 36.898438 35.734375 36.898438 35.734375 L 37.015625 35.003906 L 37.042969 34.835938 L 37.417969 32.535156 C 36.269531 31.410156 34.996094 29.828125 33.859375 28.707031 L 33.492188 28.589844 C 33.460938 28.660156 31.574219 34.21875 31.535156 34.289062 C 30.472656 39.984375 36.464844 41.363281 36.847656 40.296875 Z M 36.847656 40.296875 " fill-opacity="1" fill-rule="nonzero"/><path fill="#443d36" d="M 33.25 32.730469 C 33.25 32.730469 34.058594 35.59375 36.898438 35.734375 L 37.015625 35.003906 L 37.042969 34.835938 C 36.589844 34.917969 35.875 35.011719 35.644531 34.957031 C 34.714844 34.746094 33.847656 33.851562 33.25 32.730469 Z M 33.25 32.730469 " fill-opacity="1" fill-rule="nonzero"/><path fill="#db8e63" d="M 39.710938 30.828125 C 39.011719 33.160156 37.90625 35.464844 35.640625 34.953125 C 34.0625 34.597656 32.671875 32.269531 32.46875 30.203125 C 32.363281 29.140625 32.257812 28.210938 32.308594 27.519531 C 32.351562 26.972656 32.398438 26.632812 32.398438 26.632812 L 32.875 25.46875 L 33.152344 24.789062 C 33.152344 24.789062 33.695312 24.40625 34.300781 23.976562 C 35.058594 23.4375 36.101562 24.363281 36.125 24.324219 C 36.160156 24.265625 39.398438 24.035156 40.320312 25.394531 C 40.324219 25.398438 40.328125 25.402344 40.324219 25.402344 C 40.410156 25.527344 40.472656 25.652344 40.507812 25.777344 C 40.539062 25.878906 40.550781 25.984375 40.542969 26.089844 C 40.53125 26.289062 40.503906 26.582031 40.460938 26.960938 C 40.445312 27.117188 40.425781 27.285156 40.402344 27.46875 C 40.363281 27.777344 40.3125 28.109375 40.253906 28.460938 C 40.128906 29.203125 39.953125 30.023438 39.710938 30.828125 Z M 39.710938 30.828125 " fill-opacity="1" fill-rule="nonzero"/><path fill="#ffffff" d="M 35.679688 33.164062 L 36.808594 33.464844 C 36.8125 33.46875 36.101562 34.195312 35.679688 33.164062 Z M 35.679688 33.164062 " fill-opacity="1" fill-rule="nonzero"/><path fill="#443d36" d="M 32.238281 28.082031 C 32.238281 28.082031 32.628906 22.777344 35.640625 22.980469 C 35.640625 22.980469 37.628906 21.46875 39.734375 23.65625 C 40.746094 24.707031 40.976562 26.351562 40.753906 27.054688 C 40.617188 27.496094 40.414062 27.859375 40.355469 27.832031 C 40.191406 27.753906 40.207031 27.300781 39.59375 27.398438 C 37.105469 27.792969 35.261719 25.65625 34.550781 26.011719 C 33.839844 26.367188 32.703125 30.453125 32.703125 30.453125 C 32.703125 30.453125 32.550781 29.167969 32.238281 28.082031 Z M 32.238281 28.082031 " fill-opacity="1" fill-rule="nonzero"/><path fill="#443d36" d="M 35.804688 24.332031 C 35.992188 24.382812 36.160156 24.46875 36.3125 24.585938 C 36.464844 24.707031 36.585938 24.851562 36.683594 25.027344 C 36.777344 25.199219 36.835938 25.382812 36.859375 25.582031 C 36.886719 25.777344 36.871094 25.976562 36.820312 26.167969 C 36.769531 26.363281 36.683594 26.539062 36.566406 26.699219 C 36.449219 26.859375 36.304688 26.992188 36.136719 27.09375 C 35.96875 27.195312 35.789062 27.261719 35.597656 27.292969 C 35.40625 27.320312 35.21875 27.308594 35.035156 27.261719 C 34.847656 27.210938 34.679688 27.125 34.527344 27.007812 C 34.375 26.886719 34.25 26.742188 34.15625 26.570312 C 34.058594 26.398438 34 26.210938 33.976562 26.011719 C 33.953125 25.816406 33.964844 25.621094 34.019531 25.425781 C 34.070312 25.230469 34.152344 25.054688 34.273438 24.894531 C 34.390625 24.734375 34.53125 24.601562 34.699219 24.5 C 34.867188 24.398438 35.046875 24.332031 35.238281 24.304688 C 35.429688 24.273438 35.617188 24.285156 35.804688 24.332031 Z M 35.804688 24.332031 " fill-opacity="1" fill-rule="nonzero"/><path fill="#443d36" d="M 37.890625 25.226562 C 38.078125 25.277344 38.246094 25.359375 38.398438 25.480469 C 38.550781 25.601562 38.675781 25.746094 38.769531 25.917969 C 38.863281 26.089844 38.925781 26.277344 38.949219 26.472656 C 38.972656 26.671875 38.957031 26.867188 38.90625 27.0625 C 38.855469 27.257812 38.773438 27.433594 38.652344 27.59375 C 38.535156 27.753906 38.390625 27.886719 38.226562 27.988281 C 38.058594 28.089844 37.878906 28.15625 37.6875 28.183594 C 37.496094 28.214844 37.308594 28.203125 37.121094 28.152344 C 36.933594 28.105469 36.765625 28.019531 36.613281 27.898438 C 36.460938 27.78125 36.339844 27.632812 36.242188 27.460938 C 36.148438 27.289062 36.089844 27.105469 36.0625 26.90625 C 36.039062 26.707031 36.054688 26.511719 36.105469 26.320312 C 36.15625 26.125 36.242188 25.949219 36.359375 25.785156 C 36.476562 25.625 36.621094 25.496094 36.789062 25.394531 C 36.957031 25.289062 37.136719 25.226562 37.328125 25.195312 C 37.515625 25.167969 37.707031 25.179688 37.890625 25.226562 Z M 37.890625 25.226562 " fill-opacity="1" fill-rule="nonzero"/><path fill="#443d36" d="M 40.410156 27.796875 C 40.054688 28.300781 39.300781 28.792969 37.847656 27.617188 C 35.59375 25.796875 33.875 26.453125 34.027344 25.855469 C 34.183594 25.257812 35.773438 25.152344 37.582031 25.621094 C 39.386719 26.09375 40.75 27.3125 40.410156 27.796875 Z M 40.410156 27.796875 " fill-opacity="1" fill-rule="nonzero"/><path fill="#db8e63" d="M 32.964844 28.503906 C 32.964844 28.503906 31.675781 27.433594 31.5625 28.84375 C 31.449219 30.257812 32.710938 31.019531 32.710938 31.019531 Z M 32.964844 28.503906 " fill-opacity="1" fill-rule="nonzero"/><path fill="#443d36" d="M 32.570312 28.914062 C 32.570312 28.914062 31.515625 28.460938 32.449219 30.101562 Z M 32.570312 28.914062 " fill-opacity="1" fill-rule="nonzero"/><path fill="#443d36" d="M 38.371094 30.25 C 38.425781 30.269531 38.464844 30.324219 38.480469 30.410156 C 38.496094 30.496094 38.484375 30.589844 38.449219 30.6875 C 38.414062 30.789062 38.359375 30.867188 38.292969 30.921875 C 38.226562 30.980469 38.164062 30.996094 38.105469 30.976562 C 38.050781 30.953125 38.011719 30.902344 37.996094 30.816406 C 37.980469 30.730469 37.992188 30.636719 38.027344 30.535156 C 38.0625 30.4375 38.117188 30.359375 38.183594 30.300781 C 38.25 30.246094 38.3125 30.226562 38.371094 30.25 Z M 38.371094 30.25 " fill-opacity="1" fill-rule="nonzero"/><path fill="#443d36" d="M 35.796875 29.644531 C 35.855469 29.664062 35.890625 29.71875 35.90625 29.804688 C 35.921875 29.890625 35.910156 29.984375 35.875 30.082031 C 35.839844 30.183594 35.789062 30.261719 35.722656 30.316406 C 35.65625 30.375 35.59375 30.390625 35.535156 30.371094 C 35.476562 30.347656 35.4375 30.296875 35.421875 30.210938 C 35.40625 30.125 35.417969 30.03125 35.453125 29.929688 C 35.492188 29.832031 35.542969 29.753906 35.609375 29.695312 C 35.675781 29.640625 35.738281 29.621094 35.796875 29.644531 Z M 35.796875 29.644531 " fill-opacity="1" fill-rule="nonzero"/><path fill="#443d36" d="M 38.207031 29.347656 C 38.207031 29.347656 38.910156 28.957031 39.421875 29.320312 Z M 38.207031 29.347656 " fill-opacity="1" fill-rule="nonzero"/><path fill="#443d36" d="M 34.96875 28.511719 C 35.019531 28.511719 35.863281 28.476562 36.28125 29.074219 Z M 34.96875 28.511719 " fill-opacity="1" fill-rule="nonzero"/><path fill="#443d36" d="M 36.859375 32.113281 C 36.773438 32.113281 36.65625 32.089844 36.503906 32.019531 C 36.484375 32.011719 36.476562 31.988281 36.484375 31.96875 C 36.492188 31.953125 36.515625 31.941406 36.53125 31.953125 C 36.789062 32.070312 36.96875 32.070312 37.042969 31.957031 C 37.121094 31.835938 37.0625 31.597656 36.933594 31.484375 C 36.917969 31.46875 36.914062 31.449219 36.929688 31.429688 C 36.941406 31.414062 36.964844 31.414062 36.980469 31.425781 C 37.125 31.554688 37.210938 31.832031 37.105469 31.996094 C 37.074219 32.050781 37 32.113281 36.859375 32.113281 Z M 36.859375 32.113281 " fill-opacity="1" fill-rule="nonzero"/><path fill="#443d36" d="M 36.523438 35.195312 C 36.496094 35.195312 36.46875 35.195312 36.4375 35.195312 C 35.671875 35.164062 35.015625 34.847656 34.480469 34.25 C 33.78125 33.464844 33.296875 32.21875 33.039062 30.542969 C 32.855469 29.320312 32.800781 27.851562 32.890625 26.511719 L 33.003906 26.519531 C 32.914062 27.851562 32.96875 29.3125 33.152344 30.527344 C 33.40625 32.179688 33.878906 33.40625 34.566406 34.175781 C 35.078125 34.746094 35.710938 35.050781 36.441406 35.082031 C 39.679688 35.210938 40.6875 27.132812 40.695312 27.050781 L 40.808594 27.066406 C 40.808594 27.085938 40.558594 29.148438 39.898438 31.167969 C 39.035156 33.839844 37.898438 35.195312 36.523438 35.195312 Z M 36.523438 35.195312 " fill-opacity="1" fill-rule="nonzero"/><g clip-path="url(#b35ce734cd)"><path fill="#e2be96" d="M 26.480469 30.136719 C 26.746094 29.632812 30.546875 26.910156 35.921875 27.199219 C 41.292969 27.488281 46.253906 28.871094 46.613281 29.921875 C 46.613281 29.921875 45.648438 28.5 43.648438 26.855469 C 41.652344 25.210938 37.730469 21.601562 37.109375 21.367188 C 36.484375 21.132812 33.734375 23.800781 31.96875 25.121094 C 30.203125 26.445312 27.40625 28.394531 26.480469 30.136719 Z M 26.480469 30.136719 " fill-opacity="1" fill-rule="nonzero"/></g><g clip-path="url(#d4a735c4be)"><path fill="#443d36" d="M 37.117188 21.871094 C 37.117188 21.871094 37.207031 21.949219 37.359375 22.097656 C 37.507812 22.238281 37.75 22.472656 37.988281 22.703125 C 38.242188 22.953125 38.558594 23.265625 38.867188 23.570312 C 39.191406 23.902344 39.527344 24.238281 39.863281 24.582031 C 40.191406 24.933594 40.519531 25.273438 40.839844 25.613281 C 41.148438 25.941406 41.429688 26.257812 41.667969 26.527344 C 41.910156 26.800781 42.101562 27.03125 42.234375 27.199219 C 42.363281 27.367188 42.429688 27.464844 42.429688 27.464844 C 42.429688 27.464844 42.355469 27.371094 42.214844 27.210938 C 42.078125 27.050781 41.867188 26.832031 41.621094 26.570312 C 41.371094 26.3125 41.066406 25.992188 40.765625 25.679688 C 40.441406 25.347656 40.113281 25.007812 39.777344 24.664062 C 39.445312 24.316406 39.117188 23.976562 38.796875 23.644531 C 38.496094 23.328125 38.191406 23.007812 37.941406 22.75 C 37.714844 22.507812 37.484375 22.261719 37.34375 22.113281 C 37.199219 21.957031 37.117188 21.871094 37.117188 21.871094 Z M 37.117188 21.871094 " fill-opacity="1" fill-rule="nonzero"/></g><g clip-path="url(#35ef57b447)"><path fill="#443d36" d="M 36.921875 21.871094 C 36.921875 21.871094 36.957031 21.941406 37.011719 22.074219 C 37.066406 22.203125 37.152344 22.390625 37.242188 22.613281 C 37.335938 22.839844 37.445312 23.101562 37.5625 23.386719 C 37.675781 23.667969 37.792969 23.96875 37.914062 24.273438 C 38.027344 24.578125 38.144531 24.878906 38.25 25.167969 C 38.355469 25.453125 38.449219 25.722656 38.53125 25.949219 C 38.617188 26.179688 38.679688 26.375 38.726562 26.507812 C 38.769531 26.644531 38.792969 26.71875 38.792969 26.71875 C 38.792969 26.71875 38.761719 26.648438 38.703125 26.515625 C 38.648438 26.386719 38.5625 26.199219 38.46875 25.976562 C 38.378906 25.75 38.265625 25.488281 38.152344 25.203125 C 38.035156 24.921875 37.917969 24.617188 37.800781 24.316406 C 37.6875 24.011719 37.570312 23.710938 37.464844 23.421875 C 37.359375 23.136719 37.265625 22.867188 37.183594 22.640625 C 37.101562 22.410156 37.035156 22.21875 36.992188 22.082031 C 36.945312 21.945312 36.921875 21.871094 36.921875 21.871094 Z M 36.921875 21.871094 " fill-opacity="1" fill-rule="nonzero"/></g><g clip-path="url(#4aa5e115b5)"><path fill="#443d36" d="M 36.75 21.933594 C 36.75 21.933594 36.722656 22.003906 36.675781 22.132812 C 36.628906 22.257812 36.5625 22.4375 36.476562 22.648438 C 36.394531 22.863281 36.296875 23.113281 36.1875 23.378906 C 36.078125 23.644531 35.960938 23.925781 35.84375 24.207031 C 35.722656 24.488281 35.601562 24.769531 35.484375 25.03125 C 35.371094 25.292969 35.253906 25.535156 35.160156 25.746094 C 35.066406 25.953125 34.980469 26.125 34.925781 26.246094 C 34.867188 26.367188 34.832031 26.433594 34.832031 26.433594 C 34.832031 26.433594 34.859375 26.363281 34.902344 26.238281 C 34.953125 26.113281 35.015625 25.933594 35.101562 25.71875 C 35.1875 25.507812 35.28125 25.253906 35.394531 24.992188 C 35.5 24.722656 35.617188 24.441406 35.738281 24.160156 C 35.859375 23.878906 35.980469 23.597656 36.097656 23.339844 C 36.210938 23.078125 36.324219 22.835938 36.417969 22.625 C 36.515625 22.414062 36.601562 22.246094 36.65625 22.125 C 36.714844 22.003906 36.75 21.933594 36.75 21.933594 Z M 36.75 21.933594 " fill-opacity="1" fill-rule="nonzero"/></g><g clip-path="url(#8399ec7200)"><path fill="#443d36" d="M 36.507812 21.976562 C 36.507812 21.976562 36.414062 22.066406 36.253906 22.21875 C 36.089844 22.371094 35.863281 22.589844 35.582031 22.847656 C 35.304688 23.109375 34.980469 23.414062 34.625 23.730469 C 34.273438 24.050781 33.894531 24.390625 33.519531 24.734375 C 33.140625 25.070312 32.761719 25.410156 32.402344 25.722656 C 32.042969 26.039062 31.707031 26.328125 31.421875 26.578125 C 31.132812 26.828125 30.890625 27.03125 30.71875 27.175781 C 30.550781 27.320312 30.453125 27.402344 30.453125 27.402344 C 30.453125 27.402344 30.542969 27.3125 30.707031 27.160156 C 30.867188 27.007812 31.097656 26.789062 31.378906 26.527344 C 31.65625 26.269531 31.980469 25.964844 32.335938 25.648438 C 32.6875 25.328125 33.066406 24.988281 33.441406 24.644531 C 33.820312 24.308594 34.199219 23.96875 34.558594 23.65625 C 34.917969 23.339844 35.253906 23.050781 35.539062 22.800781 C 35.824219 22.550781 36.070312 22.347656 36.238281 22.203125 C 36.410156 22.058594 36.507812 21.976562 36.507812 21.976562 Z M 36.507812 21.976562 " fill-opacity="1" fill-rule="nonzero"/></g><path fill="#443d36" d="M 30.714844 26.632812 C 30.714844 26.632812 30.882812 26.566406 31.183594 26.460938 C 31.484375 26.355469 31.914062 26.210938 32.445312 26.078125 C 32.972656 25.941406 33.597656 25.804688 34.273438 25.710938 C 34.949219 25.617188 35.679688 25.570312 36.410156 25.609375 C 37.136719 25.652344 37.859375 25.738281 38.535156 25.832031 C 39.210938 25.929688 39.835938 26.042969 40.371094 26.148438 C 40.910156 26.25 41.351562 26.355469 41.660156 26.425781 C 41.972656 26.503906 42.144531 26.546875 42.144531 26.546875 C 42.144531 26.546875 41.96875 26.511719 41.65625 26.449219 C 41.34375 26.382812 40.898438 26.300781 40.363281 26.210938 C 39.828125 26.117188 39.199219 26.019531 38.523438 25.933594 C 37.851562 25.847656 37.125 25.761719 36.40625 25.722656 C 35.683594 25.683594 34.960938 25.730469 34.285156 25.8125 C 33.613281 25.894531 32.988281 26.015625 32.460938 26.140625 C 31.929688 26.265625 31.496094 26.386719 31.191406 26.484375 C 30.886719 26.570312 30.714844 26.632812 30.714844 26.632812 Z M 30.714844 26.632812 " fill-opacity="1" fill-rule="nonzero"/><path fill="#443d36" d="M 33.21875 24.785156 C 33.21875 24.785156 33.332031 24.742188 33.53125 24.664062 C 33.726562 24.597656 34.015625 24.496094 34.367188 24.402344 C 34.71875 24.3125 35.132812 24.214844 35.582031 24.152344 C 36.03125 24.089844 36.519531 24.054688 37.007812 24.082031 C 37.492188 24.109375 37.972656 24.167969 38.421875 24.234375 C 38.871094 24.300781 39.289062 24.378906 39.644531 24.453125 C 40 24.523438 40.292969 24.59375 40.5 24.644531 C 40.703125 24.699219 40.820312 24.726562 40.820312 24.726562 C 40.820312 24.726562 40.703125 24.707031 40.496094 24.664062 C 40.292969 24.628906 39.957031 24.570312 39.632812 24.515625 C 39.273438 24.453125 38.859375 24.394531 38.410156 24.335938 C 37.960938 24.28125 37.480469 24.222656 37 24.195312 C 36.523438 24.167969 36.042969 24.199219 35.597656 24.253906 C 35.148438 24.308594 34.734375 24.382812 34.382812 24.464844 C 34.03125 24.546875 33.738281 24.625 33.539062 24.6875 C 33.335938 24.75 33.21875 24.785156 33.21875 24.785156 Z M 33.21875 24.785156 " fill-opacity="1" fill-rule="nonzero"/><path fill="#443d36" d="M 48.539062 56.675781 C 48.539062 56.675781 46.710938 64.433594 46.492188 64.609375 C 46.273438 64.785156 42.3125 66.09375 38.609375 64.519531 L 37.085938 56.675781 Z M 48.539062 56.675781 " fill-opacity="1" fill-rule="nonzero"/><path fill="#443d36" d="M 48.539062 56.675781 C 48.539062 56.785156 48.5 56.894531 48.429688 57.003906 C 48.355469 57.113281 48.246094 57.21875 48.101562 57.320312 C 47.957031 57.425781 47.78125 57.523438 47.574219 57.613281 C 47.363281 57.707031 47.125 57.792969 46.859375 57.871094 C 46.59375 57.949219 46.304688 58.019531 45.992188 58.082031 C 45.679688 58.144531 45.351562 58.195312 45.003906 58.238281 C 44.65625 58.28125 44.296875 58.3125 43.929688 58.332031 C 43.558594 58.355469 43.1875 58.367188 42.8125 58.367188 C 42.433594 58.367188 42.0625 58.355469 41.695312 58.332031 C 41.324219 58.3125 40.96875 58.28125 40.621094 58.238281 C 40.273438 58.195312 39.941406 58.144531 39.628906 58.082031 C 39.316406 58.019531 39.027344 57.949219 38.761719 57.871094 C 38.496094 57.792969 38.257812 57.707031 38.050781 57.613281 C 37.839844 57.523438 37.664062 57.425781 37.519531 57.320312 C 37.378906 57.21875 37.269531 57.113281 37.195312 57.003906 C 37.121094 56.894531 37.085938 56.785156 37.085938 56.675781 C 37.085938 56.5625 37.121094 56.453125 37.195312 56.34375 C 37.269531 56.234375 37.378906 56.128906 37.519531 56.027344 C 37.664062 55.925781 37.839844 55.828125 38.050781 55.734375 C 38.257812 55.640625 38.496094 55.554688 38.761719 55.476562 C 39.027344 55.398438 39.316406 55.328125 39.628906 55.269531 C 39.941406 55.207031 40.273438 55.152344 40.621094 55.109375 C 40.96875 55.070312 41.324219 55.035156 41.695312 55.015625 C 42.0625 54.992188 42.433594 54.984375 42.8125 54.984375 C 43.1875 54.984375 43.558594 54.992188 43.929688 55.015625 C 44.296875 55.035156 44.65625 55.070312 45.003906 55.109375 C 45.351562 55.152344 45.679688 55.207031 45.992188 55.269531 C 46.304688 55.328125 46.59375 55.398438 46.859375 55.476562 C 47.125 55.554688 47.363281 55.640625 47.574219 55.734375 C 47.78125 55.828125 47.957031 55.925781 48.101562 56.027344 C 48.246094 56.128906 48.355469 56.234375 48.429688 56.34375 C 48.5 56.453125 48.539062 56.5625 48.539062 56.675781 Z M 48.539062 56.675781 " fill-opacity="1" fill-rule="nonzero"/><path fill="#e2be96" d="M 47.878906 56.675781 C 47.878906 56.859375 47.75 57.039062 47.492188 57.210938 C 47.234375 57.382812 46.871094 57.535156 46.394531 57.664062 C 45.917969 57.796875 45.371094 57.898438 44.75 57.96875 C 44.128906 58.039062 43.484375 58.078125 42.8125 58.078125 C 42.140625 58.078125 41.492188 58.039062 40.871094 57.96875 C 40.25 57.898438 39.703125 57.796875 39.226562 57.664062 C 38.753906 57.535156 38.386719 57.382812 38.128906 57.210938 C 37.871094 57.039062 37.742188 56.859375 37.742188 56.675781 C 37.742188 56.488281 37.871094 56.308594 38.128906 56.136719 C 38.386719 55.964844 38.753906 55.8125 39.226562 55.683594 C 39.703125 55.550781 40.25 55.449219 40.871094 55.378906 C 41.492188 55.308594 42.140625 55.273438 42.8125 55.273438 C 43.484375 55.273438 44.128906 55.308594 44.75 55.378906 C 45.371094 55.449219 45.917969 55.550781 46.394531 55.683594 C 46.871094 55.8125 47.234375 55.964844 47.492188 56.136719 C 47.75 56.308594 47.878906 56.488281 47.878906 56.675781 Z M 47.878906 56.675781 " fill-opacity="1" fill-rule="nonzero"/><path fill="#443d36" d="M 37.855469 56.699219 L 37.632812 56.648438 C 37.96875 55.117188 38.984375 51.414062 41.082031 50.074219 C 41.804688 49.613281 42.59375 49.472656 43.425781 49.660156 L 43.375 49.886719 C 42.605469 49.714844 41.875 49.839844 41.210938 50.269531 C 39.179688 51.5625 38.1875 55.199219 37.855469 56.699219 Z M 37.855469 56.699219 " fill-opacity="1" fill-rule="nonzero"/><path fill="#db8e63" d="M 50.738281 56.101562 C 50.777344 56.109375 50.8125 56.121094 50.851562 56.128906 C 51.671875 56.324219 51.621094 55.90625 51.621094 55.90625 C 52.136719 56.101562 52.320312 55.503906 52.320312 55.503906 C 52.703125 55.558594 52.914062 54.917969 52.914062 54.917969 C 52.914062 54.917969 53.277344 54.96875 53.4375 54.730469 C 53.566406 54.539062 53.429688 54.261719 53.375 54.164062 C 53.359375 54.144531 53.351562 54.128906 53.351562 54.128906 C 53.351562 54.128906 52.59375 53.589844 52.378906 53.480469 C 52.164062 53.375 51.453125 52.863281 51.398438 52.851562 C 51.339844 52.835938 50.378906 53.207031 50.378906 53.207031 L 48.101562 53.796875 L 48.097656 54.667969 C 48.097656 54.667969 48.945312 55.140625 49.386719 55.3125 C 49.804688 55.476562 50.011719 55.890625 50.738281 56.101562 Z M 50.738281 56.101562 " fill-opacity="1" fill-rule="nonzero"/><path fill="#db8e63" d="M 48.914062 52.167969 C 48.914062 52.167969 50.949219 52.007812 51.292969 52.148438 C 51.640625 52.289062 52.425781 52.78125 52.773438 52.945312 C 53.121094 53.109375 53.484375 53.671875 53.820312 53.785156 C 53.820312 53.785156 53.617188 54.34375 52.828125 54.082031 C 52.042969 53.816406 51.5 53.523438 51.5 53.523438 C 51.5 53.523438 50.875 54.210938 49.902344 54.191406 C 48.929688 54.175781 48.101562 53.796875 48.101562 53.796875 Z M 48.914062 52.167969 " fill-opacity="1" fill-rule="nonzero"/><path fill="#443d36" d="M 49.9375 54.246094 C 49.925781 54.246094 49.914062 54.246094 49.898438 54.246094 L 49.902344 54.132812 C 50.835938 54.152344 51.453125 53.488281 51.457031 53.484375 L 51.488281 53.449219 L 51.527344 53.472656 C 51.53125 53.472656 52.074219 53.765625 52.847656 54.023438 C 53.574219 54.269531 53.761719 53.785156 53.769531 53.765625 L 53.875 53.804688 C 53.875 53.8125 53.644531 54.414062 52.8125 54.132812 C 52.144531 53.910156 51.648438 53.664062 51.511719 53.59375 C 51.375 53.726562 50.792969 54.246094 49.9375 54.246094 Z M 49.9375 54.246094 " fill-opacity="1" fill-rule="nonzero"/><path fill="#db8e63" d="M 50.738281 56.101562 C 50.777344 56.109375 50.8125 56.121094 50.851562 56.128906 C 51.671875 56.324219 51.621094 55.90625 51.621094 55.90625 C 52.136719 56.101562 52.320312 55.503906 52.320312 55.503906 C 52.703125 55.558594 52.914062 54.917969 52.914062 54.917969 C 52.914062 54.917969 53.277344 54.96875 53.4375 54.730469 C 53.566406 54.539062 53.429688 54.261719 53.375 54.164062 C 53.34375 54.160156 53.320312 54.15625 53.316406 54.15625 C 53.292969 54.144531 52.867188 54.089844 52.867188 54.089844 L 52.757812 54.25 L 52.769531 54.496094 L 52.742188 54.53125 L 52.214844 54.082031 L 51.953125 53.992188 L 51.671875 54.132812 L 51.566406 54.363281 L 51.679688 54.628906 L 51.488281 54.597656 L 51.171875 54.59375 L 50.9375 54.765625 L 50.828125 54.960938 L 50.886719 55.183594 L 50.757812 55.136719 L 50.53125 55.253906 L 50.480469 55.445312 L 50.5625 55.667969 L 50.730469 56.027344 Z M 50.738281 56.101562 " fill-opacity="1" fill-rule="nonzero"/><path fill="#443d36" d="M 50.800781 56.101562 L 50.6875 56.097656 C 50.6875 56.042969 50.632812 55.945312 50.582031 55.847656 C 50.484375 55.667969 50.371094 55.46875 50.449219 55.300781 C 50.519531 55.148438 50.664062 55.070312 50.855469 55.082031 L 50.894531 55.082031 L 50.90625 55.117188 C 50.90625 55.125 50.910156 55.128906 50.910156 55.132812 L 51.660156 55.863281 L 51.578125 55.945312 L 50.816406 55.199219 C 50.816406 55.199219 50.816406 55.195312 50.816406 55.195312 C 50.6875 55.195312 50.597656 55.25 50.550781 55.347656 C 50.5 55.460938 50.597656 55.640625 50.679688 55.792969 C 50.746094 55.914062 50.800781 56.015625 50.800781 56.101562 Z M 50.800781 56.101562 " fill-opacity="1" fill-rule="nonzero"/><path fill="#443d36" d="M 51.582031 55.945312 L 50.820312 55.195312 C 50.816406 55.195312 50.808594 55.179688 50.800781 55.15625 C 50.773438 55.089844 50.699219 54.847656 51 54.632812 C 51.320312 54.402344 51.679688 54.585938 51.75 54.628906 L 51.761719 54.632812 L 51.769531 54.648438 C 51.984375 54.988281 52.359375 55.460938 52.367188 55.464844 L 52.277344 55.535156 C 52.273438 55.53125 51.898438 55.066406 51.679688 54.71875 C 51.601562 54.675781 51.316406 54.542969 51.066406 54.722656 C 50.84375 54.882812 50.878906 55.050781 50.90625 55.113281 C 50.910156 55.121094 50.914062 55.128906 50.914062 55.128906 L 51.660156 55.859375 Z M 51.582031 55.945312 " fill-opacity="1" fill-rule="nonzero"/><path fill="#443d36" d="M 52.277344 55.535156 C 52.269531 55.53125 51.886719 55.054688 51.671875 54.707031 C 51.515625 54.464844 51.511719 54.378906 51.519531 54.335938 C 51.542969 54.210938 51.628906 54.085938 51.746094 54.011719 C 51.84375 53.949219 51.957031 53.929688 52.070312 53.957031 C 52.265625 54.007812 52.605469 54.324219 52.800781 54.519531 L 52.824219 54.511719 L 52.847656 54.570312 C 52.898438 54.738281 52.96875 54.894531 52.96875 54.894531 L 52.867188 54.941406 C 52.863281 54.9375 52.796875 54.792969 52.746094 54.625 L 52.738281 54.617188 C 52.429688 54.304688 52.171875 54.097656 52.042969 54.066406 C 51.941406 54.039062 51.859375 54.074219 51.808594 54.105469 C 51.71875 54.164062 51.648438 54.261719 51.632812 54.355469 C 51.632812 54.359375 51.621094 54.414062 51.769531 54.644531 C 51.984375 54.988281 52.359375 55.457031 52.367188 55.464844 Z M 52.277344 55.535156 " fill-opacity="1" fill-rule="nonzero"/><path fill="#443d36" d="M 52.863281 54.941406 C 52.859375 54.9375 52.789062 54.777344 52.734375 54.601562 C 52.675781 54.398438 52.667969 54.257812 52.710938 54.179688 C 52.765625 54.085938 52.84375 54.019531 52.941406 53.996094 C 53.148438 53.941406 53.371094 54.074219 53.382812 54.078125 L 53.324219 54.179688 C 53.320312 54.175781 53.128906 54.066406 52.96875 54.105469 C 52.902344 54.125 52.847656 54.164062 52.8125 54.234375 C 52.792969 54.261719 52.777344 54.34375 52.84375 54.570312 C 52.894531 54.738281 52.964844 54.894531 52.964844 54.894531 Z M 52.863281 54.941406 " fill-opacity="1" fill-rule="nonzero"/><path fill="#443d36" d="M 51.582031 55.945312 L 50.820312 55.195312 C 50.816406 55.195312 50.808594 55.179688 50.800781 55.15625 C 50.773438 55.089844 50.699219 54.847656 51 54.632812 C 51.320312 54.402344 51.679688 54.585938 51.75 54.628906 L 51.761719 54.632812 L 51.769531 54.648438 C 51.984375 54.988281 52.359375 55.460938 52.367188 55.464844 L 52.277344 55.535156 C 52.273438 55.53125 51.898438 55.066406 51.679688 54.71875 C 51.601562 54.675781 51.316406 54.542969 51.066406 54.722656 C 50.84375 54.882812 50.878906 55.050781 50.90625 55.113281 C 50.910156 55.121094 50.914062 55.128906 50.914062 55.128906 L 51.660156 55.859375 Z M 51.582031 55.945312 " fill-opacity="1" fill-rule="nonzero"/><path fill="#443d36" d="M 52.277344 55.535156 C 52.269531 55.53125 51.886719 55.054688 51.671875 54.707031 C 51.515625 54.464844 51.511719 54.378906 51.519531 54.335938 C 51.542969 54.210938 51.628906 54.085938 51.746094 54.011719 C 51.84375 53.949219 51.957031 53.929688 52.070312 53.957031 C 52.265625 54.007812 52.605469 54.324219 52.800781 54.519531 L 52.824219 54.511719 L 52.847656 54.570312 C 52.898438 54.738281 52.96875 54.894531 52.96875 54.894531 L 52.867188 54.941406 C 52.863281 54.9375 52.796875 54.792969 52.746094 54.625 L 52.738281 54.617188 C 52.429688 54.304688 52.171875 54.097656 52.042969 54.066406 C 51.941406 54.039062 51.859375 54.074219 51.808594 54.105469 C 51.71875 54.164062 51.648438 54.261719 51.632812 54.355469 C 51.632812 54.359375 51.621094 54.414062 51.769531 54.644531 C 51.984375 54.988281 52.359375 55.457031 52.367188 55.464844 Z M 52.277344 55.535156 " fill-opacity="1" fill-rule="nonzero"/><path fill="#db8e63" d="M 42.308594 85.59375 L 37.839844 85.59375 L 37.25 77.398438 C 36.03125 75.207031 30.238281 64.648438 30.238281 64.648438 C 30.238281 64.648438 28.207031 69.292969 27.75 70.921875 C 27.472656 71.890625 25.003906 79.566406 23.054688 85.59375 L 18.578125 85.59375 C 19.933594 78.855469 22.207031 71.226562 22.207031 71.226562 C 22.207031 71.226562 22.195312 64.578125 22.402344 60.859375 C 22.601562 57.132812 26.753906 56.710938 26.753906 56.710938 L 38.675781 60.722656 C 38.675781 60.722656 41.265625 73.371094 41.875 75.816406 C 42.164062 76.988281 42.273438 81.351562 42.308594 85.59375 Z M 42.308594 85.59375 " fill-opacity="1" fill-rule="nonzero"/><path fill="#a0543a" d="M 23.929688 57.132812 C 23.929688 57.132812 22.125 59.539062 21.972656 62.445312 C 21.820312 65.351562 21.566406 70.808594 21.566406 71.089844 C 21.566406 71.15625 21.179688 71.324219 21.027344 71.839844 C 20.945312 72.105469 21.136719 72.613281 21.035156 72.933594 C 20.550781 74.476562 19.917969 76.417969 19.917969 76.417969 C 19.917969 76.417969 24.59375 79.070312 27.207031 79.019531 C 27.207031 79.019531 29.265625 72.464844 29.46875 71.625 C 29.671875 70.78125 30.5625 66.117188 30.5625 66.117188 C 30.5625 66.117188 35.558594 77.222656 35.589844 77.359375 C 35.625 77.496094 35.996094 81.441406 35.996094 81.441406 C 35.996094 81.441406 42.230469 81.542969 44.128906 80.015625 C 44.128906 80.015625 43.414062 74.777344 43.175781 73.792969 C 42.9375 72.804688 39.011719 60.53125 39.011719 60.53125 L 25.699219 55.671875 Z M 23.929688 57.132812 " fill-opacity="1" fill-rule="nonzero"/><path fill="#443d36" d="M 21.546875 71.117188 L 21.589844 71.0625 L 23.148438 72.25 L 23.105469 72.304688 Z M 21.546875 71.117188 " fill-opacity="1" fill-rule="nonzero"/><path fill="#443d36" d="M 21.15625 72.867188 L 21.671875 72.753906 L 21.6875 72.820312 L 21.171875 72.933594 Z M 21.15625 72.867188 " fill-opacity="1" fill-rule="nonzero"/><path fill="#e3bd55" d="M 31.773438 33.679688 C 31.773438 33.679688 28.589844 34.183594 27.480469 35.953125 C 26.371094 37.722656 25.519531 43.230469 25.128906 46.574219 C 24.769531 49.648438 23.9375 52.582031 23.476562 55.496094 C 23.433594 55.753906 23.542969 56.109375 23.507812 56.363281 C 23.050781 59.511719 21.691406 58.878906 21.953125 60.769531 C 22.09375 61.792969 27.195312 63.753906 30.789062 63.558594 C 34.382812 63.359375 37.324219 60.34375 39.152344 61.128906 C 39.152344 61.128906 38.519531 57.148438 38.519531 56.734375 C 38.519531 56.570312 38.484375 55.355469 38.195312 55.058594 L 38.160156 53.160156 C 38.160156 53.160156 39.109375 49.390625 39.171875 47.230469 C 39.238281 45.066406 38.410156 37.136719 38.347656 36.609375 C 38.28125 36.085938 36.882812 35.695312 36.882812 35.695312 C 36.882812 35.695312 36.902344 35.875 36.894531 36.488281 C 36.882812 36.9375 36.945312 37.359375 36.558594 37.429688 C 35.648438 37.59375 31.773438 33.679688 31.773438 33.679688 Z M 31.773438 33.679688 " fill-opacity="1" fill-rule="nonzero"/><path fill="#443d36" d="M 23.707031 58.304688 C 23.6875 58.304688 23.671875 58.289062 23.667969 58.273438 L 23.539062 56.535156 C 23.535156 56.511719 23.554688 56.496094 23.570312 56.492188 C 23.59375 56.492188 23.609375 56.507812 23.613281 56.527344 L 23.742188 58.265625 C 23.742188 58.285156 23.726562 58.304688 23.707031 58.304688 Z M 23.707031 58.304688 " fill-opacity="1" fill-rule="nonzero"/><path fill="#443d36" d="M 29.097656 62.515625 C 25.140625 62.515625 22.59375 59.894531 22.566406 59.867188 C 22.554688 59.851562 22.554688 59.828125 22.570312 59.816406 C 22.585938 59.800781 22.609375 59.800781 22.621094 59.816406 C 22.652344 59.847656 25.570312 62.847656 30.007812 62.394531 C 32.105469 62.183594 33.398438 61.527344 34.542969 60.949219 C 35.851562 60.285156 36.890625 59.761719 38.609375 60.167969 C 38.628906 60.171875 38.640625 60.191406 38.636719 60.210938 C 38.632812 60.230469 38.613281 60.242188 38.59375 60.238281 C 36.898438 59.839844 35.875 60.359375 34.574219 61.015625 C 33.425781 61.597656 32.125 62.253906 30.011719 62.46875 C 29.703125 62.5 29.398438 62.515625 29.097656 62.515625 Z M 29.097656 62.515625 " fill-opacity="1" fill-rule="nonzero"/><path fill="#ffffff" d="M 33.308594 45.644531 L 32.722656 53.1875 L 37.035156 53.382812 L 37.359375 45.382812 Z M 33.308594 45.644531 " fill-opacity="1" fill-rule="nonzero"/><path fill="#443d36" d="M 43.675781 56.902344 C 43.671875 56.886719 43.574219 56.53125 43.105469 56.53125 C 42.625 56.53125 42.335938 56.820312 42.332031 56.824219 L 42.289062 56.867188 L 42.273438 56.808594 C 42.269531 56.792969 42.152344 56.476562 41.847656 56.476562 C 41.535156 56.476562 41.328125 56.765625 41.324219 56.769531 L 41.289062 56.820312 L 41.261719 56.765625 C 41.257812 56.761719 41.101562 56.453125 40.824219 56.453125 C 40.542969 56.453125 40.367188 56.648438 40.363281 56.648438 L 40.308594 56.601562 C 40.320312 56.59375 40.507812 56.378906 40.824219 56.378906 C 41.074219 56.378906 41.238281 56.585938 41.300781 56.683594 C 41.375 56.59375 41.574219 56.402344 41.847656 56.402344 C 42.128906 56.402344 42.273438 56.632812 42.320312 56.734375 C 42.421875 56.652344 42.695312 56.457031 43.109375 56.457031 C 43.636719 56.457031 43.746094 56.878906 43.75 56.882812 Z M 43.675781 56.902344 " fill-opacity="1" fill-rule="nonzero"/><path fill="#443d36" d="M 45.261719 56.5 L 45.234375 56.445312 C 45.234375 56.445312 45.085938 56.15625 44.832031 56.15625 C 44.570312 56.15625 44.410156 56.335938 44.40625 56.339844 L 44.351562 56.289062 C 44.363281 56.28125 44.539062 56.085938 44.832031 56.085938 C 45.0625 56.085938 45.214844 56.273438 45.273438 56.363281 C 45.347656 56.28125 45.527344 56.105469 45.785156 56.105469 C 46.117188 56.105469 46.242188 56.460938 46.242188 56.464844 L 46.175781 56.488281 C 46.171875 56.476562 46.0625 56.179688 45.785156 56.179688 C 45.496094 56.179688 45.300781 56.449219 45.296875 56.449219 Z M 45.261719 56.5 " fill-opacity="1" fill-rule="nonzero"/><path fill="#443d36" d="M 43.964844 57.699219 C 43.960938 57.699219 43.816406 57.414062 43.558594 57.414062 C 43.300781 57.414062 43.136719 57.589844 43.136719 57.59375 L 43.082031 57.546875 C 43.089844 57.535156 43.265625 57.339844 43.558594 57.339844 C 43.859375 57.339844 44.023438 57.65625 44.027344 57.667969 Z M 43.964844 57.699219 " fill-opacity="1" fill-rule="nonzero"/><path fill="#e2be96" d="M 56.46875 39.265625 C 56.46875 39.367188 56.433594 39.453125 56.363281 39.523438 C 56.292969 39.59375 56.207031 39.628906 56.105469 39.628906 C 56.007812 39.628906 55.921875 39.59375 55.851562 39.523438 C 55.78125 39.453125 55.746094 39.367188 55.746094 39.265625 C 55.746094 39.167969 55.78125 39.082031 55.851562 39.011719 C 55.921875 38.941406 56.007812 38.90625 56.105469 38.90625 C 56.207031 38.90625 56.292969 38.941406 56.363281 39.011719 C 56.433594 39.082031 56.46875 39.167969 56.46875 39.265625 Z M 56.46875 39.265625 " fill-opacity="1" fill-rule="nonzero"/><path fill="#e2be96" d="M 65.460938 39.945312 C 65.460938 40.042969 65.425781 40.128906 65.355469 40.199219 C 65.285156 40.269531 65.199219 40.304688 65.101562 40.304688 C 65 40.304688 64.917969 40.269531 64.847656 40.199219 C 64.777344 40.128906 64.742188 40.042969 64.742188 39.945312 C 64.742188 39.84375 64.777344 39.761719 64.847656 39.6875 C 64.917969 39.617188 65 39.582031 65.101562 39.582031 C 65.199219 39.582031 65.285156 39.617188 65.355469 39.6875 C 65.425781 39.761719 65.460938 39.84375 65.460938 39.945312 Z M 65.460938 39.945312 " fill-opacity="1" fill-rule="nonzero"/><path fill="#e2be96" d="M 69.730469 42.90625 C 69.730469 43.007812 69.695312 43.089844 69.625 43.160156 C 69.554688 43.230469 69.46875 43.265625 69.371094 43.265625 C 69.269531 43.265625 69.183594 43.230469 69.113281 43.160156 C 69.042969 43.089844 69.007812 43.007812 69.007812 42.90625 C 69.007812 42.808594 69.042969 42.722656 69.113281 42.652344 C 69.183594 42.582031 69.269531 42.546875 69.371094 42.546875 C 69.46875 42.546875 69.554688 42.582031 69.625 42.652344 C 69.695312 42.722656 69.730469 42.808594 69.730469 42.90625 Z M 69.730469 42.90625 " fill-opacity="1" fill-rule="nonzero"/><path fill="#e2be96" d="M 66.777344 47.890625 C 66.777344 47.988281 66.742188 48.074219 66.671875 48.144531 C 66.601562 48.214844 66.519531 48.25 66.417969 48.25 C 66.320312 48.25 66.234375 48.214844 66.164062 48.144531 C 66.09375 48.074219 66.058594 47.988281 66.058594 47.890625 C 66.058594 47.789062 66.09375 47.703125 66.164062 47.632812 C 66.234375 47.5625 66.320312 47.527344 66.417969 47.527344 C 66.519531 47.527344 66.601562 47.5625 66.671875 47.632812 C 66.742188 47.703125 66.777344 47.789062 66.777344 47.890625 Z M 66.777344 47.890625 " fill-opacity="1" fill-rule="nonzero"/><path fill="#e2be96" d="M 71.667969 45.878906 C 71.667969 45.976562 71.632812 46.0625 71.5625 46.132812 C 71.492188 46.203125 71.40625 46.238281 71.308594 46.238281 C 71.207031 46.238281 71.125 46.203125 71.054688 46.132812 C 70.984375 46.0625 70.949219 45.976562 70.949219 45.878906 C 70.949219 45.777344 70.984375 45.695312 71.054688 45.625 C 71.125 45.554688 71.207031 45.519531 71.308594 45.519531 C 71.40625 45.519531 71.492188 45.554688 71.5625 45.625 C 71.632812 45.695312 71.667969 45.777344 71.667969 45.878906 Z M 71.667969 45.878906 " fill-opacity="1" fill-rule="nonzero"/><path fill="#e2be96" d="M 76.101562 45.691406 C 76.101562 45.792969 76.066406 45.875 75.996094 45.945312 C 75.925781 46.019531 75.839844 46.054688 75.738281 46.054688 C 75.640625 46.054688 75.554688 46.019531 75.484375 45.945312 C 75.414062 45.875 75.378906 45.792969 75.378906 45.691406 C 75.378906 45.59375 75.414062 45.507812 75.484375 45.4375 C 75.554688 45.367188 75.640625 45.332031 75.738281 45.332031 C 75.839844 45.332031 75.925781 45.367188 75.996094 45.4375 C 76.066406 45.507812 76.101562 45.59375 76.101562 45.691406 Z M 76.101562 45.691406 " fill-opacity="1" fill-rule="nonzero"/><path fill="#e2be96" d="M 62.890625 44.140625 C 62.890625 44.242188 62.855469 44.324219 62.785156 44.394531 C 62.714844 44.464844 62.632812 44.5 62.53125 44.5 C 62.433594 44.5 62.347656 44.464844 62.277344 44.394531 C 62.207031 44.324219 62.171875 44.242188 62.171875 44.140625 C 62.171875 44.039062 62.207031 43.957031 62.277344 43.886719 C 62.347656 43.816406 62.433594 43.78125 62.53125 43.78125 C 62.632812 43.78125 62.714844 43.816406 62.785156 43.886719 C 62.855469 43.957031 62.890625 44.039062 62.890625 44.140625 Z M 62.890625 44.140625 " fill-opacity="1" fill-rule="nonzero"/><path fill="#e2be96" d="M 72.453125 50.335938 C 72.453125 50.4375 72.417969 50.523438 72.347656 50.59375 C 72.277344 50.664062 72.191406 50.699219 72.09375 50.699219 C 71.992188 50.699219 71.910156 50.664062 71.839844 50.59375 C 71.769531 50.523438 71.734375 50.4375 71.734375 50.335938 C 71.734375 50.238281 71.769531 50.152344 71.839844 50.082031 C 71.910156 50.011719 71.992188 49.976562 72.09375 49.976562 C 72.191406 49.976562 72.277344 50.011719 72.347656 50.082031 C 72.417969 50.152344 72.453125 50.238281 72.453125 50.335938 Z M 72.453125 50.335938 " fill-opacity="1" fill-rule="nonzero"/><path fill="#e2be96" d="M 58.851562 42.601562 C 58.851562 42.699219 58.816406 42.785156 58.746094 42.855469 C 58.675781 42.925781 58.589844 42.960938 58.492188 42.960938 C 58.390625 42.960938 58.308594 42.925781 58.238281 42.855469 C 58.167969 42.785156 58.132812 42.699219 58.132812 42.601562 C 58.132812 42.5 58.167969 42.414062 58.238281 42.34375 C 58.308594 42.273438 58.390625 42.238281 58.492188 42.238281 C 58.589844 42.238281 58.675781 42.273438 58.746094 42.34375 C 58.816406 42.414062 58.851562 42.5 58.851562 42.601562 Z M 58.851562 42.601562 " fill-opacity="1" fill-rule="nonzero"/><path fill="#e2be96" d="M 58.128906 40.707031 C 58.128906 40.785156 58.101562 40.851562 58.046875 40.90625 C 57.992188 40.960938 57.925781 40.988281 57.847656 40.988281 C 57.773438 40.988281 57.707031 40.960938 57.652344 40.90625 C 57.597656 40.851562 57.570312 40.785156 57.570312 40.707031 C 57.570312 40.632812 57.597656 40.566406 57.652344 40.511719 C 57.707031 40.457031 57.773438 40.429688 57.847656 40.429688 C 57.925781 40.429688 57.992188 40.457031 58.046875 40.511719 C 58.101562 40.566406 58.128906 40.632812 58.128906 40.707031 Z M 58.128906 40.707031 " fill-opacity="1" fill-rule="nonzero"/><path fill="#e2be96" d="M 56.195312 40.414062 C 56.195312 40.515625 56.160156 40.597656 56.089844 40.671875 C 56.019531 40.742188 55.933594 40.777344 55.835938 40.777344 C 55.734375 40.777344 55.652344 40.742188 55.582031 40.671875 C 55.511719 40.597656 55.476562 40.515625 55.476562 40.414062 C 55.476562 40.316406 55.511719 40.230469 55.582031 40.160156 C 55.652344 40.089844 55.734375 40.054688 55.835938 40.054688 C 55.933594 40.054688 56.019531 40.089844 56.089844 40.160156 C 56.160156 40.230469 56.195312 40.316406 56.195312 40.414062 Z M 56.195312 40.414062 " fill-opacity="1" fill-rule="nonzero"/><path fill="#e2be96" d="M 60.140625 41.019531 C 60.140625 41.09375 60.113281 41.15625 60.0625 41.207031 C 60.011719 41.257812 59.953125 41.28125 59.878906 41.28125 C 59.808594 41.28125 59.746094 41.257812 59.695312 41.207031 C 59.644531 41.15625 59.621094 41.09375 59.621094 41.019531 C 59.621094 40.949219 59.644531 40.886719 59.695312 40.835938 C 59.746094 40.785156 59.808594 40.761719 59.878906 40.761719 C 59.953125 40.761719 60.011719 40.785156 60.0625 40.835938 C 60.113281 40.886719 60.140625 40.949219 60.140625 41.019531 Z M 60.140625 41.019531 " fill-opacity="1" fill-rule="nonzero"/><path fill="#e2be96" d="M 60.09375 41.484375 C 60.09375 41.585938 60.058594 41.671875 59.988281 41.742188 C 59.917969 41.8125 59.832031 41.847656 59.734375 41.847656 C 59.632812 41.847656 59.550781 41.8125 59.480469 41.742188 C 59.410156 41.671875 59.375 41.585938 59.375 41.484375 C 59.375 41.386719 59.410156 41.300781 59.480469 41.230469 C 59.550781 41.160156 59.632812 41.125 59.734375 41.125 C 59.832031 41.125 59.917969 41.160156 59.988281 41.230469 C 60.058594 41.300781 60.09375 41.386719 60.09375 41.484375 Z M 60.09375 41.484375 " fill-opacity="1" fill-rule="nonzero"/><path fill="#e2be96" d="M 60.828125 41.566406 C 60.828125 41.640625 60.804688 41.699219 60.753906 41.75 C 60.703125 41.800781 60.640625 41.828125 60.570312 41.828125 C 60.5 41.828125 60.4375 41.800781 60.386719 41.75 C 60.335938 41.699219 60.3125 41.640625 60.3125 41.566406 C 60.3125 41.496094 60.335938 41.433594 60.386719 41.382812 C 60.4375 41.332031 60.5 41.308594 60.570312 41.308594 C 60.640625 41.308594 60.703125 41.332031 60.753906 41.382812 C 60.804688 41.433594 60.828125 41.496094 60.828125 41.566406 Z M 60.828125 41.566406 " fill-opacity="1" fill-rule="nonzero"/><path fill="#e2be96" d="M 61.582031 40.988281 C 61.582031 41.089844 61.53125 41.140625 61.433594 41.140625 C 61.332031 41.140625 61.28125 41.089844 61.28125 40.988281 C 61.28125 40.886719 61.332031 40.835938 61.433594 40.835938 C 61.53125 40.835938 61.582031 40.886719 61.582031 40.988281 Z M 61.582031 40.988281 " fill-opacity="1" fill-rule="nonzero"/><path fill="#e2be96" d="M 60.453125 41.484375 C 60.453125 41.585938 60.417969 41.671875 60.347656 41.742188 C 60.277344 41.8125 60.191406 41.847656 60.089844 41.847656 C 59.992188 41.847656 59.90625 41.8125 59.835938 41.742188 C 59.765625 41.671875 59.730469 41.585938 59.730469 41.484375 C 59.730469 41.386719 59.765625 41.300781 59.835938 41.230469 C 59.90625 41.160156 59.992188 41.125 60.089844 41.125 C 60.191406 41.125 60.277344 41.160156 60.347656 41.230469 C 60.417969 41.300781 60.453125 41.386719 60.453125 41.484375 Z M 60.453125 41.484375 " fill-opacity="1" fill-rule="nonzero"/><path fill="#e2be96" d="M 61.4375 39.507812 C 61.4375 39.578125 61.414062 39.640625 61.363281 39.691406 C 61.3125 39.742188 61.25 39.769531 61.179688 39.769531 C 61.109375 39.769531 61.046875 39.742188 60.996094 39.691406 C 60.945312 39.640625 60.917969 39.578125 60.917969 39.507812 C 60.917969 39.4375 60.945312 39.375 60.996094 39.324219 C 61.046875 39.273438 61.109375 39.246094 61.179688 39.246094 C 61.25 39.246094 61.3125 39.273438 61.363281 39.324219 C 61.414062 39.375 61.4375 39.4375 61.4375 39.507812 Z M 61.4375 39.507812 " fill-opacity="1" fill-rule="nonzero"/><path fill="#e2be96" d="M 62.1875 38.929688 C 62.1875 39.03125 62.140625 39.078125 62.039062 39.078125 C 61.9375 39.078125 61.886719 39.03125 61.886719 38.929688 C 61.886719 38.828125 61.9375 38.777344 62.039062 38.777344 C 62.140625 38.777344 62.1875 38.828125 62.1875 38.929688 Z M 62.1875 38.929688 " fill-opacity="1" fill-rule="nonzero"/><path fill="#e2be96" d="M 61.058594 39.425781 C 61.058594 39.527344 61.023438 39.609375 60.953125 39.679688 C 60.882812 39.75 60.800781 39.789062 60.699219 39.789062 C 60.601562 39.789062 60.515625 39.75 60.445312 39.679688 C 60.375 39.609375 60.339844 39.527344 60.339844 39.425781 C 60.339844 39.328125 60.375 39.242188 60.445312 39.171875 C 60.515625 39.101562 60.601562 39.066406 60.699219 39.066406 C 60.800781 39.066406 60.882812 39.101562 60.953125 39.171875 C 61.023438 39.242188 61.058594 39.328125 61.058594 39.425781 Z M 61.058594 39.425781 " fill-opacity="1" fill-rule="nonzero"/><path fill="#e2be96" d="M 59.246094 39.226562 C 59.246094 39.328125 59.195312 39.378906 59.097656 39.378906 C 58.996094 39.378906 58.945312 39.328125 58.945312 39.226562 C 58.945312 39.125 58.996094 39.074219 59.097656 39.074219 C 59.195312 39.074219 59.246094 39.125 59.246094 39.226562 Z M 59.246094 39.226562 " fill-opacity="1" fill-rule="nonzero"/><path fill="#e2be96" d="M 63.585938 41.15625 C 63.585938 41.257812 63.535156 41.308594 63.4375 41.308594 C 63.335938 41.308594 63.285156 41.257812 63.285156 41.15625 C 63.285156 41.058594 63.335938 41.007812 63.4375 41.007812 C 63.535156 41.007812 63.585938 41.058594 63.585938 41.15625 Z M 63.585938 41.15625 " fill-opacity="1" fill-rule="nonzero"/><path fill="#e2be96" d="M 63.191406 38.90625 C 63.191406 39.007812 63.144531 39.058594 63.042969 39.058594 C 62.941406 39.058594 62.890625 39.007812 62.890625 38.90625 C 62.890625 38.804688 62.941406 38.753906 63.042969 38.753906 C 63.144531 38.753906 63.191406 38.804688 63.191406 38.90625 Z M 63.191406 38.90625 " fill-opacity="1" fill-rule="nonzero"/><path fill="#e2be96" d="M 66.195312 43.058594 C 66.195312 43.160156 66.144531 43.210938 66.046875 43.210938 C 65.945312 43.210938 65.894531 43.160156 65.894531 43.058594 C 65.894531 42.957031 65.945312 42.910156 66.046875 42.910156 C 66.144531 42.910156 66.195312 42.957031 66.195312 43.058594 Z M 66.195312 43.058594 " fill-opacity="1" fill-rule="nonzero"/><path fill="#e2be96" d="M 62.449219 49.703125 C 62.449219 49.804688 62.402344 49.855469 62.300781 49.855469 C 62.199219 49.855469 62.148438 49.804688 62.148438 49.703125 C 62.148438 49.601562 62.199219 49.550781 62.300781 49.550781 C 62.402344 49.550781 62.449219 49.601562 62.449219 49.703125 Z M 62.449219 49.703125 " fill-opacity="1" fill-rule="nonzero"/><path fill="#e2be96" d="M 70.117188 47.867188 C 70.117188 47.96875 70.066406 48.019531 69.964844 48.019531 C 69.863281 48.019531 69.816406 47.96875 69.816406 47.867188 C 69.816406 47.769531 69.863281 47.71875 69.964844 47.71875 C 70.066406 47.71875 70.117188 47.769531 70.117188 47.867188 Z M 70.117188 47.867188 " fill-opacity="1" fill-rule="nonzero"/><path fill="#e2be96" d="M 58.011719 41.355469 C 58.011719 41.457031 57.960938 41.507812 57.863281 41.507812 C 57.761719 41.507812 57.710938 41.457031 57.710938 41.355469 C 57.710938 41.257812 57.761719 41.207031 57.863281 41.207031 C 57.960938 41.207031 58.011719 41.257812 58.011719 41.355469 Z M 58.011719 41.355469 " fill-opacity="1" fill-rule="nonzero"/><path fill="#e2be96" d="M 58.925781 40.917969 C 58.925781 41.015625 58.875 41.066406 58.777344 41.066406 C 58.675781 41.066406 58.625 41.015625 58.625 40.917969 C 58.625 40.816406 58.675781 40.765625 58.777344 40.765625 C 58.875 40.765625 58.925781 40.816406 58.925781 40.917969 Z M 58.925781 40.917969 " fill-opacity="1" fill-rule="nonzero"/><path fill="#a0543a" d="M 44.96875 85.640625 C 44.96875 85.640625 44.972656 85.660156 44.972656 85.699219 C 44.96875 85.734375 44.960938 85.796875 44.925781 85.859375 C 44.855469 85.988281 44.703125 86.152344 44.484375 86.269531 C 44.429688 86.300781 44.367188 86.324219 44.308594 86.355469 C 44.277344 86.371094 44.25 86.386719 44.21875 86.398438 C 44.1875 86.414062 44.152344 86.421875 44.117188 86.433594 C 44.050781 86.460938 43.984375 86.484375 43.914062 86.507812 C 43.84375 86.53125 43.769531 86.546875 43.695312 86.566406 C 43.621094 86.585938 43.546875 86.605469 43.46875 86.621094 C 43.390625 86.632812 43.3125 86.648438 43.234375 86.660156 C 43.074219 86.6875 42.914062 86.707031 42.753906 86.71875 C 42.671875 86.726562 42.59375 86.734375 42.511719 86.742188 C 42.429688 86.746094 42.347656 86.746094 42.269531 86.753906 C 42.109375 86.757812 41.953125 86.761719 41.804688 86.761719 C 41.5 86.757812 41.21875 86.738281 40.980469 86.722656 C 40.738281 86.703125 40.539062 86.671875 40.398438 86.65625 C 40.261719 86.632812 40.179688 86.621094 40.179688 86.621094 C 40.179688 86.621094 40.261719 86.613281 40.402344 86.597656 C 40.542969 86.589844 40.742188 86.566406 40.980469 86.558594 C 41.222656 86.546875 41.5 86.515625 41.796875 86.507812 C 41.945312 86.496094 42.097656 86.484375 42.253906 86.476562 C 42.332031 86.46875 42.410156 86.464844 42.488281 86.457031 C 42.566406 86.449219 42.644531 86.441406 42.726562 86.433594 C 42.882812 86.421875 43.042969 86.40625 43.195312 86.382812 C 43.273438 86.371094 43.347656 86.363281 43.421875 86.351562 C 43.496094 86.34375 43.570312 86.328125 43.640625 86.316406 C 43.714844 86.304688 43.785156 86.289062 43.855469 86.277344 C 43.925781 86.261719 43.992188 86.246094 44.054688 86.230469 C 44.089844 86.222656 44.121094 86.21875 44.152344 86.207031 C 44.183594 86.199219 44.210938 86.191406 44.242188 86.179688 C 44.300781 86.15625 44.359375 86.140625 44.414062 86.121094 C 44.628906 86.035156 44.792969 85.933594 44.878906 85.828125 C 44.925781 85.777344 44.945312 85.726562 44.957031 85.691406 C 44.96875 85.660156 44.96875 85.640625 44.96875 85.640625 Z M 44.96875 85.640625 " fill-opacity="0.5" fill-rule="nonzero"/><path fill="#a0543a" d="M 37.105469 84.851562 C 37.105469 84.851562 37.0625 84.863281 36.992188 84.886719 C 36.921875 84.90625 36.820312 84.941406 36.699219 84.96875 C 36.574219 84.992188 36.433594 85.035156 36.285156 85.070312 C 36.132812 85.105469 35.972656 85.136719 35.816406 85.179688 C 35.65625 85.214844 35.5 85.253906 35.363281 85.300781 C 35.222656 85.351562 35.09375 85.394531 35.007812 85.464844 C 34.921875 85.527344 34.871094 85.605469 34.867188 85.675781 C 34.859375 85.710938 34.863281 85.742188 34.863281 85.761719 C 34.863281 85.78125 34.863281 85.792969 34.863281 85.792969 C 34.863281 85.792969 34.859375 85.785156 34.847656 85.765625 C 34.835938 85.746094 34.820312 85.722656 34.808594 85.679688 C 34.804688 85.664062 34.800781 85.640625 34.800781 85.613281 C 34.800781 85.601562 34.796875 85.585938 34.796875 85.574219 C 34.796875 85.558594 34.800781 85.546875 34.804688 85.53125 C 34.8125 85.472656 34.84375 85.410156 34.890625 85.351562 C 34.980469 85.242188 35.113281 85.140625 35.261719 85.070312 C 35.414062 84.992188 35.582031 84.941406 35.746094 84.898438 C 35.914062 84.859375 36.082031 84.832031 36.246094 84.820312 C 36.402344 84.800781 36.554688 84.808594 36.679688 84.808594 C 36.808594 84.808594 36.914062 84.828125 36.992188 84.832031 C 37.0625 84.847656 37.105469 84.851562 37.105469 84.851562 Z M 37.105469 84.851562 " fill-opacity="0.5" fill-rule="nonzero"/><path fill="#443d36" d="M 39.011719 49.886719 C 39.011719 49.886719 40.101562 50.058594 40.757812 46.5625 C 41.410156 43.066406 38.1875 43.066406 38.1875 43.066406 L 38.011719 47.132812 Z M 39.011719 49.886719 " fill-opacity="1" fill-rule="nonzero"/><path fill="#db8e63" d="M 40.199219 41.636719 C 40.199219 41.636719 47.601562 42.445312 50.445312 42.546875 C 53.289062 42.644531 51.914062 42.730469 51.914062 42.730469 L 52.90625 45.398438 C 52.90625 45.398438 45.199219 47.265625 43.335938 47.277344 C 40.648438 47.292969 38.328125 46.488281 38.328125 46.488281 L 39.113281 43.265625 Z M 40.199219 41.636719 " fill-opacity="1" fill-rule="nonzero"/><path fill="#e3bd55" d="M 32.933594 36.675781 C 32.933594 36.675781 39.402344 41.363281 40.871094 41.691406 C 40.871094 41.691406 38.425781 43.65625 39.011719 49.890625 C 39.011719 49.890625 32.3125 47.695312 30.714844 46.085938 C 29.113281 44.480469 29.144531 39.988281 29.503906 38.449219 C 29.863281 36.90625 32.933594 36.675781 32.933594 36.675781 Z M 32.933594 36.675781 " fill-opacity="1" fill-rule="nonzero"/><path fill="#443d36" d="M 38.113281 49.257812 C 38.09375 49.257812 38.078125 49.242188 38.078125 49.226562 C 37.167969 44.574219 39.59375 41.554688 39.621094 41.523438 C 39.632812 41.507812 39.65625 41.507812 39.671875 41.519531 C 39.6875 41.535156 39.691406 41.558594 39.675781 41.574219 C 39.652344 41.601562 37.25 44.597656 38.148438 49.214844 C 38.152344 49.234375 38.140625 49.253906 38.121094 49.257812 C 38.117188 49.257812 38.113281 49.257812 38.113281 49.257812 Z M 38.113281 49.257812 " fill-opacity="1" fill-rule="nonzero"/><path fill="#443d36" d="M 39.011719 49.925781 C 39.007812 49.925781 39.003906 49.925781 39 49.921875 C 38.984375 49.917969 37.304688 49.367188 35.449219 48.625 C 32.957031 47.628906 31.355469 46.78125 30.6875 46.113281 C 30.675781 46.097656 30.675781 46.074219 30.6875 46.058594 C 30.703125 46.042969 30.726562 46.042969 30.742188 46.058594 C 32.320312 47.640625 38.957031 49.832031 39.023438 49.851562 C 39.042969 49.859375 39.054688 49.878906 39.046875 49.898438 C 39.042969 49.914062 39.027344 49.925781 39.011719 49.925781 Z M 39.011719 49.925781 " fill-opacity="1" fill-rule="nonzero"/><path fill="#443d36" d="M 40.875 41.730469 C 40.871094 41.730469 40.867188 41.730469 40.867188 41.730469 C 39.40625 41.40625 36.164062 39.375 36.128906 39.355469 C 36.113281 39.34375 36.105469 39.320312 36.117188 39.304688 C 36.128906 39.289062 36.148438 39.28125 36.167969 39.292969 C 36.199219 39.3125 39.433594 41.335938 40.882812 41.65625 C 40.902344 41.660156 40.914062 41.679688 40.910156 41.703125 C 40.90625 41.71875 40.890625 41.730469 40.875 41.730469 Z M 40.875 41.730469 " fill-opacity="1" fill-rule="nonzero"/><path fill="#db8e63" d="M 51.203125 43.335938 C 51.203125 43.335938 51.507812 43.109375 52.058594 42.574219 C 52.613281 42.039062 53.695312 41.433594 53.949219 40.933594 C 54.203125 40.4375 54.363281 40.1875 54.363281 40.1875 C 54.363281 40.1875 55.074219 40.683594 54.292969 41.460938 C 54.292969 41.460938 55.085938 41.289062 55.664062 41.238281 C 56.246094 41.191406 57.390625 41.539062 57.453125 41.796875 C 57.519531 42.054688 57.296875 42.199219 57.296875 42.199219 C 57.296875 42.199219 58.382812 42.488281 57.769531 43.050781 C 57.769531 43.050781 58.039062 43.457031 57.738281 43.640625 C 57.433594 43.824219 57.167969 43.808594 57.167969 43.808594 C 57.167969 43.808594 57.410156 44.289062 56.761719 44.460938 C 56.117188 44.632812 54.703125 44.742188 54.136719 44.996094 C 53.570312 45.25 52.695312 45.546875 51.859375 45.554688 Z M 51.203125 43.335938 " fill-opacity="1" fill-rule="nonzero"/><path fill="#443d36" d="M 54.714844 44.136719 L 54.699219 44.078125 C 55.632812 43.804688 57.152344 43.773438 57.167969 43.773438 L 57.167969 43.835938 C 57.15625 43.835938 55.644531 43.867188 54.714844 44.136719 Z M 54.714844 44.136719 " fill-opacity="1" fill-rule="nonzero"/><path fill="#443d36" d="M 54.601562 43.222656 L 54.589844 43.164062 C 55.851562 42.886719 57.753906 43.019531 57.773438 43.019531 L 57.769531 43.082031 C 57.746094 43.078125 55.855469 42.949219 54.601562 43.222656 Z M 54.601562 43.222656 " fill-opacity="1" fill-rule="nonzero"/><path fill="#443d36" d="M 54.347656 42.382812 L 54.324219 42.324219 C 55.5625 41.882812 57.28125 42.167969 57.300781 42.171875 L 57.289062 42.230469 C 57.273438 42.226562 55.566406 41.945312 54.347656 42.382812 Z M 54.347656 42.382812 " fill-opacity="1" fill-rule="nonzero"/><path fill="#443d36" d="M 53.511719 41.804688 L 53.480469 41.753906 C 53.746094 41.59375 54.261719 41.4375 54.28125 41.429688 L 54.296875 41.488281 C 54.292969 41.492188 53.769531 41.648438 53.511719 41.804688 Z M 53.511719 41.804688 " fill-opacity="1" fill-rule="nonzero"/></svg>