<svg xmlns="http://www.w3.org/2000/svg" xmlns:xlink="http://www.w3.org/1999/xlink" width="150" zoomAndPan="magnify" viewBox="0 0 112.5 112.499997" height="150" preserveAspectRatio="xMidYMid meet" version="1.0"><defs><clipPath id="ecaba69ee3"><path d="M 46.394531 32.527344 L 95.460938 32.527344 L 95.460938 100.984375 L 46.394531 100.984375 Z M 46.394531 32.527344 " clip-rule="nonzero"/></clipPath><clipPath id="cd6ee1d7b9"><path d="M 36.789062 32.527344 L 94.417969 32.527344 L 94.417969 100.984375 L 36.789062 100.984375 Z M 36.789062 32.527344 " clip-rule="nonzero"/></clipPath><clipPath id="ff28111359"><path d="M 38 21.835938 L 40 21.835938 L 40 25 L 38 25 Z M 38 21.835938 " clip-rule="nonzero"/></clipPath><clipPath id="9f65abae24"><path d="M 37 21.835938 L 40 21.835938 L 40 25 L 37 25 Z M 37 21.835938 " clip-rule="nonzero"/></clipPath><clipPath id="2d3b826ebd"><path d="M 11.199219 52 L 51 52 L 51 82 L 11.199219 82 Z M 11.199219 52 " clip-rule="nonzero"/></clipPath></defs><g clip-path="url(#ecaba69ee3)"><path fill="#383535" d="M 48.644531 100.984375 L 49.847656 99.753906 C 49.847656 99.753906 52.109375 61.375 63.601562 48.234375 C 72.398438 38.175781 85.132812 39.929688 90.621094 41.308594 C 91.402344 41.503906 91.722656 41.96875 92.179688 42.113281 L 93.300781 42.113281 L 95.460938 34.347656 C 95.460938 34.347656 63.1875 24.15625 51.179688 52.9375 C 42.460938 73.835938 48.644531 100.984375 48.644531 100.984375 " fill-opacity="1" fill-rule="nonzero"/></g><path fill="#383535" d="M 35.019531 95.910156 L 34.125 96.875 C 34.125 96.875 34.414062 61.136719 41.394531 46.558594 C 47.269531 34.289062 39.347656 26.621094 39.347656 26.621094 L 44.617188 27.792969 C 44.617188 27.792969 55.019531 35.503906 49.800781 47.875 C 39.835938 71.492188 35.019531 95.910156 35.019531 95.910156 " fill-opacity="1" fill-rule="nonzero"/><g clip-path="url(#cd6ee1d7b9)"><path fill="#4e4d4b" d="M 36.8125 97.832031 C 40.28125 100.089844 48.644531 100.984375 48.644531 100.984375 C 48.644531 100.984375 50.988281 61.375 62.480469 48.234375 C 73.972656 35.09375 92.179688 42.113281 92.179688 42.113281 L 94.34375 34.347656 C 94.34375 34.347656 62.066406 24.15625 50.058594 52.9375 C 41.339844 73.835938 36.8125 97.832031 36.8125 97.832031 " fill-opacity="1" fill-rule="nonzero"/></g><path fill="#4e4d4b" d="M 34.125 96.875 C 30.894531 97.054688 25.726562 92.175781 25.726562 92.175781 C 25.726562 92.175781 33.296875 61.136719 40.277344 46.558594 C 46.152344 34.289062 34.21875 30.011719 34.21875 30.011719 L 36.511719 23 C 36.511719 23 56.511719 29.757812 48.679688 47.875 C 38.511719 71.402344 34.125 96.875 34.125 96.875 " fill-opacity="1" fill-rule="nonzero"/><path fill="#ce9219" d="M 38.753906 95.816406 L 35.09375 94.417969 C 34.59375 94.226562 33.625 94.535156 33.585938 95.105469 L 34.039062 96.105469 C 34 96.675781 34.371094 97.292969 34.871094 97.484375 L 38.183594 99.125 C 38.683594 99.316406 39.472656 98.761719 39.511719 98.195312 L 39.585938 97.195312 C 39.625 96.625 39.253906 96.007812 38.753906 95.816406 " fill-opacity="1" fill-rule="nonzero"/><path fill="#fbc807" d="M 38.195312 96.011719 L 34.53125 94.613281 C 34.03125 94.425781 33.59375 94.730469 33.550781 95.300781 L 33.480469 96.300781 C 33.4375 96.871094 33.8125 97.488281 34.3125 97.679688 L 37.972656 99.078125 C 38.472656 99.265625 38.910156 98.960938 38.953125 98.390625 L 39.027344 97.390625 C 39.066406 96.820312 38.695312 96.203125 38.195312 96.011719 " fill-opacity="1" fill-rule="nonzero"/><path fill="#ce9219" d="M 37.476562 92.222656 L 33.953125 90.851562 C 33.507812 90.667969 32.65625 90.976562 32.613281 91.546875 L 32.984375 92.542969 C 32.921875 93.113281 33.226562 93.722656 33.675781 93.910156 L 36.902344 95.53125 C 37.402344 95.722656 38.195312 95.171875 38.234375 94.601562 L 38.308594 93.601562 C 38.347656 93.03125 37.976562 92.414062 37.476562 92.222656 " fill-opacity="1" fill-rule="nonzero"/><path fill="#fbc807" d="M 36.914062 92.417969 L 33.457031 91.054688 C 33.011719 90.867188 32.625 91.175781 32.582031 91.746094 L 32.476562 92.742188 C 32.40625 93.308594 32.703125 93.921875 33.152344 94.105469 L 36.695312 95.484375 C 37.195312 95.671875 37.632812 95.367188 37.675781 94.796875 L 37.746094 93.796875 C 37.789062 93.226562 37.417969 92.609375 36.914062 92.417969 " fill-opacity="1" fill-rule="nonzero"/><path fill="#ce9219" d="M 39.621094 89.515625 L 36.101562 88.144531 C 35.652344 87.957031 34.800781 88.269531 34.757812 88.839844 L 35.132812 89.835938 C 35.066406 90.402344 35.371094 91.011719 35.824219 91.199219 L 39.050781 92.824219 C 39.550781 93.015625 40.339844 92.460938 40.382812 91.890625 L 40.453125 90.890625 C 40.496094 90.320312 40.121094 89.703125 39.621094 89.515625 " fill-opacity="1" fill-rule="nonzero"/><path fill="#fbc807" d="M 39.058594 89.710938 L 35.601562 88.34375 C 35.160156 88.15625 34.769531 88.464844 34.726562 89.035156 L 34.625 90.03125 C 34.550781 90.597656 34.847656 91.210938 35.296875 91.398438 L 38.839844 92.773438 C 39.339844 92.964844 39.78125 92.65625 39.820312 92.089844 L 39.894531 91.085938 C 39.933594 90.515625 39.5625 89.902344 39.058594 89.710938 " fill-opacity="1" fill-rule="nonzero"/><path fill="#ce9219" d="M 38.898438 85.914062 L 35.378906 84.546875 C 34.929688 84.359375 34.078125 84.671875 34.039062 85.242188 L 34.410156 86.234375 C 34.347656 86.804688 34.648438 87.414062 35.101562 87.601562 L 38.328125 89.222656 C 38.828125 89.414062 39.617188 88.863281 39.660156 88.292969 L 39.730469 87.292969 C 39.773438 86.722656 39.398438 86.105469 38.898438 85.914062 " fill-opacity="1" fill-rule="nonzero"/><path fill="#fbc807" d="M 38.339844 86.109375 L 34.878906 84.746094 C 34.4375 84.558594 34.050781 84.867188 34.003906 85.4375 L 33.902344 86.433594 C 33.832031 87 34.128906 87.613281 34.574219 87.800781 L 38.117188 89.175781 C 38.621094 89.363281 39.058594 89.058594 39.097656 88.488281 L 39.171875 87.488281 C 39.214844 86.917969 38.839844 86.300781 38.339844 86.109375 " fill-opacity="1" fill-rule="nonzero"/><path fill="#ce9219" d="M 41.117188 83.558594 L 37.59375 82.191406 C 37.148438 82.003906 36.292969 82.316406 36.253906 82.886719 L 36.625 83.878906 C 36.5625 84.449219 36.867188 85.058594 37.316406 85.246094 L 40.542969 86.871094 C 41.042969 87.0625 41.835938 86.507812 41.875 85.9375 L 41.945312 84.9375 C 41.988281 84.367188 41.617188 83.75 41.117188 83.558594 " fill-opacity="1" fill-rule="nonzero"/><path fill="#fbc807" d="M 40.554688 83.757812 L 37.09375 82.390625 C 36.652344 82.203125 36.265625 82.511719 36.21875 83.082031 L 36.117188 84.078125 C 36.046875 84.644531 36.34375 85.257812 36.792969 85.445312 L 40.335938 86.820312 C 40.835938 87.011719 41.273438 86.703125 41.316406 86.132812 L 41.386719 85.132812 C 41.429688 84.5625 41.054688 83.945312 40.554688 83.757812 " fill-opacity="1" fill-rule="nonzero"/><path fill="#ce9219" d="M 40.453125 79.867188 L 36.933594 78.496094 C 36.484375 78.308594 35.632812 78.621094 35.589844 79.191406 L 35.964844 80.1875 C 35.898438 80.753906 36.203125 81.367188 36.652344 81.550781 L 39.878906 83.175781 C 40.382812 83.367188 41.171875 82.8125 41.210938 82.246094 L 41.285156 81.242188 C 41.324219 80.671875 40.953125 80.054688 40.453125 79.867188 " fill-opacity="1" fill-rule="nonzero"/><path fill="#fbc807" d="M 39.890625 80.0625 L 36.433594 78.695312 C 35.992188 78.507812 35.601562 78.820312 35.558594 79.386719 L 35.453125 80.382812 C 35.382812 80.953125 35.679688 81.5625 36.128906 81.75 L 39.671875 83.125 C 40.171875 83.316406 40.613281 83.007812 40.652344 82.441406 L 40.722656 81.4375 C 40.765625 80.871094 40.394531 80.253906 39.890625 80.0625 " fill-opacity="1" fill-rule="nonzero"/><path fill="#ce9219" d="M 42.6875 77.738281 L 39.167969 76.367188 C 38.71875 76.179688 37.867188 76.492188 37.828125 77.0625 L 38.199219 78.058594 C 38.136719 78.625 38.441406 79.234375 38.890625 79.421875 L 42.117188 81.046875 C 42.617188 81.238281 43.40625 80.683594 43.449219 80.113281 L 43.519531 79.113281 C 43.5625 78.542969 43.1875 77.925781 42.6875 77.738281 " fill-opacity="1" fill-rule="nonzero"/><path fill="#fbc807" d="M 42.128906 77.933594 L 38.667969 76.566406 C 38.226562 76.378906 37.839844 76.6875 37.792969 77.257812 L 37.691406 78.253906 C 37.621094 78.824219 37.917969 79.433594 38.363281 79.621094 L 41.90625 80.996094 C 42.410156 81.1875 42.847656 80.878906 42.890625 80.308594 L 42.960938 79.308594 C 43.003906 78.738281 42.628906 78.125 42.128906 77.933594 " fill-opacity="1" fill-rule="nonzero"/><path fill="#ce9219" d="M 41.96875 74.210938 L 38.449219 72.84375 C 38 72.65625 37.148438 72.96875 37.105469 73.535156 L 37.480469 74.53125 C 37.414062 75.097656 37.71875 75.710938 38.171875 75.898438 L 41.398438 77.519531 C 41.898438 77.710938 42.6875 77.160156 42.726562 76.589844 L 42.800781 75.589844 C 42.839844 75.019531 42.46875 74.402344 41.96875 74.210938 " fill-opacity="1" fill-rule="nonzero"/><path fill="#fbc807" d="M 41.410156 74.40625 L 37.949219 73.042969 C 37.507812 72.855469 37.117188 73.164062 37.074219 73.730469 L 36.96875 74.730469 C 36.898438 75.296875 37.199219 75.90625 37.644531 76.09375 L 41.1875 77.472656 C 41.6875 77.664062 42.128906 77.355469 42.167969 76.785156 L 42.242188 75.785156 C 42.28125 75.214844 41.910156 74.597656 41.410156 74.40625 " fill-opacity="1" fill-rule="nonzero"/><path fill="#ce9219" d="M 44.78125 71.855469 L 41.261719 70.488281 C 40.8125 70.300781 39.960938 70.613281 39.917969 71.183594 L 40.292969 72.175781 C 40.226562 72.746094 40.53125 73.355469 40.984375 73.542969 L 44.210938 75.164062 C 44.710938 75.355469 45.5 74.804688 45.542969 74.234375 L 45.613281 73.234375 C 45.65625 72.664062 45.28125 72.046875 44.78125 71.855469 " fill-opacity="1" fill-rule="nonzero"/><path fill="#fbc807" d="M 44.21875 72.050781 L 40.761719 70.6875 C 40.320312 70.5 39.929688 70.808594 39.886719 71.378906 L 39.785156 72.375 C 39.714844 72.941406 40.007812 73.554688 40.457031 73.742188 L 44 75.117188 C 44.5 75.308594 44.941406 75 44.980469 74.429688 L 45.054688 73.429688 C 45.09375 72.859375 44.722656 72.242188 44.21875 72.050781 " fill-opacity="1" fill-rule="nonzero"/><path fill="#ce9219" d="M 43.847656 67.964844 L 40.324219 66.59375 C 39.878906 66.410156 39.027344 66.722656 38.984375 67.289062 L 39.355469 68.285156 C 39.292969 68.851562 39.597656 69.464844 40.046875 69.652344 L 43.273438 71.273438 C 43.773438 71.464844 44.566406 70.914062 44.605469 70.34375 L 44.679688 69.34375 C 44.71875 68.773438 44.347656 68.15625 43.847656 67.964844 " fill-opacity="1" fill-rule="nonzero"/><path fill="#fbc807" d="M 43.285156 68.160156 L 39.828125 66.796875 C 39.382812 66.609375 38.996094 66.917969 38.953125 67.488281 L 38.847656 68.484375 C 38.777344 69.050781 39.074219 69.660156 39.523438 69.847656 L 43.066406 71.226562 C 43.566406 71.417969 44.003906 71.109375 44.046875 70.539062 L 44.117188 69.539062 C 44.160156 68.96875 43.789062 68.351562 43.285156 68.160156 " fill-opacity="1" fill-rule="nonzero"/><path fill="#ce9219" d="M 46.546875 65.578125 L 43.023438 64.210938 C 42.578125 64.023438 41.722656 64.335938 41.683594 64.90625 L 42.054688 65.898438 C 41.992188 66.46875 42.296875 67.078125 42.746094 67.265625 L 45.972656 68.890625 C 46.472656 69.078125 47.265625 68.527344 47.304688 67.957031 L 47.378906 66.957031 C 47.417969 66.386719 47.046875 65.769531 46.546875 65.578125 " fill-opacity="1" fill-rule="nonzero"/><path fill="#fbc807" d="M 45.984375 65.773438 L 42.527344 64.410156 C 42.082031 64.222656 41.695312 64.53125 41.652344 65.101562 L 41.546875 66.097656 C 41.476562 66.664062 41.773438 67.277344 42.222656 67.464844 L 45.765625 68.839844 C 46.265625 69.03125 46.703125 68.722656 46.746094 68.152344 L 46.816406 67.152344 C 46.859375 66.582031 46.488281 65.964844 45.984375 65.773438 " fill-opacity="1" fill-rule="nonzero"/><path fill="#ce9219" d="M 52.5 54.191406 L 48.914062 53 C 48.449219 52.859375 47.992188 52.074219 48.324219 51.609375 L 49.246094 51.078125 C 49.558594 50.601562 50.183594 50.324219 50.648438 50.46875 L 54.167969 51.273438 C 54.675781 51.449219 54.929688 52.378906 54.601562 52.84375 L 54.019531 53.660156 C 53.6875 54.125 53.007812 54.363281 52.5 54.191406 " fill-opacity="1" fill-rule="nonzero"/><path fill="#fbc807" d="M 52.191406 53.679688 L 48.65625 52.527344 C 48.195312 52.390625 48.09375 51.902344 48.421875 51.4375 L 48.980469 50.601562 C 49.285156 50.121094 49.90625 49.839844 50.367188 49.980469 L 53.976562 51.179688 C 54.484375 51.351562 54.625 51.867188 54.292969 52.335938 L 53.710938 53.152344 C 53.378906 53.617188 52.699219 53.855469 52.191406 53.679688 " fill-opacity="1" fill-rule="nonzero"/><path fill="#ce9219" d="M 49.785156 49.886719 L 46.199219 48.695312 C 45.738281 48.554688 45.277344 47.769531 45.609375 47.304688 L 46.53125 46.777344 C 46.84375 46.296875 47.46875 46.023438 47.933594 46.164062 L 51.453125 46.972656 C 51.960938 47.144531 52.21875 48.074219 51.886719 48.539062 L 51.304688 49.355469 C 50.972656 49.820312 50.292969 50.058594 49.785156 49.886719 " fill-opacity="1" fill-rule="nonzero"/><path fill="#fbc807" d="M 49.476562 49.378906 L 45.941406 48.222656 C 45.484375 48.085938 45.382812 47.601562 45.710938 47.132812 L 46.265625 46.300781 C 46.574219 45.816406 47.191406 45.535156 47.65625 45.675781 L 51.261719 46.878906 C 51.769531 47.050781 51.910156 47.566406 51.578125 48.03125 L 50.996094 48.847656 C 50.667969 49.3125 49.988281 49.550781 49.476562 49.378906 " fill-opacity="1" fill-rule="nonzero"/><g clip-path="url(#ff28111359)"><path fill="#ce9219" d="M 39.742188 23.207031 L 39.230469 24.804688 C 39.167969 25.011719 38.824219 24.863281 38.617188 24.71875 L 38.378906 24.15625 C 38.164062 24.019531 38.039062 24.253906 38.101562 24.046875 L 38.441406 22.0625 C 38.515625 21.839844 39.011719 21.945312 39.21875 22.089844 L 39.582031 22.34375 C 39.789062 22.488281 39.816406 22.980469 39.742188 23.207031 " fill-opacity="1" fill-rule="nonzero"/></g><path fill="#ce9219" d="M 43.070312 24.457031 L 42.003906 26.113281 C 41.871094 26.332031 41.414062 26.324219 41.222656 26.09375 L 41.074219 25.699219 C 40.875 25.476562 40.816406 25.125 40.949219 24.910156 L 41.738281 23.179688 C 41.890625 22.945312 42.46875 22.988281 42.660156 23.21875 L 43 23.617188 C 43.191406 23.847656 43.222656 24.222656 43.070312 24.457031 " fill-opacity="1" fill-rule="nonzero"/><path fill="#ce9219" d="M 46.414062 27.285156 L 44.699219 28.84375 C 44.480469 29.050781 44.003906 28.859375 43.855469 28.542969 L 43.769531 28.089844 C 43.609375 27.777344 43.648438 27.359375 43.867188 27.152344 L 45.421875 25.289062 C 45.667969 25.070312 46.179688 25.4375 46.328125 25.753906 L 46.589844 26.3125 C 46.738281 26.628906 46.660156 27.066406 46.414062 27.285156 " fill-opacity="1" fill-rule="nonzero"/><path fill="#ce9219" d="M 49.414062 31.308594 L 46.984375 32.558594 C 46.679688 32.726562 46.128906 32.476562 46.058594 32.070312 L 46.164062 31.414062 C 46.074219 31.011719 46.246094 30.550781 46.558594 30.382812 L 48.753906 28.792969 C 49.097656 28.617188 49.707031 29.136719 49.78125 29.542969 L 49.90625 30.253906 C 49.980469 30.664062 49.757812 31.132812 49.414062 31.308594 " fill-opacity="1" fill-rule="nonzero"/><path fill="#ce9219" d="M 51.59375 36.792969 L 48.457031 37.472656 C 48.058594 37.570312 47.382812 37.195312 47.421875 36.710938 L 47.871094 35.925781 C 47.890625 35.441406 48.226562 34.96875 48.632812 34.871094 L 51.554688 33.9375 C 52.003906 33.847656 52.589844 34.414062 52.550781 34.898438 L 52.476562 35.746094 C 52.4375 36.230469 52.039062 36.699219 51.59375 36.792969 " fill-opacity="1" fill-rule="nonzero"/><path fill="#ce9219" d="M 52.40625 43.691406 L 48.632812 43.507812 C 48.148438 43.496094 47.496094 42.863281 47.691406 42.328125 L 48.433594 41.570312 C 48.609375 41.027344 49.136719 40.589844 49.621094 40.605469 L 53.230469 40.4375 C 53.765625 40.464844 54.261719 41.292969 54.066406 41.828125 L 53.726562 42.773438 C 53.53125 43.308594 52.941406 43.722656 52.40625 43.691406 " fill-opacity="1" fill-rule="nonzero"/><g clip-path="url(#9f65abae24)"><path fill="#fbc807" d="M 39.480469 22.980469 L 38.984375 24.554688 C 38.921875 24.761719 38.707031 24.808594 38.5 24.664062 L 38.128906 24.421875 C 37.914062 24.285156 37.785156 24.015625 37.84375 23.808594 L 38.363281 22.199219 C 38.4375 21.976562 38.664062 21.910156 38.871094 22.054688 L 39.238281 22.308594 C 39.445312 22.453125 39.554688 22.753906 39.480469 22.980469 " fill-opacity="1" fill-rule="nonzero"/></g><path fill="#fbc807" d="M 42.769531 24.40625 L 41.726562 26.046875 C 41.597656 26.261719 41.339844 26.25 41.144531 26.023438 L 40.796875 25.632812 C 40.59375 25.414062 40.53125 25.066406 40.664062 24.847656 L 41.738281 23.179688 C 41.890625 22.945312 42.171875 22.941406 42.363281 23.167969 L 42.699219 23.570312 C 42.890625 23.796875 42.921875 24.171875 42.769531 24.40625 " fill-opacity="1" fill-rule="nonzero"/><path fill="#fbc807" d="M 46.078125 27.03125 L 44.394531 28.574219 C 44.179688 28.78125 43.890625 28.6875 43.742188 28.371094 L 43.460938 27.820312 C 43.296875 27.511719 43.332031 27.097656 43.546875 26.890625 L 45.277344 25.324219 C 45.523438 25.101562 45.84375 25.183594 45.992188 25.5 L 46.253906 26.058594 C 46.402344 26.375 46.324219 26.8125 46.078125 27.03125 " fill-opacity="1" fill-rule="nonzero"/><path fill="#fbc807" d="M 49.035156 31.019531 L 46.652344 32.261719 C 46.347656 32.429688 46.046875 32.238281 45.972656 31.832031 L 45.824219 31.121094 C 45.730469 30.71875 45.898438 30.257812 46.203125 30.089844 L 48.648438 28.835938 C 48.992188 28.660156 49.332031 28.847656 49.402344 29.253906 L 49.53125 29.96875 C 49.605469 30.375 49.382812 30.84375 49.035156 31.019531 " fill-opacity="1" fill-rule="nonzero"/><path fill="#fbc807" d="M 51.183594 36.453125 L 48.097656 37.140625 C 47.703125 37.238281 47.417969 36.925781 47.457031 36.441406 L 47.503906 35.589844 C 47.519531 35.105469 47.851562 34.632812 48.25 34.535156 L 51.410156 33.851562 C 51.855469 33.757812 52.183594 34.074219 52.140625 34.558594 L 52.066406 35.410156 C 52.027344 35.890625 51.632812 36.359375 51.183594 36.453125 " fill-opacity="1" fill-rule="nonzero"/><path fill="#fbc807" d="M 51.972656 43.285156 L 48.257812 43.121094 C 47.777344 43.113281 47.550781 42.671875 47.738281 42.132812 L 48.050781 41.183594 C 48.21875 40.636719 48.738281 40.199219 49.222656 40.210938 L 53.019531 40.394531 C 53.554688 40.425781 53.828125 40.886719 53.636719 41.421875 L 53.292969 42.367188 C 53.101562 42.902344 52.507812 43.316406 51.972656 43.285156 " fill-opacity="1" fill-rule="nonzero"/><path fill="#ce9219" d="M 55.554688 48.59375 L 51.96875 47.402344 C 51.503906 47.261719 51.046875 46.476562 51.378906 46.011719 L 52.300781 45.484375 C 52.613281 45.007812 53.234375 44.730469 53.703125 44.871094 L 57.222656 45.679688 C 57.730469 45.851562 57.984375 46.78125 57.65625 47.246094 L 57.074219 48.0625 C 56.742188 48.53125 56.0625 48.765625 55.554688 48.59375 " fill-opacity="1" fill-rule="nonzero"/><path fill="#fbc807" d="M 55.246094 48.085938 L 51.710938 46.929688 C 51.25 46.792969 51.148438 46.308594 51.476562 45.839844 L 52.035156 45.007812 C 52.339844 44.523438 52.960938 44.242188 53.421875 44.386719 L 57.03125 45.585938 C 57.535156 45.757812 57.679688 46.273438 57.347656 46.738281 L 56.765625 47.554688 C 56.433594 48.023438 55.753906 48.257812 55.246094 48.085938 " fill-opacity="1" fill-rule="nonzero"/><path fill="#ce9219" d="M 59.296875 43.398438 L 55.996094 41.558594 C 55.566406 41.332031 55.261719 40.476562 55.675781 40.082031 L 56.679688 39.734375 C 57.074219 39.324219 57.738281 39.167969 58.171875 39.394531 L 61.480469 40.84375 C 61.945312 41.109375 62.023438 42.070312 61.613281 42.464844 L 60.886719 43.160156 C 60.476562 43.554688 59.761719 43.660156 59.296875 43.398438 " fill-opacity="1" fill-rule="nonzero"/><path fill="#fbc807" d="M 59.089844 42.839844 L 55.832031 41.046875 C 55.40625 40.824219 55.394531 40.328125 55.804688 39.929688 L 56.507812 39.214844 C 56.898438 38.800781 57.558594 38.636719 57.988281 38.863281 L 61.308594 40.714844 C 61.773438 40.980469 61.816406 41.515625 61.40625 41.910156 L 60.679688 42.601562 C 60.269531 43 59.558594 43.105469 59.089844 42.839844 " fill-opacity="1" fill-rule="nonzero"/><path fill="#ce9219" d="M 88.808594 35.101562 L 88.722656 31.324219 C 88.699219 30.839844 89.285156 30.144531 89.832031 30.296875 L 90.640625 30.988281 C 91.195312 31.121094 91.664062 31.617188 91.6875 32.105469 L 92.113281 35.691406 C 92.121094 36.226562 91.332031 36.78125 90.78125 36.625 L 89.820312 36.351562 C 89.269531 36.199219 88.816406 35.636719 88.808594 35.101562 " fill-opacity="1" fill-rule="nonzero"/><path fill="#ce9219" d="M 82.308594 34.523438 L 81.566406 30.816406 C 81.460938 30.34375 81.914062 29.554688 82.484375 29.613281 L 83.398438 30.152344 C 83.96875 30.1875 84.519531 30.59375 84.625 31.070312 L 85.664062 34.53125 C 85.765625 35.054688 85.085938 35.738281 84.519531 35.679688 L 83.519531 35.578125 C 82.953125 35.523438 82.410156 35.046875 82.308594 34.523438 " fill-opacity="1" fill-rule="nonzero"/><path fill="#ce9219" d="M 75.804688 35.078125 L 74.433594 31.558594 C 74.246094 31.109375 74.558594 30.257812 75.128906 30.214844 L 76.121094 30.585938 C 76.6875 30.523438 77.300781 30.828125 77.488281 31.277344 L 79.113281 34.503906 C 79.304688 35.003906 78.753906 35.796875 78.183594 35.835938 L 77.183594 35.910156 C 76.613281 35.953125 75.996094 35.582031 75.804688 35.078125 " fill-opacity="1" fill-rule="nonzero"/><path fill="#ce9219" d="M 69.5 36.757812 L 67.539062 33.53125 C 67.273438 33.121094 67.433594 32.226562 67.988281 32.085938 L 69.03125 32.28125 C 69.578125 32.117188 70.234375 32.3125 70.496094 32.722656 L 72.65625 35.617188 C 72.933594 36.078125 72.527344 36.953125 71.972656 37.089844 L 71 37.339844 C 70.449219 37.476562 69.773438 37.21875 69.5 36.757812 " fill-opacity="1" fill-rule="nonzero"/><path fill="#ce9219" d="M 63.582031 39.507812 L 61.089844 36.667969 C 60.757812 36.3125 60.761719 35.402344 61.28125 35.167969 L 62.34375 35.179688 C 62.855469 34.925781 63.53125 35 63.863281 35.359375 L 66.492188 37.835938 C 66.84375 38.242188 66.59375 39.171875 66.074219 39.40625 L 65.160156 39.816406 C 64.640625 40.050781 63.933594 39.914062 63.582031 39.507812 " fill-opacity="1" fill-rule="nonzero"/><path fill="#fbc807" d="M 88.8125 34.511719 L 88.710938 30.792969 C 88.683594 30.3125 89.109375 30.054688 89.65625 30.203125 L 90.628906 30.449219 C 91.1875 30.574219 91.660156 31.0625 91.683594 31.546875 L 91.765625 35.347656 C 91.777344 35.886719 91.335938 36.195312 90.789062 36.039062 L 89.824219 35.765625 C 89.273438 35.609375 88.820312 35.050781 88.8125 34.511719 " fill-opacity="1" fill-rule="nonzero"/><path fill="#fbc807" d="M 82.308594 33.929688 L 81.5625 30.285156 C 81.453125 29.816406 81.828125 29.488281 82.394531 29.542969 L 83.394531 29.613281 C 83.964844 29.640625 84.515625 30.039062 84.621094 30.511719 L 85.363281 34.242188 C 85.464844 34.769531 85.085938 35.148438 84.519531 35.089844 L 83.523438 34.988281 C 82.953125 34.929688 82.414062 34.457031 82.308594 33.929688 " fill-opacity="1" fill-rule="nonzero"/><path fill="#fbc807" d="M 75.804688 34.484375 L 74.4375 31.027344 C 74.25 30.582031 74.558594 30.195312 75.125 30.152344 L 76.125 30.046875 C 76.691406 29.976562 77.300781 30.273438 77.488281 30.71875 L 78.867188 34.265625 C 79.058594 34.765625 78.75 35.203125 78.183594 35.246094 L 77.183594 35.320312 C 76.613281 35.359375 75.996094 34.988281 75.804688 34.484375 " fill-opacity="1" fill-rule="nonzero"/><path fill="#fbc807" d="M 69.496094 36.164062 L 67.546875 32.996094 C 67.285156 32.59375 67.523438 32.15625 68.074219 32.011719 L 69.039062 31.738281 C 69.582031 31.570312 70.238281 31.753906 70.5 32.164062 L 72.472656 35.414062 C 72.746094 35.875 72.523438 36.359375 71.96875 36.5 L 70.996094 36.746094 C 70.441406 36.886719 69.769531 36.625 69.496094 36.164062 " fill-opacity="1" fill-rule="nonzero"/><path fill="#fbc807" d="M 63.570312 38.914062 L 61.105469 36.132812 C 60.777344 35.78125 60.933594 35.308594 61.453125 35.070312 L 62.355469 34.632812 C 62.863281 34.371094 63.539062 34.441406 63.867188 34.796875 L 66.375 37.65625 C 66.726562 38.0625 66.585938 38.578125 66.066406 38.8125 L 65.152344 39.226562 C 64.632812 39.457031 63.925781 39.320312 63.570312 38.914062 " fill-opacity="1" fill-rule="nonzero"/><path fill="#cb6c1d" d="M 40.925781 67.320312 L 44.667969 68.558594 C 46.078125 69.023438 47.585938 68.164062 47.886719 66.710938 C 48.363281 64.4375 49.148438 61.339844 50.160156 59.808594 C 52.394531 58.949219 55.503906 54.390625 55.503906 51.75 C 55.503906 49.113281 46.679688 47.050781 44.132812 47.636719 C 41.582031 48.226562 39.921875 54.351562 40.800781 57.894531 C 40.273438 60.003906 39.679688 62.601562 39.277344 64.410156 C 38.996094 65.664062 39.710938 66.917969 40.925781 67.320312 " fill-opacity="1" fill-rule="nonzero"/><path fill="#f9ae0b" d="M 54.503906 51.382812 C 54.503906 52.707031 53.71875 54.515625 52.652344 56.101562 C 51.59375 57.671875 50.269531 59.003906 49.160156 59.433594 C 48.53125 60.382812 47.996094 61.925781 47.554688 63.511719 C 47.296875 64.480469 47.074219 65.464844 46.886719 66.335938 C 46.582031 67.785156 45.074219 68.644531 43.671875 68.179688 L 39.925781 66.945312 C 38.707031 66.546875 37.992188 65.285156 38.269531 64.039062 C 38.683594 62.230469 39.273438 59.632812 39.800781 57.519531 C 38.914062 53.980469 40.582031 47.851562 43.132812 47.269531 C 44.761719 46.890625 48.960938 47.601562 51.773438 48.84375 C 52.429688 49.140625 53.007812 49.453125 53.457031 49.792969 C 54.109375 50.289062 54.503906 50.816406 54.503906 51.382812 " fill-opacity="1" fill-rule="nonzero"/><path fill="#da8b17" d="M 44.179688 65.0625 L 41.539062 62.597656 C 41.539062 62.597656 43.136719 56.378906 44.183594 52.535156 C 44.3125 52.523438 44.445312 52.519531 44.585938 52.519531 C 44.832031 52.519531 45.101562 52.535156 45.398438 52.574219 C 46.734375 53.21875 47.492188 53.628906 47.753906 54.042969 L 48.015625 53.398438 L 48.609375 51.941406 C 47.597656 51.324219 46.179688 50.648438 44.828125 50.242188 C 44.949219 49.847656 45.027344 49.609375 45.058594 49.578125 C 45.292969 49.347656 51.753906 48.84375 51.753906 48.84375 L 51.773438 48.84375 C 52.429688 49.140625 53.007812 49.453125 53.457031 49.792969 C 53.886719 50.65625 53.957031 52.304688 52.902344 55.402344 C 52.820312 55.644531 52.742188 55.878906 52.652344 56.101562 C 51.59375 57.671875 50.269531 59.003906 49.160156 59.433594 C 48.53125 60.382812 47.996094 61.925781 47.554688 63.511719 C 46.355469 64.371094 45.175781 64.8125 44.179688 65.0625 " fill-opacity="1" fill-rule="nonzero"/><path fill="#f9ad21" d="M 40.257812 53.34375 C 40.167969 53.296875 40.089844 53.261719 40.015625 53.21875 C 39.9375 53.183594 39.871094 53.136719 39.808594 53.101562 C 39.773438 53.082031 39.730469 53.054688 39.703125 53.027344 L 39.660156 53.003906 C 41.886719 51.613281 42.828125 51.316406 45.398438 52.574219 C 46.734375 53.21875 47.492188 53.628906 47.753906 54.042969 L 48.609375 51.941406 C 46.546875 50.683594 42.808594 49.183594 41.378906 50.226562 C 40.644531 50.757812 38.21875 52.183594 34.96875 54.113281 L 40.609375 53.511719 C 40.480469 53.453125 40.363281 53.394531 40.257812 53.34375 " fill-opacity="1" fill-rule="nonzero"/><path fill="#4b3d3d" d="M 39.5625 55.132812 C 39.453125 54.929688 39.414062 54.738281 39.535156 54.621094 C 39.550781 54.59375 39.570312 54.570312 39.585938 54.542969 C 39.574219 54.742188 39.566406 54.9375 39.5625 55.132812 " fill-opacity="1" fill-rule="nonzero"/><path fill="#da8b17" d="M 40.429688 55.90625 C 40.191406 55.875 39.757812 55.492188 39.5625 55.132812 C 39.566406 54.9375 39.574219 54.742188 39.585938 54.542969 C 39.847656 54.167969 40.097656 53.835938 40.339844 53.539062 L 40.609375 53.511719 C 40.550781 53.484375 40.492188 53.457031 40.433594 53.429688 C 41.222656 52.507812 41.953125 51.996094 42.785156 51.777344 C 43.246094 51.785156 43.734375 51.886719 44.304688 52.097656 C 44.265625 52.238281 44.222656 52.386719 44.183594 52.535156 C 42.550781 52.691406 42.015625 53.84375 40.429688 55.90625 " fill-opacity="1" fill-rule="nonzero"/><path fill="#ba6b1d" d="M 47.753906 54.042969 C 47.492188 53.628906 46.734375 53.21875 45.398438 52.574219 C 45.101562 52.535156 44.832031 52.519531 44.585938 52.519531 C 44.445312 52.519531 44.3125 52.523438 44.183594 52.535156 C 44.222656 52.386719 44.265625 52.238281 44.304688 52.097656 C 44.636719 52.21875 44.996094 52.378906 45.398438 52.574219 C 46.734375 53.21875 47.492188 53.628906 47.753906 54.042969 L 48.015625 53.398438 L 47.753906 54.042969 " fill-opacity="1" fill-rule="nonzero"/><path fill="#dc8a17" d="M 47.753906 54.042969 C 47.492188 53.628906 46.734375 53.21875 45.398438 52.574219 C 44.996094 52.378906 44.636719 52.21875 44.304688 52.097656 C 43.734375 51.886719 43.246094 51.785156 42.785156 51.777344 C 43.132812 51.6875 43.496094 51.644531 43.890625 51.644531 C 44.40625 51.644531 44.972656 51.714844 45.613281 51.835938 C 47.035156 52.53125 47.808594 52.957031 48.015625 53.398438 L 47.753906 54.042969 M 40.339844 53.539062 C 40.371094 53.503906 40.402344 53.464844 40.433594 53.429688 C 40.492188 53.457031 40.550781 53.484375 40.609375 53.511719 L 40.339844 53.539062 " fill-opacity="1" fill-rule="nonzero"/><path fill="#cc811b" d="M 45.613281 51.835938 C 43.007812 50.574219 42.074219 50.886719 39.773438 52.339844 C 39.398438 52.574219 39.300781 52.734375 39.660156 53.003906 C 41.886719 51.613281 42.828125 51.316406 45.398438 52.574219 C 46.734375 53.21875 47.492188 53.628906 47.753906 54.042969 L 48.015625 53.398438 C 47.808594 52.957031 47.035156 52.53125 45.613281 51.835938 " fill-opacity="1" fill-rule="nonzero"/><path fill="#fbc008" d="M 49.800781 47.875 C 46.046875 46.890625 45.613281 46.074219 44.179688 50.429688 C 42.742188 54.789062 39.792969 60.089844 40.878906 64.355469 C 40.878906 64.355469 42.367188 65.480469 44.179688 65.0625 C 45.292969 57.96875 46.8125 51.605469 49.800781 47.875 " fill-opacity="1" fill-rule="nonzero"/><path fill="#e79a13" d="M 51.753906 48.84375 L 50.609375 51.300781 C 50.609375 51.300781 49.292969 50.027344 48.953125 50.84375 C 48.621094 51.648438 45.542969 58.648438 46.355469 60.402344 L 44.179688 65.0625 C 42.253906 60.160156 45.148438 56.746094 46.820312 51.835938 C 48.488281 46.9375 49.402344 47.167969 51.753906 48.84375 " fill-opacity="1" fill-rule="nonzero"/><g clip-path="url(#2d3b826ebd)"><path fill="#cc811b" d="M 24.347656 67.25 C 29.011719 67.855469 32.59375 70.382812 32.753906 73.0625 C 32.601562 73.449219 32.371094 73.804688 32.074219 74.148438 C 31.976562 74.253906 31.867188 74.363281 31.75 74.46875 C 31.527344 74.667969 31.285156 74.855469 31.019531 75.035156 C 30.972656 75.0625 30.929688 75.085938 30.882812 75.113281 C 30.667969 75.25 30.4375 75.375 30.183594 75.480469 C 29.988281 75.589844 29.773438 75.671875 29.558594 75.75 C 29.414062 75.8125 29.261719 75.867188 29.101562 75.910156 C 28.957031 75.964844 28.804688 76.011719 28.652344 76.046875 C 28.484375 76.089844 28.3125 76.136719 28.132812 76.171875 C 27.9375 76.214844 27.730469 76.261719 27.515625 76.296875 C 27.480469 76.296875 27.453125 76.304688 27.417969 76.304688 C 27.195312 76.34375 26.96875 76.378906 26.738281 76.394531 C 26.585938 76.414062 26.433594 76.429688 26.269531 76.429688 C 26.164062 76.449219 26.046875 76.457031 25.929688 76.457031 C 25.054688 76.503906 24.140625 76.46875 23.199219 76.34375 C 22.957031 76.304688 22.714844 76.269531 22.484375 76.234375 C 22.386719 76.214844 22.296875 76.199219 22.195312 76.179688 C 21.964844 76.136719 21.730469 76.082031 21.507812 76.027344 L 21.460938 76.019531 C 21.210938 75.957031 20.96875 75.882812 20.738281 75.8125 C 20.171875 75.652344 19.628906 75.445312 19.125 75.222656 C 18.917969 75.132812 18.722656 75.035156 18.527344 74.9375 C 18.5 74.925781 18.464844 74.910156 18.4375 74.890625 C 18.246094 74.792969 18.070312 74.691406 17.890625 74.585938 C 17.753906 74.503906 17.621094 74.425781 17.488281 74.328125 C 17.390625 74.273438 17.289062 74.199219 17.191406 74.128906 C 17.101562 74.058594 17.003906 73.996094 16.914062 73.921875 C 16.824219 73.851562 16.742188 73.78125 16.652344 73.707031 C 16.277344 73.394531 15.957031 73.054688 15.6875 72.703125 C 15.625 72.632812 15.570312 72.550781 15.515625 72.480469 C 15.410156 72.320312 15.3125 72.15625 15.222656 72.003906 C 15.1875 71.925781 15.140625 71.84375 15.105469 71.765625 C 14.953125 71.441406 14.855469 71.109375 14.808594 70.777344 C 14.800781 70.699219 14.792969 70.609375 14.78125 70.527344 C 15.757812 68.089844 19.78125 66.648438 24.347656 67.25 Z M 49.972656 53.027344 L 49.964844 53.011719 C 49.589844 52.742188 49.097656 52.4375 48.53125 52.132812 L 47.753906 54.042969 C 47.796875 54.105469 47.824219 54.167969 47.84375 54.230469 C 47.796875 54.28125 47.753906 54.335938 47.707031 54.402344 C 47.628906 54.5 47.53125 54.597656 47.421875 54.703125 C 46.1875 55.941406 45.101562 55.492188 42.246094 54.246094 C 41.566406 53.941406 41.027344 53.710938 40.609375 53.511719 L 37.078125 53.890625 C 31.25 57.347656 21.113281 62.390625 14.414062 67.285156 C 14.183594 67.453125 13.960938 67.625 13.734375 67.792969 C 13.582031 67.910156 13.449219 68.027344 13.324219 68.144531 C 13.261719 68.199219 13.207031 68.25 13.152344 68.3125 C 13.0625 68.394531 12.984375 68.484375 12.910156 68.574219 C 12.867188 68.621094 12.832031 68.664062 12.796875 68.707031 C 12.757812 68.753906 12.722656 68.796875 12.695312 68.851562 C 11.335938 70.671875 11.289062 73.234375 12.777344 74.953125 C 21.515625 85.078125 28.332031 81.78125 30.945312 79.371094 C 35.53125 75.160156 49.023438 55.949219 50.679688 53.890625 C 50.796875 53.746094 50.511719 53.414062 49.972656 53.027344 " fill-opacity="1" fill-rule="nonzero"/></g><path fill="#f9ad21" d="M 31.75 74.46875 C 31.527344 74.667969 31.285156 74.855469 31.019531 75.035156 C 30.972656 75.0625 30.929688 75.085938 30.882812 75.113281 C 30.667969 75.25 30.4375 75.375 30.183594 75.480469 C 29.988281 75.589844 29.773438 75.671875 29.558594 75.75 C 29.414062 75.8125 29.261719 75.867188 29.101562 75.910156 C 28.957031 75.964844 28.804688 76.011719 28.652344 76.046875 C 28.484375 76.089844 28.3125 76.136719 28.132812 76.171875 C 27.9375 76.214844 27.730469 76.261719 27.515625 76.296875 C 27.480469 76.296875 27.453125 76.304688 27.417969 76.304688 C 27.195312 76.34375 26.96875 76.378906 26.738281 76.394531 C 26.585938 76.414062 26.433594 76.429688 26.269531 76.429688 C 26.164062 76.449219 26.046875 76.457031 25.929688 76.457031 C 25.054688 76.503906 24.140625 76.46875 23.199219 76.34375 C 22.957031 76.304688 22.714844 76.269531 22.484375 76.234375 C 22.386719 76.214844 22.296875 76.199219 22.195312 76.179688 C 21.964844 76.136719 21.730469 76.082031 21.507812 76.027344 L 21.460938 76.019531 C 21.210938 75.957031 20.96875 75.882812 20.738281 75.8125 C 20.171875 75.652344 19.628906 75.445312 19.125 75.222656 C 18.917969 75.132812 18.722656 75.035156 18.527344 74.9375 C 18.5 74.925781 18.464844 74.910156 18.4375 74.890625 C 18.246094 74.792969 18.070312 74.691406 17.890625 74.585938 C 17.753906 74.503906 17.621094 74.425781 17.488281 74.328125 C 17.390625 74.273438 17.289062 74.199219 17.191406 74.128906 C 17.101562 74.058594 17.003906 73.996094 16.914062 73.921875 C 16.824219 73.851562 16.742188 73.78125 16.652344 73.707031 C 16.277344 73.394531 15.957031 73.054688 15.6875 72.703125 C 15.625 72.632812 15.570312 72.550781 15.515625 72.480469 C 15.410156 72.320312 15.3125 72.15625 15.222656 72.003906 C 15.1875 71.925781 15.140625 71.84375 15.105469 71.765625 C 14.953125 71.441406 14.855469 71.109375 14.808594 70.777344 C 14.800781 70.699219 14.792969 70.609375 14.78125 70.527344 C 15.757812 68.089844 19.78125 66.648438 24.347656 67.25 C 29.011719 67.855469 32.59375 70.382812 32.753906 73.0625 C 32.601562 73.449219 32.371094 73.804688 32.074219 74.148438 C 31.976562 74.253906 31.867188 74.363281 31.75 74.46875 Z M 49.972656 53.027344 L 49.964844 53.011719 C 49.796875 52.75 49.292969 52.355469 48.613281 51.945312 L 48.53125 52.132812 L 47.753906 54.042969 C 47.796875 54.105469 47.824219 54.167969 47.84375 54.230469 C 47.796875 54.28125 47.753906 54.335938 47.707031 54.402344 C 47.628906 54.5 47.53125 54.597656 47.421875 54.703125 C 46.1875 55.941406 45.101562 55.492188 42.246094 54.246094 C 41.566406 53.941406 41.027344 53.710938 40.609375 53.511719 L 37.078125 53.890625 L 34.964844 54.113281 C 29.101562 57.589844 20.550781 62.730469 14.414062 67.285156 C 14.183594 67.453125 13.960938 67.625 13.734375 67.792969 C 13.582031 67.910156 13.449219 68.027344 13.324219 68.144531 C 13.261719 68.199219 13.207031 68.25 13.152344 68.3125 C 13.0625 68.394531 12.984375 68.484375 12.910156 68.574219 C 12.867188 68.621094 12.832031 68.664062 12.796875 68.707031 C 12.757812 68.753906 12.722656 68.796875 12.695312 68.851562 C 11.371094 70.769531 12.5625 73.019531 14.855469 74.972656 L 14.871094 74.988281 C 19.214844 78.679688 27.472656 81.324219 30.273438 78.742188 C 34.859375 74.53125 48.34375 55.324219 50 53.261719 C 50.046875 53.207031 50.035156 53.128906 49.972656 53.027344 " fill-opacity="1" fill-rule="nonzero"/><path fill="#cc811b" d="M 47.753906 54.042969 C 47.796875 54.105469 47.824219 54.167969 47.84375 54.230469 C 48.078125 53.910156 48.136719 53.652344 48.015625 53.398438 L 47.753906 54.042969 " fill-opacity="1" fill-rule="nonzero"/><path fill="#cc811b" d="M 31.019531 75.035156 C 31.285156 74.855469 31.527344 74.667969 31.75 74.46875 C 31.535156 74.675781 31.285156 74.863281 31.019531 75.035156 " fill-opacity="1" fill-rule="nonzero"/><path fill="#cc811b" d="M 32.96875 72.3125 C 32.878906 72.992188 32.566406 73.609375 32.074219 74.148438 C 32.371094 73.804688 32.601562 73.449219 32.753906 73.0625 C 32.59375 70.382812 29.011719 67.855469 24.347656 67.25 C 19.78125 66.648438 15.757812 68.089844 14.78125 70.527344 C 14.765625 70.328125 14.773438 70.132812 14.800781 69.9375 C 15.175781 67.050781 19.546875 65.242188 24.570312 65.902344 C 29.585938 66.558594 33.34375 69.425781 32.96875 72.3125 " fill-opacity="1" fill-rule="nonzero"/></svg>