<svg xmlns="http://www.w3.org/2000/svg" xmlns:xlink="http://www.w3.org/1999/xlink" width="150" zoomAndPan="magnify" viewBox="0 0 112.5 112.499997" height="150" preserveAspectRatio="xMidYMid meet" version="1.0"><defs><clipPath id="026140b68d"><path d="M 11.199219 7.742188 L 105.28125 7.742188 L 105.28125 103.320312 L 11.199219 103.320312 Z M 11.199219 7.742188 " clip-rule="nonzero"/></clipPath><clipPath id="ababa2309c"><path d="M 11.199219 46 L 105.28125 46 L 105.28125 103.320312 L 11.199219 103.320312 Z M 11.199219 46 " clip-rule="nonzero"/></clipPath><clipPath id="96b5958856"><path d="M 11.203125 55.53125 C 11.203125 52.394531 11.503906 49.285156 12.109375 46.207031 C 12.710938 43.128906 13.601562 40.140625 14.785156 37.242188 C 15.964844 34.34375 17.414062 31.589844 19.132812 28.980469 C 20.847656 26.371094 22.796875 23.960938 24.980469 21.742188 C 27.164062 19.523438 29.542969 17.539062 32.109375 15.796875 C 34.675781 14.054688 37.386719 12.582031 40.242188 11.382812 C 43.09375 10.179688 46.035156 9.273438 49.066406 8.664062 C 52.09375 8.050781 55.15625 7.742188 58.242188 7.742188 C 61.332031 7.742188 64.390625 8.050781 67.417969 8.664062 C 70.449219 9.273438 73.390625 10.179688 76.242188 11.382812 C 79.097656 12.582031 81.808594 14.054688 84.375 15.796875 C 86.945312 17.539062 89.320312 19.523438 91.503906 21.742188 C 93.6875 23.960938 95.636719 26.371094 97.355469 28.980469 C 99.070312 31.589844 100.519531 34.34375 101.703125 37.242188 C 102.882812 40.140625 103.777344 43.128906 104.378906 46.207031 C 104.980469 49.285156 105.28125 52.394531 105.28125 55.53125 C 105.28125 58.667969 104.980469 61.777344 104.378906 64.855469 C 103.777344 67.929688 102.882812 70.917969 101.703125 73.816406 C 100.519531 76.71875 99.070312 79.472656 97.355469 82.078125 C 95.636719 84.6875 93.6875 87.101562 91.503906 89.320312 C 89.320312 91.539062 86.945312 93.519531 84.375 95.265625 C 81.808594 97.007812 79.097656 98.480469 76.242188 99.679688 C 73.390625 100.882812 70.449219 101.789062 67.417969 102.398438 C 64.390625 103.011719 61.332031 103.316406 58.242188 103.316406 C 55.15625 103.316406 52.09375 103.011719 49.066406 102.398438 C 46.035156 101.789062 43.09375 100.882812 40.242188 99.679688 C 37.386719 98.480469 34.675781 97.007812 32.109375 95.265625 C 29.542969 93.519531 27.164062 91.539062 24.980469 89.320312 C 22.796875 87.101562 20.847656 84.6875 19.132812 82.078125 C 17.414062 79.472656 15.964844 76.71875 14.785156 73.816406 C 13.601562 70.917969 12.710938 67.929688 12.109375 64.855469 C 11.503906 61.777344 11.203125 58.667969 11.203125 55.53125 Z M 11.203125 55.53125 " clip-rule="nonzero"/></clipPath><clipPath id="633edc67b4"><path d="M 31 29 L 85 29 L 85 82 L 31 82 Z M 31 29 " clip-rule="nonzero"/></clipPath><clipPath id="6230f76e35"><path d="M 63.144531 27.890625 C 78.160156 30.640625 88.15625 45.257812 85.449219 60.511719 C 82.746094 75.765625 68.355469 85.917969 53.339844 83.171875 C 38.324219 80.421875 28.332031 65.804688 31.035156 50.550781 C 33.742188 35.296875 48.128906 25.144531 63.144531 27.890625 Z M 69.5 76.875 C 71.59375 77.175781 78.628906 72.890625 77.804688 70.625 C 77.246094 69.097656 74.515625 66.90625 71.585938 65.027344 C 67.921875 62.683594 63.960938 65.3125 65.246094 68.820312 C 66.558594 72.40625 67.40625 76.574219 69.5 76.875 Z M 71.839844 36.941406 C 69.742188 36.871094 68.335938 40.757812 66.507812 44.027344 C 64.648438 47.351562 67.058594 50.992188 70.5 49.628906 C 74.203125 48.164062 78.167969 46.082031 79.078125 44.429688 C 80.242188 42.320312 73.933594 37.007812 71.839844 36.941406 Z M 37.628906 64.941406 C 37.296875 67.03125 41.128906 74.386719 43.394531 73.652344 C 45.109375 73.097656 47.789062 69.785156 49.914062 66.503906 C 52.03125 63.230469 49.015625 59.902344 45.382812 61.109375 C 41.910156 62.265625 37.960938 62.851562 37.628906 64.941406 Z M 35.96875 47.648438 C 33.207031 48.261719 32.230469 57.003906 34.386719 58.023438 C 37.648438 59.570312 51.070312 55.679688 50.953125 54.363281 C 50.832031 53.054688 38.726562 47.039062 35.96875 47.648438 Z M 53.625 32.605469 C 52.648438 35.300781 56.851562 48.304688 58.113281 48.605469 C 59.378906 48.90625 65.015625 35.933594 63.957031 32.4375 C 63.257812 30.128906 54.597656 29.910156 53.625 32.605469 Z M 38.703125 41.09375 C 38.734375 43.296875 42.925781 45.082031 46.359375 47.0625 C 49.339844 48.78125 52.484375 46.25 51.222656 42.785156 C 49.835938 38.960938 47.816406 34.816406 46.183594 33.851562 C 44.125 32.636719 38.675781 38.894531 38.703125 41.09375 Z M 51.53125 77.65625 C 52.089844 80.46875 60.679688 81.59375 61.71875 79.417969 C 63.289062 76.128906 58.734375 62.429688 57.4375 62.53125 C 56.148438 62.632812 50.972656 74.84375 51.53125 77.65625 Z M 81.46875 52.375 C 78.863281 51.261719 65.882812 54.925781 65.527344 56.195312 C 65.175781 57.464844 77.671875 63.78125 81.15625 62.867188 C 83.460938 62.261719 84.074219 53.484375 81.46875 52.375 Z M 81.46875 52.375 " clip-rule="evenodd"/></clipPath></defs><g clip-path="url(#026140b68d)"><path fill="#4a4141" d="M 105.28125 55.53125 C 105.28125 57.097656 105.207031 58.65625 105.054688 60.214844 C 104.90625 61.773438 104.679688 63.320312 104.378906 64.855469 C 104.078125 66.386719 103.703125 67.90625 103.257812 69.402344 C 102.808594 70.898438 102.289062 72.371094 101.703125 73.816406 C 101.113281 75.265625 100.453125 76.675781 99.726562 78.058594 C 99 79.4375 98.210938 80.777344 97.355469 82.078125 C 96.5 83.382812 95.582031 84.636719 94.605469 85.847656 C 93.628906 87.054688 92.59375 88.214844 91.503906 89.320312 C 90.414062 90.429688 89.273438 91.476562 88.085938 92.46875 C 86.894531 93.464844 85.65625 94.394531 84.375 95.265625 C 83.09375 96.132812 81.777344 96.9375 80.417969 97.675781 C 79.058594 98.414062 77.667969 99.082031 76.242188 99.679688 C 74.820312 100.277344 73.371094 100.804688 71.898438 101.261719 C 70.421875 101.714844 68.929688 102.09375 67.417969 102.398438 C 65.910156 102.703125 64.386719 102.933594 62.855469 103.085938 C 61.320312 103.242188 59.785156 103.316406 58.242188 103.316406 C 56.703125 103.316406 55.164062 103.242188 53.632812 103.085938 C 52.097656 102.933594 50.578125 102.703125 49.066406 102.398438 C 47.554688 102.09375 46.0625 101.714844 44.589844 101.261719 C 43.113281 100.804688 41.664062 100.277344 40.242188 99.679688 C 38.820312 99.082031 37.425781 98.414062 36.070312 97.675781 C 34.710938 96.9375 33.390625 96.132812 32.109375 95.265625 C 30.828125 94.394531 29.59375 93.464844 28.402344 92.46875 C 27.210938 91.476562 26.070312 90.429688 24.980469 89.320312 C 23.890625 88.214844 22.859375 87.054688 21.882812 85.847656 C 20.902344 84.636719 19.988281 83.382812 19.132812 82.078125 C 18.277344 80.777344 17.484375 79.4375 16.757812 78.058594 C 16.03125 76.675781 15.375 75.265625 14.785156 73.816406 C 14.195312 72.371094 13.675781 70.898438 13.230469 69.402344 C 12.78125 67.90625 12.410156 66.386719 12.109375 64.855469 C 11.808594 63.320312 11.582031 61.773438 11.429688 60.214844 C 11.28125 58.65625 11.203125 57.097656 11.203125 55.53125 C 11.203125 53.964844 11.28125 52.40625 11.429688 50.847656 C 11.582031 49.289062 11.808594 47.742188 12.109375 46.207031 C 12.410156 44.671875 12.78125 43.15625 13.230469 41.660156 C 13.675781 40.160156 14.195312 38.691406 14.785156 37.242188 C 15.375 35.796875 16.03125 34.382812 16.757812 33.003906 C 17.484375 31.625 18.277344 30.285156 19.132812 28.980469 C 19.988281 27.679688 20.902344 26.425781 21.882812 25.214844 C 22.859375 24.003906 23.890625 22.847656 24.980469 21.742188 C 26.070312 20.632812 27.210938 19.585938 28.402344 18.589844 C 29.59375 17.597656 30.828125 16.667969 32.109375 15.796875 C 33.390625 14.929688 34.710938 14.125 36.070312 13.386719 C 37.425781 12.648438 38.820312 11.980469 40.242188 11.382812 C 41.664062 10.78125 43.113281 10.257812 44.589844 9.800781 C 46.0625 9.347656 47.554688 8.96875 49.066406 8.664062 C 50.578125 8.355469 52.097656 8.128906 53.632812 7.972656 C 55.164062 7.820312 56.703125 7.742188 58.242188 7.742188 C 59.785156 7.742188 61.320312 7.820312 62.855469 7.972656 C 64.386719 8.128906 65.910156 8.355469 67.417969 8.664062 C 68.929688 8.96875 70.421875 9.347656 71.898438 9.800781 C 73.371094 10.257812 74.820312 10.78125 76.242188 11.382812 C 77.667969 11.980469 79.058594 12.648438 80.417969 13.386719 C 81.777344 14.125 83.09375 14.929688 84.375 15.796875 C 85.65625 16.667969 86.894531 17.597656 88.085938 18.589844 C 89.273438 19.585938 90.414062 20.632812 91.503906 21.742188 C 92.59375 22.847656 93.628906 24.003906 94.605469 25.214844 C 95.582031 26.425781 96.5 27.679688 97.355469 28.980469 C 98.210938 30.285156 99 31.625 99.726562 33.003906 C 100.453125 34.382812 101.113281 35.796875 101.703125 37.242188 C 102.289062 38.691406 102.808594 40.160156 103.257812 41.660156 C 103.703125 43.15625 104.078125 44.671875 104.378906 46.207031 C 104.679688 47.742188 104.90625 49.289062 105.054688 50.847656 C 105.207031 52.40625 105.28125 53.964844 105.28125 55.53125 Z M 105.28125 55.53125 " fill-opacity="1" fill-rule="nonzero"/></g><g clip-path="url(#ababa2309c)"><g clip-path="url(#96b5958856)"><path fill="#3d3636" d="M 5.394531 46.058594 C 5.394531 46.058594 17.714844 100.503906 56.664062 98.285156 C 100.324219 95.796875 108.351562 48.203125 108.351562 48.203125 C 108.351562 48.203125 115.921875 127.972656 53.683594 119.488281 C -8.550781 111.007812 5.394531 46.058594 5.394531 46.058594 Z M 5.394531 46.058594 " fill-opacity="1" fill-rule="evenodd"/></g></g><path fill="#3d3636" d="M 90.183594 55.53125 C 90.183594 56.59375 90.132812 57.652344 90.03125 58.710938 C 89.929688 59.769531 89.777344 60.820312 89.570312 61.863281 C 89.367188 62.902344 89.113281 63.933594 88.808594 64.949219 C 88.507812 65.96875 88.152344 66.96875 87.753906 67.949219 C 87.351562 68.929688 86.90625 69.890625 86.414062 70.828125 C 85.921875 71.765625 85.382812 72.675781 84.800781 73.558594 C 84.222656 74.441406 83.597656 75.296875 82.933594 76.117188 C 82.269531 76.9375 81.570312 77.726562 80.828125 78.476562 C 80.089844 79.226562 79.316406 79.941406 78.507812 80.613281 C 77.699219 81.289062 76.859375 81.921875 75.988281 82.511719 C 75.121094 83.101562 74.222656 83.648438 73.300781 84.148438 C 72.378906 84.648438 71.433594 85.105469 70.46875 85.511719 C 69.5 85.917969 68.515625 86.273438 67.515625 86.582031 C 66.515625 86.890625 65.5 87.148438 64.476562 87.355469 C 63.449219 87.566406 62.414062 87.71875 61.375 87.824219 C 60.332031 87.929688 59.289062 87.980469 58.242188 87.980469 C 57.195312 87.980469 56.152344 87.929688 55.113281 87.824219 C 54.070312 87.71875 53.039062 87.566406 52.011719 87.355469 C 50.984375 87.148438 49.972656 86.890625 48.972656 86.582031 C 47.96875 86.273438 46.984375 85.917969 46.019531 85.511719 C 45.054688 85.105469 44.109375 84.648438 43.1875 84.148438 C 42.261719 83.648438 41.367188 83.101562 40.496094 82.511719 C 39.628906 81.921875 38.789062 81.289062 37.980469 80.613281 C 37.171875 79.941406 36.394531 79.226562 35.65625 78.476562 C 34.917969 77.726562 34.214844 76.9375 33.550781 76.117188 C 32.886719 75.296875 32.265625 74.441406 31.683594 73.558594 C 31.101562 72.675781 30.566406 71.765625 30.074219 70.828125 C 29.578125 69.890625 29.132812 68.929688 28.730469 67.949219 C 28.332031 66.96875 27.980469 65.96875 27.675781 64.949219 C 27.371094 63.933594 27.117188 62.902344 26.914062 61.863281 C 26.710938 60.820312 26.558594 59.769531 26.453125 58.710938 C 26.351562 57.652344 26.300781 56.59375 26.300781 55.53125 C 26.300781 54.46875 26.351562 53.40625 26.453125 52.351562 C 26.558594 51.292969 26.710938 50.242188 26.914062 49.199219 C 27.117188 48.15625 27.371094 47.128906 27.675781 46.109375 C 27.980469 45.09375 28.332031 44.09375 28.730469 43.113281 C 29.132812 42.132812 29.578125 41.171875 30.074219 40.234375 C 30.566406 39.296875 31.101562 38.386719 31.683594 37.503906 C 32.265625 36.617188 32.886719 35.765625 33.550781 34.945312 C 34.214844 34.125 34.917969 33.335938 35.65625 32.585938 C 36.394531 31.832031 37.171875 31.121094 37.980469 30.445312 C 38.789062 29.773438 39.628906 29.140625 40.496094 28.550781 C 41.367188 27.960938 42.261719 27.414062 43.1875 26.914062 C 44.109375 26.410156 45.054688 25.957031 46.019531 25.550781 C 46.984375 25.144531 47.96875 24.785156 48.972656 24.476562 C 49.972656 24.167969 50.984375 23.910156 52.011719 23.703125 C 53.039062 23.496094 54.070312 23.339844 55.113281 23.238281 C 56.152344 23.132812 57.195312 23.082031 58.242188 23.082031 C 59.289062 23.082031 60.332031 23.132812 61.375 23.238281 C 62.414062 23.339844 63.449219 23.496094 64.476562 23.703125 C 65.5 23.910156 66.515625 24.167969 67.515625 24.476562 C 68.515625 24.785156 69.5 25.144531 70.46875 25.550781 C 71.433594 25.957031 72.378906 26.410156 73.300781 26.914062 C 74.222656 27.414062 75.121094 27.960938 75.988281 28.550781 C 76.859375 29.140625 77.699219 29.773438 78.507812 30.445312 C 79.316406 31.121094 80.089844 31.832031 80.828125 32.585938 C 81.570312 33.335938 82.269531 34.125 82.933594 34.945312 C 83.597656 35.765625 84.222656 36.617188 84.800781 37.503906 C 85.382812 38.386719 85.921875 39.296875 86.414062 40.234375 C 86.90625 41.171875 87.351562 42.132812 87.753906 43.113281 C 88.152344 44.09375 88.507812 45.09375 88.808594 46.109375 C 89.113281 47.128906 89.367188 48.15625 89.570312 49.199219 C 89.777344 50.242188 89.929688 51.292969 90.03125 52.351562 C 90.132812 53.40625 90.183594 54.46875 90.183594 55.53125 Z M 90.183594 55.53125 " fill-opacity="1" fill-rule="nonzero"/><path fill="#b4c7d0" d="M 58.304688 28.214844 C 73.191406 28.214844 85.277344 40.492188 85.277344 55.617188 C 85.277344 70.738281 73.191406 83.015625 58.304688 83.015625 C 43.417969 83.015625 31.332031 70.738281 31.332031 55.617188 C 31.332031 40.492188 43.417969 28.214844 58.304688 28.214844 Z M 58.496094 33.476562 C 46.460938 33.476562 36.691406 43.402344 36.691406 55.628906 C 36.691406 67.855469 46.460938 77.785156 58.496094 77.785156 C 70.53125 77.785156 80.304688 67.855469 80.304688 55.628906 C 80.304688 43.402344 70.53125 33.476562 58.496094 33.476562 Z M 58.496094 33.476562 " fill-opacity="1" fill-rule="evenodd"/><path fill="#8ba5bb" d="M 73.507812 55.53125 C 73.507812 56.550781 73.410156 57.558594 73.214844 58.554688 C 73.019531 59.554688 72.726562 60.523438 72.34375 61.464844 C 71.960938 62.40625 71.492188 63.300781 70.933594 64.144531 C 70.378906 64.992188 69.746094 65.777344 69.035156 66.496094 C 68.328125 67.214844 67.554688 67.859375 66.722656 68.421875 C 65.890625 68.988281 65.011719 69.46875 64.085938 69.855469 C 63.160156 70.246094 62.203125 70.539062 61.222656 70.738281 C 60.238281 70.9375 59.246094 71.035156 58.242188 71.035156 C 57.242188 71.035156 56.25 70.9375 55.265625 70.738281 C 54.28125 70.539062 53.328125 70.246094 52.402344 69.855469 C 51.476562 69.46875 50.597656 68.988281 49.761719 68.421875 C 48.929688 67.859375 48.160156 67.214844 47.449219 66.496094 C 46.742188 65.777344 46.109375 64.992188 45.550781 64.144531 C 44.996094 63.300781 44.523438 62.40625 44.140625 61.464844 C 43.757812 60.523438 43.46875 59.554688 43.273438 58.554688 C 43.078125 57.558594 42.980469 56.550781 42.980469 55.53125 C 42.980469 54.511719 43.078125 53.503906 43.273438 52.503906 C 43.46875 51.507812 43.757812 50.539062 44.140625 49.597656 C 44.523438 48.65625 44.996094 47.761719 45.550781 46.917969 C 46.109375 46.070312 46.742188 45.285156 47.449219 44.566406 C 48.160156 43.847656 48.929688 43.203125 49.761719 42.636719 C 50.597656 42.074219 51.476562 41.59375 52.402344 41.207031 C 53.328125 40.816406 54.28125 40.519531 55.265625 40.324219 C 56.25 40.125 57.242188 40.023438 58.242188 40.023438 C 59.246094 40.023438 60.238281 40.125 61.222656 40.324219 C 62.203125 40.519531 63.160156 40.816406 64.085938 41.207031 C 65.011719 41.59375 65.890625 42.074219 66.722656 42.636719 C 67.554688 43.203125 68.328125 43.847656 69.035156 44.566406 C 69.746094 45.285156 70.378906 46.070312 70.933594 46.917969 C 71.492188 47.761719 71.960938 48.65625 72.34375 49.597656 C 72.726562 50.539062 73.019531 51.507812 73.214844 52.503906 C 73.410156 53.503906 73.507812 54.511719 73.507812 55.53125 Z M 73.507812 55.53125 " fill-opacity="1" fill-rule="nonzero"/><path fill="#d1dee4" d="M 63.144531 27.890625 C 78.160156 30.640625 88.15625 45.257812 85.449219 60.511719 C 82.746094 75.765625 68.355469 85.917969 53.339844 83.171875 C 38.324219 80.421875 28.332031 65.804688 31.035156 50.550781 C 33.742188 35.296875 48.128906 25.144531 63.144531 27.890625 Z M 69.5 76.875 C 71.59375 77.175781 78.628906 72.890625 77.804688 70.625 C 77.246094 69.097656 74.515625 66.90625 71.585938 65.027344 C 67.921875 62.683594 63.960938 65.3125 65.246094 68.820312 C 66.558594 72.40625 67.40625 76.574219 69.5 76.875 Z M 71.839844 36.941406 C 69.742188 36.871094 68.335938 40.757812 66.507812 44.027344 C 64.648438 47.351562 67.058594 50.992188 70.5 49.628906 C 74.203125 48.164062 78.167969 46.082031 79.078125 44.429688 C 80.242188 42.320312 73.933594 37.007812 71.839844 36.941406 Z M 37.628906 64.941406 C 37.296875 67.03125 41.128906 74.386719 43.394531 73.652344 C 45.109375 73.097656 47.789062 69.785156 49.914062 66.503906 C 52.03125 63.230469 49.015625 59.902344 45.382812 61.109375 C 41.910156 62.265625 37.960938 62.851562 37.628906 64.941406 Z M 35.96875 47.648438 C 33.207031 48.261719 32.230469 57.003906 34.386719 58.023438 C 37.648438 59.570312 51.070312 55.679688 50.953125 54.363281 C 50.832031 53.054688 38.726562 47.039062 35.96875 47.648438 Z M 53.625 32.605469 C 52.648438 35.300781 56.851562 48.304688 58.113281 48.605469 C 59.378906 48.90625 65.015625 35.933594 63.957031 32.4375 C 63.257812 30.128906 54.597656 29.910156 53.625 32.605469 Z M 38.703125 41.09375 C 38.734375 43.296875 42.925781 45.082031 46.359375 47.0625 C 49.339844 48.78125 52.484375 46.25 51.222656 42.785156 C 49.835938 38.960938 47.816406 34.816406 46.183594 33.851562 C 44.125 32.636719 38.675781 38.894531 38.703125 41.09375 Z M 51.53125 77.65625 C 52.089844 80.46875 60.679688 81.59375 61.71875 79.417969 C 63.289062 76.128906 58.734375 62.429688 57.4375 62.53125 C 56.148438 62.632812 50.972656 74.84375 51.53125 77.65625 Z M 81.46875 52.375 C 78.863281 51.261719 65.882812 54.925781 65.527344 56.195312 C 65.175781 57.464844 77.671875 63.78125 81.15625 62.867188 C 83.460938 62.261719 84.074219 53.484375 81.46875 52.375 Z M 81.46875 52.375 " fill-opacity="1" fill-rule="evenodd"/><g clip-path="url(#633edc67b4)"><g clip-path="url(#6230f76e35)"><path fill="#8ba5bb" d="M 53.394531 31.46875 C 54.417969 28.640625 63.503906 28.871094 64.238281 31.292969 C 65.347656 34.960938 59.433594 48.574219 58.105469 48.257812 C 56.78125 47.941406 52.371094 34.292969 53.394531 31.46875 Z M 36.609375 65.398438 C 36.957031 63.207031 41.101562 62.59375 44.746094 61.378906 C 48.558594 60.113281 51.722656 63.605469 49.5 67.039062 C 47.269531 70.480469 44.460938 73.957031 42.660156 74.542969 C 40.28125 75.3125 36.261719 67.59375 36.609375 65.398438 Z M 72.507812 36.015625 C 74.707031 36.085938 81.328125 41.664062 80.105469 43.875 C 79.148438 45.605469 74.988281 47.792969 71.105469 49.332031 C 67.492188 50.761719 64.964844 46.945312 66.914062 43.453125 C 68.832031 40.019531 70.308594 35.945312 72.507812 36.015625 Z M 51.199219 78.742188 C 50.609375 75.789062 56.035156 62.667969 57.390625 62.5625 C 58.75 62.453125 63.535156 77.140625 61.886719 80.59375 C 60.796875 82.875 51.785156 81.695312 51.199219 78.742188 Z M 82.613281 52.210938 C 85.347656 53.378906 84.703125 62.585938 82.289062 63.222656 C 78.628906 64.183594 65.515625 57.554688 65.886719 56.21875 C 66.257812 54.890625 79.878906 51.042969 82.613281 52.210938 Z M 70.054688 77.921875 C 67.859375 77.605469 66.96875 73.234375 65.589844 69.46875 C 64.242188 65.789062 68.398438 63.027344 72.242188 65.488281 C 75.320312 67.460938 78.183594 69.761719 78.765625 71.363281 C 79.632812 73.742188 72.25 78.238281 70.054688 77.921875 Z M 37.738281 40.375 C 37.707031 38.066406 43.429688 31.5 45.585938 32.773438 C 47.296875 33.785156 49.417969 38.136719 50.875 42.148438 C 52.195312 45.785156 48.898438 48.441406 45.773438 46.640625 C 42.167969 44.558594 37.769531 42.6875 37.738281 40.375 Z M 34.867188 47.253906 C 37.761719 46.613281 50.464844 52.925781 50.589844 54.300781 C 50.714844 55.679688 36.628906 59.761719 33.207031 58.140625 C 30.945312 57.070312 31.96875 47.894531 34.867188 47.253906 Z M 34.867188 47.253906 " fill-opacity="1" fill-rule="evenodd"/></g></g><path fill="#8ba5bb" d="M 56.75 51.453125 C 56.75 51.796875 56.6875 52.128906 56.554688 52.449219 C 56.425781 52.769531 56.238281 53.050781 56 53.296875 C 55.757812 53.539062 55.480469 53.730469 55.167969 53.863281 C 54.851562 53.992188 54.523438 54.058594 54.183594 54.058594 C 53.84375 54.058594 53.515625 53.992188 53.199219 53.863281 C 52.886719 53.730469 52.609375 53.539062 52.367188 53.296875 C 52.128906 53.050781 51.941406 52.769531 51.8125 52.449219 C 51.679688 52.128906 51.617188 51.796875 51.617188 51.453125 C 51.617188 51.105469 51.679688 50.773438 51.8125 50.453125 C 51.941406 50.132812 52.128906 49.851562 52.367188 49.605469 C 52.609375 49.363281 52.886719 49.171875 53.199219 49.042969 C 53.515625 48.910156 53.84375 48.84375 54.183594 48.84375 C 54.523438 48.84375 54.851562 48.910156 55.167969 49.042969 C 55.480469 49.171875 55.757812 49.363281 56 49.605469 C 56.238281 49.851562 56.425781 50.132812 56.554688 50.453125 C 56.6875 50.773438 56.75 51.105469 56.75 51.453125 Z M 56.75 51.453125 " fill-opacity="1" fill-rule="nonzero"/><path fill="#b4c7d0" d="M 56.222656 51.453125 C 56.222656 51.726562 56.167969 51.988281 56.066406 52.242188 C 55.960938 52.496094 55.816406 52.722656 55.625 52.914062 C 55.433594 53.109375 55.214844 53.257812 54.964844 53.363281 C 54.714844 53.46875 54.453125 53.519531 54.183594 53.519531 C 53.914062 53.519531 53.652344 53.46875 53.402344 53.363281 C 53.152344 53.257812 52.933594 53.109375 52.742188 52.914062 C 52.550781 52.722656 52.40625 52.496094 52.300781 52.242188 C 52.199219 51.988281 52.144531 51.726562 52.144531 51.453125 C 52.144531 51.175781 52.199219 50.914062 52.300781 50.660156 C 52.40625 50.40625 52.550781 50.183594 52.742188 49.988281 C 52.933594 49.792969 53.152344 49.644531 53.402344 49.539062 C 53.652344 49.433594 53.914062 49.382812 54.183594 49.382812 C 54.453125 49.382812 54.714844 49.433594 54.964844 49.539062 C 55.214844 49.644531 55.433594 49.792969 55.625 49.988281 C 55.816406 50.183594 55.960938 50.40625 56.066406 50.660156 C 56.167969 50.914062 56.222656 51.175781 56.222656 51.453125 Z M 56.222656 51.453125 " fill-opacity="1" fill-rule="nonzero"/><path fill="#d1dee4" d="M 54.054688 49.6875 C 55.207031 49.628906 56.039062 50.949219 55.703125 51.121094 C 55.371094 51.289062 54.945312 50.199219 54.035156 50.28125 C 53.125 50.363281 52.996094 51.292969 52.617188 51.339844 C 52.238281 51.382812 52.621094 49.761719 54.054688 49.6875 Z M 54.054688 49.6875 " fill-opacity="1" fill-rule="evenodd"/><path fill="#8ba5bb" d="M 56.75 59.222656 C 56.75 59.566406 56.6875 59.902344 56.554688 60.21875 C 56.425781 60.539062 56.238281 60.820312 56 61.066406 C 55.757812 61.3125 55.480469 61.5 55.167969 61.632812 C 54.851562 61.765625 54.523438 61.832031 54.183594 61.832031 C 53.84375 61.832031 53.515625 61.765625 53.199219 61.632812 C 52.886719 61.5 52.609375 61.3125 52.367188 61.066406 C 52.128906 60.820312 51.941406 60.539062 51.8125 60.21875 C 51.679688 59.902344 51.617188 59.566406 51.617188 59.222656 C 51.617188 58.875 51.679688 58.542969 51.8125 58.222656 C 51.941406 57.902344 52.128906 57.621094 52.367188 57.378906 C 52.609375 57.132812 52.886719 56.945312 53.199219 56.8125 C 53.515625 56.679688 53.84375 56.613281 54.183594 56.613281 C 54.523438 56.613281 54.851562 56.679688 55.167969 56.8125 C 55.480469 56.945312 55.757812 57.132812 56 57.378906 C 56.238281 57.621094 56.425781 57.902344 56.554688 58.222656 C 56.6875 58.542969 56.75 58.875 56.75 59.222656 Z M 56.75 59.222656 " fill-opacity="1" fill-rule="nonzero"/><path fill="#b4c7d0" d="M 56.222656 59.222656 C 56.222656 59.496094 56.167969 59.761719 56.066406 60.015625 C 55.960938 60.269531 55.816406 60.492188 55.625 60.6875 C 55.433594 60.878906 55.214844 61.03125 54.964844 61.132812 C 54.714844 61.238281 54.453125 61.292969 54.183594 61.292969 C 53.914062 61.292969 53.652344 61.238281 53.402344 61.132812 C 53.152344 61.03125 52.933594 60.878906 52.742188 60.6875 C 52.550781 60.492188 52.40625 60.269531 52.300781 60.015625 C 52.199219 59.761719 52.144531 59.496094 52.144531 59.222656 C 52.144531 58.949219 52.199219 58.683594 52.300781 58.429688 C 52.40625 58.175781 52.550781 57.953125 52.742188 57.757812 C 52.933594 57.5625 53.152344 57.414062 53.402344 57.308594 C 53.652344 57.203125 53.914062 57.152344 54.183594 57.152344 C 54.453125 57.152344 54.714844 57.203125 54.964844 57.308594 C 55.214844 57.414062 55.433594 57.5625 55.625 57.757812 C 55.816406 57.953125 55.960938 58.175781 56.066406 58.429688 C 56.167969 58.683594 56.222656 58.949219 56.222656 59.222656 Z M 56.222656 59.222656 " fill-opacity="1" fill-rule="nonzero"/><path fill="#d1dee4" d="M 54.054688 57.457031 C 55.207031 57.398438 56.039062 58.722656 55.703125 58.890625 C 55.371094 59.0625 54.945312 57.972656 54.035156 58.054688 C 53.125 58.136719 52.996094 59.066406 52.617188 59.109375 C 52.238281 59.15625 52.621094 57.53125 54.054688 57.457031 Z M 54.054688 57.457031 " fill-opacity="1" fill-rule="evenodd"/><path fill="#8ba5bb" d="M 65.113281 51.453125 C 65.113281 51.796875 65.050781 52.128906 64.917969 52.449219 C 64.789062 52.769531 64.605469 53.050781 64.363281 53.296875 C 64.121094 53.539062 63.84375 53.730469 63.53125 53.863281 C 63.214844 53.992188 62.886719 54.058594 62.546875 54.058594 C 62.207031 54.058594 61.878906 53.992188 61.5625 53.863281 C 61.25 53.730469 60.972656 53.539062 60.730469 53.296875 C 60.492188 53.050781 60.304688 52.769531 60.175781 52.449219 C 60.042969 52.128906 59.980469 51.796875 59.980469 51.453125 C 59.980469 51.105469 60.042969 50.773438 60.175781 50.453125 C 60.304688 50.132812 60.492188 49.851562 60.730469 49.605469 C 60.972656 49.363281 61.25 49.171875 61.5625 49.042969 C 61.878906 48.910156 62.207031 48.84375 62.546875 48.84375 C 62.886719 48.84375 63.214844 48.910156 63.53125 49.042969 C 63.84375 49.171875 64.121094 49.363281 64.363281 49.605469 C 64.605469 49.851562 64.789062 50.132812 64.917969 50.453125 C 65.050781 50.773438 65.113281 51.105469 65.113281 51.453125 Z M 65.113281 51.453125 " fill-opacity="1" fill-rule="nonzero"/><path fill="#b4c7d0" d="M 64.585938 51.453125 C 64.585938 51.726562 64.53125 51.988281 64.429688 52.242188 C 64.328125 52.496094 64.179688 52.722656 63.988281 52.914062 C 63.796875 53.109375 63.578125 53.257812 63.328125 53.363281 C 63.078125 53.46875 62.816406 53.519531 62.546875 53.519531 C 62.277344 53.519531 62.015625 53.46875 61.765625 53.363281 C 61.519531 53.257812 61.296875 53.109375 61.105469 52.914062 C 60.914062 52.722656 60.769531 52.496094 60.664062 52.242188 C 60.5625 51.988281 60.507812 51.726562 60.507812 51.453125 C 60.507812 51.175781 60.5625 50.914062 60.664062 50.660156 C 60.769531 50.40625 60.914062 50.183594 61.105469 49.988281 C 61.296875 49.792969 61.519531 49.644531 61.765625 49.539062 C 62.015625 49.433594 62.277344 49.382812 62.546875 49.382812 C 62.816406 49.382812 63.078125 49.433594 63.328125 49.539062 C 63.578125 49.644531 63.796875 49.792969 63.988281 49.988281 C 64.179688 50.183594 64.328125 50.40625 64.429688 50.660156 C 64.53125 50.914062 64.585938 51.175781 64.585938 51.453125 Z M 64.585938 51.453125 " fill-opacity="1" fill-rule="nonzero"/><path fill="#d1dee4" d="M 62.417969 49.6875 C 63.570312 49.628906 64.402344 50.949219 64.066406 51.121094 C 63.734375 51.289062 63.308594 50.199219 62.398438 50.28125 C 61.488281 50.363281 61.359375 51.292969 60.980469 51.339844 C 60.601562 51.382812 60.984375 49.761719 62.417969 49.6875 Z M 62.417969 49.6875 " fill-opacity="1" fill-rule="evenodd"/><path fill="#8ba5bb" d="M 65.113281 59.222656 C 65.113281 59.566406 65.050781 59.902344 64.917969 60.21875 C 64.789062 60.539062 64.605469 60.820312 64.363281 61.066406 C 64.121094 61.3125 63.84375 61.5 63.53125 61.632812 C 63.214844 61.765625 62.886719 61.832031 62.546875 61.832031 C 62.207031 61.832031 61.878906 61.765625 61.5625 61.632812 C 61.25 61.5 60.972656 61.3125 60.730469 61.066406 C 60.492188 60.820312 60.304688 60.539062 60.175781 60.21875 C 60.042969 59.902344 59.980469 59.566406 59.980469 59.222656 C 59.980469 58.875 60.042969 58.542969 60.175781 58.222656 C 60.304688 57.902344 60.492188 57.621094 60.730469 57.378906 C 60.972656 57.132812 61.25 56.945312 61.5625 56.8125 C 61.878906 56.679688 62.207031 56.613281 62.546875 56.613281 C 62.886719 56.613281 63.214844 56.679688 63.53125 56.8125 C 63.84375 56.945312 64.121094 57.132812 64.363281 57.378906 C 64.605469 57.621094 64.789062 57.902344 64.917969 58.222656 C 65.050781 58.542969 65.113281 58.875 65.113281 59.222656 Z M 65.113281 59.222656 " fill-opacity="1" fill-rule="nonzero"/><path fill="#b4c7d0" d="M 64.585938 59.222656 C 64.585938 59.496094 64.53125 59.761719 64.429688 60.015625 C 64.328125 60.269531 64.179688 60.492188 63.988281 60.6875 C 63.796875 60.878906 63.578125 61.03125 63.328125 61.132812 C 63.078125 61.238281 62.816406 61.292969 62.546875 61.292969 C 62.277344 61.292969 62.015625 61.238281 61.765625 61.132812 C 61.519531 61.03125 61.296875 60.878906 61.105469 60.6875 C 60.914062 60.492188 60.769531 60.269531 60.664062 60.015625 C 60.5625 59.761719 60.507812 59.496094 60.507812 59.222656 C 60.507812 58.949219 60.5625 58.683594 60.664062 58.429688 C 60.769531 58.175781 60.914062 57.953125 61.105469 57.757812 C 61.296875 57.5625 61.519531 57.414062 61.765625 57.308594 C 62.015625 57.203125 62.277344 57.152344 62.546875 57.152344 C 62.816406 57.152344 63.078125 57.203125 63.328125 57.308594 C 63.578125 57.414062 63.796875 57.5625 63.988281 57.757812 C 64.179688 57.953125 64.328125 58.175781 64.429688 58.429688 C 64.53125 58.683594 64.585938 58.949219 64.585938 59.222656 Z M 64.585938 59.222656 " fill-opacity="1" fill-rule="nonzero"/><path fill="#d1dee4" d="M 62.417969 57.457031 C 63.570312 57.398438 64.402344 58.722656 64.066406 58.890625 C 63.734375 59.0625 63.308594 57.972656 62.398438 58.054688 C 61.488281 58.136719 61.359375 59.066406 60.980469 59.109375 C 60.601562 59.15625 60.984375 57.53125 62.417969 57.457031 Z M 62.417969 57.457031 " fill-opacity="1" fill-rule="evenodd"/></svg>