<svg xmlns="http://www.w3.org/2000/svg" xmlns:xlink="http://www.w3.org/1999/xlink" width="150" zoomAndPan="magnify" viewBox="0 0 112.5 112.499997" height="150" preserveAspectRatio="xMidYMid meet" version="1.0"><defs><clipPath id="86d1f0b2e6"><path d="M 11.199219 17.21875 L 98.5625 17.21875 L 98.5625 100.847656 L 11.199219 100.847656 Z M 11.199219 17.21875 " clip-rule="nonzero"/></clipPath><clipPath id="8780c99801"><path d="M 41 67 L 60 67 L 60 100.847656 L 41 100.847656 Z M 41 67 " clip-rule="nonzero"/></clipPath><clipPath id="44f53c157c"><path d="M 68 62 L 98.5625 62 L 98.5625 84 L 68 84 Z M 68 62 " clip-rule="nonzero"/></clipPath><clipPath id="5a0689d19b"><path d="M 67 17.21875 L 76 17.21875 L 76 26 L 67 26 Z M 67 17.21875 " clip-rule="nonzero"/></clipPath><clipPath id="0746000cc1"><path d="M 11.199219 62 L 24 62 L 24 88 L 11.199219 88 Z M 11.199219 62 " clip-rule="nonzero"/></clipPath><clipPath id="1c735eae08"><path d="M 11.199219 80 L 24 80 L 24 88 L 11.199219 88 Z M 11.199219 80 " clip-rule="nonzero"/></clipPath><clipPath id="a201300dbd"><path d="M 11.257812 17.5 L 98.523438 17.5 L 98.523438 100.84375 L 11.257812 100.84375 Z M 11.257812 17.5 " clip-rule="nonzero"/></clipPath></defs><g clip-path="url(#86d1f0b2e6)"><path fill="#eb4436" d="M 61.953125 73.738281 C 61.953125 73.738281 61.570312 76.988281 61.238281 78.851562 C 60.90625 80.71875 60.523438 82.390625 59.878906 83.824219 C 59.238281 85.257812 58.941406 85.542969 57.238281 86.777344 C 56.417969 87.375 55.898438 87.5625 55.585938 87.597656 L 56.03125 86.035156 L 57.832031 79.582031 C 57.832031 79.582031 58.96875 74.265625 59.171875 73.261719 C 60.382812 72.996094 61.972656 72.089844 61.972656 72.089844 Z M 43.578125 84.480469 C 43.414062 84.625 43.285156 84.78125 43.097656 84.898438 C 42.910156 85.015625 42.769531 85.1875 42.574219 85.296875 C 42.566406 85.300781 42.558594 85.304688 42.550781 85.308594 C 42.546875 85.3125 42.542969 85.316406 42.539062 85.320312 C 42.511719 85.351562 42.476562 85.371094 42.433594 85.382812 C 42.390625 85.453125 42.34375 85.515625 42.285156 85.574219 C 42.222656 85.636719 42.160156 85.699219 42.097656 85.761719 C 42.039062 85.816406 41.96875 85.859375 41.929688 85.933594 C 41.769531 86.222656 41.320312 85.960938 41.484375 85.671875 C 41.578125 85.5 41.75 85.375 41.886719 85.242188 C 42.03125 85.097656 42.097656 84.925781 42.195312 84.753906 C 42.410156 84.367188 42.898438 84.382812 43.210938 84.113281 C 43.460938 83.898438 43.828125 84.257812 43.578125 84.480469 Z M 98.367188 82.203125 C 98.300781 81.742188 97.015625 80.984375 96.636719 80.902344 C 96.257812 80.820312 93.789062 80.292969 92.6875 79.914062 C 91.585938 79.535156 88.359375 76.945312 88.359375 76.945312 L 85.480469 74.441406 L 80.839844 69.5625 L 76.3125 64.746094 C 76.3125 64.746094 74.832031 63.03125 73.777344 62.355469 C 72.726562 61.679688 69.855469 61.085938 69.855469 61.085938 C 69.855469 61.085938 69.902344 60.792969 70 59.222656 C 70.101562 57.652344 69.253906 56.488281 69.253906 56.488281 L 70.40625 56.769531 C 70.40625 56.769531 75.804688 57.757812 80.046875 56.882812 C 84.292969 56.011719 85.757812 55.121094 86.84375 53.605469 C 87.875 52.167969 87.308594 50.007812 87.246094 49.785156 C 87.429688 49.65625 87.90625 49.3125 89.035156 48.476562 C 91.570312 46.449219 90.976562 43.023438 90.976562 43.023438 L 89.792969 40.8125 C 89.792969 40.8125 86.996094 35.164062 86.023438 34.085938 C 85.046875 33.011719 81.554688 31.292969 81.554688 31.292969 C 81.554688 31.292969 82.207031 28.945312 83.296875 27.484375 C 84.382812 26.027344 87.332031 24.183594 88.75 23.417969 C 90.171875 22.652344 91.242188 21.613281 90.996094 20.859375 C 90.75 20.105469 89.875 19.679688 88.605469 20.042969 C 87.339844 20.40625 84.605469 21.855469 82.484375 24.707031 C 80.363281 27.558594 79.917969 30.757812 79.917969 30.757812 C 79.917969 30.757812 78.75 30.429688 77.019531 30.261719 C 75.292969 30.097656 72.230469 30.492188 70.355469 31.234375 C 69.8125 30.363281 70.109375 28.5 70.554688 26.816406 C 70.996094 25.136719 74.074219 21.921875 74.074219 21.921875 C 74.074219 21.921875 76.246094 20.027344 76.410156 19.398438 C 76.578125 18.773438 76.28125 18.046875 75.507812 17.769531 C 74.734375 17.488281 73.464844 17.800781 71.128906 19.695312 C 68.792969 21.59375 67.476562 25.121094 67.3125 27.328125 C 67.144531 29.539062 68.050781 32.160156 68.050781 32.160156 C 68.050781 32.160156 67.132812 32.496094 64.726562 34.484375 C 62.324219 36.46875 61.355469 38.949219 61.007812 40.367188 C 60.664062 41.785156 59.921875 43.761719 60.316406 46.746094 C 60.710938 49.730469 62.175781 51.675781 62.175781 51.675781 C 62.175781 51.675781 60.664062 51.558594 58.0625 52.285156 C 55.460938 53.011719 52.367188 54.707031 50.128906 57.097656 C 47.890625 59.488281 47.070312 63.214844 47.070312 63.214844 C 47.070312 63.214844 46.839844 62.800781 45.0625 61.285156 C 42.871094 59.570312 40.289062 58.46875 37.097656 57.9375 C 33.902344 57.410156 29.441406 57.949219 24.851562 59.578125 C 20.261719 61.210938 16.136719 65.265625 13.964844 68.753906 C 11.792969 72.238281 11.242188 76.714844 11.4375 77.605469 C 11.636719 78.496094 11.667969 81.296875 13.511719 83.160156 C 15.355469 85.023438 18.953125 86.257812 18.953125 86.257812 C 18.953125 86.257812 22.878906 87.46875 27.394531 87.246094 C 31.910156 87.023438 36.175781 86.324219 37.261719 86.09375 C 36.304688 87.777344 34.21875 90.089844 34.21875 90.089844 C 34.21875 90.089844 32.269531 92.007812 31.132812 93.007812 C 30 94.011719 28.605469 94.40625 28.457031 94.441406 C 28.308594 94.480469 25.628906 94.800781 24.703125 95.0625 C 23.777344 95.320312 22.9375 95.925781 23.039062 96.730469 C 23.136719 97.535156 23.816406 97.695312 26.296875 98.054688 C 29.542969 98.25 32.109375 96.71875 34.109375 95.0625 C 36.109375 93.40625 38.476562 89.902344 38.476562 89.902344 L 39.085938 89.933594 C 39.085938 89.933594 41.488281 90.3125 43.597656 88.894531 C 45.703125 87.480469 47.761719 84.757812 47.761719 84.757812 L 51.132812 79.203125 L 53.609375 73.796875 L 54.871094 73.730469 L 52.925781 83.210938 C 52.925781 83.210938 51.824219 88.054688 50.707031 90.660156 C 49.585938 93.265625 47.625 96.050781 47.328125 96.347656 C 47.03125 96.644531 45.476562 97.003906 44.882812 97.125 C 44.292969 97.25 42.515625 97.707031 41.910156 98.757812 C 41.304688 99.808594 41.835938 100.265625 42.972656 100.5 C 44.105469 100.734375 45.882812 100.710938 48.230469 100.117188 C 50.574219 99.523438 51.402344 97.59375 51.96875 96.617188 C 52.535156 95.640625 54.546875 91.230469 54.546875 91.230469 L 54.726562 90.613281 L 54.789062 90.691406 C 54.789062 90.691406 54.851562 90.710938 57.421875 90.214844 C 60.101562 89.457031 60.644531 88.609375 61.582031 87.59375 C 62.523438 86.578125 63.832031 83.835938 64.324219 81.238281 C 64.816406 78.644531 65.089844 76.878906 65.367188 74.554688 C 65.648438 72.230469 65.59375 69.433594 65.59375 69.433594 L 66.621094 68.339844 L 69.894531 73.46875 L 72.921875 78.511719 L 76.066406 83.804688 L 78.730469 88.386719 L 80.214844 90.265625 C 82.039062 91.566406 84.128906 91.960938 87.652344 92.09375 C 91.171875 92.226562 89.59375 90.332031 89.59375 90.332031 C 89.59375 90.332031 86.238281 88.996094 84.605469 88.367188 C 82.976562 87.742188 81.53125 85.796875 81.53125 85.796875 L 77.703125 79.929688 L 75.0625 75.355469 L 71.457031 68.949219 L 69.449219 65.292969 L 71.953125 65.40625 C 71.953125 65.40625 72.035156 65.339844 73.039062 66.265625 C 74.964844 67.449219 80.886719 74.042969 80.886719 74.042969 L 85.003906 78.117188 C 85.003906 78.117188 88.144531 81.363281 89.675781 82.238281 C 91.207031 83.109375 93.410156 83.570312 95.4375 83.40625 C 97.460938 83.242188 98.429688 82.664062 98.367188 82.203125 " fill-opacity="1" fill-rule="nonzero"/></g><path fill="#c1271f" d="M 42.972656 73.152344 C 42.972656 73.152344 32.109375 84.257812 12.039062 80.84375 C 12.039062 80.84375 13.132812 83.96875 17.101562 85.449219 C 21.066406 86.933594 22.941406 87.066406 27.453125 87.28125 C 31.960938 87.496094 37.410156 85.914062 37.410156 85.914062 L 39.894531 80.753906 L 41.769531 75.609375 L 42.972656 73.152344 " fill-opacity="1" fill-rule="nonzero"/><path fill="#c1271f" d="M 54.878906 73.664062 C 55.125 73.066406 55.230469 72.425781 55.355469 71.792969 C 55.460938 71.261719 55.640625 70.75 55.738281 70.21875 C 55.746094 70.125 55.75 70.03125 55.753906 69.941406 C 55.753906 69.644531 55.851562 69.382812 56.011719 69.167969 C 55.28125 69.359375 54.503906 69.519531 53.679688 69.636719 C 53.761719 69.808594 53.808594 70 53.804688 70.1875 C 53.804688 70.652344 53.730469 71.148438 53.480469 71.550781 C 53.175781 72.039062 52.707031 72.355469 52.160156 72.511719 C 51.621094 72.664062 51.0625 72.890625 50.5 72.945312 C 51.003906 73.335938 51.542969 73.464844 52.382812 73.582031 C 53.054688 73.675781 53.898438 73.753906 54.847656 73.761719 C 54.855469 73.726562 54.863281 73.695312 54.878906 73.664062 " fill-opacity="1" fill-rule="nonzero"/><path fill="#c1271f" d="M 69.335938 56.375 L 67.953125 55.894531 C 67.953125 55.894531 67.128906 64.488281 58.78125 68.207031 C 58.902344 68.269531 59.011719 68.347656 59.101562 68.4375 C 59.339844 68.675781 59.484375 69.027344 59.484375 69.363281 C 59.484375 69.929688 59.539062 70.496094 59.464844 71.0625 C 59.417969 71.433594 59.351562 71.789062 59.253906 72.148438 C 59.203125 72.351562 59.148438 72.554688 59.109375 72.761719 C 59.105469 72.847656 59.101562 72.933594 59.105469 73.023438 C 59.109375 73.109375 59.101562 73.195312 59.082031 73.28125 C 59.566406 73.15625 60.050781 73.007812 60.53125 72.824219 C 62.742188 71.980469 65.414062 69.492188 66.691406 68.210938 C 66.539062 68.039062 66.429688 67.8125 66.386719 67.582031 C 66.226562 67.449219 66.085938 67.300781 65.980469 67.113281 C 65.8125 66.832031 65.742188 66.515625 65.734375 66.1875 C 65.734375 66.121094 65.738281 66.050781 65.742188 65.980469 C 65.714844 65.890625 65.683594 65.800781 65.660156 65.707031 C 65.621094 65.527344 65.585938 65.339844 65.589844 65.15625 C 65.601562 64.828125 65.667969 64.660156 65.804688 64.367188 C 65.84375 64.285156 65.894531 64.210938 65.960938 64.140625 C 65.992188 64.011719 66.039062 63.890625 66.101562 63.773438 C 66.25 63.492188 66.578125 63.257812 66.882812 63.171875 C 67.203125 63.085938 67.601562 63.128906 67.886719 63.304688 C 68.152344 63.46875 68.339844 63.648438 68.523438 63.886719 C 68.691406 64.105469 68.828125 64.339844 68.902344 64.609375 C 69.242188 63.832031 69.574219 62.949219 69.8125 62.042969 C 70.554688 59.242188 69.335938 56.375 69.335938 56.375 " fill-opacity="1" fill-rule="nonzero"/><path fill="#c1271f" d="M 53.585938 69.71875 C 53.585938 69.71875 52.425781 70.484375 48.894531 71.175781 C 45.367188 71.867188 45.265625 72.609375 44.847656 73.746094 C 44.425781 74.886719 42.996094 80.140625 40.179688 84.886719 C 37.367188 89.632812 34.183594 93.195312 30.925781 94.753906 C 27.664062 96.308594 23 96.457031 23 96.457031 C 23 96.457031 22.84375 97.960938 26.414062 98.027344 C 29.988281 98.09375 32.308594 96.414062 32.308594 96.414062 C 32.308594 96.414062 34.792969 94.535156 36.667969 92.425781 C 38.542969 90.3125 41.113281 86.421875 41.113281 86.421875 L 42.164062 84.496094 C 42.164062 84.496094 44.335938 83.753906 46.164062 82.320312 C 47.992188 80.886719 48.878906 78.675781 49.371094 77.820312 C 49.867188 76.960938 50.164062 73.054688 50.164062 73.054688 C 50.164062 73.054688 52.121094 72.941406 53.222656 71.984375 C 54.328125 71.027344 53.585938 69.71875 53.585938 69.71875 " fill-opacity="1" fill-rule="nonzero"/><path fill="#c1271f" d="M 48.550781 79.324219 C 48.550781 79.324219 45.734375 85.035156 43.699219 86.480469 C 41.664062 87.929688 40.019531 88.039062 40.019531 88.039062 L 38.527344 89.980469 C 38.527344 89.980469 40.476562 90.265625 42.414062 89.472656 C 44.351562 88.683594 46.476562 86.46875 47.710938 84.773438 C 48.945312 83.082031 51.179688 79.113281 51.179688 79.113281 C 51.179688 79.113281 53.636719 74.09375 53.621094 73.945312 C 53.609375 73.796875 53.609375 73.425781 53.476562 73.351562 C 53.339844 73.277344 50.117188 72.585938 50.007812 72.574219 C 49.894531 72.5625 48.550781 79.324219 48.550781 79.324219 " fill-opacity="1" fill-rule="nonzero"/><g clip-path="url(#8780c99801)"><path fill="#c1271f" d="M 57.585938 68.011719 C 57.585938 68.011719 57.027344 73.316406 56.140625 77.875 C 55.253906 82.4375 53.585938 89.820312 51.140625 93.9375 C 48.699219 98.054688 48.929688 97.664062 46.425781 98.40625 C 43.925781 99.148438 41.753906 99.230469 41.753906 99.230469 C 41.753906 99.230469 41.539062 100.539062 44.351562 100.625 C 47.167969 100.710938 49.414062 99.808594 50.4375 98.832031 C 51.464844 97.855469 53.585938 93.34375 53.585938 93.34375 C 53.585938 93.34375 54.738281 90.941406 55.3125 88.929688 C 55.890625 86.917969 57.882812 79.238281 57.882812 79.238281 L 59.28125 72.609375 C 59.28125 72.609375 59.96875 70.3125 59.535156 69.125 C 59.101562 67.9375 58.015625 67.789062 57.585938 68.011719 " fill-opacity="1" fill-rule="nonzero"/></g><path fill="#c1271f" d="M 64.101562 69.246094 C 64.101562 69.246094 63.953125 79.878906 62.027344 83.886719 C 60.101562 87.890625 55.214844 89.078125 55.214844 89.078125 L 54.789062 90.691406 C 54.789062 90.691406 58.6875 90.710938 60.910156 88.417969 C 63.132812 86.128906 64.101562 82.253906 64.414062 80.949219 C 64.726562 79.648438 65.535156 73.847656 65.535156 73.847656 L 65.617188 68.933594 L 64.101562 69.246094 " fill-opacity="1" fill-rule="nonzero"/><path fill="#c1271f" d="M 66.027344 63.558594 C 67.007812 62.863281 73.878906 77.210938 76.394531 81.214844 C 78.914062 85.21875 80.34375 88.484375 82.765625 89.375 C 85.183594 90.265625 89.726562 90.882812 89.886719 90.90625 C 90.046875 90.933594 90.230469 91.761719 88.539062 91.96875 C 86.851562 92.179688 83.132812 91.785156 81.171875 90.917969 C 79.210938 90.054688 77.269531 85.738281 77.269531 85.738281 L 72.707031 78.378906 L 67.953125 70.484375 L 65.699219 66.742188 C 65.699219 66.742188 65.121094 64.203125 66.027344 63.558594 " fill-opacity="1" fill-rule="nonzero"/><g clip-path="url(#44f53c157c)"><path fill="#c1271f" d="M 69.238281 62.585938 C 69.238281 62.585938 72.582031 62.707031 73.765625 64.191406 C 74.953125 65.675781 85.429688 76.394531 87.207031 78.136719 C 88.984375 79.878906 92.113281 81.332031 93.496094 81.609375 C 94.875 81.890625 97.96875 81.769531 98.070312 81.859375 C 98.167969 81.945312 98.5625 82.414062 98.007812 82.773438 C 97.453125 83.132812 94.699219 83.726562 92.019531 83.191406 C 89.34375 82.660156 85.835938 78.988281 85.835938 78.988281 L 80.34375 73.535156 L 73.351562 66.410156 C 73.351562 66.410156 72.511719 65.457031 71.316406 65.398438 C 70.125 65.339844 69.5 65.273438 69.5 65.273438 L 68.792969 64.136719 L 69.238281 62.585938 " fill-opacity="1" fill-rule="nonzero"/></g><path fill="#c1271f" d="M 60.25 43.433594 C 60.296875 43.332031 61.746094 49.144531 66.582031 52.136719 C 69.484375 53.933594 73.511719 53.992188 79.457031 53.175781 C 84.394531 52.234375 85.492188 50.652344 85.492188 50.652344 C 85.492188 50.652344 87.121094 49.6875 87.144531 49.738281 C 87.171875 49.789062 88.082031 51.953125 86.777344 53.621094 C 85.46875 55.289062 84.097656 55.859375 81.617188 56.539062 C 79.136719 57.21875 74.222656 57.402344 71.285156 56.882812 C 68.347656 56.367188 65.632812 54.988281 64.5625 54.164062 C 63.492188 53.339844 61.878906 51.890625 61.039062 49.746094 C 60.203125 47.605469 59.90625 44.207031 60.25 43.433594 " fill-opacity="1" fill-rule="nonzero"/><path fill="#c1271f" d="M 74.964844 50.800781 C 74.964844 50.800781 84.835938 51.445312 89.75 47.660156 C 88.984375 48.921875 85.824219 50.71875 83.75 51.261719 C 81.679688 51.808594 80.046875 52.039062 77.992188 52.085938 C 75.933594 52.136719 74.421875 51.527344 74.421875 51.527344 C 74.421875 51.527344 74.320312 50.902344 74.964844 50.800781 " fill-opacity="1" fill-rule="nonzero"/><path fill="#ff6d66" d="M 46.820312 64.597656 C 46.820312 64.597656 43.613281 59.652344 33.6875 59.949219 C 23.765625 60.246094 16.753906 65.488281 12.953125 70.78125 C 13.445312 69.792969 15.914062 65.21875 19.667969 62.421875 C 22.507812 60.371094 27.691406 57.921875 33.417969 57.726562 C 39.144531 57.527344 43.339844 60.023438 43.339844 60.023438 L 47.042969 63.089844 L 46.820312 64.597656 " fill-opacity="1" fill-rule="nonzero"/><path fill="#ff6d66" d="M 46.996094 66.15625 C 46.996094 66.15625 49.980469 55.003906 63.3125 53.078125 C 61.832031 51.9375 62.226562 51.644531 62.226562 51.644531 C 62.226562 51.644531 57.898438 51.90625 54.492188 53.785156 C 51.085938 55.664062 49.472656 57.921875 48.945312 58.597656 C 48.417969 59.273438 46.921875 62.851562 46.886719 64.449219 C 46.855469 66.050781 46.996094 66.15625 46.996094 66.15625 " fill-opacity="1" fill-rule="nonzero"/><path fill="#ff6d66" d="M 68.726562 33.398438 C 68.5 33.0625 68.289062 32.683594 68.21875 32.28125 C 68.210938 32.226562 68.203125 32.175781 68.199219 32.125 C 65.769531 33.308594 64.484375 34.761719 64.449219 34.761719 C 64.398438 34.761719 62.570312 37.152344 62.570312 37.152344 C 62.570312 37.152344 65.078125 35.0625 68.820312 33.523438 C 68.789062 33.484375 68.757812 33.441406 68.726562 33.398438 " fill-opacity="1" fill-rule="nonzero"/><path fill="#ff6d66" d="M 85.695312 33.890625 C 85.695312 33.890625 82.832031 31.433594 79.570312 30.757812 C 76.3125 30.082031 74.585938 30.066406 70.601562 31.203125 C 70.421875 31.253906 70.246094 31.308594 70.074219 31.363281 C 70.125 31.460938 70.171875 31.554688 70.222656 31.648438 C 70.335938 31.863281 70.425781 32.089844 70.511719 32.316406 C 70.574219 32.492188 70.628906 32.667969 70.683594 32.84375 C 74.949219 31.492188 80.339844 31.183594 85.429688 34.878906 C 86.320312 36.066406 85.695312 33.890625 85.695312 33.890625 " fill-opacity="1" fill-rule="nonzero"/><path fill="#c1271f" d="M 80.59375 30.871094 C 80.59375 30.871094 81.542969 27.140625 84.617188 24.210938 C 87.6875 21.277344 90.546875 20.355469 90.613281 20.355469 C 90.679688 20.355469 91.484375 21.378906 90.582031 22.121094 C 89.675781 22.863281 86.714844 24.617188 86.714844 24.617188 C 86.714844 24.617188 84.171875 26.261719 82.972656 28.03125 C 81.777344 29.796875 81.515625 31.230469 81.515625 31.230469 L 80.59375 30.871094 " fill-opacity="1" fill-rule="nonzero"/><path fill="#c1271f" d="M 76.023438 18.1875 C 75.949219 18.214844 71.679688 21.277344 70.050781 24.59375 C 68.421875 27.90625 69.582031 32.578125 69.953125 33.171875 C 70.324219 33.765625 70.890625 33.542969 70.890625 33.542969 C 70.890625 33.542969 69.632812 31.09375 70.25 27.957031 C 70.867188 24.816406 74.46875 21.675781 74.46875 21.675781 C 74.46875 21.675781 76.039062 20.636719 76.320312 19.5 C 76.605469 18.363281 76.023438 18.1875 76.023438 18.1875 " fill-opacity="1" fill-rule="nonzero"/><path fill="#ff6d66" d="M 81.496094 26.6875 C 81.496094 26.6875 86.632812 20.71875 90.21875 20.074219 C 89.167969 19.714844 87.601562 20.257812 86.335938 21.097656 C 85.066406 21.9375 82.945312 23.71875 82.171875 25.054688 C 81.398438 26.390625 81.496094 26.6875 81.496094 26.6875 " fill-opacity="1" fill-rule="nonzero"/><g clip-path="url(#5a0689d19b)"><path fill="#ff6d66" d="M 75.730469 17.890625 C 75.730469 17.890625 70.570312 20.503906 69.121094 22.960938 C 67.671875 25.417969 67.523438 25.929688 67.507812 25.878906 C 67.492188 25.828125 68.085938 23.257812 70.007812 21.015625 C 71.933594 18.773438 74.089844 17.222656 75.730469 17.890625 " fill-opacity="1" fill-rule="nonzero"/></g><path fill="#b32921" d="M 41.035156 59.035156 C 41.035156 59.035156 39.859375 61.84375 39.453125 63.632812 C 39.046875 65.425781 38.726562 67.320312 38.699219 68.394531 C 38.675781 69.46875 38.578125 71.894531 38.949219 73.710938 C 39.316406 75.527344 39.972656 77.234375 39.972656 77.234375 L 40.652344 78.605469 C 40.652344 78.605469 39.15625 82.402344 38.652344 83.339844 C 38.144531 84.28125 37.242188 86.011719 37.242188 86.011719 L 33.195312 86.753906 C 33.195312 86.753906 31.851562 85.121094 30.664062 82.820312 C 29.480469 80.523438 28.445312 77 28.445312 77 C 28.445312 77 27.828125 74.058594 27.753906 72.585938 C 27.679688 71.113281 27.703125 68.355469 27.988281 66.675781 C 28.269531 64.996094 28.777344 62.65625 29.492188 60.765625 C 30.207031 58.875 30.566406 58.109375 30.566406 58.109375 C 30.566406 58.109375 33.21875 57.492188 36.109375 57.921875 C 38.996094 58.355469 41.035156 59.035156 41.035156 59.035156 " fill-opacity="1" fill-rule="nonzero"/><g clip-path="url(#0746000cc1)"><path fill="#b32921" d="M 19.234375 62.878906 C 19.234375 62.878906 18.496094 65.527344 18.125 67.914062 C 17.753906 70.296875 17.78125 73.167969 17.878906 74.316406 C 17.976562 75.464844 18.53125 78.210938 19.039062 79.804688 C 19.542969 81.398438 20.839844 83.675781 21.148438 84.230469 C 21.457031 84.789062 23.257812 87.050781 23.257812 87.050781 C 23.257812 87.050781 18.839844 86.679688 16.210938 85.023438 C 13.582031 83.367188 12.558594 82.746094 11.878906 80.347656 C 11.199219 77.949219 11.375 75.6875 11.644531 74.378906 C 11.917969 73.066406 13.261719 70.199219 14.089844 68.503906 C 14.914062 66.8125 18.914062 62.980469 19.234375 62.878906 " fill-opacity="1" fill-rule="nonzero"/></g><g clip-path="url(#1c735eae08)"><path fill="#9e1b18" d="M 11.878906 80.347656 C 11.839844 80.175781 14.285156 81.808594 19.691406 81.5625 C 20.335938 82.625 20.890625 83.738281 20.890625 83.738281 C 20.890625 83.738281 22.753906 86.703125 23.257812 87.050781 C 22.542969 87.097656 19.582031 86.542969 17.78125 85.851562 C 15.976562 85.160156 14.050781 83.898438 13.347656 82.984375 C 12.644531 82.066406 11.992188 80.820312 11.878906 80.347656 " fill-opacity="1" fill-rule="nonzero"/></g><path fill="#9e1b18" d="M 29.492188 80.257812 C 29.492188 80.257812 35.613281 78.371094 39.441406 75.921875 C 40.082031 77.554688 40.652344 78.605469 40.652344 78.605469 C 40.652344 78.605469 39.085938 82.863281 38.675781 83.636719 C 38.265625 84.414062 37.410156 85.914062 37.410156 85.914062 L 33.195312 86.753906 L 31.492188 84.367188 L 29.988281 81.460938 L 29.492188 80.257812 " fill-opacity="1" fill-rule="nonzero"/><path fill="#9e1b18" d="M 43.105469 83.007812 L 43.710938 83.847656 C 43.710938 83.847656 42.414062 84.554688 42.402344 84.402344 C 42.390625 84.257812 43.105469 83.007812 43.105469 83.007812 " fill-opacity="1" fill-rule="nonzero"/><path fill="#ff6d66" d="M 53.214844 68.949219 C 53.214844 68.949219 48.15625 70.089844 46.945312 70.507812 C 45.734375 70.929688 44.402344 71.300781 43.734375 73.328125 C 43.070312 75.355469 40.996094 80.175781 39.984375 82.328125 C 38.972656 84.476562 36.058594 87.914062 36.15625 87.867188 C 36.257812 87.816406 38.550781 83.910156 39.269531 82.128906 C 39.984375 80.347656 42.355469 74.242188 42.355469 74.242188 C 42.355469 74.242188 43.191406 70.867188 45.859375 69.851562 C 48.523438 68.839844 51.535156 68.296875 51.535156 68.296875 C 51.535156 68.296875 52.785156 68.394531 53.214844 68.949219 " fill-opacity="1" fill-rule="nonzero"/><path fill="#ff6d66" d="M 69.828125 61.855469 C 69.828125 61.855469 73.011719 62.398438 74.050781 63.238281 C 75.085938 64.078125 80.960938 69.550781 80.839844 69.5625 C 80.714844 69.570312 75.65625 64.03125 75.65625 64.03125 C 75.65625 64.03125 74 62.191406 73.160156 62.011719 C 72.320312 61.828125 69.96875 61.1875 69.96875 61.1875 L 69.828125 61.855469 " fill-opacity="1" fill-rule="nonzero"/><path fill="#ffffff" d="M 67.3125 43.804688 C 67.3125 43.804688 66.949219 40.300781 69.269531 38.109375 C 71.589844 35.917969 74.273438 36.34375 75.605469 36.957031 C 76.9375 37.566406 78.207031 39.015625 78.46875 41.457031 C 78.730469 43.894531 78.320312 47.078125 74.585938 47.769531 C 70.847656 48.460938 68.757812 46.085938 68.347656 45.789062 C 67.9375 45.496094 67.3125 43.804688 67.3125 43.804688 " fill-opacity="1" fill-rule="nonzero"/><path fill="#ffffff" d="M 81.925781 38.898438 C 81.925781 38.898438 81.546875 34.613281 85.414062 34.167969 C 88.164062 33.808594 90.664062 38.257812 90.664062 38.257812 C 90.664062 38.257812 91.980469 41.40625 90.53125 43.351562 C 89.082031 45.296875 86.320312 45.066406 84.292969 43.613281 C 82.269531 42.164062 81.777344 39.542969 81.925781 38.898438 " fill-opacity="1" fill-rule="nonzero"/><path fill="#ff71a4" d="M 75.488281 51.742188 C 75.488281 51.742188 78.46875 52.175781 80.035156 51.925781 C 81.605469 51.679688 82.269531 51.765625 82.320312 51.730469 C 82.371094 51.691406 83.960938 53.078125 84.035156 53.570312 C 84.109375 54.066406 82.035156 54.746094 79.53125 54.363281 C 77.023438 53.980469 75.449219 52.113281 75.488281 51.742188 " fill-opacity="1" fill-rule="nonzero"/><path fill="#9b2f2f" d="M 82.195312 51.617188 C 82.195312 51.617188 84.035156 53.089844 84.207031 53.671875 C 85.121094 53.496094 85.554688 51.816406 85.566406 51.382812 C 85.578125 50.949219 85.527344 50.589844 85.527344 50.589844 L 82.195312 51.617188 " fill-opacity="1" fill-rule="nonzero"/><path fill="#000000" d="M 67.730469 41.027344 C 68.503906 38.804688 70.570312 36.574219 73.378906 36.574219 C 73.59375 36.574219 73.8125 36.589844 74.035156 36.617188 C 76.902344 36.964844 78.273438 39.617188 78.355469 42.09375 C 78.445312 44.707031 77.351562 46.6875 75.429688 47.386719 C 73.804688 47.976562 71.742188 47.785156 70.042969 46.882812 C 67.84375 45.71875 66.914062 43.363281 67.730469 41.027344 Z M 69.867188 47.214844 C 70.964844 47.796875 72.210938 48.097656 73.410156 48.097656 C 74.160156 48.097656 74.894531 47.980469 75.554688 47.738281 C 78.007812 46.847656 78.804688 44.230469 78.730469 42.082031 C 78.640625 39.445312 77.167969 36.617188 74.082031 36.242188 C 70.730469 35.835938 68.257812 38.375 67.375 40.902344 C 66.496094 43.421875 67.496094 45.960938 69.867188 47.214844 " fill-opacity="1" fill-rule="nonzero"/><g clip-path="url(#a201300dbd)"><path fill="#000000" d="M 97.933594 82.617188 C 96.992188 83.378906 93.597656 83.433594 91.753906 82.914062 C 89.832031 82.375 88.542969 81.179688 87.175781 79.910156 C 86.796875 79.558594 86.402344 79.195312 85.988281 78.839844 C 83.882812 77.019531 81.941406 74.917969 80.0625 72.882812 C 77.679688 70.304688 75.214844 67.636719 72.378906 65.507812 C 72.019531 65.238281 70.179688 65.109375 69.625 65.078125 C 69.601562 65.078125 69.582031 65.082031 69.5625 65.085938 C 69.453125 64.886719 69.34375 64.691406 69.238281 64.492188 C 69.632812 63.472656 69.910156 62.417969 70.054688 61.398438 C 70.070312 61.40625 70.082031 61.414062 70.097656 61.417969 C 70.132812 61.421875 73.261719 62.066406 74.171875 62.859375 C 74.984375 63.566406 77.074219 65.816406 79.285156 68.195312 C 81.695312 70.789062 84.425781 73.726562 85.96875 75.164062 C 89.03125 78.015625 91.484375 79.597656 92.453125 80.082031 C 92.796875 80.253906 93.496094 80.40625 94.304688 80.585938 C 95.816406 80.917969 98.097656 81.417969 98.148438 82.210938 C 98.15625 82.359375 98.085938 82.492188 97.933594 82.617188 Z M 70.171875 66.984375 C 73.414062 72.917969 76.769531 79.054688 80.605469 84.789062 C 81.5 86.125 82.414062 87.390625 83.738281 88.21875 C 84.632812 88.773438 85.640625 89.085938 86.617188 89.386719 C 86.753906 89.425781 86.890625 89.46875 87.023438 89.511719 C 87.53125 89.671875 88.121094 89.859375 88.667969 90.109375 L 88.804688 90.171875 C 89.507812 90.484375 89.902344 90.695312 89.761719 91.355469 C 89.644531 91.910156 88.210938 91.910156 87.601562 91.910156 C 87.511719 91.910156 87.429688 91.910156 87.363281 91.910156 C 86.355469 91.929688 85.253906 91.824219 83.902344 91.582031 C 82.730469 91.371094 81.523438 91.074219 80.613281 90.359375 C 79.871094 89.773438 79.375 88.957031 78.894531 88.164062 L 66.777344 68.117188 C 66.285156 67.304688 65.730469 66.386719 65.6875 65.398438 C 65.65625 64.726562 66.167969 63.710938 66.902344 63.351562 C 67.070312 63.269531 67.234375 63.230469 67.398438 63.230469 C 67.660156 63.230469 67.917969 63.332031 68.160156 63.542969 C 68.320312 63.679688 68.464844 63.867188 68.59375 64.09375 C 69.121094 65.058594 69.648438 66.023438 70.171875 66.984375 Z M 65.46875 69.183594 C 65.46875 69.1875 65.464844 69.191406 65.460938 69.195312 C 64.832031 69.808594 64.101562 70.410156 63.257812 71.007812 C 62.0625 71.859375 60.824219 72.734375 59.417969 73.003906 C 59.535156 72.378906 59.644531 71.753906 59.746094 71.125 C 59.84375 70.5 59.917969 69.691406 59.609375 68.988281 C 59.207031 68.070312 58.449219 67.585938 57.582031 67.695312 C 56.519531 67.824219 55.632812 68.792969 55.421875 70.042969 C 55.296875 70.789062 55.070312 72.011719 54.785156 73.488281 C 54.4375 73.539062 54.105469 73.554688 53.785156 73.550781 C 53.75 73.539062 53.710938 73.539062 53.679688 73.546875 C 52.5625 73.515625 51.644531 73.21875 51.15625 73.023438 C 51.457031 72.96875 51.648438 72.933594 51.65625 72.933594 C 51.742188 72.921875 53.78125 72.613281 54.050781 70.851562 C 54.203125 69.839844 53.777344 69.210938 53.390625 68.863281 C 52.757812 68.292969 51.746094 68.042969 50.933594 68.25 C 50.804688 68.269531 49.523438 68.480469 47.949219 68.957031 C 47.945312 68.941406 47.941406 68.925781 47.9375 68.914062 C 46.019531 65.160156 47.699219 60.652344 49.722656 57.929688 C 52.308594 54.449219 57.625 51.863281 62.078125 51.925781 C 62.097656 51.925781 62.113281 51.921875 62.128906 51.914062 C 63.601562 53.890625 65.832031 55.453125 68.644531 56.417969 C 68.828125 56.480469 69.011719 56.539062 69.199219 56.597656 C 69.398438 57.117188 69.558594 57.683594 69.671875 58.285156 C 69.984375 59.910156 69.730469 62.042969 69 64.058594 C 68.972656 64.011719 68.945312 63.960938 68.921875 63.914062 C 68.773438 63.644531 68.601562 63.425781 68.40625 63.257812 C 67.898438 62.824219 67.304688 62.738281 66.734375 63.015625 C 65.921875 63.414062 65.269531 64.511719 65.3125 65.414062 C 65.359375 66.449219 65.890625 67.375 66.386719 68.195312 C 66.105469 68.53125 65.804688 68.859375 65.46875 69.183594 Z M 64.285156 80.625 C 63.109375 85.816406 61.285156 88.683594 58.539062 89.65625 C 57.667969 89.964844 56.226562 90.355469 54.996094 90.464844 C 55.308594 89.554688 55.585938 88.628906 55.839844 87.699219 C 57.527344 86.835938 58.96875 86.035156 59.542969 84.953125 C 60.808594 82.570312 61.492188 80.527344 62.257812 72.148438 C 62.679688 71.878906 63.085938 71.589844 63.476562 71.3125 C 64.199219 70.800781 64.839844 70.285156 65.40625 69.761719 C 65.390625 71.261719 65.253906 76.34375 64.285156 80.625 Z M 59.804688 73.304688 C 60.527344 73.117188 61.210938 72.785156 61.859375 72.398438 C 61.828125 72.71875 61.796875 73.035156 61.769531 73.335938 C 61.730469 73.710938 61.769531 73.34375 61.730469 73.710938 C 61.03125 80.695312 60.371094 82.597656 59.210938 84.777344 C 58.691406 85.761719 57.242188 86.554688 55.972656 87.207031 C 56.109375 86.707031 56.238281 86.207031 56.371094 85.707031 C 56.480469 85.277344 56.59375 84.851562 56.707031 84.425781 C 57.675781 80.796875 58.601562 77.230469 59.292969 73.648438 C 59.355469 73.355469 59.351562 73.429688 59.804688 73.304688 Z M 53.230469 93.628906 C 52.871094 94.292969 52.578125 94.910156 52.296875 95.507812 C 51.277344 97.660156 50.542969 99.210938 48 99.964844 C 45.261719 100.773438 42.851562 100.523438 42.105469 99.8125 C 41.9375 99.652344 41.878906 99.488281 41.917969 99.308594 C 42.242188 97.945312 44.085938 97.515625 45.566406 97.171875 C 46.199219 97.023438 46.746094 96.898438 47.109375 96.714844 C 48.382812 96.074219 50.960938 91.480469 52.253906 86.734375 C 53.15625 83.402344 54.347656 77.699219 55.121094 73.730469 C 55.128906 73.703125 55.136719 73.675781 55.136719 73.648438 C 55.429688 72.128906 55.664062 70.867188 55.789062 70.105469 C 56.003906 68.835938 56.894531 68.160156 57.628906 68.066406 C 57.691406 68.058594 57.757812 68.054688 57.820312 68.054688 C 58.441406 68.054688 58.960938 68.441406 59.265625 69.140625 C 59.535156 69.75 59.472656 70.457031 59.375 71.066406 C 58.667969 75.480469 57.539062 79.859375 56.34375 84.332031 C 56.230469 84.753906 56.117188 85.179688 56.007812 85.613281 C 55.289062 88.355469 54.550781 91.1875 53.230469 93.628906 Z M 48.402344 83.410156 C 45.480469 87.859375 42.753906 89.902344 39.851562 89.84375 C 39.542969 89.839844 39.199219 89.820312 38.84375 89.789062 C 39.636719 88.742188 40.4375 87.628906 41.230469 86.425781 C 41.25 86.429688 41.265625 86.429688 41.28125 86.429688 C 41.304688 86.429688 41.328125 86.425781 41.347656 86.417969 C 41.804688 86.246094 42.164062 86.042969 42.445312 85.796875 C 42.914062 85.378906 43.730469 84.546875 44.390625 83.75 C 44.425781 83.734375 44.460938 83.71875 44.496094 83.699219 C 47.300781 82.25 49.535156 79.007812 50.183594 75.4375 C 50.359375 74.46875 50.390625 74.089844 50.335938 73.171875 C 50.402344 73.160156 50.46875 73.148438 50.535156 73.136719 C 50.550781 73.15625 50.570312 73.171875 50.59375 73.183594 C 50.65625 73.21875 51.816406 73.820312 53.441406 73.917969 C 52.945312 75.046875 50.890625 79.621094 48.402344 83.410156 Z M 43.277344 83.042969 C 43.945312 81.835938 44.597656 80.539062 45.222656 79.136719 C 45.679688 78.105469 45.996094 77.078125 46.273438 76.171875 C 46.652344 74.933594 46.980469 73.859375 47.4375 73.742188 C 47.785156 73.652344 48.945312 73.429688 49.964844 73.242188 C 50.011719 74.097656 49.984375 74.445312 49.816406 75.371094 C 49.1875 78.832031 47.03125 81.96875 44.324219 83.367188 C 44.125 83.46875 43.921875 83.566406 43.714844 83.667969 C 43.566406 83.457031 43.417969 83.25 43.277344 83.042969 Z M 43.535156 84.164062 C 43.035156 84.714844 42.527344 85.222656 42.195312 85.511719 C 42.023438 85.664062 41.8125 85.800781 41.558594 85.921875 C 41.820312 85.511719 42.082031 85.097656 42.339844 84.667969 C 42.75 84.507812 43.148438 84.339844 43.535156 84.164062 Z M 42.65625 84.136719 C 42.832031 83.839844 43.003906 83.535156 43.175781 83.226562 C 43.292969 83.398438 43.417969 83.574219 43.539062 83.746094 C 43.253906 83.878906 42.957031 84.011719 42.65625 84.136719 Z M 36.058594 92.738281 C 34.488281 94.703125 31 97.578125 28.160156 97.8125 C 25.914062 98 23.957031 97.675781 23.402344 97.019531 C 23.257812 96.847656 23.210938 96.660156 23.265625 96.449219 C 23.570312 95.25 25.242188 95.050781 27.007812 94.839844 C 27.191406 94.816406 27.363281 94.800781 27.523438 94.785156 C 29.050781 94.640625 29.972656 94.554688 34.09375 90.535156 C 35.414062 89.25 36.539062 87.699219 37.503906 86.066406 C 37.507812 86.0625 37.511719 86.054688 37.515625 86.046875 C 39.4375 82.792969 40.722656 79.210938 41.605469 76.738281 C 41.988281 75.667969 42.292969 74.824219 42.546875 74.265625 C 42.675781 73.988281 42.789062 73.734375 42.898438 73.492188 C 43.777344 71.527344 44.074219 70.863281 46.160156 69.992188 C 48.519531 69.003906 50.972656 68.625 50.996094 68.621094 C 51.003906 68.621094 51.011719 68.621094 51.015625 68.617188 C 51.167969 68.578125 51.34375 68.558594 51.527344 68.558594 C 52.0625 68.558594 52.6875 68.734375 53.136719 69.140625 C 53.59375 69.554688 53.78125 70.125 53.679688 70.792969 C 53.453125 72.277344 51.621094 72.558594 51.597656 72.5625 C 51.449219 72.585938 48.007812 73.207031 47.34375 73.378906 C 46.683594 73.550781 46.359375 74.605469 45.914062 76.0625 C 45.640625 76.957031 45.328125 77.972656 44.878906 78.984375 C 42.164062 85.097656 38.917969 89.15625 36.058594 92.738281 Z M 33.175781 86.574219 C 27.859375 79.542969 27.40625 72.296875 27.972656 67.441406 C 28.585938 62.140625 30.503906 58.46875 30.523438 58.433594 C 30.550781 58.386719 30.53125 58.332031 30.484375 58.308594 C 30.441406 58.28125 30.382812 58.300781 30.359375 58.347656 C 30.339844 58.382812 28.40625 62.082031 27.785156 67.410156 C 27.21875 72.285156 27.667969 79.546875 32.964844 86.605469 C 29.457031 87.125 26.214844 87.210938 23.273438 86.859375 C 18.53125 81.429688 17.742188 75.1875 17.917969 70.898438 C 18.085938 66.835938 19.125 63.71875 19.40625 62.945312 C 19.902344 62.558594 20.40625 62.199219 20.925781 61.871094 C 26.589844 58.265625 34.464844 56.707031 40.863281 59.167969 C 40.214844 60.628906 36.21875 70.378906 40.535156 78.59375 C 39.71875 80.773438 38.652344 83.375 37.230469 85.792969 C 35.839844 86.117188 34.492188 86.375 33.175781 86.574219 Z M 19.375 86.09375 C 17.589844 85.585938 13.320312 84.050781 12.203125 80.683594 C 11.660156 79.054688 11.527344 77.351562 11.71875 75.65625 C 11.726562 75.636719 11.726562 75.613281 11.726562 75.59375 C 12.28125 70.894531 15.320312 66.234375 19.128906 63.164062 C 18.757812 64.261719 17.882812 67.1875 17.730469 70.886719 C 17.550781 75.167969 18.332031 81.378906 22.992188 86.824219 C 21.730469 86.660156 20.523438 86.417969 19.375 86.09375 Z M 46.90625 63.339844 C 46.550781 65.234375 46.664062 67.234375 47.59375 69.066406 C 47.082031 69.230469 46.546875 69.421875 46.015625 69.644531 C 43.792969 70.574219 43.453125 71.328125 42.554688 73.339844 C 42.449219 73.578125 42.332031 73.832031 42.207031 74.109375 C 41.941406 74.683594 41.640625 75.535156 41.253906 76.609375 C 41.0625 77.144531 40.851562 77.730469 40.621094 78.355469 C 36.464844 70.230469 40.417969 60.636719 41.039062 59.234375 C 43.222656 60.105469 45.226562 61.445312 46.90625 63.339844 Z M 83.976562 53.625 C 83.335938 54.039062 82.480469 54.292969 81.417969 54.378906 C 78.347656 54.628906 76.40625 52.71875 75.726562 51.90625 C 76.550781 52.027344 77.667969 52.140625 78.917969 52.140625 C 79.925781 52.140625 81.019531 52.0625 82.121094 51.859375 C 82.359375 51.988281 83.484375 52.632812 83.976562 53.625 Z M 82.667969 51.746094 C 83.277344 51.605469 83.886719 51.421875 84.476562 51.1875 C 84.765625 51.070312 85.054688 50.949219 85.339844 50.828125 C 85.371094 51.242188 85.351562 52.121094 84.765625 52.898438 C 84.628906 53.082031 84.46875 53.25 84.285156 53.402344 C 83.875 52.613281 83.136719 52.046875 82.667969 51.746094 Z M 61.113281 49.289062 C 59.976562 46.21875 60.1875 42.460938 61.695312 38.976562 C 62.882812 36.234375 65.066406 33.976562 68.011719 32.4375 C 68.441406 33.546875 68.871094 34.222656 68.882812 34.238281 C 68.917969 34.296875 68.980469 34.324219 69.039062 34.324219 C 69.074219 34.324219 69.109375 34.316406 69.140625 34.292969 C 69.230469 34.238281 69.253906 34.121094 69.199219 34.035156 C 69.171875 33.996094 66.605469 29.964844 67.851562 25.300781 C 68.722656 22.042969 71.429688 19.296875 73.652344 18.265625 C 74.457031 17.890625 75.148438 17.78125 75.542969 17.96875 C 75.992188 18.179688 76.242188 18.464844 76.285156 18.808594 C 76.375 19.511719 75.640625 20.410156 74.980469 20.964844 C 72.109375 23.386719 69.183594 27.003906 70.050781 31.25 C 70.046875 31.277344 70.046875 31.304688 70.058594 31.332031 C 70.0625 31.34375 70.066406 31.351562 70.074219 31.363281 C 70.226562 32.066406 70.484375 32.785156 70.863281 33.519531 C 70.910156 33.613281 71.023438 33.648438 71.117188 33.601562 C 71.207031 33.550781 71.246094 33.4375 71.195312 33.347656 C 70.851562 32.683594 70.617188 32.03125 70.46875 31.390625 C 71.941406 30.894531 73.472656 30.582031 75.03125 30.472656 C 78.714844 30.210938 82.496094 31.484375 85.488281 33.96875 C 84.886719 33.957031 84.257812 34.101562 83.636719 34.5 C 81.804688 35.675781 81.503906 38.09375 81.832031 39.964844 C 82.253906 42.375 84.578125 44.929688 87.382812 44.929688 C 87.40625 44.929688 87.429688 44.929688 87.457031 44.929688 C 88.960938 44.90625 90.128906 44.300781 90.808594 43.210938 C 91.277344 47.222656 88.777344 49.058594 84.335938 50.835938 C 80.34375 52.4375 75.539062 51.53125 74.550781 51.316406 C 74.664062 51.042969 74.867188 50.929688 74.882812 50.921875 C 74.976562 50.875 75.011719 50.761719 74.964844 50.671875 C 74.921875 50.578125 74.808594 50.539062 74.714844 50.585938 C 74.414062 50.738281 73.917969 51.265625 74.179688 52.191406 C 74.203125 52.273438 74.28125 52.328125 74.363281 52.328125 C 74.378906 52.328125 74.394531 52.328125 74.414062 52.320312 C 74.511719 52.292969 74.570312 52.1875 74.542969 52.089844 C 74.5 51.9375 74.480469 51.804688 74.484375 51.6875 C 74.636719 51.71875 74.878906 51.769531 75.1875 51.820312 C 75.5 52.261719 77.453125 54.777344 80.871094 54.777344 C 81.058594 54.777344 81.253906 54.769531 81.449219 54.753906 C 83.144531 54.613281 84.363281 54.066406 85.066406 53.125 C 85.796875 52.15625 85.75 51.066406 85.703125 50.671875 C 86.1875 50.460938 86.660156 50.234375 87.113281 49.992188 C 87.523438 51.667969 87.1875 53.074219 86.109375 54.179688 C 82.769531 57.589844 73.285156 57.300781 69.972656 56.425781 C 69.566406 56.320312 69.160156 56.195312 68.765625 56.0625 C 64.96875 54.757812 62.25 52.351562 61.113281 49.289062 Z M 85.363281 22.058594 C 88.363281 19.742188 89.796875 20.039062 90.277344 20.273438 C 90.707031 20.488281 90.863281 20.859375 90.863281 21.140625 C 90.863281 21.8125 89.785156 22.59375 88.046875 23.632812 C 87.863281 23.746094 87.667969 23.859375 87.460938 23.976562 C 85.503906 25.109375 82.5625 26.816406 81.390625 31.113281 C 80.980469 30.949219 80.566406 30.804688 80.148438 30.679688 C 80.273438 29.816406 81.105469 25.351562 85.363281 22.058594 Z M 89.175781 36.390625 C 90.859375 38.210938 91.503906 40.738281 90.738281 42.535156 C 90.195312 43.8125 89.027344 44.527344 87.449219 44.550781 C 84.804688 44.597656 82.601562 42.179688 82.199219 39.898438 C 81.894531 38.148438 82.164062 35.894531 83.839844 34.816406 C 84.363281 34.484375 84.890625 34.347656 85.40625 34.347656 C 87.113281 34.347656 88.652344 35.828125 89.175781 36.390625 Z M 98.523438 82.1875 C 98.457031 81.109375 96.292969 80.636719 94.386719 80.21875 C 93.632812 80.054688 92.921875 79.898438 92.621094 79.746094 C 91.777344 79.324219 89.484375 77.859375 86.640625 75.269531 C 86.175781 74.84375 86.640625 75.269531 86.175781 74.84375 C 84.636719 73.402344 81.941406 70.503906 79.558594 67.9375 C 77.34375 65.550781 75.246094 63.296875 74.417969 62.574219 C 73.433594 61.71875 70.308594 61.074219 70.175781 61.046875 C 70.148438 61.042969 70.125 61.042969 70.101562 61.046875 C 70.21875 60.027344 70.203125 59.058594 70.039062 58.214844 C 69.941406 57.691406 69.804688 57.191406 69.644531 56.726562 C 69.722656 56.746094 69.800781 56.769531 69.875 56.789062 C 71.082031 57.109375 73.285156 57.378906 75.75 57.378906 C 79.636719 57.378906 84.164062 56.699219 86.375 54.441406 C 87.574219 53.21875 87.933594 51.65625 87.453125 49.808594 C 89.90625 48.414062 91.675781 46.4375 91.140625 42.859375 C 91.132812 42.804688 91.101562 42.761719 91.058594 42.734375 C 91.066406 42.714844 91.074219 42.699219 91.082031 42.683594 C 91.917969 40.722656 91.261719 38.089844 89.449219 36.136719 C 88.96875 35.617188 87.6875 34.382812 86.15625 34.050781 C 86.152344 34.046875 86.148438 34.039062 86.144531 34.035156 C 85.226562 33.21875 84.222656 32.519531 83.171875 31.945312 C 82.867188 31.78125 83.171875 31.945312 82.867188 31.78125 C 82.496094 31.589844 82.121094 31.414062 81.742188 31.253906 C 82.863281 27.078125 85.625 25.476562 87.652344 24.304688 C 87.859375 24.183594 88.054688 24.070312 88.242188 23.957031 C 90.183594 22.792969 91.238281 21.996094 91.238281 21.140625 C 91.238281 20.640625 90.933594 20.179688 90.441406 19.9375 C 89.769531 19.605469 88.183594 19.402344 85.132812 21.761719 C 80.84375 25.078125 79.9375 29.566406 79.785156 30.582031 C 78.21875 30.15625 76.605469 29.984375 75.003906 30.097656 C 73.429688 30.210938 71.878906 30.519531 70.390625 31.023438 C 69.667969 27.011719 72.472656 23.570312 75.222656 21.253906 C 75.59375 20.9375 76.796875 19.832031 76.65625 18.761719 C 76.59375 18.28125 76.273438 17.898438 75.703125 17.628906 C 75.191406 17.386719 74.429688 17.488281 73.492188 17.921875 C 71.191406 18.992188 68.390625 21.835938 67.492188 25.203125 C 66.769531 27.90625 67.28125 30.402344 67.882812 32.082031 C 67.625 32.214844 67.375 32.355469 67.132812 32.496094 C 66.796875 32.695312 67.132812 32.496094 66.796875 32.695312 C 64.300781 34.242188 62.429688 36.335938 61.351562 38.824219 C 59.78125 42.449219 59.574219 46.214844 60.761719 49.421875 C 61.042969 50.171875 61.414062 50.882812 61.867188 51.550781 C 57.351562 51.578125 52.03125 54.191406 49.417969 57.707031 C 48.394531 59.089844 47.453125 60.917969 47.003906 62.886719 C 43.882812 59.484375 39.539062 57.652344 34.414062 57.578125 C 29.78125 57.511719 24.792969 58.960938 20.722656 61.554688 C 17.667969 63.496094 14.925781 66.519531 13.191406 69.851562 C 12.414062 71.347656 11.648438 73.277344 11.367188 75.429688 C 11.324219 75.8125 11.367188 75.429688 11.324219 75.8125 C 11.160156 77.394531 11.273438 79.085938 11.847656 80.804688 C 13.023438 84.339844 17.429688 85.933594 19.273438 86.453125 C 21.617188 87.117188 24.191406 87.449219 26.980469 87.449219 C 30.054688 87.449219 33.390625 87.042969 36.964844 86.238281 C 36.0625 87.710938 35.027344 89.101562 33.832031 90.265625 C 29.804688 94.191406 28.933594 94.273438 27.488281 94.410156 C 27.324219 94.425781 27.152344 94.445312 26.964844 94.464844 C 25.0625 94.695312 23.269531 94.910156 22.902344 96.355469 C 22.820312 96.683594 22.890625 97 23.113281 97.261719 C 23.730469 97.992188 25.363281 98.242188 26.929688 98.242188 C 27.363281 98.242188 27.792969 98.222656 28.191406 98.1875 C 31.308594 97.929688 34.847656 94.851562 36.351562 92.972656 C 37.074219 92.066406 37.824219 91.128906 38.582031 90.136719 C 38.59375 90.140625 38.605469 90.144531 38.617188 90.148438 C 39.046875 90.1875 39.472656 90.214844 39.84375 90.222656 C 39.886719 90.222656 39.929688 90.222656 39.972656 90.222656 C 42.976562 90.222656 45.757812 88.121094 48.714844 83.617188 C 51.339844 79.621094 53.480469 74.769531 53.84375 73.929688 C 53.851562 73.929688 53.855469 73.929688 53.863281 73.929688 C 54.132812 73.929688 54.417969 73.914062 54.707031 73.878906 C 53.9375 77.828125 52.777344 83.375 51.890625 86.632812 C 50.566406 91.511719 48.015625 95.839844 46.941406 96.378906 C 46.617188 96.539062 46.089844 96.664062 45.480469 96.804688 C 43.898438 97.171875 41.929688 97.628906 41.554688 99.222656 C 41.480469 99.535156 41.582031 99.832031 41.847656 100.085938 C 42.324219 100.539062 43.367188 100.84375 44.746094 100.84375 C 45.722656 100.84375 46.871094 100.691406 48.105469 100.324219 C 50.8125 99.527344 51.617188 97.824219 52.632812 95.671875 C 52.914062 95.078125 53.207031 94.464844 53.558594 93.808594 C 54.074219 92.859375 54.5 91.859375 54.871094 90.828125 C 54.894531 90.839844 54.921875 90.847656 54.949219 90.847656 C 54.953125 90.847656 54.957031 90.847656 54.964844 90.84375 C 56.246094 90.742188 57.757812 90.332031 58.664062 90.011719 C 61.542969 88.992188 63.445312 86.035156 64.652344 80.707031 C 65.171875 78.410156 65.453125 75.882812 65.605469 73.792969 C 65.632812 73.417969 65.605469 73.792969 65.632812 73.417969 C 65.773438 71.34375 65.785156 69.765625 65.785156 69.398438 C 66.074219 69.117188 66.34375 68.828125 66.589844 68.535156 L 69.628906 73.558594 C 69.863281 73.945312 69.617188 73.5625 69.863281 73.945312 L 78.574219 88.355469 C 79.046875 89.140625 79.585938 90.027344 80.378906 90.652344 C 81.355469 91.421875 82.617188 91.730469 83.835938 91.949219 C 85.109375 92.179688 86.164062 92.289062 87.128906 92.289062 C 87.210938 92.289062 87.289062 92.289062 87.367188 92.289062 C 87.433594 92.285156 87.511719 92.285156 87.601562 92.285156 C 88.421875 92.285156 89.945312 92.285156 90.128906 91.433594 C 90.339844 90.445312 89.605469 90.117188 88.957031 89.828125 L 88.820312 89.765625 C 88.253906 89.507812 87.652344 89.316406 87.136719 89.152344 C 87 89.109375 86.863281 89.066406 86.726562 89.027344 C 85.773438 88.730469 84.789062 88.429688 83.9375 87.898438 C 82.675781 87.113281 81.789062 85.878906 80.917969 84.578125 C 78.679688 81.234375 76.605469 77.75 74.621094 74.246094 C 74.398438 73.855469 74.621094 74.246094 74.398438 73.855469 C 73.066406 71.5 71.777344 69.136719 70.503906 66.804688 C 70.257812 66.359375 70.011719 65.910156 69.769531 65.464844 C 70.816406 65.53125 71.980469 65.675781 72.152344 65.808594 C 74.960938 67.917969 77.414062 70.574219 79.789062 73.140625 C 80.144531 73.527344 80.503906 73.914062 80.867188 74.304688 C 81.191406 74.652344 80.867188 74.304688 81.191406 74.652344 C 82.640625 76.199219 84.140625 77.738281 85.742188 79.125 C 86.152344 79.476562 86.542969 79.835938 86.917969 80.1875 C 88.320312 81.488281 89.644531 82.714844 91.652344 83.277344 C 92.429688 83.496094 93.566406 83.625 94.691406 83.625 C 96.128906 83.625 97.542969 83.414062 98.167969 82.90625 C 98.480469 82.652344 98.535156 82.375 98.523438 82.1875 " fill-opacity="1" fill-rule="nonzero"/></g><path fill="#000000" d="M 73.539062 40.03125 C 74.023438 40.03125 74.410156 40.421875 74.410156 40.902344 C 74.410156 41.386719 74.023438 41.777344 73.539062 41.777344 C 73.058594 41.777344 72.667969 41.386719 72.667969 40.902344 C 72.667969 40.421875 73.058594 40.03125 73.539062 40.03125 Z M 74.148438 45.203125 C 76.050781 45.203125 77.589844 43.660156 77.589844 41.757812 C 77.589844 39.851562 76.050781 38.308594 74.148438 38.308594 C 72.25 38.308594 70.710938 39.851562 70.710938 41.757812 C 70.710938 43.660156 72.25 45.203125 74.148438 45.203125 " fill-opacity="1" fill-rule="nonzero"/><path fill="#000000" d="M 86.546875 37.472656 C 86.976562 37.472656 87.324219 37.824219 87.324219 38.253906 C 87.324219 38.683594 86.976562 39.035156 86.546875 39.035156 C 86.117188 39.035156 85.765625 38.683594 85.765625 38.253906 C 85.765625 37.824219 86.117188 37.472656 86.546875 37.472656 Z M 84.238281 40.246094 C 84.875 41.738281 86.523438 42.460938 87.921875 41.859375 C 89.320312 41.261719 89.9375 39.570312 89.300781 38.078125 C 88.667969 36.589844 87.015625 35.867188 85.617188 36.464844 C 84.21875 37.066406 83.601562 38.757812 84.238281 40.246094 " fill-opacity="1" fill-rule="nonzero"/></svg>