<svg xmlns="http://www.w3.org/2000/svg" xmlns:xlink="http://www.w3.org/1999/xlink" width="150" zoomAndPan="magnify" viewBox="0 0 112.5 112.499997" height="150" preserveAspectRatio="xMidYMid meet" version="1.0"><defs><clipPath id="98e13e36f3"><path d="M 37 47 L 105.769531 47 L 105.769531 66 L 37 66 Z M 37 47 " clip-rule="nonzero"/></clipPath></defs><path fill="#5d93c7" d="M 101.566406 56.011719 C 92.851562 67.679688 76.488281 60.660156 64.777344 59.507812 C 57.324219 58.769531 47.398438 63.28125 41.40625 57 C 39.484375 54.988281 38.207031 52.417969 37.933594 49.652344 C 37.671875 46.949219 38.269531 44.238281 37.792969 41.550781 C 37.589844 40.394531 37.289062 39.226562 37.058594 38.066406 C 36.835938 36.96875 36.671875 35.871094 36.707031 34.773438 C 36.730469 33.808594 36.90625 32.84375 37.328125 31.886719 C 38.238281 29.8125 39.847656 27.878906 42.003906 27.054688 C 44.539062 26.085938 47.242188 26.371094 49.886719 26.476562 C 51.257812 26.53125 52.664062 26.570312 53.996094 26.1875 C 54.09375 26.160156 54.191406 26.121094 54.289062 26.085938 C 55.1875 25.75 56.292969 24.300781 57.175781 23.726562 C 58.4375 22.898438 59.832031 22.171875 61.316406 21.835938 C 65.050781 20.984375 66.917969 23.535156 67.695312 26.886719 C 76.265625 31.4375 84.867188 36.292969 94.277344 38.957031 C 96.617188 39.625 99.042969 40.171875 101.082031 41.488281 C 102.652344 42.5 103.609375 43.828125 104.097656 45.3125 C 105.226562 48.757812 103.789062 53.03125 101.566406 56.011719 Z M 101.566406 56.011719 " fill-opacity="1" fill-rule="nonzero"/><path fill="#2e2e2e" d="M 82.773438 44.246094 C 82.746094 44.246094 82.71875 44.238281 82.695312 44.214844 C 82.644531 44.171875 82.644531 44.097656 82.6875 44.050781 C 83.628906 43.03125 84.65625 42.070312 85.652344 41.140625 C 86.769531 40.097656 87.925781 39.015625 88.953125 37.851562 C 88.996094 37.804688 89.074219 37.800781 89.121094 37.84375 C 89.171875 37.886719 89.175781 37.960938 89.132812 38.007812 C 88.09375 39.179688 86.933594 40.265625 85.8125 41.3125 C 84.820312 42.238281 83.796875 43.195312 82.863281 44.210938 C 82.835938 44.234375 82.804688 44.246094 82.773438 44.246094 Z M 82.773438 44.246094 " fill-opacity="1" fill-rule="nonzero"/><path fill="#2e2e2e" d="M 79.363281 44.257812 C 79.34375 44.257812 79.320312 44.253906 79.304688 44.242188 C 73.578125 40.90625 67.476562 37.378906 61.339844 34.128906 C 61.28125 34.097656 61.261719 34.027344 61.292969 33.96875 C 61.324219 33.914062 61.394531 33.890625 61.453125 33.921875 C 67.589844 37.175781 73.695312 40.703125 79.421875 44.039062 C 79.480469 44.074219 79.496094 44.144531 79.464844 44.199219 C 79.441406 44.238281 79.402344 44.257812 79.363281 44.257812 Z M 79.363281 44.257812 " fill-opacity="1" fill-rule="nonzero"/><path fill="#3b79b8" d="M 64.046875 29.71875 C 63.859375 30.328125 63.285156 30.828125 62.722656 31.199219 C 61.1875 32.21875 59.484375 32.890625 57.828125 33.683594 C 56.113281 34.5 54.34375 35.25 52.5 35.734375 C 49.804688 36.445312 46.910156 36.554688 44.15625 36.164062 C 42.214844 35.890625 39.476562 35.480469 39.265625 33.039062 C 39.152344 31.695312 40.015625 30.398438 41.09375 29.652344 C 43.007812 28.320312 45.496094 28.253906 47.742188 28.308594 C 50.238281 28.371094 52.570312 28.226562 55.035156 27.871094 C 57.105469 27.570312 59.203125 27.367188 61.296875 27.476562 C 61.90625 27.511719 62.527344 27.574219 63.070312 27.84375 C 63.617188 28.113281 64.074219 28.632812 64.105469 29.238281 C 64.113281 29.402344 64.09375 29.5625 64.046875 29.71875 Z M 64.046875 29.71875 " fill-opacity="1" fill-rule="nonzero"/><path fill="#2e2e2e" d="M 64.046875 29.71875 C 63.859375 30.328125 63.285156 30.828125 62.722656 31.199219 C 61.1875 32.21875 59.484375 32.890625 57.828125 33.683594 C 56.113281 34.5 54.34375 35.25 52.5 35.734375 C 49.804688 36.445312 46.910156 36.554688 44.15625 36.164062 C 42.214844 35.890625 39.476562 35.480469 39.265625 33.039062 C 39.152344 31.695312 40.015625 30.398438 41.09375 29.652344 C 43.007812 28.320312 45.496094 28.253906 47.742188 28.308594 C 50.238281 28.371094 52.570312 28.226562 55.035156 27.871094 C 57.105469 27.570312 59.203125 27.367188 61.296875 27.476562 C 61.90625 27.511719 62.527344 27.574219 63.070312 27.84375 C 63.617188 28.113281 64.074219 28.632812 64.105469 29.238281 C 64.113281 29.402344 64.09375 29.5625 64.046875 29.71875 Z M 64.046875 29.71875 " fill-opacity="0.59" fill-rule="nonzero"/><path fill="#3b79b8" d="M 56 34.921875 C 56 34.921875 52.820312 32.367188 53.070312 29.355469 C 53.324219 26.34375 55.167969 24.574219 57.96875 22.722656 C 60.769531 20.871094 65.757812 18.089844 67.695312 26.886719 C 67.695312 26.886719 64.011719 32.335938 56 34.921875 Z M 56 34.921875 " fill-opacity="1" fill-rule="nonzero"/><path fill="#c8def5" d="M 72.867188 40.199219 C 72.867188 40.203125 72.867188 40.210938 72.867188 40.214844 C 72.867188 41.054688 73.390625 41.585938 74.195312 41.585938 C 74.488281 41.585938 74.820312 41.515625 75.175781 41.363281 C 76.1875 40.925781 77.6875 40.4375 79.386719 39.949219 C 79.316406 41.65625 79.285156 43.222656 79.273438 44.160156 C 79.269531 44.601562 79.625 44.960938 80.066406 44.960938 L 80.09375 44.960938 C 80.53125 44.964844 80.890625 44.617188 80.898438 44.179688 C 80.914062 42.949219 80.957031 41.226562 81.039062 39.488281 C 83.285156 38.882812 85.695312 38.308594 87.699219 37.867188 C 88.164062 37.765625 88.441406 37.253906 88.28125 36.808594 C 88.179688 36.535156 87.921875 36.324219 87.632812 36.285156 C 87.433594 36.253906 87.230469 36.300781 87.03125 36.347656 C 85.0625 36.8125 83.089844 37.265625 81.132812 37.785156 C 81.234375 36.183594 81.371094 34.707031 81.5625 33.757812 C 81.730469 32.917969 80.761719 32.671875 80.128906 32.777344 C 78.316406 33.082031 76.503906 33.488281 74.707031 33.890625 C 74.796875 32.550781 74.917969 31.324219 75.085938 30.492188 C 75.152344 30.152344 74.992188 29.875 74.746094 29.664062 C 74.503906 29.457031 74.171875 29.320312 73.894531 29.261719 C 72.960938 29.0625 71.957031 29.417969 71.039062 29.566406 C 70.777344 29.609375 68.289062 29.921875 68.28125 30.039062 C 68.359375 28.941406 68.464844 27.945312 68.609375 27.222656 C 68.6875 26.835938 68.464844 26.449219 68.089844 26.320312 L 68.066406 26.3125 C 67.613281 26.152344 67.117188 26.429688 67.023438 26.898438 C 66.839844 27.820312 66.714844 29.058594 66.632812 30.355469 C 63.921875 30.898438 61.207031 31.570312 59.714844 32.300781 C 59.21875 32.542969 59.101562 33.191406 59.496094 33.578125 C 59.738281 33.820312 60.109375 33.882812 60.417969 33.726562 C 61.472656 33.191406 63.835938 32.585938 66.542969 32.03125 C 66.511719 32.832031 66.492188 33.609375 66.480469 34.308594 C 66.46875 34.914062 66.421875 35.511719 66.421875 36.117188 C 66.421875 36.136719 66.421875 36.160156 66.421875 36.179688 C 66.425781 36.179688 66.425781 36.183594 66.429688 36.183594 C 66.414062 36.351562 66.398438 36.542969 66.398438 36.730469 C 66.398438 37.257812 66.507812 37.769531 67 37.808594 C 67.148438 37.820312 67.300781 37.792969 67.4375 37.71875 C 68.421875 37.199219 70.515625 36.574219 72.964844 35.96875 C 72.894531 37.660156 72.875 39.242188 72.867188 40.199219 Z M 68.085938 35.710938 C 68.09375 34.570312 68.121094 33.128906 68.183594 31.710938 C 69.933594 31.382812 71.742188 31.082031 73.382812 30.84375 C 73.230469 31.820312 73.125 33.03125 73.050781 34.273438 C 71.234375 34.714844 69.457031 35.207031 68.085938 35.710938 Z M 74.496094 39.921875 C 74.507812 38.726562 74.542969 37.152344 74.613281 35.578125 C 76.332031 35.183594 78.136719 34.8125 79.800781 34.5 C 79.65625 35.582031 79.546875 36.902344 79.472656 38.238281 C 77.585938 38.773438 75.785156 39.355469 74.496094 39.921875 Z M 74.496094 39.921875 " fill-opacity="1" fill-rule="nonzero"/><path fill="#2e2e2e" d="M 81.132812 43.886719 C 81.074219 43.886719 81.023438 43.839844 81.015625 43.78125 C 80.664062 40.121094 81.4375 33.808594 81.445312 33.746094 C 81.453125 33.679688 81.511719 33.636719 81.574219 33.640625 C 81.640625 33.648438 81.6875 33.707031 81.679688 33.773438 C 81.671875 33.835938 80.898438 40.125 81.25 43.757812 C 81.257812 43.820312 81.210938 43.878906 81.144531 43.886719 C 81.140625 43.886719 81.136719 43.886719 81.132812 43.886719 Z M 81.132812 43.886719 " fill-opacity="1" fill-rule="nonzero"/><path fill="#2e2e2e" d="M 74.703125 40.605469 C 74.644531 40.605469 74.59375 40.5625 74.585938 40.5 C 74.234375 36.84375 75.007812 30.527344 75.015625 30.464844 C 75.023438 30.402344 75.085938 30.355469 75.148438 30.363281 C 75.210938 30.371094 75.257812 30.429688 75.25 30.492188 C 75.242188 30.558594 74.472656 36.847656 74.824219 40.476562 C 74.828125 40.542969 74.78125 40.597656 74.714844 40.605469 C 74.710938 40.605469 74.707031 40.605469 74.703125 40.605469 Z M 74.703125 40.605469 " fill-opacity="1" fill-rule="nonzero"/><path fill="#2e2e2e" d="M 68.191406 37.453125 C 68.128906 37.453125 68.078125 37.40625 68.074219 37.347656 C 67.71875 33.691406 68.492188 27.375 68.5 27.3125 C 68.507812 27.246094 68.570312 27.203125 68.632812 27.210938 C 68.695312 27.21875 68.742188 27.277344 68.734375 27.339844 C 68.726562 27.402344 67.957031 33.691406 68.308594 37.324219 C 68.3125 37.390625 68.265625 37.445312 68.203125 37.453125 C 68.199219 37.453125 68.195312 37.453125 68.191406 37.453125 Z M 68.191406 37.453125 " fill-opacity="1" fill-rule="nonzero"/><g clip-path="url(#98e13e36f3)"><path fill="#3b79b8" d="M 105.679688 51.988281 C 105.683594 52.238281 105.679688 52.476562 105.671875 52.695312 C 105.613281 54.085938 104.820312 55.699219 104.066406 56.859375 C 102.671875 59.015625 100.476562 60.585938 98.160156 61.632812 C 97.777344 61.804688 97.390625 61.972656 97.003906 62.140625 C 94.839844 63.074219 92.617188 63.898438 90.328125 64.46875 C 88.089844 65.023438 85.972656 65.089844 83.6875 65.160156 C 79.125 65.300781 74.519531 65.300781 70.019531 64.457031 C 69.390625 64.339844 68.765625 64.199219 68.15625 64.019531 C 65.332031 63.199219 62.035156 62.835938 58.683594 62.660156 C 52.578125 57.5625 42.933594 56.148438 37.921875 55.941406 C 37.574219 53.808594 37.347656 51.648438 37.335938 49.519531 C 37.320312 46.453125 41.769531 48.09375 43.394531 48.691406 C 44.539062 49.109375 45.765625 49.457031 46.957031 49.203125 C 47.457031 49.097656 47.933594 48.886719 48.441406 48.835938 C 49.585938 48.730469 51.195312 50.179688 52.101562 50.78125 C 53.539062 51.742188 54.929688 52.777344 56.289062 53.84375 C 56.507812 53.785156 56.742188 53.792969 56.972656 53.78125 C 57.335938 53.761719 57.695312 53.761719 58.054688 53.765625 C 58.222656 53.761719 58.386719 53.773438 58.546875 53.78125 C 59.609375 53.6875 60.699219 53.722656 61.734375 53.789062 C 64.417969 53.957031 67.082031 54.414062 69.671875 55.144531 C 70.957031 55.511719 72.222656 55.941406 73.460938 56.445312 C 73.953125 56.644531 74.460938 56.847656 74.960938 57.070312 C 74.976562 57.070312 74.992188 57.074219 75.007812 57.078125 C 75.660156 57.152344 76.304688 57.238281 76.960938 57.3125 C 77.355469 57.367188 77.75 57.410156 78.140625 57.457031 C 81.8125 57.871094 85.53125 57.90625 89.15625 57.144531 C 90.992188 56.761719 92.914062 56.289062 94.636719 55.535156 C 95.960938 54.957031 97.496094 53.714844 97.101562 52.078125 C 97.039062 51.820312 97.191406 51.585938 97.4375 51.503906 C 98.589844 51.132812 99.660156 50.585938 100.636719 49.875 C 101.109375 49.53125 101.546875 49.152344 101.960938 48.738281 C 102.632812 48.0625 104.035156 46.84375 104.785156 48.070312 C 105.40625 49.074219 105.648438 50.6875 105.679688 51.988281 Z M 105.679688 51.988281 " fill-opacity="1" fill-rule="nonzero"/><path fill="#2e2e2e" d="M 105.679688 51.988281 C 105.683594 52.238281 105.679688 52.476562 105.671875 52.695312 C 105.613281 54.085938 104.820312 55.699219 104.066406 56.859375 C 102.671875 59.015625 100.476562 60.585938 98.160156 61.632812 C 97.777344 61.804688 97.390625 61.972656 97.003906 62.140625 C 94.839844 63.074219 92.617188 63.898438 90.328125 64.46875 C 88.089844 65.023438 85.972656 65.089844 83.6875 65.160156 C 79.125 65.300781 74.519531 65.300781 70.019531 64.457031 C 69.390625 64.339844 68.765625 64.199219 68.15625 64.019531 C 65.332031 63.199219 62.035156 62.835938 58.683594 62.660156 C 52.578125 57.5625 42.933594 56.148438 37.921875 55.941406 C 37.574219 53.808594 37.347656 51.648438 37.335938 49.519531 C 37.320312 46.453125 41.769531 48.09375 43.394531 48.691406 C 44.539062 49.109375 45.765625 49.457031 46.957031 49.203125 C 47.457031 49.097656 47.933594 48.886719 48.441406 48.835938 C 49.585938 48.730469 51.195312 50.179688 52.101562 50.78125 C 53.539062 51.742188 54.929688 52.777344 56.289062 53.84375 C 56.507812 53.785156 56.742188 53.792969 56.972656 53.78125 C 57.335938 53.761719 57.695312 53.761719 58.054688 53.765625 C 58.222656 53.761719 58.386719 53.773438 58.546875 53.78125 C 59.609375 53.6875 60.699219 53.722656 61.734375 53.789062 C 64.417969 53.957031 67.082031 54.414062 69.671875 55.144531 C 70.957031 55.511719 72.222656 55.941406 73.460938 56.445312 C 73.953125 56.644531 74.460938 56.847656 74.960938 57.070312 C 74.976562 57.070312 74.992188 57.074219 75.007812 57.078125 C 75.660156 57.152344 76.304688 57.238281 76.960938 57.3125 C 77.355469 57.367188 77.75 57.410156 78.140625 57.457031 C 81.8125 57.871094 85.53125 57.90625 89.15625 57.144531 C 90.992188 56.761719 92.914062 56.289062 94.636719 55.535156 C 95.960938 54.957031 97.496094 53.714844 97.101562 52.078125 C 97.039062 51.820312 97.191406 51.585938 97.4375 51.503906 C 98.589844 51.132812 99.660156 50.585938 100.636719 49.875 C 101.109375 49.53125 101.546875 49.152344 101.960938 48.738281 C 102.632812 48.0625 104.035156 46.84375 104.785156 48.070312 C 105.40625 49.074219 105.648438 50.6875 105.679688 51.988281 Z M 105.679688 51.988281 " fill-opacity="0.17" fill-rule="nonzero"/></g><path fill="#3b79b8" d="M 63.695312 41.964844 C 64.640625 45.460938 61.410156 47.761719 57.917969 48.695312 C 54.378906 49.644531 53.445312 45.15625 49.46875 42.65625 C 44.929688 39.804688 40.25 39.183594 37.058594 38.066406 C 36.835938 36.96875 36.671875 35.871094 36.707031 34.773438 C 40.277344 37.503906 45.980469 39.484375 51.867188 37.90625 C 53.535156 37.460938 55.25 36.785156 57.042969 35.902344 C 57.128906 35.859375 57.214844 35.828125 57.304688 35.804688 C 58.410156 35.507812 62.914062 39.078125 63.695312 41.964844 Z M 63.695312 41.964844 " fill-opacity="1" fill-rule="nonzero"/><path fill="#3b79b8" d="M 101.683594 41.914062 C 101.753906 44.175781 97.277344 48.503906 94.683594 49.199219 C 90.835938 50.226562 86.8125 48.515625 83.105469 49.507812 C 81.175781 50.023438 79.132812 51.371094 77.109375 51.910156 C 75.097656 52.449219 72.160156 51.878906 71.703125 50.175781 C 71.234375 48.449219 73.492188 46.109375 77.101562 45.144531 C 77.457031 45.046875 77.832031 44.964844 78.214844 44.898438 C 78.273438 44.890625 78.332031 44.878906 78.394531 44.871094 C 82.898438 46.742188 87.195312 47.941406 89.929688 47.3125 C 98.105469 45.433594 98.859375 41.167969 98.859375 41.167969 L 98.59375 40.5 C 98.695312 40.464844 98.804688 40.429688 98.914062 40.398438 C 98.917969 40.398438 98.921875 40.394531 98.929688 40.394531 Z M 101.683594 41.914062 " fill-opacity="1" fill-rule="nonzero"/><path fill="#5d93c7" d="M 58.683594 62.660156 C 49.328125 62.15625 39.578125 63.113281 38.621094 59.585938 C 38.609375 59.546875 38.597656 59.5 38.589844 59.460938 C 38.339844 58.304688 38.109375 57.125 37.921875 55.941406 C 42.933594 56.148438 52.578125 57.5625 58.683594 62.660156 Z M 58.683594 62.660156 " fill-opacity="1" fill-rule="nonzero"/><path fill="#2e2e2e" d="M 62.402344 53.308594 C 59.414062 53.308594 57.636719 51.261719 55.339844 48.609375 C 52.121094 44.902344 48.117188 40.285156 38.585938 38.476562 C 38.523438 38.464844 38.480469 38.402344 38.492188 38.339844 C 38.503906 38.273438 38.566406 38.234375 38.628906 38.246094 C 48.242188 40.070312 52.445312 44.917969 55.515625 48.457031 C 58.261719 51.625 60.246094 53.910156 64.492188 52.773438 C 65.675781 52.457031 66.90625 51.855469 68.15625 50.980469 C 68.207031 50.945312 68.28125 50.957031 68.320312 51.007812 C 68.355469 51.0625 68.34375 51.136719 68.289062 51.171875 C 67.019531 52.0625 65.761719 52.675781 64.550781 53 C 63.765625 53.210938 63.054688 53.308594 62.402344 53.308594 Z M 62.402344 53.308594 " fill-opacity="1" fill-rule="nonzero"/><path fill="#2e2e2e" d="M 57.929688 56.21875 C 57.894531 56.21875 57.859375 56.203125 57.835938 56.171875 C 56.417969 54.261719 50.414062 48.328125 47.4375 49.125 C 47.269531 49.167969 47.101562 49.21875 46.933594 49.273438 C 46.761719 49.324219 46.589844 49.378906 46.414062 49.425781 C 45.167969 49.757812 44.011719 49.339844 42.792969 48.894531 C 41.828125 48.542969 40.828125 48.179688 39.695312 48.148438 C 39.632812 48.148438 39.578125 48.09375 39.582031 48.03125 C 39.582031 47.964844 39.628906 47.910156 39.703125 47.914062 C 40.871094 47.945312 41.890625 48.316406 42.875 48.675781 C 44.058594 49.105469 45.175781 49.511719 46.351562 49.199219 C 46.523438 49.152344 46.695312 49.097656 46.863281 49.046875 C 47.035156 48.996094 47.207031 48.941406 47.375 48.898438 C 50.6875 48.011719 56.9375 54.5625 58.023438 56.03125 C 58.0625 56.085938 58.050781 56.160156 58 56.195312 C 57.980469 56.210938 57.953125 56.21875 57.929688 56.21875 Z M 57.929688 56.21875 " fill-opacity="1" fill-rule="nonzero"/><path fill="#2e2e2e" d="M 70.460938 60.632812 C 70.460938 60.632812 70.457031 60.632812 70.457031 60.632812 C 63.859375 60.339844 59.851562 60.015625 54.214844 56.8125 C 54.160156 56.78125 54.140625 56.707031 54.171875 56.652344 C 54.203125 56.597656 54.277344 56.578125 54.332031 56.609375 C 59.933594 59.792969 63.71875 60.097656 70.464844 60.398438 C 70.53125 60.402344 70.582031 60.457031 70.578125 60.519531 C 70.574219 60.582031 70.523438 60.632812 70.460938 60.632812 Z M 70.460938 60.632812 " fill-opacity="1" fill-rule="nonzero"/><path fill="#2e2e2e" d="M 84.15625 61.828125 C 79.859375 61.828125 77.335938 60.914062 74.890625 60.027344 C 72.113281 59.019531 69.488281 58.070312 64.472656 58.355469 C 64.410156 58.359375 64.351562 58.308594 64.351562 58.242188 C 64.347656 58.179688 64.394531 58.125 64.460938 58.121094 C 69.523438 57.832031 72.292969 58.835938 74.96875 59.808594 C 77.667969 60.785156 80.460938 61.796875 85.652344 61.558594 C 85.71875 61.558594 85.773438 61.605469 85.777344 61.671875 C 85.777344 61.734375 85.726562 61.789062 85.664062 61.792969 C 85.136719 61.816406 84.632812 61.828125 84.15625 61.828125 Z M 84.15625 61.828125 " fill-opacity="1" fill-rule="nonzero"/><path fill="#2e2e2e" d="M 92.296875 61.164062 C 89.761719 61.164062 87.113281 60.542969 84.53125 59.9375 C 83.175781 59.621094 81.898438 59.320312 80.671875 59.117188 C 80.605469 59.105469 80.5625 59.046875 80.574219 58.980469 C 80.582031 58.917969 80.644531 58.875 80.707031 58.886719 C 81.945312 59.089844 83.226562 59.390625 84.582031 59.707031 C 88.242188 60.566406 92.023438 61.457031 95.402344 60.550781 C 96.445312 60.273438 97.40625 59.828125 98.261719 59.230469 C 98.316406 59.195312 98.390625 59.207031 98.425781 59.257812 C 98.464844 59.3125 98.453125 59.386719 98.398438 59.421875 C 97.519531 60.035156 96.53125 60.492188 95.464844 60.777344 C 94.4375 61.050781 93.378906 61.164062 92.296875 61.164062 Z M 92.296875 61.164062 " fill-opacity="1" fill-rule="nonzero"/><path fill="#2e2e2e" d="M 97.636719 57.136719 C 97.597656 57.136719 97.558594 57.117188 97.535156 57.082031 C 97.5 57.027344 97.515625 56.953125 97.570312 56.917969 C 98.945312 56.058594 99.328125 54.734375 98.8125 52.628906 C 98.796875 52.566406 98.835938 52.503906 98.898438 52.488281 C 98.960938 52.472656 99.027344 52.511719 99.042969 52.574219 C 99.378906 53.949219 99.605469 55.917969 97.699219 57.117188 C 97.679688 57.128906 97.65625 57.136719 97.636719 57.136719 Z M 97.636719 57.136719 " fill-opacity="1" fill-rule="nonzero"/><path fill="#2e2e2e" d="M 100.371094 56.40625 C 100.355469 56.40625 100.339844 56.402344 100.320312 56.394531 C 100.261719 56.367188 100.234375 56.296875 100.261719 56.238281 C 100.871094 54.90625 101.035156 53.761719 100.757812 52.742188 C 100.644531 52.332031 100.457031 51.929688 100.199219 51.554688 C 100.164062 51.503906 100.175781 51.429688 100.230469 51.394531 C 100.285156 51.355469 100.355469 51.371094 100.394531 51.421875 C 100.667969 51.820312 100.867188 52.242188 100.984375 52.683594 C 101.277344 53.753906 101.109375 54.949219 100.476562 56.335938 C 100.457031 56.378906 100.414062 56.40625 100.371094 56.40625 Z M 100.371094 56.40625 " fill-opacity="1" fill-rule="nonzero"/><path fill="#2e2e2e" d="M 102.238281 55.175781 C 102.21875 55.175781 102.199219 55.171875 102.183594 55.160156 C 102.125 55.128906 102.105469 55.058594 102.136719 55.003906 C 102.804688 53.78125 102.960938 52.402344 102.589844 51.015625 C 102.523438 50.777344 102.441406 50.53125 102.34375 50.292969 C 102.320312 50.234375 102.347656 50.164062 102.410156 50.140625 C 102.46875 50.117188 102.539062 50.144531 102.5625 50.207031 C 102.664062 50.453125 102.75 50.707031 102.816406 50.957031 C 103.207031 52.398438 103.042969 53.839844 102.34375 55.113281 C 102.320312 55.152344 102.28125 55.175781 102.238281 55.175781 Z M 102.238281 55.175781 " fill-opacity="1" fill-rule="nonzero"/><path fill="#2e2e2e" d="M 104.320312 53.160156 C 104.316406 53.160156 104.3125 53.160156 104.308594 53.160156 C 104.242188 53.152344 104.195312 53.09375 104.203125 53.03125 C 104.3125 52.066406 104.265625 51.242188 104.042969 50.433594 C 103.917969 49.972656 103.738281 49.507812 103.488281 49.007812 C 103.460938 48.953125 103.484375 48.882812 103.542969 48.851562 C 103.597656 48.824219 103.671875 48.847656 103.699219 48.90625 C 103.957031 49.414062 104.144531 49.894531 104.273438 50.371094 C 104.5 51.210938 104.550781 52.0625 104.4375 53.054688 C 104.433594 53.117188 104.378906 53.160156 104.320312 53.160156 Z M 104.320312 53.160156 " fill-opacity="1" fill-rule="nonzero"/><path fill="#2e2e2e" d="M 83.335938 56.324219 C 78.257812 56.324219 73.769531 54.773438 69.929688 51.683594 C 69.878906 51.640625 69.871094 51.566406 69.910156 51.515625 C 69.953125 51.46875 70.027344 51.460938 70.078125 51.5 C 75.71875 56.042969 82.78125 57.222656 91.066406 55.003906 C 92.378906 54.652344 93.386719 54.214844 94.242188 53.617188 C 94.296875 53.582031 94.371094 53.59375 94.40625 53.648438 C 94.445312 53.699219 94.433594 53.773438 94.378906 53.8125 C 93.5 54.421875 92.464844 54.871094 91.125 55.230469 C 88.398438 55.960938 85.796875 56.324219 83.335938 56.324219 Z M 83.335938 56.324219 " fill-opacity="1" fill-rule="nonzero"/><path fill="#2e2e2e" d="M 88.328125 47.648438 C 86.578125 47.648438 84.9375 47.40625 83.65625 47.136719 C 83.59375 47.121094 83.550781 47.058594 83.566406 46.996094 C 83.578125 46.933594 83.640625 46.894531 83.703125 46.90625 C 85.910156 47.371094 89.179688 47.753906 92.226562 46.9375 C 95.15625 46.152344 97.269531 44.433594 98.503906 41.824219 C 98.535156 41.765625 98.605469 41.742188 98.664062 41.769531 C 98.722656 41.796875 98.746094 41.867188 98.71875 41.925781 C 97.449219 44.597656 95.285156 46.363281 92.289062 47.164062 C 90.972656 47.515625 89.621094 47.648438 88.328125 47.648438 Z M 88.328125 47.648438 " fill-opacity="1" fill-rule="nonzero"/><path fill="#2e2e2e" d="M 57.976562 49.292969 C 57.921875 49.292969 57.871094 49.253906 57.859375 49.199219 C 57.847656 49.132812 57.890625 49.074219 57.953125 49.058594 C 58.035156 49.042969 58.117188 49.023438 58.203125 49 C 59.765625 48.582031 61.289062 47.691406 62.28125 46.613281 C 63.113281 45.710938 63.992188 44.238281 63.476562 42.328125 C 62.914062 40.261719 60.875 37.980469 58.15625 36.375 C 58.097656 36.34375 58.082031 36.269531 58.113281 36.214844 C 58.148438 36.160156 58.21875 36.140625 58.273438 36.171875 C 60.449219 37.453125 63.015625 39.726562 63.703125 42.265625 C 64.25 44.28125 63.324219 45.828125 62.457031 46.773438 C 61.417969 47.894531 59.890625 48.792969 58.261719 49.226562 C 58.175781 49.25 58.085938 49.269531 58 49.289062 C 57.992188 49.289062 57.984375 49.292969 57.976562 49.292969 Z M 57.976562 49.292969 " fill-opacity="1" fill-rule="nonzero"/><path fill="#2e2e2e" d="M 65.476562 27.765625 C 65.425781 27.765625 65.375 27.730469 65.363281 27.679688 C 64.878906 25.941406 64.046875 24.375 62.816406 22.890625 C 62.777344 22.839844 62.78125 22.765625 62.832031 22.722656 C 62.882812 22.683594 62.957031 22.691406 63 22.742188 C 64.25 24.25 65.097656 25.847656 65.589844 27.617188 C 65.605469 27.679688 65.570312 27.746094 65.507812 27.761719 C 65.496094 27.765625 65.488281 27.765625 65.476562 27.765625 Z M 65.476562 27.765625 " fill-opacity="1" fill-rule="nonzero"/><path fill="#2e2e2e" d="M 63.230469 29.398438 C 63.175781 29.398438 63.125 29.363281 63.113281 29.304688 C 63.078125 29.144531 63.042969 28.988281 63 28.832031 C 62.503906 27.003906 61.453125 25.574219 60.492188 24.417969 C 60.449219 24.367188 60.457031 24.296875 60.507812 24.253906 C 60.558594 24.210938 60.632812 24.21875 60.671875 24.269531 C 61.652344 25.445312 62.71875 26.898438 63.226562 28.769531 C 63.269531 28.929688 63.308594 29.09375 63.34375 29.257812 C 63.359375 29.320312 63.316406 29.382812 63.253906 29.398438 C 63.246094 29.398438 63.238281 29.398438 63.230469 29.398438 Z M 63.230469 29.398438 " fill-opacity="1" fill-rule="nonzero"/><path fill="#2e2e2e" d="M 60.550781 31.027344 C 60.507812 31.027344 60.464844 31.003906 60.445312 30.960938 C 59.496094 28.984375 58.625 27.625 57.523438 26.414062 C 57.480469 26.367188 57.484375 26.292969 57.53125 26.25 C 57.582031 26.207031 57.65625 26.210938 57.699219 26.257812 C 58.816406 27.484375 59.699219 28.863281 60.660156 30.859375 C 60.6875 30.917969 60.660156 30.988281 60.601562 31.015625 C 60.585938 31.023438 60.570312 31.027344 60.550781 31.027344 Z M 60.550781 31.027344 " fill-opacity="1" fill-rule="nonzero"/><path fill="#2e2e2e" d="M 58.144531 31.609375 C 58.105469 31.609375 58.066406 31.59375 58.042969 31.558594 C 57.425781 30.636719 56.71875 29.703125 55.886719 28.699219 C 55.84375 28.648438 55.851562 28.574219 55.902344 28.53125 C 55.953125 28.492188 56.027344 28.5 56.066406 28.546875 C 56.90625 29.558594 57.617188 30.5 58.242188 31.429688 C 58.277344 31.484375 58.261719 31.554688 58.207031 31.589844 C 58.1875 31.605469 58.164062 31.609375 58.144531 31.609375 Z M 58.144531 31.609375 " fill-opacity="1" fill-rule="nonzero"/><path fill="#2e2e2e" d="M 46.828125 38.847656 C 43.28125 38.847656 40.300781 37.859375 37.929688 35.878906 C 37.878906 35.835938 37.871094 35.761719 37.914062 35.714844 C 37.957031 35.664062 38.03125 35.65625 38.082031 35.699219 C 41.722656 38.738281 46.839844 39.40625 53.285156 37.679688 C 53.710938 37.566406 54.144531 37.441406 54.578125 37.308594 C 54.640625 37.289062 54.707031 37.324219 54.726562 37.386719 C 54.746094 37.445312 54.710938 37.511719 54.648438 37.53125 C 54.214844 37.667969 53.777344 37.792969 53.347656 37.90625 C 51 38.535156 48.824219 38.847656 46.828125 38.847656 Z M 46.828125 38.847656 " fill-opacity="1" fill-rule="nonzero"/><path fill="#2e2e2e" d="M 80.964844 65.429688 C 78.820312 65.429688 76.671875 65.316406 74.535156 65.085938 C 72.5625 64.875 70.589844 64.484375 68.683594 64.109375 C 66.832031 63.742188 64.914062 63.363281 63.003906 63.152344 C 60.160156 62.832031 57.246094 62.75 54.429688 62.671875 L 53.328125 62.640625 C 50.210938 62.550781 47.175781 62.296875 43.816406 62 C 43.621094 61.984375 43.417969 61.96875 43.21875 61.953125 C 42.136719 61.871094 41.019531 61.785156 40.015625 61.34375 C 38.152344 60.519531 37.945312 58.253906 37.777344 56.433594 C 37.761719 56.238281 37.742188 56.046875 37.726562 55.867188 C 37.71875 55.804688 37.765625 55.746094 37.832031 55.738281 C 37.894531 55.730469 37.953125 55.777344 37.960938 55.84375 C 37.980469 56.027344 37.996094 56.214844 38.015625 56.410156 C 38.175781 58.167969 38.375 60.359375 40.113281 61.128906 C 41.078125 61.554688 42.175781 61.636719 43.234375 61.71875 C 43.4375 61.734375 43.640625 61.75 43.839844 61.765625 C 47.191406 62.0625 50.222656 62.316406 53.335938 62.40625 L 54.4375 62.4375 C 57.257812 62.515625 60.175781 62.597656 63.03125 62.917969 C 64.953125 63.132812 66.871094 63.511719 68.730469 63.878906 C 70.632812 64.253906 72.597656 64.640625 74.5625 64.851562 C 78.617188 65.289062 82.726562 65.308594 86.773438 64.914062 C 86.835938 64.90625 86.894531 64.953125 86.902344 65.019531 C 86.90625 65.082031 86.859375 65.140625 86.792969 65.144531 C 84.863281 65.335938 82.914062 65.429688 80.964844 65.429688 Z M 80.964844 65.429688 " fill-opacity="1" fill-rule="nonzero"/><path fill="#2e2e2e" d="M 56.488281 61.335938 C 56.464844 61.335938 56.441406 61.332031 56.421875 61.316406 C 51.34375 57.667969 45.964844 55.917969 39.976562 55.945312 C 39.910156 55.945312 39.859375 55.890625 39.859375 55.828125 C 39.859375 55.761719 39.910156 55.710938 39.976562 55.710938 C 46.019531 55.679688 51.441406 57.449219 56.558594 61.125 C 56.613281 61.164062 56.625 61.238281 56.585938 61.289062 C 56.5625 61.320312 56.527344 61.335938 56.488281 61.335938 Z M 56.488281 61.335938 " fill-opacity="1" fill-rule="nonzero"/><path fill="#2e2e2e" d="M 52.273438 60.367188 C 52.253906 60.367188 52.234375 60.363281 52.214844 60.351562 C 48.984375 58.507812 45.070312 57.554688 40.582031 57.511719 C 40.519531 57.511719 40.464844 57.460938 40.464844 57.394531 C 40.464844 57.332031 40.511719 57.273438 40.585938 57.277344 C 45.113281 57.320312 49.066406 58.285156 52.335938 60.148438 C 52.390625 60.179688 52.410156 60.253906 52.378906 60.308594 C 52.355469 60.347656 52.316406 60.367188 52.273438 60.367188 Z M 52.273438 60.367188 " fill-opacity="1" fill-rule="nonzero"/><path fill="#2e2e2e" d="M 95 49.214844 C 94.953125 49.214844 94.910156 49.1875 94.890625 49.144531 C 94.867188 49.082031 94.894531 49.015625 94.953125 48.988281 C 98.191406 47.59375 100.144531 45.648438 101.097656 42.871094 C 101.121094 42.808594 101.1875 42.777344 101.25 42.796875 C 101.308594 42.816406 101.34375 42.886719 101.320312 42.945312 C 100.34375 45.792969 98.351562 47.78125 95.046875 49.203125 C 95.03125 49.210938 95.015625 49.214844 95 49.214844 Z M 95 49.214844 " fill-opacity="1" fill-rule="nonzero"/><path fill="#5d93c7" d="M 65.660156 90.488281 C 52.71875 97.25 41.035156 83.875 30.984375 77.789062 C 24.585938 73.914062 13.675781 73.703125 11.015625 65.457031 C 10.160156 62.816406 10.132812 59.949219 11.09375 57.339844 C 12.035156 54.792969 13.757812 52.605469 14.5 49.976562 C 14.820312 48.847656 15.058594 47.667969 15.359375 46.523438 C 15.636719 45.4375 15.96875 44.378906 16.476562 43.402344 C 16.917969 42.542969 17.5 41.75 18.296875 41.066406 C 20.019531 39.59375 22.3125 38.542969 24.617188 38.730469 C 27.320312 38.949219 29.636719 40.375 31.972656 41.609375 C 33.183594 42.246094 34.433594 42.886719 35.800781 43.117188 C 35.902344 43.132812 36.007812 43.140625 36.109375 43.152344 C 37.0625 43.234375 38.695312 42.40625 39.738281 42.265625 C 41.234375 42.066406 42.808594 42.011719 44.292969 42.347656 C 48.03125 43.1875 48.601562 46.292969 47.84375 49.648438 C 53.578125 57.441406 59.214844 65.523438 66.53125 71.984375 C 68.347656 73.589844 70.296875 75.128906 71.558594 77.195312 C 72.53125 78.78125 72.816406 80.394531 72.609375 81.9375 C 72.121094 85.53125 68.960938 88.761719 65.660156 90.488281 Z M 65.660156 90.488281 " fill-opacity="1" fill-rule="nonzero"/><path fill="#2e2e2e" d="M 53.910156 71.804688 C 53.863281 71.804688 53.816406 71.773438 53.800781 71.730469 C 53.773438 71.667969 53.804688 71.601562 53.863281 71.578125 C 55.15625 71.0625 56.503906 70.640625 57.804688 70.230469 C 59.269531 69.773438 60.78125 69.296875 62.214844 68.691406 C 62.277344 68.667969 62.34375 68.695312 62.371094 68.753906 C 62.394531 68.8125 62.367188 68.882812 62.308594 68.910156 C 60.863281 69.519531 59.34375 69.996094 57.875 70.457031 C 56.578125 70.863281 55.238281 71.285156 53.953125 71.792969 C 53.9375 71.800781 53.921875 71.804688 53.910156 71.804688 Z M 53.910156 71.804688 " fill-opacity="1" fill-rule="nonzero"/><path fill="#2e2e2e" d="M 50.828125 70.34375 C 50.792969 70.34375 50.753906 70.324219 50.730469 70.292969 C 47.027344 64.816406 43.066406 59.007812 38.957031 53.4375 C 38.917969 53.386719 38.929688 53.3125 38.980469 53.273438 C 39.035156 53.234375 39.105469 53.246094 39.144531 53.300781 C 43.257812 58.875 47.222656 64.683594 50.929688 70.160156 C 50.964844 70.214844 50.949219 70.285156 50.894531 70.324219 C 50.875 70.335938 50.851562 70.34375 50.828125 70.34375 Z M 50.828125 70.34375 " fill-opacity="1" fill-rule="nonzero"/><path fill="#3b79b8" d="M 43.316406 50.628906 C 42.882812 51.101562 42.144531 51.300781 41.480469 51.394531 C 39.648438 51.652344 37.820312 51.523438 35.984375 51.519531 C 34.082031 51.519531 32.160156 51.433594 30.289062 51.074219 C 27.550781 50.554688 24.894531 49.40625 22.582031 47.867188 C 20.953125 46.78125 18.664062 45.234375 19.539062 42.945312 C 20.023438 41.683594 21.367188 40.886719 22.660156 40.675781 C 24.96875 40.304688 27.238281 41.316406 29.242188 42.335938 C 31.464844 43.464844 33.625 44.335938 36.003906 45.078125 C 38 45.703125 39.980469 46.421875 41.820312 47.425781 C 42.351562 47.71875 42.882812 48.042969 43.257812 48.519531 C 43.628906 49 43.8125 49.664062 43.582031 50.21875 C 43.515625 50.375 43.425781 50.511719 43.316406 50.628906 Z M 43.316406 50.628906 " fill-opacity="1" fill-rule="nonzero"/><path fill="#2e2e2e" d="M 43.316406 50.628906 C 42.882812 51.101562 42.144531 51.300781 41.480469 51.394531 C 39.648438 51.652344 37.820312 51.523438 35.984375 51.519531 C 34.082031 51.519531 32.160156 51.433594 30.289062 51.074219 C 27.550781 50.554688 24.894531 49.40625 22.582031 47.867188 C 20.953125 46.78125 18.664062 45.234375 19.539062 42.945312 C 20.023438 41.683594 21.367188 40.886719 22.660156 40.675781 C 24.96875 40.304688 27.238281 41.316406 29.242188 42.335938 C 31.464844 43.464844 33.625 44.335938 36.003906 45.078125 C 38 45.703125 39.980469 46.421875 41.820312 47.425781 C 42.351562 47.71875 42.882812 48.042969 43.257812 48.519531 C 43.628906 49 43.8125 49.664062 43.582031 50.21875 C 43.515625 50.375 43.425781 50.511719 43.316406 50.628906 Z M 43.316406 50.628906 " fill-opacity="0.59" fill-rule="nonzero"/><path fill="#3b79b8" d="M 33.796875 51.847656 C 33.796875 51.847656 32.046875 48.179688 33.585938 45.574219 C 35.125 42.96875 37.5625 42.167969 40.890625 41.707031 C 44.222656 41.246094 49.929688 40.886719 47.84375 49.648438 C 47.84375 49.648438 42.144531 52.972656 33.796875 51.847656 Z M 33.796875 51.847656 " fill-opacity="1" fill-rule="nonzero"/><path fill="#c8def5" d="M 43.523438 55.78125 C 43.296875 56.242188 42.996094 56.675781 42.726562 57.113281 C 42.53125 57.429688 42.363281 57.773438 42.171875 58.09375 C 42.054688 58.285156 42.015625 58.53125 42.101562 58.769531 C 42.21875 59.097656 42.535156 59.3125 42.882812 59.300781 C 43.996094 59.253906 46.15625 59.59375 48.628906 60.105469 C 47.867188 61.53125 47.183594 62.882812 46.753906 63.753906 C 46.566406 64.132812 46.425781 64.535156 46.425781 64.890625 C 46.425781 65.300781 46.609375 65.65625 47.121094 65.863281 C 47.226562 65.90625 47.347656 65.929688 47.46875 65.921875 C 48.515625 65.855469 50.453125 66.085938 52.679688 66.457031 C 51.871094 67.964844 51.160156 69.367188 50.742188 70.203125 C 50.542969 70.597656 50.707031 71.074219 51.105469 71.269531 L 51.128906 71.28125 C 51.523438 71.472656 52 71.3125 52.195312 70.921875 C 52.746094 69.824219 53.539062 68.289062 54.367188 66.753906 C 56.65625 67.179688 59.078125 67.695312 61.078125 68.164062 C 61.507812 68.265625 61.933594 68.003906 62.039062 67.578125 L 62.042969 67.550781 C 62.148438 67.125 61.882812 66.695312 61.449219 66.59375 C 60.089844 66.273438 57.699219 65.734375 55.195312 65.257812 C 55.984375 63.859375 56.753906 62.589844 57.339844 61.816406 C 57.558594 61.527344 57.535156 61.121094 57.320312 60.835938 C 57.152344 60.605469 56.890625 60.460938 56.621094 60.367188 C 54.851562 59.753906 52.925781 59.398438 51.105469 58.980469 C 51.15625 58.992188 51.972656 57.515625 52.0625 57.375 C 52.359375 56.902344 52.800781 56.511719 52.976562 55.96875 C 53.074219 55.660156 53.070312 55.398438 52.996094 55.171875 C 52.703125 54.300781 51.3125 53.992188 50.488281 53.746094 C 49.328125 53.394531 48.164062 53.058594 46.992188 52.742188 C 47.542969 51.789062 48.074219 50.933594 48.515625 50.347656 C 48.757812 50.03125 48.726562 49.589844 48.441406 49.308594 L 48.425781 49.292969 C 48.085938 48.953125 47.519531 48.988281 47.230469 49.371094 C 46.660156 50.121094 46.011719 51.183594 45.371094 52.316406 C 42.691406 51.636719 39.953125 51.074219 38.285156 51.089844 C 37.734375 51.09375 37.347656 51.628906 37.53125 52.148438 C 37.644531 52.46875 37.953125 52.683594 38.300781 52.675781 C 39.484375 52.648438 41.878906 53.121094 44.558594 53.789062 C 44.1875 54.484375 43.835938 55.164062 43.523438 55.78125 M 44.34375 57.769531 C 44.847656 56.746094 45.5 55.457031 46.179688 54.207031 C 47.898438 54.664062 49.660156 55.175781 51.238281 55.664062 C 50.679688 56.480469 50.054688 57.523438 49.445312 58.613281 C 47.617188 58.226562 45.800781 57.90625 44.34375 57.769531 Z M 48.285156 64.324219 C 48.816406 63.253906 49.535156 61.851562 50.285156 60.464844 C 52.007812 60.847656 53.792969 61.289062 55.429688 61.726562 C 54.828125 62.636719 54.15625 63.78125 53.503906 64.953125 C 51.570312 64.621094 49.695312 64.371094 48.285156 64.324219 Z M 48.285156 64.324219 " fill-opacity="1" fill-rule="nonzero"/><path fill="#2e2e2e" d="M 52.589844 70.769531 C 52.574219 70.769531 52.5625 70.769531 52.546875 70.761719 C 52.488281 70.742188 52.457031 70.671875 52.476562 70.613281 C 53.753906 67.164062 57.207031 61.808594 57.238281 61.753906 C 57.277344 61.699219 57.347656 61.683594 57.402344 61.71875 C 57.457031 61.753906 57.472656 61.824219 57.4375 61.878906 C 57.40625 61.933594 53.96875 67.269531 52.699219 70.691406 C 52.683594 70.742188 52.636719 70.769531 52.589844 70.769531 Z M 52.589844 70.769531 " fill-opacity="1" fill-rule="nonzero"/><path fill="#2e2e2e" d="M 48.175781 65 C 48.164062 65 48.148438 64.996094 48.136719 64.992188 C 48.074219 64.96875 48.042969 64.902344 48.066406 64.839844 C 49.34375 61.390625 52.792969 56.035156 52.828125 55.980469 C 52.863281 55.925781 52.9375 55.910156 52.992188 55.945312 C 53.046875 55.980469 53.0625 56.054688 53.027344 56.109375 C 52.992188 56.164062 49.554688 61.496094 48.289062 64.921875 C 48.269531 64.96875 48.226562 65 48.175781 65 Z M 48.175781 65 " fill-opacity="1" fill-rule="nonzero"/><path fill="#2e2e2e" d="M 43.730469 59.394531 C 43.714844 59.394531 43.703125 59.394531 43.6875 59.390625 C 43.628906 59.367188 43.597656 59.300781 43.621094 59.238281 C 44.894531 55.789062 48.347656 50.433594 48.382812 50.378906 C 48.417969 50.324219 48.488281 50.308594 48.542969 50.34375 C 48.601562 50.378906 48.617188 50.453125 48.582031 50.507812 C 48.546875 50.558594 45.109375 55.894531 43.839844 59.320312 C 43.824219 59.367188 43.777344 59.394531 43.730469 59.394531 Z M 43.730469 59.394531 " fill-opacity="1" fill-rule="nonzero"/><path fill="#3b79b8" d="M 71.121094 88.636719 C 71.015625 88.863281 70.910156 89.078125 70.808594 89.273438 C 70.148438 90.5 68.730469 91.609375 67.542969 92.332031 C 65.347656 93.675781 62.683594 94.144531 60.140625 94.085938 C 59.71875 94.078125 59.296875 94.066406 58.875 94.046875 C 56.519531 93.957031 54.15625 93.742188 51.84375 93.269531 C 49.585938 92.804688 47.652344 91.953125 45.558594 91.03125 C 41.386719 89.191406 37.238281 87.207031 33.550781 84.507812 C 33.035156 84.132812 32.535156 83.734375 32.0625 83.3125 C 29.875 81.355469 27.0625 79.605469 24.121094 78.003906 C 20.839844 70.78125 12.765625 65.347656 8.339844 63 C 8.953125 60.929688 9.695312 58.886719 10.613281 56.960938 C 11.9375 54.191406 15.230469 57.585938 16.433594 58.828125 C 17.28125 59.695312 18.238281 60.539062 19.421875 60.824219 C 19.917969 60.941406 20.441406 60.957031 20.914062 61.132812 C 21.996094 61.53125 22.8125 63.53125 23.367188 64.460938 C 24.246094 65.945312 25.042969 67.480469 25.804688 69.027344 C 26.027344 69.070312 26.234375 69.175781 26.449219 69.265625 C 26.785156 69.40625 27.109375 69.558594 27.433594 69.714844 C 27.582031 69.785156 27.726562 69.867188 27.871094 69.941406 C 28.867188 70.316406 29.832031 70.816406 30.738281 71.324219 C 33.082031 72.632812 35.285156 74.191406 37.296875 75.96875 C 38.296875 76.851562 39.25 77.785156 40.144531 78.773438 C 40.503906 79.164062 40.871094 79.566406 41.226562 79.980469 C 41.238281 79.988281 41.25 79.996094 41.261719 80.007812 C 41.820312 80.355469 42.363281 80.710938 42.921875 81.0625 C 43.253906 81.277344 43.589844 81.488281 43.921875 81.699219 C 47.050781 83.652344 50.386719 85.285156 53.984375 86.164062 C 55.804688 86.609375 57.742188 87.015625 59.625 87.074219 C 61.070312 87.125 62.996094 86.664062 63.351562 85.023438 C 63.410156 84.765625 63.648438 84.613281 63.90625 84.648438 C 65.105469 84.8125 66.3125 84.78125 67.5 84.5625 C 68.078125 84.453125 68.636719 84.300781 69.1875 84.105469 C 70.089844 83.789062 71.882812 83.289062 72.027344 84.722656 C 72.144531 85.894531 71.664062 87.449219 71.121094 88.636719 Z M 71.121094 88.636719 " fill-opacity="1" fill-rule="nonzero"/><path fill="#2e2e2e" d="M 71.121094 88.636719 C 71.015625 88.863281 70.910156 89.078125 70.808594 89.273438 C 70.148438 90.5 68.730469 91.609375 67.542969 92.332031 C 65.347656 93.675781 62.683594 94.144531 60.140625 94.085938 C 59.71875 94.078125 59.296875 94.066406 58.875 94.046875 C 56.519531 93.957031 54.15625 93.742188 51.84375 93.269531 C 49.585938 92.804688 47.652344 91.953125 45.558594 91.03125 C 41.386719 89.191406 37.238281 87.207031 33.550781 84.507812 C 33.035156 84.132812 32.535156 83.734375 32.0625 83.3125 C 29.875 81.355469 27.0625 79.605469 24.121094 78.003906 C 20.839844 70.78125 12.765625 65.347656 8.339844 63 C 8.953125 60.929688 9.695312 58.886719 10.613281 56.960938 C 11.9375 54.191406 15.230469 57.585938 16.433594 58.828125 C 17.28125 59.695312 18.238281 60.539062 19.421875 60.824219 C 19.917969 60.941406 20.441406 60.957031 20.914062 61.132812 C 21.996094 61.53125 22.8125 63.53125 23.367188 64.460938 C 24.246094 65.945312 25.042969 67.480469 25.804688 69.027344 C 26.027344 69.070312 26.234375 69.175781 26.449219 69.265625 C 26.785156 69.40625 27.109375 69.558594 27.433594 69.714844 C 27.582031 69.785156 27.726562 69.867188 27.871094 69.941406 C 28.867188 70.316406 29.832031 70.816406 30.738281 71.324219 C 33.082031 72.632812 35.285156 74.191406 37.296875 75.96875 C 38.296875 76.851562 39.25 77.785156 40.144531 78.773438 C 40.503906 79.164062 40.871094 79.566406 41.226562 79.980469 C 41.238281 79.988281 41.25 79.996094 41.261719 80.007812 C 41.820312 80.355469 42.363281 80.710938 42.921875 81.0625 C 43.253906 81.277344 43.589844 81.488281 43.921875 81.699219 C 47.050781 83.652344 50.386719 85.285156 53.984375 86.164062 C 55.804688 86.609375 57.742188 87.015625 59.625 87.074219 C 61.070312 87.125 62.996094 86.664062 63.351562 85.023438 C 63.410156 84.765625 63.648438 84.613281 63.90625 84.648438 C 65.105469 84.8125 66.3125 84.78125 67.5 84.5625 C 68.078125 84.453125 68.636719 84.300781 69.1875 84.105469 C 70.089844 83.789062 71.882812 83.289062 72.027344 84.722656 C 72.144531 85.894531 71.664062 87.449219 71.121094 88.636719 Z M 71.121094 88.636719 " fill-opacity="0.17" fill-rule="nonzero"/><path fill="#3b79b8" d="M 37.660156 61.515625 C 36.988281 65.070312 33.070312 65.753906 29.519531 65.089844 C 25.917969 64.417969 27.03125 59.972656 24.539062 56.007812 C 21.691406 51.480469 17.746094 48.902344 15.359375 46.523438 C 15.636719 45.4375 15.96875 44.378906 16.476562 43.40625 C 18.5 47.402344 22.78125 51.644531 28.773438 52.761719 C 30.46875 53.078125 32.308594 53.207031 34.308594 53.183594 C 34.40625 53.183594 34.496094 53.191406 34.585938 53.207031 C 35.714844 53.417969 38.214844 58.574219 37.660156 61.515625 Z M 37.660156 61.515625 " fill-opacity="1" fill-rule="nonzero"/><path fill="#3b79b8" d="M 71.914062 77.835938 C 70.992188 79.90625 65.070312 81.875 62.429688 81.382812 C 58.515625 80.652344 55.636719 77.378906 51.859375 76.675781 C 49.898438 76.308594 47.46875 76.640625 45.410156 76.257812 C 43.363281 75.875 40.96875 74.09375 41.292969 72.363281 C 41.625 70.605469 44.683594 69.46875 48.355469 70.152344 C 48.71875 70.222656 49.089844 70.308594 49.464844 70.414062 C 49.523438 70.429688 49.582031 70.445312 49.636719 70.464844 C 52.878906 74.09375 56.230469 77.027344 58.96875 77.640625 C 67.15625 79.464844 69.695312 75.949219 69.695312 75.949219 L 69.746094 75.230469 C 69.855469 75.242188 69.96875 75.257812 70.078125 75.277344 C 70.085938 75.277344 70.089844 75.277344 70.09375 75.28125 Z M 71.914062 77.835938 " fill-opacity="1" fill-rule="nonzero"/><path fill="#5d93c7" d="M 24.121094 78.003906 C 15.90625 73.519531 6.703125 70.179688 7.378906 66.589844 C 7.386719 66.546875 7.398438 66.503906 7.40625 66.460938 C 7.683594 65.3125 7.992188 64.152344 8.339844 63 C 12.765625 65.347656 20.839844 70.78125 24.121094 78.003906 Z M 24.121094 78.003906 " fill-opacity="1" fill-rule="nonzero"/><path fill="#2e2e2e" d="M 35.484375 71.992188 C 34.828125 71.992188 34.203125 71.9375 33.621094 71.828125 C 29.152344 70.996094 28.347656 68.019531 27.230469 63.902344 C 25.949219 59.171875 24.355469 53.285156 16.554688 47.550781 C 16.503906 47.511719 16.492188 47.4375 16.53125 47.386719 C 16.570312 47.332031 16.644531 47.324219 16.695312 47.359375 C 24.5625 53.148438 26.238281 59.328125 27.457031 63.839844 C 28.550781 67.875 29.34375 70.792969 33.664062 71.597656 C 34.867188 71.824219 36.242188 71.808594 37.746094 71.558594 C 37.8125 71.546875 37.871094 71.59375 37.882812 71.65625 C 37.894531 71.71875 37.851562 71.78125 37.785156 71.792969 C 36.980469 71.925781 36.210938 71.992188 35.484375 71.992188 Z M 35.484375 71.992188 " fill-opacity="1" fill-rule="nonzero"/><path fill="#2e2e2e" d="M 26.296875 71.886719 C 26.242188 71.886719 26.191406 71.847656 26.183594 71.789062 C 25.742188 69.460938 22.914062 61.523438 19.886719 60.957031 C 19.714844 60.925781 19.542969 60.902344 19.367188 60.875 C 19.191406 60.847656 19.011719 60.820312 18.835938 60.789062 C 17.566406 60.550781 16.707031 59.675781 15.800781 58.75 C 15.085938 58.019531 14.34375 57.261719 13.335938 56.746094 C 13.277344 56.714844 13.253906 56.644531 13.285156 56.589844 C 13.316406 56.53125 13.386719 56.507812 13.445312 56.539062 C 14.484375 57.070312 15.238281 57.839844 15.96875 58.585938 C 16.851562 59.484375 17.683594 60.335938 18.878906 60.558594 C 19.050781 60.589844 19.226562 60.617188 19.402344 60.644531 C 19.582031 60.667969 19.757812 60.695312 19.929688 60.726562 C 23.300781 61.355469 26.074219 69.953125 26.414062 71.746094 C 26.425781 71.8125 26.382812 71.871094 26.320312 71.882812 C 26.3125 71.886719 26.304688 71.886719 26.296875 71.886719 Z M 26.296875 71.886719 " fill-opacity="1" fill-rule="nonzero"/><path fill="#2e2e2e" d="M 35.667969 81.261719 C 35.648438 81.261719 35.628906 81.257812 35.609375 81.25 C 29.792969 78.140625 26.324219 76.125 22.640625 70.808594 C 22.605469 70.753906 22.617188 70.683594 22.671875 70.644531 C 22.726562 70.609375 22.800781 70.621094 22.835938 70.675781 C 26.496094 75.957031 29.773438 77.863281 35.722656 81.042969 C 35.78125 81.074219 35.800781 81.144531 35.769531 81.199219 C 35.75 81.242188 35.707031 81.261719 35.667969 81.261719 Z M 35.667969 81.261719 " fill-opacity="1" fill-rule="nonzero"/><path fill="#2e2e2e" d="M 48.855469 88.859375 C 48.839844 88.859375 48.824219 88.855469 48.808594 88.847656 C 43.984375 86.808594 41.890625 84.675781 39.871094 82.613281 C 37.808594 80.511719 35.859375 78.523438 31.214844 76.617188 C 31.15625 76.59375 31.125 76.523438 31.152344 76.464844 C 31.175781 76.40625 31.246094 76.375 31.304688 76.402344 C 35.992188 78.324219 38.050781 80.421875 40.039062 82.449219 C 42.046875 84.496094 44.117188 86.609375 48.902344 88.632812 C 48.960938 88.65625 48.988281 88.726562 48.964844 88.785156 C 48.945312 88.832031 48.898438 88.859375 48.855469 88.859375 Z M 48.855469 88.859375 " fill-opacity="1" fill-rule="nonzero"/><path fill="#2e2e2e" d="M 59.832031 92.320312 C 59.253906 92.320312 58.667969 92.265625 58.085938 92.15625 C 54.585938 91.503906 51.542969 89.054688 48.597656 86.6875 C 47.515625 85.816406 46.496094 84.996094 45.476562 84.285156 C 45.421875 84.246094 45.410156 84.171875 45.449219 84.121094 C 45.484375 84.066406 45.558594 84.054688 45.613281 84.09375 C 46.640625 84.808594 47.664062 85.632812 48.746094 86.503906 C 51.667969 88.855469 54.6875 91.285156 58.128906 91.925781 C 59.1875 92.125 60.246094 92.136719 61.28125 91.96875 C 61.34375 91.957031 61.40625 92 61.417969 92.0625 C 61.425781 92.128906 61.382812 92.1875 61.320312 92.199219 C 60.828125 92.28125 60.332031 92.320312 59.832031 92.320312 Z M 59.832031 92.320312 " fill-opacity="1" fill-rule="nonzero"/><path fill="#2e2e2e" d="M 61.679688 89.820312 C 61.621094 89.820312 61.570312 89.777344 61.5625 89.71875 C 61.554688 89.652344 61.601562 89.59375 61.664062 89.585938 C 63.277344 89.402344 64.199219 88.375 64.652344 86.257812 C 64.667969 86.191406 64.730469 86.152344 64.792969 86.167969 C 64.859375 86.179688 64.898438 86.242188 64.886719 86.304688 C 64.585938 87.691406 63.933594 89.5625 61.691406 89.820312 C 61.6875 89.820312 61.683594 89.820312 61.679688 89.820312 Z M 61.679688 89.820312 " fill-opacity="1" fill-rule="nonzero"/><path fill="#2e2e2e" d="M 64.464844 90.339844 C 64.429688 90.339844 64.398438 90.328125 64.375 90.300781 C 64.332031 90.25 64.339844 90.175781 64.386719 90.132812 C 65.519531 89.195312 66.164062 88.234375 66.359375 87.199219 C 66.4375 86.777344 66.441406 86.335938 66.375 85.886719 C 66.363281 85.824219 66.40625 85.761719 66.472656 85.753906 C 66.535156 85.742188 66.597656 85.785156 66.605469 85.851562 C 66.679688 86.328125 66.675781 86.792969 66.589844 87.242188 C 66.382812 88.332031 65.714844 89.335938 64.539062 90.3125 C 64.519531 90.332031 64.492188 90.339844 64.464844 90.339844 Z M 64.464844 90.339844 " fill-opacity="1" fill-rule="nonzero"/><path fill="#2e2e2e" d="M 66.683594 90.039062 C 66.644531 90.039062 66.609375 90.019531 66.585938 89.988281 C 66.550781 89.9375 66.5625 89.863281 66.613281 89.824219 C 67.753906 89.011719 68.496094 87.839844 68.761719 86.429688 C 68.804688 86.1875 68.839844 85.929688 68.855469 85.671875 C 68.859375 85.609375 68.914062 85.558594 68.980469 85.5625 C 69.046875 85.566406 69.097656 85.625 69.09375 85.6875 C 69.074219 85.957031 69.039062 86.21875 68.992188 86.472656 C 68.714844 87.941406 67.941406 89.167969 66.75 90.015625 C 66.730469 90.03125 66.707031 90.039062 66.683594 90.039062 Z M 66.683594 90.039062 " fill-opacity="1" fill-rule="nonzero"/><path fill="#2e2e2e" d="M 69.4375 89.121094 C 69.417969 89.121094 69.394531 89.113281 69.375 89.101562 C 69.320312 89.066406 69.304688 88.996094 69.339844 88.941406 C 69.859375 88.121094 70.171875 87.355469 70.328125 86.53125 C 70.417969 86.0625 70.457031 85.5625 70.449219 85.007812 C 70.445312 84.945312 70.5 84.890625 70.5625 84.890625 C 70.628906 84.886719 70.683594 84.941406 70.683594 85.003906 C 70.691406 85.574219 70.652344 86.089844 70.558594 86.574219 C 70.398438 87.425781 70.074219 88.21875 69.539062 89.066406 C 69.515625 89.101562 69.476562 89.121094 69.4375 89.121094 Z M 69.4375 89.121094 " fill-opacity="1" fill-rule="nonzero"/><path fill="#2e2e2e" d="M 58.8125 85.515625 C 58.132812 85.515625 57.40625 85.441406 56.59375 85.289062 C 48.082031 83.703125 42.175781 79.550781 39.039062 72.957031 C 39.011719 72.898438 39.035156 72.828125 39.097656 72.800781 C 39.15625 72.773438 39.226562 72.796875 39.253906 72.855469 C 42.355469 79.378906 48.207031 83.484375 56.636719 85.058594 C 57.972656 85.308594 59.074219 85.34375 60.105469 85.179688 C 60.171875 85.167969 60.230469 85.210938 60.242188 85.277344 C 60.253906 85.339844 60.207031 85.398438 60.144531 85.410156 C 59.714844 85.480469 59.273438 85.515625 58.8125 85.515625 Z M 58.8125 85.515625 " fill-opacity="1" fill-rule="nonzero"/><path fill="#2e2e2e" d="M 63.234375 78.71875 C 62.5625 78.71875 61.871094 78.652344 61.160156 78.519531 C 58.011719 77.933594 55.199219 76.160156 53.394531 74.773438 C 53.339844 74.734375 53.332031 74.660156 53.371094 74.609375 C 53.410156 74.558594 53.484375 74.546875 53.535156 74.589844 C 55.320312 75.957031 58.101562 77.710938 61.203125 78.289062 C 64.183594 78.84375 66.839844 78.203125 69.089844 76.386719 C 69.140625 76.347656 69.214844 76.351562 69.257812 76.402344 C 69.296875 76.453125 69.289062 76.527344 69.238281 76.570312 C 67.46875 78 65.453125 78.71875 63.234375 78.71875 Z M 63.234375 78.71875 " fill-opacity="1" fill-rule="nonzero"/><path fill="#2e2e2e" d="M 31.324219 65.875 C 30.746094 65.875 30.167969 65.824219 29.597656 65.71875 C 29.507812 65.699219 29.421875 65.679688 29.335938 65.660156 C 29.269531 65.644531 29.234375 65.582031 29.25 65.515625 C 29.265625 65.453125 29.328125 65.417969 29.390625 65.433594 C 29.472656 65.453125 29.554688 65.46875 29.640625 65.484375 C 31.230469 65.78125 32.996094 65.636719 34.359375 65.09375 C 35.5 64.640625 36.9375 63.691406 37.304688 61.746094 C 37.703125 59.640625 36.859375 56.707031 35.105469 54.089844 C 35.070312 54.035156 35.082031 53.960938 35.136719 53.925781 C 35.191406 53.890625 35.265625 53.90625 35.300781 53.957031 C 36.703125 56.046875 38.023438 59.203125 37.535156 61.789062 C 37.148438 63.839844 35.644531 64.835938 34.445312 65.3125 C 33.511719 65.683594 32.425781 65.875 31.324219 65.875 Z M 31.324219 65.875 " fill-opacity="1" fill-rule="nonzero"/><path fill="#2e2e2e" d="M 45.507812 49.496094 C 45.503906 49.496094 45.496094 49.496094 45.488281 49.496094 C 45.425781 49.484375 45.382812 49.421875 45.394531 49.359375 C 45.714844 47.582031 45.648438 45.8125 45.1875 43.945312 C 45.171875 43.882812 45.210938 43.820312 45.273438 43.804688 C 45.339844 43.789062 45.402344 43.828125 45.417969 43.890625 C 45.886719 45.789062 45.953125 47.589844 45.625 49.398438 C 45.613281 49.457031 45.566406 49.496094 45.507812 49.496094 Z M 45.507812 49.496094 " fill-opacity="1" fill-rule="nonzero"/><path fill="#2e2e2e" d="M 42.773438 50 C 42.761719 50 42.753906 50 42.742188 49.996094 C 42.679688 49.980469 42.640625 49.917969 42.65625 49.855469 C 42.695312 49.695312 42.730469 49.535156 42.761719 49.378906 C 43.113281 47.515625 42.789062 45.777344 42.425781 44.320312 C 42.410156 44.257812 42.449219 44.195312 42.511719 44.179688 C 42.574219 44.164062 42.640625 44.203125 42.65625 44.265625 C 43.023438 45.746094 43.351562 47.515625 42.992188 49.421875 C 42.960938 49.585938 42.925781 49.75 42.886719 49.910156 C 42.871094 49.964844 42.824219 50 42.773438 50 Z M 42.773438 50 " fill-opacity="1" fill-rule="nonzero"/><path fill="#2e2e2e" d="M 39.648438 50.3125 C 39.582031 50.3125 39.53125 50.261719 39.53125 50.195312 C 39.539062 48.007812 39.34375 46.40625 38.878906 44.84375 C 38.863281 44.78125 38.898438 44.714844 38.960938 44.695312 C 39.023438 44.679688 39.089844 44.714844 39.105469 44.777344 C 39.578125 46.363281 39.773438 47.984375 39.765625 50.199219 C 39.765625 50.261719 39.714844 50.3125 39.648438 50.3125 Z M 39.648438 50.3125 " fill-opacity="1" fill-rule="nonzero"/><path fill="#2e2e2e" d="M 37.222656 49.800781 C 37.164062 49.800781 37.113281 49.757812 37.105469 49.703125 C 36.953125 48.605469 36.722656 47.457031 36.410156 46.191406 C 36.394531 46.128906 36.433594 46.066406 36.496094 46.050781 C 36.558594 46.035156 36.621094 46.074219 36.636719 46.136719 C 36.953125 47.410156 37.183594 48.566406 37.339844 49.667969 C 37.351562 49.734375 37.304688 49.792969 37.242188 49.800781 C 37.234375 49.800781 37.230469 49.800781 37.222656 49.800781 Z M 37.222656 49.800781 " fill-opacity="1" fill-rule="nonzero"/><path fill="#2e2e2e" d="M 31.457031 53.621094 C 31.453125 53.621094 31.445312 53.621094 31.441406 53.621094 C 30.988281 53.554688 30.539062 53.480469 30.105469 53.398438 C 23.464844 52.160156 19.085938 49.308594 17.09375 44.925781 C 17.070312 44.867188 17.09375 44.796875 17.152344 44.769531 C 17.214844 44.742188 17.285156 44.769531 17.3125 44.828125 C 19.269531 49.136719 23.585938 51.945312 30.148438 53.167969 C 30.582031 53.25 31.027344 53.324219 31.476562 53.386719 C 31.539062 53.398438 31.585938 53.457031 31.574219 53.523438 C 31.566406 53.578125 31.515625 53.621094 31.457031 53.621094 Z M 31.457031 53.621094 " fill-opacity="1" fill-rule="nonzero"/><path fill="#2e2e2e" d="M 48.40625 92.363281 C 48.394531 92.363281 48.378906 92.363281 48.367188 92.355469 C 44.53125 90.964844 40.824219 89.171875 37.34375 87.019531 C 35.660156 85.976562 34.050781 84.777344 32.5 83.617188 C 30.988281 82.488281 29.425781 81.324219 27.796875 80.308594 C 25.371094 78.792969 22.78125 77.464844 20.273438 76.179688 L 19.300781 75.679688 C 16.53125 74.253906 13.90625 72.71875 11.007812 71.003906 C 10.839844 70.902344 10.664062 70.800781 10.488281 70.699219 C 9.550781 70.160156 8.582031 69.601562 7.871094 68.773438 C 6.550781 67.226562 7.351562 65.09375 7.996094 63.382812 C 8.066406 63.199219 8.132812 63.023438 8.195312 62.851562 C 8.214844 62.789062 8.285156 62.757812 8.34375 62.78125 C 8.40625 62.800781 8.4375 62.867188 8.414062 62.929688 C 8.355469 63.101562 8.285156 63.28125 8.21875 63.464844 C 7.59375 65.117188 6.820312 67.179688 8.050781 68.621094 C 8.734375 69.417969 9.6875 69.96875 10.605469 70.496094 C 10.78125 70.597656 10.957031 70.699219 11.128906 70.800781 C 14.023438 72.515625 16.644531 74.046875 19.410156 75.46875 L 20.382812 75.96875 C 22.890625 77.257812 25.488281 78.589844 27.921875 80.109375 C 29.558594 81.128906 31.125 82.296875 32.640625 83.429688 C 34.191406 84.585938 35.792969 85.785156 37.46875 86.820312 C 40.933594 88.960938 44.628906 90.75 48.445312 92.136719 C 48.507812 92.15625 48.539062 92.226562 48.515625 92.285156 C 48.5 92.335938 48.453125 92.363281 48.40625 92.363281 Z M 48.40625 92.363281 " fill-opacity="1" fill-rule="nonzero"/><path fill="#2e2e2e" d="M 22.769531 75.878906 C 22.726562 75.878906 22.6875 75.855469 22.664062 75.816406 C 19.679688 70.34375 15.597656 66.441406 10.1875 63.890625 C 10.128906 63.863281 10.105469 63.792969 10.132812 63.734375 C 10.160156 63.675781 10.230469 63.652344 10.289062 63.679688 C 15.746094 66.25 19.863281 70.183594 22.871094 75.703125 C 22.902344 75.761719 22.882812 75.832031 22.824219 75.863281 C 22.808594 75.875 22.789062 75.878906 22.769531 75.878906 Z M 22.769531 75.878906 " fill-opacity="1" fill-rule="nonzero"/><path fill="#2e2e2e" d="M 19.394531 73.1875 C 19.355469 73.1875 19.320312 73.167969 19.296875 73.136719 C 17.1875 70.082031 14.078125 67.535156 10.050781 65.566406 C 9.992188 65.539062 9.96875 65.464844 9.996094 65.410156 C 10.027344 65.351562 10.097656 65.328125 10.15625 65.355469 C 14.21875 67.34375 17.359375 69.917969 19.492188 73.003906 C 19.527344 73.058594 19.515625 73.128906 19.460938 73.167969 C 19.441406 73.179688 19.417969 73.1875 19.394531 73.1875 Z M 19.394531 73.1875 " fill-opacity="1" fill-rule="nonzero"/><path fill="#2e2e2e" d="M 63.449219 81.5625 C 63.222656 81.5625 62.992188 81.554688 62.753906 81.546875 C 62.691406 81.542969 62.640625 81.488281 62.640625 81.425781 C 62.644531 81.359375 62.699219 81.308594 62.765625 81.3125 C 66.289062 81.453125 68.898438 80.539062 70.972656 78.445312 C 71.015625 78.402344 71.089844 78.398438 71.136719 78.445312 C 71.183594 78.492188 71.183594 78.566406 71.140625 78.613281 C 69.15625 80.613281 66.699219 81.5625 63.449219 81.5625 Z M 63.449219 81.5625 " fill-opacity="1" fill-rule="nonzero"/></svg>