<svg xmlns="http://www.w3.org/2000/svg" xmlns:xlink="http://www.w3.org/1999/xlink" width="150" zoomAndPan="magnify" viewBox="0 0 112.5 112.499997" height="150" preserveAspectRatio="xMidYMid meet" version="1.0"><defs><clipPath id="24497aacf4"><path d="M 11.199219 51 L 43 51 L 43 81.957031 L 11.199219 81.957031 Z M 11.199219 51 " clip-rule="nonzero"/></clipPath><clipPath id="ba96cfa396"><path d="M 11.199219 50 L 43 50 L 43 81.957031 L 11.199219 81.957031 Z M 11.199219 50 " clip-rule="nonzero"/></clipPath><clipPath id="bd3ee13bad"><path d="M 61 51 L 92.589844 51 L 92.589844 81.957031 L 61 81.957031 Z M 61 51 " clip-rule="nonzero"/></clipPath><clipPath id="5b7bbbd2d7"><path d="M 61 50 L 92.589844 50 L 92.589844 81.957031 L 61 81.957031 Z M 61 50 " clip-rule="nonzero"/></clipPath><clipPath id="4de3daa017"><path d="M 64 29.691406 L 71 29.691406 L 71 37 L 64 37 Z M 64 29.691406 " clip-rule="nonzero"/></clipPath></defs><path fill="#0f0a0a" d="M 26.5625 79.636719 L 27.382812 79.636719 L 27.382812 53.089844 L 26.5625 53.089844 Z M 26.5625 79.636719 " fill-opacity="1" fill-rule="nonzero"/><path fill="#0f0a0a" d="M 13.59375 66.769531 L 40.351562 66.769531 L 40.351562 65.957031 L 13.59375 65.957031 Z M 13.59375 66.769531 " fill-opacity="1" fill-rule="nonzero"/><path fill="#0f0a0a" d="M 17.804688 76.039062 L 36.722656 57.265625 L 36.140625 56.6875 L 17.222656 75.460938 " fill-opacity="1" fill-rule="nonzero"/><path fill="#0f0a0a" d="M 17.222656 57.265625 L 36.140625 76.039062 L 36.722656 75.460938 L 17.804688 56.6875 " fill-opacity="1" fill-rule="nonzero"/><path fill="#bdbcbc" d="M 29.320312 66.363281 C 29.320312 67.648438 28.269531 68.691406 26.972656 68.691406 C 25.675781 68.691406 24.625 67.648438 24.625 66.363281 C 24.625 65.078125 25.675781 64.03125 26.972656 64.03125 C 28.269531 64.03125 29.320312 65.078125 29.320312 66.363281 " fill-opacity="1" fill-rule="nonzero"/><path fill="#0f0a0a" d="M 29.320312 66.363281 L 28.910156 66.363281 C 28.910156 66.894531 28.695312 67.371094 28.34375 67.722656 C 27.992188 68.070312 27.507812 68.285156 26.972656 68.285156 C 26.4375 68.285156 25.953125 68.070312 25.601562 67.722656 C 25.25 67.371094 25.035156 66.894531 25.035156 66.363281 C 25.035156 65.832031 25.25 65.351562 25.601562 65.003906 C 25.953125 64.65625 26.4375 64.441406 26.972656 64.441406 C 27.507812 64.441406 27.992188 64.65625 28.34375 65.003906 C 28.695312 65.351562 28.910156 65.832031 28.910156 66.363281 L 29.730469 66.363281 C 29.730469 64.851562 28.496094 63.625 26.972656 63.625 C 25.449219 63.625 24.214844 64.851562 24.214844 66.363281 C 24.214844 67.875 25.449219 69.101562 26.972656 69.101562 C 28.496094 69.101562 29.730469 67.875 29.730469 66.363281 L 29.320312 66.363281 " fill-opacity="1" fill-rule="nonzero"/><g clip-path="url(#24497aacf4)"><path fill="#393536" d="M 26.972656 78.175781 C 20.398438 78.175781 15.066406 72.886719 15.066406 66.363281 C 15.066406 59.839844 20.398438 54.550781 26.972656 54.550781 C 33.546875 54.550781 38.878906 59.839844 38.878906 66.363281 C 38.878906 72.886719 33.546875 78.175781 26.972656 78.175781 Z M 26.972656 51.179688 C 18.523438 51.179688 11.671875 57.980469 11.671875 66.363281 C 11.671875 74.746094 18.523438 81.542969 26.972656 81.542969 C 35.421875 81.542969 42.273438 74.746094 42.273438 66.363281 C 42.273438 57.980469 35.421875 51.179688 26.972656 51.179688 " fill-opacity="1" fill-rule="nonzero"/></g><g clip-path="url(#ba96cfa396)"><path fill="#0f0a0a" d="M 26.972656 78.175781 L 26.972656 77.769531 C 23.796875 77.769531 20.925781 76.492188 18.84375 74.429688 C 16.765625 72.363281 15.476562 69.511719 15.476562 66.363281 C 15.476562 63.210938 16.765625 60.363281 18.84375 58.296875 C 20.925781 56.234375 23.796875 54.960938 26.972656 54.957031 C 30.148438 54.960938 33.019531 56.234375 35.101562 58.296875 C 37.179688 60.363281 38.464844 63.210938 38.46875 66.363281 C 38.464844 69.511719 37.179688 72.363281 35.101562 74.429688 C 33.019531 76.492188 30.148438 77.769531 26.972656 77.769531 L 26.972656 78.582031 C 33.777344 78.582031 39.289062 73.113281 39.289062 66.363281 C 39.289062 59.613281 33.777344 54.144531 26.972656 54.144531 C 20.171875 54.144531 14.65625 59.613281 14.65625 66.363281 C 14.65625 73.113281 20.171875 78.582031 26.972656 78.582031 Z M 26.972656 51.179688 L 26.972656 50.773438 C 18.296875 50.773438 11.261719 57.753906 11.261719 66.363281 C 11.261719 74.972656 18.296875 81.953125 26.972656 81.953125 C 35.648438 81.953125 42.683594 74.972656 42.683594 66.363281 C 42.683594 57.753906 35.648438 50.773438 26.972656 50.773438 L 26.972656 51.589844 C 31.085938 51.589844 34.804688 53.242188 37.5 55.917969 C 40.199219 58.589844 41.863281 62.28125 41.863281 66.363281 C 41.863281 70.445312 40.199219 74.136719 37.5 76.808594 C 34.804688 79.484375 31.085938 81.136719 26.972656 81.136719 C 22.859375 81.136719 19.140625 79.484375 16.445312 76.808594 C 13.75 74.136719 12.082031 70.445312 12.082031 66.363281 C 12.082031 62.28125 13.75 58.589844 16.445312 55.917969 C 19.140625 53.242188 22.859375 51.589844 26.972656 51.589844 L 26.972656 51.179688 " fill-opacity="1" fill-rule="nonzero"/></g><path fill="#bdbcbc" d="M 26.972656 78.175781 C 20.398438 78.175781 15.066406 72.886719 15.066406 66.363281 C 15.066406 59.839844 20.398438 54.550781 26.972656 54.550781 C 33.546875 54.550781 38.878906 59.839844 38.878906 66.363281 C 38.878906 72.886719 33.546875 78.175781 26.972656 78.175781 Z M 26.972656 53.089844 C 19.585938 53.089844 13.59375 59.03125 13.59375 66.363281 C 13.59375 73.695312 19.585938 79.636719 26.972656 79.636719 C 34.363281 79.636719 40.351562 73.695312 40.351562 66.363281 C 40.351562 59.03125 34.363281 53.089844 26.972656 53.089844 " fill-opacity="1" fill-rule="nonzero"/><path fill="#0f0a0a" d="M 26.972656 78.175781 L 26.972656 77.769531 C 23.796875 77.769531 20.925781 76.492188 18.84375 74.429688 C 16.765625 72.363281 15.476562 69.511719 15.476562 66.363281 C 15.476562 63.210938 16.765625 60.363281 18.84375 58.296875 C 20.925781 56.234375 23.796875 54.960938 26.972656 54.957031 C 30.148438 54.960938 33.019531 56.234375 35.101562 58.296875 C 37.179688 60.363281 38.464844 63.210938 38.46875 66.363281 C 38.464844 69.511719 37.179688 72.363281 35.101562 74.429688 C 33.019531 76.492188 30.148438 77.769531 26.972656 77.769531 L 26.972656 78.582031 C 33.777344 78.582031 39.289062 73.113281 39.289062 66.363281 C 39.289062 59.613281 33.777344 54.144531 26.972656 54.144531 C 20.171875 54.144531 14.65625 59.613281 14.65625 66.363281 C 14.65625 73.113281 20.171875 78.582031 26.972656 78.582031 Z M 26.972656 53.089844 L 26.972656 52.679688 C 19.359375 52.683594 13.183594 58.808594 13.183594 66.363281 C 13.183594 73.917969 19.359375 80.042969 26.972656 80.046875 C 34.589844 80.042969 40.761719 73.917969 40.761719 66.363281 C 40.761719 58.808594 34.589844 52.683594 26.972656 52.679688 L 26.972656 53.496094 C 30.554688 53.496094 33.792969 54.9375 36.140625 57.265625 C 38.488281 59.59375 39.941406 62.808594 39.941406 66.363281 C 39.941406 69.917969 38.488281 73.132812 36.140625 75.460938 C 33.792969 77.789062 30.554688 79.230469 26.972656 79.230469 C 23.390625 79.230469 20.152344 77.789062 17.804688 75.460938 C 15.457031 73.132812 14.007812 69.917969 14.007812 66.363281 C 14.007812 62.808594 15.457031 59.59375 17.804688 57.265625 C 20.152344 54.9375 23.390625 53.496094 26.972656 53.496094 L 26.972656 53.089844 " fill-opacity="1" fill-rule="nonzero"/><path fill="#0f0a0a" d="M 76.417969 79.636719 L 77.242188 79.636719 L 77.242188 53.089844 L 76.417969 53.089844 Z M 76.417969 79.636719 " fill-opacity="1" fill-rule="nonzero"/><path fill="#0f0a0a" d="M 63.453125 66.769531 L 90.207031 66.769531 L 90.207031 65.957031 L 63.453125 65.957031 Z M 63.453125 66.769531 " fill-opacity="1" fill-rule="nonzero"/><path fill="#0f0a0a" d="M 67.660156 76.039062 L 86.582031 57.265625 L 86 56.6875 L 67.082031 75.460938 " fill-opacity="1" fill-rule="nonzero"/><path fill="#0f0a0a" d="M 67.082031 57.265625 L 86 76.039062 L 86.582031 75.460938 L 67.660156 56.6875 " fill-opacity="1" fill-rule="nonzero"/><path fill="#bdbcbc" d="M 79.179688 66.363281 C 79.179688 67.648438 78.128906 68.691406 76.832031 68.691406 C 75.535156 68.691406 74.480469 67.648438 74.480469 66.363281 C 74.480469 65.078125 75.535156 64.03125 76.832031 64.03125 C 78.128906 64.03125 79.179688 65.078125 79.179688 66.363281 " fill-opacity="1" fill-rule="nonzero"/><path fill="#0f0a0a" d="M 79.179688 66.363281 L 78.765625 66.363281 C 78.765625 66.894531 78.550781 67.375 78.199219 67.722656 C 77.847656 68.070312 77.367188 68.285156 76.832031 68.285156 C 76.292969 68.285156 75.8125 68.070312 75.460938 67.722656 C 75.109375 67.371094 74.894531 66.894531 74.894531 66.363281 C 74.894531 65.832031 75.109375 65.351562 75.460938 65.003906 C 75.8125 64.65625 76.292969 64.441406 76.832031 64.441406 C 77.367188 64.441406 77.847656 64.65625 78.199219 65.003906 C 78.550781 65.351562 78.765625 65.832031 78.765625 66.363281 L 79.589844 66.363281 C 79.589844 64.851562 78.355469 63.625 76.832031 63.625 C 75.308594 63.625 74.070312 64.851562 74.070312 66.363281 C 74.070312 67.875 75.308594 69.101562 76.832031 69.101562 C 78.355469 69.101562 79.589844 67.875 79.589844 66.363281 L 79.179688 66.363281 " fill-opacity="1" fill-rule="nonzero"/><g clip-path="url(#bd3ee13bad)"><path fill="#393536" d="M 76.832031 78.175781 C 70.253906 78.175781 64.925781 72.886719 64.925781 66.363281 C 64.925781 59.839844 70.253906 54.550781 76.832031 54.550781 C 83.40625 54.550781 88.734375 59.839844 88.734375 66.363281 C 88.734375 72.886719 83.40625 78.175781 76.832031 78.175781 Z M 76.832031 51.179688 C 68.378906 51.179688 61.527344 57.980469 61.527344 66.363281 C 61.527344 74.746094 68.378906 81.542969 76.832031 81.542969 C 85.28125 81.542969 92.132812 74.746094 92.132812 66.363281 C 92.132812 57.980469 85.28125 51.179688 76.832031 51.179688 " fill-opacity="1" fill-rule="nonzero"/></g><g clip-path="url(#5b7bbbd2d7)"><path fill="#0f0a0a" d="M 76.832031 78.175781 L 76.832031 77.769531 C 73.65625 77.769531 70.785156 76.492188 68.703125 74.429688 C 66.621094 72.363281 65.335938 69.511719 65.335938 66.363281 C 65.335938 63.210938 66.621094 60.363281 68.703125 58.296875 C 70.785156 56.234375 73.65625 54.960938 76.832031 54.957031 C 80.003906 54.960938 82.875 56.234375 84.957031 58.296875 C 87.039062 60.363281 88.324219 63.210938 88.324219 66.363281 C 88.324219 69.511719 87.039062 72.363281 84.957031 74.429688 C 82.875 76.492188 80.003906 77.769531 76.832031 77.769531 L 76.832031 78.582031 C 83.632812 78.582031 89.148438 73.113281 89.148438 66.363281 C 89.148438 59.613281 83.632812 54.144531 76.832031 54.144531 C 70.027344 54.144531 64.515625 59.613281 64.511719 66.363281 C 64.515625 73.113281 70.027344 78.582031 76.832031 78.582031 Z M 76.832031 51.179688 L 76.832031 50.773438 C 68.152344 50.773438 61.117188 57.753906 61.117188 66.363281 C 61.117188 74.972656 68.152344 81.953125 76.832031 81.953125 C 85.507812 81.953125 92.542969 74.972656 92.542969 66.363281 C 92.542969 57.753906 85.507812 50.773438 76.832031 50.773438 L 76.832031 51.589844 C 80.941406 51.589844 84.664062 53.242188 87.359375 55.917969 C 90.054688 58.589844 91.71875 62.28125 91.722656 66.363281 C 91.71875 70.445312 90.054688 74.136719 87.359375 76.808594 C 84.664062 79.484375 80.941406 81.136719 76.832031 81.136719 C 72.71875 81.136719 68.996094 79.484375 66.300781 76.808594 C 63.605469 74.136719 61.941406 70.445312 61.941406 66.363281 C 61.941406 62.28125 63.605469 58.589844 66.300781 55.917969 C 68.996094 53.242188 72.71875 51.589844 76.832031 51.589844 L 76.832031 51.179688 " fill-opacity="1" fill-rule="nonzero"/></g><path fill="#bdbcbc" d="M 76.832031 78.175781 C 70.253906 78.175781 64.925781 72.886719 64.925781 66.363281 C 64.925781 59.839844 70.253906 54.550781 76.832031 54.550781 C 83.40625 54.550781 88.734375 59.839844 88.734375 66.363281 C 88.734375 72.886719 83.40625 78.175781 76.832031 78.175781 Z M 76.832031 53.089844 C 69.441406 53.089844 63.453125 59.03125 63.453125 66.363281 C 63.453125 73.695312 69.441406 79.636719 76.832031 79.636719 C 84.21875 79.636719 90.207031 73.695312 90.207031 66.363281 C 90.207031 59.03125 84.21875 53.089844 76.832031 53.089844 " fill-opacity="1" fill-rule="nonzero"/><path fill="#0f0a0a" d="M 76.832031 78.175781 L 76.832031 77.769531 C 73.65625 77.769531 70.785156 76.492188 68.703125 74.429688 C 66.621094 72.363281 65.335938 69.511719 65.335938 66.363281 C 65.335938 63.210938 66.621094 60.363281 68.703125 58.296875 C 70.785156 56.234375 73.65625 54.960938 76.832031 54.957031 C 80.003906 54.960938 82.875 56.234375 84.957031 58.296875 C 87.039062 60.363281 88.324219 63.210938 88.324219 66.363281 C 88.324219 69.511719 87.039062 72.363281 84.957031 74.429688 C 82.875 76.492188 80.003906 77.769531 76.832031 77.769531 L 76.832031 78.582031 C 83.632812 78.582031 89.148438 73.113281 89.148438 66.363281 C 89.148438 59.613281 83.632812 54.144531 76.832031 54.144531 C 70.027344 54.144531 64.515625 59.613281 64.511719 66.363281 C 64.515625 73.113281 70.027344 78.582031 76.832031 78.582031 Z M 76.832031 53.089844 L 76.832031 52.679688 C 69.214844 52.683594 63.042969 58.808594 63.042969 66.363281 C 63.042969 73.917969 69.214844 80.042969 76.832031 80.046875 C 84.445312 80.042969 90.617188 73.917969 90.617188 66.363281 C 90.617188 58.808594 84.445312 52.683594 76.832031 52.679688 L 76.832031 53.496094 C 80.414062 53.496094 83.652344 54.9375 86 57.265625 C 88.347656 59.59375 89.796875 62.808594 89.796875 66.363281 C 89.796875 69.917969 88.347656 73.132812 86 75.460938 C 83.652344 77.789062 80.414062 79.230469 76.832031 79.230469 C 73.25 79.230469 70.007812 77.789062 67.660156 75.460938 C 65.3125 73.132812 63.863281 69.917969 63.863281 66.363281 C 63.863281 62.808594 65.3125 59.59375 67.660156 57.265625 C 70.007812 54.9375 73.25 53.496094 76.832031 53.496094 L 76.832031 53.089844 " fill-opacity="1" fill-rule="nonzero"/><path fill="#bdbcbc" d="M 56.878906 65.875 C 56.878906 69.070312 54.269531 71.660156 51.046875 71.660156 C 47.828125 71.660156 45.21875 69.070312 45.21875 65.875 C 45.21875 62.683594 47.828125 60.089844 51.046875 60.089844 C 54.269531 60.089844 56.878906 62.683594 56.878906 65.875 " fill-opacity="1" fill-rule="nonzero"/><path fill="#0f0a0a" d="M 56.878906 65.875 L 56.46875 65.875 C 56.46875 67.363281 55.863281 68.703125 54.882812 69.675781 C 53.898438 70.652344 52.546875 71.253906 51.046875 71.253906 C 49.550781 71.253906 48.199219 70.652344 47.21875 69.675781 C 46.234375 68.703125 45.628906 67.363281 45.628906 65.875 C 45.628906 64.390625 46.234375 63.050781 47.21875 62.074219 C 48.199219 61.101562 49.550781 60.5 51.046875 60.5 C 52.546875 60.5 53.898438 61.101562 54.882812 62.074219 C 55.863281 63.050781 56.46875 64.390625 56.46875 65.875 L 57.289062 65.875 C 57.289062 62.457031 54.496094 59.683594 51.046875 59.683594 C 47.601562 59.683594 44.808594 62.457031 44.808594 65.875 C 44.808594 69.296875 47.601562 72.066406 51.046875 72.066406 C 54.496094 72.066406 57.289062 69.296875 57.289062 65.875 L 56.878906 65.875 " fill-opacity="1" fill-rule="nonzero"/><path fill="#bdbcbc" d="M 53.996094 65.875 C 53.996094 67.488281 52.675781 68.800781 51.046875 68.800781 C 49.421875 68.800781 48.101562 67.488281 48.101562 65.875 C 48.101562 64.261719 49.421875 62.953125 51.046875 62.953125 C 52.675781 62.953125 53.996094 64.261719 53.996094 65.875 " fill-opacity="1" fill-rule="nonzero"/><path fill="#0f0a0a" d="M 53.996094 65.875 L 53.585938 65.875 C 53.585938 66.570312 53.300781 67.199219 52.839844 67.652344 C 52.382812 68.109375 51.75 68.390625 51.046875 68.390625 C 50.347656 68.390625 49.714844 68.109375 49.257812 67.652344 C 48.796875 67.199219 48.515625 66.570312 48.515625 65.875 C 48.515625 65.179688 48.796875 64.554688 49.257812 64.097656 C 49.714844 63.640625 50.347656 63.363281 51.046875 63.363281 C 51.75 63.363281 52.382812 63.640625 52.839844 64.097656 C 53.300781 64.554688 53.585938 65.179688 53.585938 65.875 L 54.40625 65.875 C 54.40625 64.035156 52.902344 62.546875 51.046875 62.546875 C 49.195312 62.546875 47.691406 64.035156 47.691406 65.875 C 47.691406 67.714844 49.195312 69.207031 51.046875 69.207031 C 52.902344 69.207031 54.40625 67.714844 54.40625 65.875 L 53.996094 65.875 " fill-opacity="1" fill-rule="nonzero"/><path fill="#bdbcbc" d="M 73.59375 47.722656 C 73.59375 47.722656 73.808594 48.824219 74.164062 50.464844 C 74.503906 52.109375 75.007812 54.289062 75.492188 56.476562 C 75.730469 57.570312 76 58.65625 76.238281 59.679688 C 76.476562 60.699219 76.703125 61.652344 76.894531 62.46875 C 76.988281 62.878906 77.078125 63.253906 77.15625 63.585938 C 77.238281 63.917969 77.296875 64.207031 77.367188 64.445312 C 77.515625 64.910156 77.796875 65.132812 77.796875 65.132812 C 78.46875 65.664062 78.578125 66.636719 78.042969 67.304688 C 77.503906 67.96875 76.527344 68.078125 75.855469 67.546875 C 75.285156 67.097656 75.117188 66.328125 75.40625 65.699219 C 75.40625 65.699219 75.554688 65.375 75.476562 64.890625 C 75.429688 64.652344 75.347656 64.367188 75.269531 64.03125 C 75.1875 63.703125 75.097656 63.328125 74.996094 62.921875 C 74.792969 62.105469 74.558594 61.15625 74.308594 60.136719 C 74.050781 59.121094 73.792969 58.03125 73.507812 56.949219 C 72.945312 54.78125 72.398438 52.609375 71.949219 50.992188 C 71.511719 49.371094 71.207031 48.292969 71.207031 48.292969 C 71.019531 47.644531 71.402344 46.972656 72.054688 46.789062 C 72.707031 46.605469 73.386719 46.980469 73.570312 47.628906 C 73.578125 47.660156 73.585938 47.691406 73.59375 47.722656 " fill-opacity="1" fill-rule="nonzero"/><path fill="#0f0a0a" d="M 73.59375 47.722656 L 73.191406 47.804688 C 73.191406 47.804688 73.40625 48.90625 73.761719 50.550781 L 73.761719 50.546875 C 74.101562 52.199219 74.605469 54.378906 75.089844 56.5625 C 75.332031 57.664062 75.601562 58.75 75.835938 59.769531 L 75.835938 59.773438 C 76.078125 60.792969 76.300781 61.746094 76.496094 62.5625 C 76.589844 62.972656 76.679688 63.347656 76.757812 63.679688 L 76.757812 63.683594 L 76.757812 63.679688 C 76.835938 64.003906 76.894531 64.296875 76.972656 64.554688 L 76.972656 64.566406 C 77.160156 65.140625 77.5 65.417969 77.539062 65.449219 C 77.824219 65.675781 77.96875 66.003906 77.96875 66.339844 C 77.96875 66.589844 77.890625 66.835938 77.722656 67.050781 L 77.722656 67.046875 C 77.492188 67.332031 77.160156 67.476562 76.824219 67.476562 C 76.570312 67.476562 76.320312 67.394531 76.109375 67.230469 C 75.828125 67.003906 75.679688 66.675781 75.679688 66.339844 C 75.679688 66.179688 75.714844 66.015625 75.78125 65.867188 C 75.800781 65.832031 75.910156 65.578125 75.910156 65.179688 C 75.910156 65.070312 75.902344 64.953125 75.882812 64.828125 L 75.878906 64.820312 L 75.878906 64.8125 C 75.828125 64.550781 75.746094 64.261719 75.671875 63.9375 L 75.667969 63.9375 C 75.585938 63.605469 75.496094 63.230469 75.394531 62.824219 C 75.191406 62.007812 74.957031 61.058594 74.707031 60.039062 C 74.453125 59.023438 74.195312 57.933594 73.90625 56.84375 L 73.90625 56.847656 C 73.339844 54.679688 72.796875 52.511719 72.34375 50.882812 L 72.34375 50.886719 C 71.910156 49.261719 71.601562 48.183594 71.601562 48.179688 C 71.578125 48.105469 71.570312 48.03125 71.570312 47.960938 C 71.570312 47.785156 71.628906 47.613281 71.734375 47.476562 C 71.835938 47.335938 71.984375 47.230469 72.164062 47.179688 C 72.242188 47.160156 72.316406 47.148438 72.390625 47.148438 C 72.566406 47.148438 72.738281 47.207031 72.878906 47.308594 C 73.015625 47.414062 73.121094 47.558594 73.175781 47.738281 L 73.570312 47.628906 L 73.171875 47.730469 C 73.179688 47.761719 73.1875 47.789062 73.1875 47.800781 L 73.191406 47.800781 L 73.191406 47.804688 L 73.59375 47.722656 L 73.996094 47.648438 C 73.988281 47.597656 73.976562 47.554688 73.964844 47.523438 L 73.964844 47.515625 C 73.863281 47.160156 73.648438 46.863281 73.367188 46.65625 C 73.089844 46.449219 72.746094 46.332031 72.390625 46.332031 C 72.242188 46.332031 72.089844 46.355469 71.941406 46.394531 C 71.582031 46.496094 71.28125 46.710938 71.074219 46.988281 C 70.867188 47.265625 70.746094 47.605469 70.746094 47.960938 C 70.746094 48.105469 70.769531 48.257812 70.808594 48.402344 C 70.808594 48.402344 70.828125 48.46875 70.863281 48.597656 C 70.972656 48.972656 71.226562 49.882812 71.550781 51.097656 L 71.550781 51.101562 C 72 52.710938 72.542969 54.882812 73.113281 57.050781 C 73.394531 58.128906 73.652344 59.214844 73.910156 60.238281 L 73.910156 60.234375 C 74.160156 61.253906 74.394531 62.203125 74.597656 63.019531 C 74.699219 63.425781 74.789062 63.800781 74.871094 64.128906 C 74.953125 64.46875 75.03125 64.753906 75.074219 64.96875 L 75.476562 64.890625 L 75.070312 64.957031 C 75.082031 65.039062 75.089844 65.113281 75.089844 65.179688 C 75.089844 65.300781 75.070312 65.398438 75.054688 65.460938 C 75.046875 65.492188 75.039062 65.511719 75.035156 65.527344 L 75.03125 65.535156 L 75.175781 65.59375 L 75.035156 65.53125 L 75.03125 65.535156 L 75.175781 65.59375 L 75.035156 65.53125 C 74.914062 65.789062 74.859375 66.0625 74.859375 66.339844 C 74.855469 66.910156 75.109375 67.480469 75.597656 67.867188 C 75.960938 68.152344 76.394531 68.292969 76.824219 68.292969 C 77.398438 68.292969 77.976562 68.039062 78.363281 67.558594 C 78.652344 67.199219 78.792969 66.765625 78.792969 66.339844 C 78.792969 65.769531 78.539062 65.199219 78.050781 64.8125 L 77.898438 65.003906 L 78.054688 64.816406 L 78.050781 64.8125 L 77.898438 65.003906 L 78.054688 64.816406 C 78.039062 64.800781 77.859375 64.636719 77.757812 64.320312 L 77.367188 64.445312 L 77.761719 64.332031 C 77.699219 64.121094 77.640625 63.828125 77.554688 63.488281 L 77.558594 63.492188 C 77.480469 63.160156 77.390625 62.785156 77.292969 62.378906 C 77.101562 61.558594 76.878906 60.605469 76.636719 59.585938 L 76.636719 59.578125 L 76.636719 59.589844 C 76.398438 58.5625 76.132812 57.476562 75.894531 56.390625 C 75.40625 54.203125 74.902344 52.019531 74.566406 50.382812 L 74.566406 50.378906 C 74.390625 49.5625 74.246094 48.875 74.148438 48.398438 C 74.097656 48.160156 74.0625 47.96875 74.035156 47.84375 C 74.023438 47.777344 74.011719 47.730469 74.007812 47.695312 L 74 47.65625 L 73.996094 47.644531 L 73.996094 47.640625 L 73.992188 47.632812 L 73.988281 47.617188 L 73.980469 47.589844 C 73.976562 47.582031 73.972656 47.570312 73.960938 47.542969 C 73.953125 47.527344 73.945312 47.507812 73.914062 47.46875 L 73.59375 47.722656 L 73.996094 47.648438 L 73.59375 47.722656 " fill-opacity="1" fill-rule="nonzero"/><path fill="#ee2a28" d="M 51.734375 63.988281 L 49.960938 59.128906 C 50.152344 59.1875 50.351562 59.238281 50.554688 59.269531 C 50.773438 59.300781 50.992188 59.320312 51.207031 59.320312 C 52.59375 59.320312 53.945312 58.625 55.242188 57.242188 L 69.542969 41.988281 L 69.824219 43.140625 Z M 47.632812 65.234375 C 45.4375 65.289062 42.511719 65.308594 39.585938 65.351562 C 36.65625 65.367188 33.726562 65.382812 31.53125 65.394531 C 31.042969 65.394531 30.597656 65.398438 30.1875 65.398438 L 44.136719 50.3125 L 49.558594 65.1875 C 49.015625 65.199219 48.367188 65.214844 47.632812 65.234375 Z M 73.015625 45.867188 L 70.753906 36.589844 L 68.367188 37.164062 L 68.851562 39.148438 L 53.445312 55.585938 C 52.539062 56.546875 51.699219 56.980469 50.941406 56.863281 C 49.632812 56.664062 48.527344 54.953125 48.183594 54.257812 L 44.710938 44.734375 L 42.40625 45.5625 L 43.195312 47.730469 L 27.273438 64.953125 C 26.976562 64.925781 26.671875 64.980469 26.398438 65.144531 C 25.71875 65.550781 25.5 66.421875 25.90625 67.09375 C 26.179688 67.546875 26.667969 67.785156 27.160156 67.777344 C 27.246094 67.796875 27.335938 67.808594 27.421875 67.808594 C 27.753906 67.808594 28.085938 67.675781 28.328125 67.414062 L 28.328125 67.410156 C 28.480469 67.371094 28.664062 67.339844 28.878906 67.328125 C 29.199219 67.316406 29.585938 67.324219 30.035156 67.324219 C 30.480469 67.328125 30.984375 67.328125 31.53125 67.332031 C 33.726562 67.34375 36.65625 67.359375 39.585938 67.375 C 42.511719 67.417969 45.4375 67.4375 47.632812 67.492188 C 49.832031 67.546875 51.292969 67.582031 51.292969 67.582031 L 51.351562 67.582031 C 51.792969 67.570312 52.167969 67.328125 52.378906 66.980469 L 70.535156 46.054688 L 70.628906 46.4375 L 73.015625 45.867188 " fill-opacity="1" fill-rule="nonzero"/><path fill="#0f0a0a" d="M 51.734375 63.988281 L 52.121094 63.851562 L 50.347656 58.988281 L 49.960938 59.128906 L 49.839844 59.519531 C 50.046875 59.582031 50.261719 59.636719 50.496094 59.671875 L 50.492188 59.671875 C 50.730469 59.707031 50.96875 59.726562 51.207031 59.726562 C 51.96875 59.726562 52.722656 59.535156 53.449219 59.160156 C 54.171875 58.789062 54.871094 58.238281 55.542969 57.523438 L 69.324219 42.820312 L 69.375 43.03125 L 51.421875 63.722656 L 51.734375 63.988281 L 52.121094 63.851562 L 51.734375 63.988281 L 52.046875 64.253906 L 70.136719 43.40625 C 70.222656 43.308594 70.253906 43.171875 70.226562 43.042969 L 69.945312 41.890625 C 69.90625 41.746094 69.792969 41.632812 69.648438 41.59375 C 69.503906 41.554688 69.347656 41.601562 69.242188 41.710938 L 54.941406 56.964844 C 54.320312 57.628906 53.691406 58.117188 53.070312 58.4375 C 52.445312 58.757812 51.828125 58.910156 51.207031 58.910156 C 51.011719 58.910156 50.816406 58.898438 50.621094 58.867188 L 50.617188 58.867188 C 50.4375 58.839844 50.261719 58.792969 50.082031 58.738281 C 49.933594 58.691406 49.773438 58.734375 49.664062 58.847656 C 49.558594 58.957031 49.523438 59.121094 49.574219 59.265625 L 51.347656 64.128906 C 51.398438 64.261719 51.515625 64.363281 51.660156 64.390625 C 51.804688 64.414062 51.949219 64.363281 52.046875 64.253906 Z M 47.632812 65.234375 L 47.625 64.824219 C 45.433594 64.882812 42.507812 64.902344 39.578125 64.945312 L 39.582031 64.945312 C 36.652344 64.960938 33.726562 64.976562 31.53125 64.988281 C 31.042969 64.988281 30.59375 64.992188 30.1875 64.992188 L 30.1875 65.398438 L 30.492188 65.675781 L 43.980469 51.085938 L 49.171875 65.324219 L 49.558594 65.1875 L 49.550781 64.777344 C 49.007812 64.792969 48.359375 64.808594 47.625 64.824219 L 47.632812 65.234375 L 47.644531 65.640625 C 48.378906 65.621094 49.027344 65.605469 49.570312 65.59375 C 49.703125 65.589844 49.824219 65.523438 49.898438 65.417969 C 49.972656 65.308594 49.992188 65.171875 49.945312 65.046875 L 44.523438 50.175781 C 44.472656 50.039062 44.359375 49.941406 44.21875 49.914062 C 44.074219 49.886719 43.929688 49.933594 43.832031 50.039062 L 29.886719 65.125 C 29.777344 65.242188 29.746094 65.417969 29.8125 65.566406 C 29.878906 65.714844 30.027344 65.808594 30.191406 65.808594 C 30.601562 65.804688 31.046875 65.804688 31.535156 65.800781 C 33.730469 65.792969 36.660156 65.777344 39.585938 65.757812 L 39.589844 65.757812 C 42.515625 65.71875 45.441406 65.695312 47.644531 65.640625 Z M 73.015625 45.867188 L 73.414062 45.769531 L 71.15625 36.492188 C 71.128906 36.390625 71.0625 36.296875 70.96875 36.242188 C 70.878906 36.1875 70.761719 36.167969 70.660156 36.195312 L 68.273438 36.765625 C 68.050781 36.820312 67.917969 37.039062 67.96875 37.257812 L 68.402344 39.03125 L 53.144531 55.304688 C 52.757812 55.714844 52.394531 56.015625 52.066406 56.203125 C 51.734375 56.394531 51.441406 56.472656 51.183594 56.472656 C 51.121094 56.472656 51.0625 56.46875 51.003906 56.460938 C 50.757812 56.421875 50.496094 56.308594 50.238281 56.132812 C 49.855469 55.871094 49.488281 55.480469 49.191406 55.089844 C 48.894531 54.699219 48.667969 54.3125 48.554688 54.074219 L 48.183594 54.257812 L 48.570312 54.117188 L 45.097656 44.59375 C 45.019531 44.382812 44.785156 44.273438 44.574219 44.351562 L 42.265625 45.179688 C 42.050781 45.253906 41.941406 45.488281 42.019531 45.699219 L 42.722656 47.636719 L 26.96875 64.675781 L 27.273438 64.953125 L 27.308594 64.546875 C 27.25 64.539062 27.191406 64.539062 27.128906 64.539062 C 26.8125 64.539062 26.484375 64.617188 26.1875 64.796875 C 25.609375 65.136719 25.289062 65.746094 25.292969 66.363281 C 25.289062 66.683594 25.378906 67.011719 25.554688 67.304688 C 25.726562 67.589844 25.96875 67.8125 26.242188 67.960938 C 26.515625 68.109375 26.824219 68.1875 27.132812 68.1875 L 27.167969 68.1875 L 27.160156 67.777344 L 27.074219 68.175781 C 27.179688 68.199219 27.296875 68.214844 27.421875 68.214844 C 27.863281 68.21875 28.308594 68.039062 28.628906 67.6875 L 28.328125 67.414062 L 28.617188 67.703125 L 28.621094 67.699219 L 28.328125 67.410156 L 28.433594 67.804688 C 28.558594 67.773438 28.714844 67.746094 28.902344 67.734375 L 28.878906 67.328125 L 28.894531 67.734375 C 29 67.730469 29.117188 67.730469 29.246094 67.730469 C 29.464844 67.730469 29.710938 67.734375 29.980469 67.734375 L 30.03125 67.734375 C 30.476562 67.734375 30.980469 67.738281 31.53125 67.738281 C 33.726562 67.75 36.652344 67.765625 39.582031 67.78125 L 39.578125 67.78125 C 42.507812 67.824219 45.433594 67.84375 47.625 67.902344 C 49.820312 67.953125 51.285156 67.988281 51.285156 67.988281 L 51.363281 67.988281 C 51.953125 67.976562 52.457031 67.652344 52.734375 67.1875 L 52.378906 66.980469 L 52.691406 67.246094 L 70.847656 46.320312 L 70.535156 46.054688 L 70.136719 46.152344 L 70.230469 46.535156 C 70.285156 46.753906 70.503906 46.886719 70.726562 46.835938 L 73.113281 46.261719 C 73.21875 46.234375 73.308594 46.171875 73.367188 46.078125 C 73.421875 45.984375 73.441406 45.875 73.414062 45.769531 L 73.015625 45.867188 L 72.917969 45.46875 L 70.53125 46.042969 L 70.628906 46.4375 L 71.027344 46.339844 L 70.933594 45.957031 C 70.898438 45.808594 70.78125 45.691406 70.632812 45.65625 C 70.480469 45.621094 70.324219 45.671875 70.222656 45.789062 L 52.066406 66.714844 C 52.050781 66.730469 52.035156 66.75 52.023438 66.773438 C 51.882812 67.007812 51.632812 67.167969 51.34375 67.171875 L 51.351562 67.582031 L 51.351562 67.171875 L 51.292969 67.171875 L 51.292969 67.582031 L 51.304688 67.171875 C 51.304688 67.171875 50.9375 67.164062 50.296875 67.148438 C 49.65625 67.132812 48.742188 67.113281 47.644531 67.085938 C 45.441406 67.03125 42.515625 67.007812 39.589844 66.964844 L 39.585938 66.964844 C 36.660156 66.949219 33.730469 66.9375 31.535156 66.925781 C 30.984375 66.921875 30.480469 66.917969 30.035156 66.917969 L 29.980469 66.917969 C 29.71875 66.917969 29.472656 66.914062 29.246094 66.914062 C 29.113281 66.914062 28.984375 66.914062 28.863281 66.917969 L 28.855469 66.917969 C 28.609375 66.933594 28.398438 66.972656 28.230469 67.015625 C 28.15625 67.035156 28.09375 67.070312 28.039062 67.121094 L 28.023438 67.136719 C 27.863281 67.3125 27.644531 67.398438 27.421875 67.402344 C 27.371094 67.402344 27.3125 67.394531 27.25 67.378906 C 27.21875 67.375 27.183594 67.371094 27.15625 67.371094 L 27.132812 67.371094 C 26.960938 67.371094 26.789062 67.328125 26.636719 67.246094 C 26.484375 67.164062 26.355469 67.042969 26.261719 66.882812 L 26.257812 66.882812 C 26.160156 66.71875 26.113281 66.542969 26.113281 66.363281 C 26.113281 66.019531 26.289062 65.683594 26.609375 65.496094 C 26.769531 65.398438 26.949219 65.351562 27.128906 65.351562 C 27.164062 65.351562 27.199219 65.355469 27.234375 65.359375 C 27.363281 65.371094 27.488281 65.320312 27.574219 65.226562 L 43.496094 48.003906 C 43.601562 47.890625 43.632812 47.734375 43.582031 47.589844 L 42.929688 45.804688 L 44.464844 45.253906 L 47.796875 54.394531 L 47.816406 54.433594 C 48.003906 54.816406 48.378906 55.4375 48.894531 56.015625 C 49.152344 56.304688 49.445312 56.582031 49.773438 56.804688 C 50.101562 57.03125 50.472656 57.203125 50.878906 57.265625 C 50.980469 57.28125 51.082031 57.289062 51.183594 57.289062 C 51.617188 57.289062 52.054688 57.152344 52.476562 56.910156 C 52.902344 56.664062 53.320312 56.316406 53.746094 55.863281 L 69.15625 39.425781 C 69.246094 39.328125 69.285156 39.1875 69.253906 39.054688 L 68.863281 37.464844 L 70.453125 37.082031 L 72.617188 45.960938 L 73.015625 45.867188 L 72.917969 45.46875 L 73.015625 45.867188 " fill-opacity="1" fill-rule="nonzero"/><path fill="#bdbcbc" d="M 42.164062 44.570312 L 40.765625 41.054688 L 43.046875 40.160156 L 44.445312 43.675781 L 42.164062 44.570312 " fill-opacity="1" fill-rule="nonzero"/><path fill="#0f0a0a" d="M 42.164062 44.570312 L 42.546875 44.417969 L 41.296875 41.285156 L 42.816406 40.691406 L 43.914062 43.445312 L 42.015625 44.191406 L 42.164062 44.570312 L 42.546875 44.417969 L 42.164062 44.570312 L 42.316406 44.949219 L 44.980469 43.902344 L 43.277344 39.632812 L 40.230469 40.828125 L 41.933594 45.097656 L 42.316406 44.949219 L 42.164062 44.570312 " fill-opacity="1" fill-rule="nonzero"/><path fill="#bdbcbc" d="M 68.003906 35.546875 L 67.523438 33.65625 L 67.335938 32.925781 C 67.335938 32.925781 63.917969 32.425781 65.203125 31.511719 C 67.84375 29.683594 69.179688 30.226562 69.449219 31.285156 C 69.71875 32.34375 70.386719 34.945312 70.386719 34.945312 L 68.003906 35.546875 " fill-opacity="1" fill-rule="nonzero"/><g clip-path="url(#4de3daa017)"><path fill="#0f0a0a" d="M 68.003906 35.546875 L 68.40625 35.445312 L 67.921875 33.558594 L 67.667969 32.566406 L 67.398438 32.523438 L 67.375 32.519531 C 67.25 32.503906 66.664062 32.40625 66.132812 32.242188 C 65.867188 32.164062 65.617188 32.066406 65.460938 31.976562 C 65.386719 31.929688 65.335938 31.886719 65.320312 31.867188 L 65.3125 31.859375 L 65.265625 31.890625 L 65.320312 31.875 L 65.3125 31.859375 L 65.265625 31.890625 L 65.320312 31.875 L 65.195312 31.914062 L 65.324219 31.914062 L 65.320312 31.875 L 65.195312 31.914062 L 65.324219 31.914062 L 65.207031 31.914062 L 65.320312 31.953125 L 65.324219 31.914062 L 65.207031 31.914062 L 65.320312 31.953125 L 65.269531 31.933594 L 65.316406 31.957031 L 65.320312 31.953125 L 65.269531 31.933594 L 65.316406 31.957031 L 65.308594 31.953125 L 65.316406 31.957031 L 65.308594 31.953125 L 65.316406 31.957031 C 65.316406 31.957031 65.351562 31.90625 65.445312 31.84375 L 65.203125 31.511719 L 65.441406 31.84375 C 66.042969 31.425781 66.570312 31.140625 67.015625 30.964844 C 67.460938 30.789062 67.824219 30.71875 68.101562 30.71875 C 68.410156 30.722656 68.613281 30.800781 68.757812 30.910156 C 68.898438 31.023438 68.996094 31.179688 69.050781 31.382812 C 69.320312 32.441406 69.988281 35.046875 69.988281 35.046875 L 70.386719 34.945312 L 70.285156 34.550781 L 67.90625 35.148438 L 68.003906 35.546875 L 68.40625 35.445312 L 68.003906 35.546875 L 68.105469 35.941406 L 70.886719 35.242188 L 70.785156 34.847656 C 70.785156 34.847656 70.742188 34.683594 70.675781 34.421875 C 70.476562 33.640625 70.050781 31.976562 69.847656 31.183594 C 69.757812 30.832031 69.566406 30.503906 69.261719 30.269531 C 68.960938 30.03125 68.558594 29.902344 68.101562 29.90625 C 67.6875 29.90625 67.226562 30.003906 66.710938 30.210938 C 66.191406 30.414062 65.613281 30.730469 64.96875 31.175781 L 64.964844 31.179688 C 64.835938 31.269531 64.730469 31.367188 64.644531 31.488281 C 64.5625 31.605469 64.503906 31.757812 64.503906 31.914062 C 64.503906 32.015625 64.527344 32.117188 64.566406 32.203125 C 64.644531 32.363281 64.753906 32.472656 64.871094 32.5625 C 65.074219 32.71875 65.316406 32.824219 65.574219 32.917969 C 65.957031 33.058594 66.375 33.160156 66.707031 33.226562 C 67.035156 33.296875 67.269531 33.332031 67.277344 33.332031 L 67.335938 32.925781 L 66.9375 33.027344 L 67.125 33.757812 L 67.707031 36.039062 L 68.105469 35.941406 L 68.003906 35.546875 " fill-opacity="1" fill-rule="nonzero"/></g><path fill="#f79745" d="M 81.058594 43.757812 L 74.738281 43.757812 L 72.894531 35.242188 L 83.328125 35.242188 L 81.058594 43.757812 " fill-opacity="1" fill-rule="nonzero"/><path fill="#0f0a0a" d="M 81.058594 43.757812 L 81.058594 43.351562 L 75.070312 43.351562 L 73.40625 35.648438 L 82.792969 35.648438 L 80.660156 43.65625 L 81.058594 43.757812 L 81.058594 43.351562 L 81.058594 43.757812 L 81.453125 43.863281 L 83.726562 35.34375 C 83.757812 35.222656 83.734375 35.09375 83.65625 34.992188 C 83.578125 34.890625 83.457031 34.832031 83.328125 34.832031 L 72.894531 34.832031 C 72.769531 34.832031 72.65625 34.886719 72.574219 34.984375 C 72.496094 35.082031 72.46875 35.203125 72.492188 35.324219 L 74.335938 43.84375 C 74.375 44.03125 74.542969 44.167969 74.738281 44.167969 L 81.058594 44.167969 C 81.246094 44.167969 81.40625 44.042969 81.453125 43.863281 L 81.058594 43.757812 " fill-opacity="1" fill-rule="nonzero"/><path fill="#bdbcbc" d="M 76.289062 39.5 C 76.289062 39.980469 75.894531 40.375 75.40625 40.375 L 70.382812 40.375 C 69.898438 40.375 69.503906 39.980469 69.503906 39.5 C 69.503906 39.019531 69.898438 38.628906 70.382812 38.628906 L 75.40625 38.628906 C 75.894531 38.628906 76.289062 39.019531 76.289062 39.5 " fill-opacity="1" fill-rule="nonzero"/><path fill="#0f0a0a" d="M 76.289062 39.5 L 75.875 39.5 C 75.875 39.628906 75.824219 39.742188 75.738281 39.828125 C 75.652344 39.914062 75.539062 39.964844 75.40625 39.964844 L 70.382812 39.964844 C 70.253906 39.964844 70.140625 39.914062 70.054688 39.828125 C 69.96875 39.742188 69.914062 39.628906 69.914062 39.5 C 69.914062 39.242188 70.125 39.035156 70.382812 39.035156 L 75.40625 39.035156 C 75.667969 39.035156 75.875 39.242188 75.875 39.5 L 76.699219 39.5 C 76.699219 38.792969 76.121094 38.21875 75.40625 38.21875 L 70.382812 38.21875 C 69.671875 38.21875 69.09375 38.792969 69.09375 39.5 C 69.09375 40.207031 69.671875 40.78125 70.382812 40.78125 L 75.40625 40.78125 C 76.121094 40.78125 76.699219 40.207031 76.699219 39.5 L 76.289062 39.5 " fill-opacity="1" fill-rule="nonzero"/><path fill="#0f0a0a" d="M 70.9375 39.5 C 70.9375 39.703125 70.773438 39.867188 70.570312 39.867188 C 70.367188 39.867188 70.203125 39.703125 70.203125 39.5 C 70.203125 39.300781 70.367188 39.136719 70.570312 39.136719 C 70.773438 39.136719 70.9375 39.300781 70.9375 39.5 " fill-opacity="1" fill-rule="nonzero"/><path fill="#0f0a0a" d="M 75.722656 39.5 C 75.722656 39.703125 75.558594 39.867188 75.355469 39.867188 C 75.152344 39.867188 74.988281 39.703125 74.988281 39.5 C 74.988281 39.300781 75.152344 39.136719 75.355469 39.136719 C 75.558594 39.136719 75.722656 39.300781 75.722656 39.5 " fill-opacity="1" fill-rule="nonzero"/><path fill="#393536" d="M 47.59375 39.5 C 48.699219 39.621094 48.507812 40.75 47.726562 41.214844 C 47 41.644531 45.011719 41.300781 43.238281 41.300781 C 41.59375 41.300781 41.089844 42.605469 39.675781 42.789062 C 37.695312 43.046875 35.441406 41.175781 35.441406 39.804688 C 35.441406 38.890625 36.191406 38.40625 37.480469 38.40625 C 38.769531 38.40625 46.488281 39.378906 47.59375 39.5 " fill-opacity="1" fill-rule="nonzero"/><path fill="#0f0a0a" d="M 47.59375 39.5 L 47.546875 39.90625 C 47.753906 39.929688 47.847656 39.988281 47.890625 40.035156 C 47.914062 40.058594 47.925781 40.078125 47.9375 40.109375 C 47.949219 40.136719 47.957031 40.167969 47.957031 40.210938 C 47.957031 40.300781 47.921875 40.421875 47.847656 40.542969 C 47.769531 40.664062 47.65625 40.78125 47.515625 40.863281 C 47.445312 40.90625 47.304688 40.953125 47.113281 40.980469 C 46.921875 41.011719 46.679688 41.023438 46.40625 41.023438 C 45.53125 41.023438 44.359375 40.894531 43.238281 40.894531 C 42.769531 40.894531 42.371094 40.988281 42.027344 41.132812 C 41.511719 41.347656 41.125 41.660156 40.761719 41.902344 C 40.394531 42.144531 40.0625 42.328125 39.625 42.382812 C 39.519531 42.398438 39.410156 42.40625 39.300781 42.40625 C 38.894531 42.40625 38.46875 42.308594 38.0625 42.144531 C 37.449219 41.898438 36.875 41.492188 36.472656 41.046875 C 36.273438 40.828125 36.113281 40.597656 36.007812 40.382812 C 35.902344 40.167969 35.855469 39.96875 35.855469 39.804688 C 35.855469 39.632812 35.890625 39.5 35.945312 39.386719 C 36.03125 39.222656 36.175781 39.089844 36.429688 38.984375 C 36.679688 38.878906 37.039062 38.8125 37.480469 38.8125 C 37.617188 38.8125 37.878906 38.828125 38.207031 38.851562 C 39.371094 38.945312 41.46875 39.183594 43.390625 39.410156 C 45.3125 39.636719 47.058594 39.851562 47.546875 39.90625 L 47.640625 39.097656 C 47.09375 39.035156 44.882812 38.761719 42.65625 38.503906 C 41.539062 38.371094 40.417969 38.246094 39.492188 38.152344 C 39.027344 38.105469 38.613281 38.066406 38.273438 38.039062 C 37.929688 38.011719 37.667969 37.996094 37.480469 37.996094 C 36.785156 38 36.199219 38.125 35.746094 38.425781 C 35.523438 38.578125 35.339844 38.777344 35.214844 39.015625 C 35.09375 39.25 35.03125 39.523438 35.03125 39.804688 C 35.035156 40.230469 35.191406 40.644531 35.433594 41.03125 C 35.800781 41.613281 36.371094 42.148438 37.042969 42.550781 C 37.71875 42.949219 38.5 43.21875 39.300781 43.21875 C 39.445312 43.21875 39.585938 43.210938 39.730469 43.191406 C 40.144531 43.140625 40.492188 43 40.796875 42.835938 C 41.25 42.585938 41.601562 42.289062 41.972656 42.074219 C 42.152344 41.964844 42.339844 41.875 42.542969 41.8125 C 42.746094 41.75 42.96875 41.710938 43.238281 41.710938 C 44.296875 41.710938 45.460938 41.839844 46.40625 41.839844 C 46.703125 41.839844 46.980469 41.828125 47.238281 41.789062 C 47.492188 41.75 47.726562 41.6875 47.9375 41.5625 C 48.195312 41.410156 48.398438 41.207031 48.542969 40.976562 C 48.6875 40.742188 48.777344 40.484375 48.777344 40.210938 C 48.777344 40.082031 48.757812 39.945312 48.707031 39.816406 C 48.632812 39.625 48.496094 39.445312 48.308594 39.324219 C 48.121094 39.199219 47.894531 39.125 47.640625 39.097656 L 47.59375 39.5 " fill-opacity="1" fill-rule="nonzero"/><path fill="#bdbcbc" d="M 70.484375 47.761719 L 69.917969 45.394531 L 73.390625 44.570312 L 73.960938 46.941406 L 70.484375 47.761719 " fill-opacity="1" fill-rule="nonzero"/><path fill="#0f0a0a" d="M 70.484375 47.761719 L 70.886719 47.667969 L 70.410156 45.695312 L 73.089844 45.0625 L 73.464844 46.636719 L 70.390625 47.367188 L 70.484375 47.761719 L 70.886719 47.667969 L 70.484375 47.761719 L 70.582031 48.160156 L 74.457031 47.242188 L 73.695312 44.078125 L 69.421875 45.09375 L 70.183594 48.253906 L 70.582031 48.160156 L 70.484375 47.761719 " fill-opacity="1" fill-rule="nonzero"/><path fill="#bdbcbc" d="M 67.914062 37.683594 L 67.34375 35.3125 L 70.816406 34.492188 L 71.386719 36.859375 L 67.914062 37.683594 " fill-opacity="1" fill-rule="nonzero"/><path fill="#0f0a0a" d="M 67.914062 37.683594 L 68.3125 37.589844 L 67.839844 35.617188 L 70.515625 34.984375 L 70.894531 36.558594 L 67.816406 37.285156 L 67.914062 37.683594 L 68.3125 37.589844 L 67.914062 37.683594 L 68.007812 38.078125 L 71.882812 37.160156 L 71.121094 34 L 66.847656 35.011719 L 67.609375 38.175781 L 68.007812 38.078125 L 67.914062 37.683594 " fill-opacity="1" fill-rule="nonzero"/><path fill="#bdbcbc" d="M 41.90625 46.367188 L 41.027344 44.09375 L 44.707031 42.691406 L 45.585938 44.964844 L 41.90625 46.367188 " fill-opacity="1" fill-rule="nonzero"/><path fill="#0f0a0a" d="M 41.90625 46.367188 L 42.289062 46.222656 L 41.558594 44.328125 L 44.46875 43.21875 L 45.054688 44.730469 L 41.757812 45.984375 L 41.90625 46.367188 L 42.289062 46.222656 L 41.90625 46.367188 L 42.054688 46.746094 L 46.113281 45.199219 L 44.941406 42.164062 L 40.496094 43.859375 L 41.667969 46.894531 L 42.054688 46.746094 L 41.90625 46.367188 " fill-opacity="1" fill-rule="nonzero"/><path fill="#bdbcbc" d="M 51.847656 65.875 C 51.847656 66.3125 51.488281 66.667969 51.046875 66.667969 C 50.609375 66.667969 50.25 66.3125 50.25 65.875 C 50.25 65.4375 50.609375 65.085938 51.046875 65.085938 C 51.488281 65.085938 51.847656 65.4375 51.847656 65.875 " fill-opacity="1" fill-rule="nonzero"/><path fill="#0f0a0a" d="M 51.847656 65.875 L 51.433594 65.875 C 51.433594 66.085938 51.261719 66.257812 51.046875 66.261719 C 50.835938 66.257812 50.664062 66.089844 50.664062 65.875 C 50.664062 65.664062 50.835938 65.492188 51.046875 65.492188 C 51.261719 65.492188 51.433594 65.664062 51.433594 65.875 L 52.257812 65.875 C 52.257812 65.210938 51.714844 64.675781 51.046875 64.675781 C 50.714844 64.675781 50.414062 64.8125 50.195312 65.027344 C 49.976562 65.242188 49.839844 65.546875 49.839844 65.875 C 49.839844 66.539062 50.382812 67.074219 51.046875 67.074219 C 51.714844 67.074219 52.257812 66.539062 52.257812 65.875 L 51.847656 65.875 " fill-opacity="1" fill-rule="nonzero"/><path fill="#ee2a28" d="M 67.382812 33.222656 C 67.082031 33.957031 66.234375 34.308594 65.496094 34.007812 C 64.757812 33.707031 64.402344 32.871094 64.703125 32.136719 C 65.007812 31.402344 65.851562 31.050781 66.589844 31.351562 C 67.328125 31.648438 67.683594 32.488281 67.382812 33.222656 " fill-opacity="1" fill-rule="nonzero"/><path fill="#0f0a0a" d="M 67.382812 33.222656 L 67 33.066406 C 66.917969 33.269531 66.78125 33.425781 66.613281 33.535156 C 66.445312 33.648438 66.246094 33.707031 66.042969 33.707031 C 65.914062 33.707031 65.78125 33.683594 65.652344 33.632812 C 65.449219 33.546875 65.289062 33.414062 65.179688 33.246094 C 65.066406 33.078125 65.007812 32.878906 65.007812 32.679688 C 65.007812 32.550781 65.03125 32.417969 65.082031 32.292969 C 65.167969 32.089844 65.304688 31.933594 65.472656 31.820312 C 65.640625 31.710938 65.839844 31.652344 66.042969 31.652344 C 66.171875 31.652344 66.304688 31.675781 66.433594 31.730469 C 66.636719 31.808594 66.796875 31.945312 66.90625 32.113281 C 67.015625 32.28125 67.078125 32.476562 67.078125 32.679688 C 67.078125 32.808594 67.054688 32.9375 67 33.066406 L 67.382812 33.222656 L 67.761719 33.375 C 67.855469 33.148438 67.902344 32.910156 67.902344 32.679688 C 67.898438 32.316406 67.792969 31.960938 67.59375 31.664062 C 67.394531 31.363281 67.105469 31.117188 66.746094 30.972656 C 66.515625 30.878906 66.277344 30.835938 66.042969 30.835938 C 65.675781 30.835938 65.320312 30.945312 65.019531 31.140625 C 64.71875 31.339844 64.46875 31.628906 64.324219 31.984375 C 64.230469 32.210938 64.183594 32.445312 64.183594 32.679688 C 64.183594 33.042969 64.292969 33.394531 64.492188 33.695312 C 64.691406 33.992188 64.980469 34.242188 65.339844 34.386719 C 65.570312 34.476562 65.808594 34.523438 66.042969 34.523438 C 66.410156 34.523438 66.765625 34.414062 67.066406 34.21875 C 67.367188 34.019531 67.617188 33.730469 67.761719 33.375 L 67.382812 33.222656 " fill-opacity="1" fill-rule="nonzero"/><path fill="#bdbcbc" d="M 66.480469 33.449219 C 66.125 33.882812 64.070312 35.835938 64.070312 35.835938 L 62.761719 34.320312 C 62.761719 34.320312 65.011719 32.519531 65.667969 31.976562 C 66.320312 31.4375 67.109375 32.6875 66.480469 33.449219 " fill-opacity="1" fill-rule="nonzero"/><path fill="#0f0a0a" d="M 66.480469 33.449219 L 66.164062 33.195312 C 66.132812 33.230469 66.066406 33.308594 65.976562 33.398438 C 65.671875 33.71875 65.121094 34.257812 64.652344 34.714844 C 64.414062 34.941406 64.199219 35.148438 64.042969 35.300781 C 63.886719 35.449219 63.789062 35.542969 63.789062 35.542969 L 64.070312 35.835938 L 64.382812 35.570312 L 63.074219 34.054688 L 62.761719 34.320312 L 63.019531 34.636719 C 63.019531 34.636719 63.582031 34.1875 64.226562 33.667969 C 64.875 33.152344 65.597656 32.566406 65.933594 32.289062 C 65.984375 32.25 65.996094 32.253906 66.003906 32.253906 C 66.011719 32.253906 66.027344 32.253906 66.058594 32.273438 C 66.101562 32.296875 66.171875 32.367188 66.21875 32.464844 C 66.269531 32.5625 66.300781 32.6875 66.300781 32.804688 C 66.300781 32.945312 66.261719 33.074219 66.164062 33.195312 L 66.480469 33.449219 L 66.800781 33.707031 C 67.027344 33.433594 67.121094 33.105469 67.121094 32.804688 C 67.121094 32.464844 67.011719 32.148438 66.828125 31.898438 C 66.738281 31.773438 66.625 31.660156 66.488281 31.578125 C 66.347656 31.492188 66.183594 31.4375 66.003906 31.4375 C 65.789062 31.4375 65.574219 31.519531 65.40625 31.664062 C 65.082031 31.929688 64.355469 32.519531 63.710938 33.035156 C 63.386719 33.292969 63.085938 33.535156 62.867188 33.714844 C 62.644531 33.890625 62.503906 34.003906 62.503906 34.003906 C 62.417969 34.074219 62.363281 34.171875 62.351562 34.28125 C 62.34375 34.394531 62.378906 34.503906 62.449219 34.585938 L 63.761719 36.101562 C 63.832031 36.1875 63.9375 36.238281 64.050781 36.242188 C 64.164062 36.25 64.273438 36.207031 64.355469 36.128906 C 64.355469 36.128906 64.871094 35.640625 65.429688 35.097656 C 65.710938 34.824219 66.003906 34.539062 66.25 34.292969 C 66.371094 34.167969 66.480469 34.054688 66.574219 33.957031 C 66.667969 33.859375 66.742188 33.777344 66.800781 33.707031 L 66.480469 33.449219 " fill-opacity="1" fill-rule="nonzero"/><path fill="#918f8f" d="M 64.476562 35.363281 C 64.265625 35.878906 63.667969 36.128906 63.148438 35.917969 C 62.625 35.703125 62.378906 35.113281 62.589844 34.597656 C 62.800781 34.082031 63.398438 33.832031 63.917969 34.046875 C 64.4375 34.253906 64.6875 34.847656 64.476562 35.363281 " fill-opacity="1" fill-rule="nonzero"/><path fill="#0f0a0a" d="M 64.476562 35.363281 L 64.097656 35.207031 C 64.046875 35.324219 63.96875 35.417969 63.867188 35.484375 C 63.769531 35.546875 63.652344 35.585938 63.53125 35.585938 C 63.457031 35.585938 63.378906 35.570312 63.304688 35.539062 C 63.183594 35.492188 63.09375 35.410156 63.027344 35.3125 C 62.960938 35.214844 62.925781 35.097656 62.925781 34.980469 C 62.925781 34.902344 62.9375 34.828125 62.96875 34.753906 C 63.019531 34.636719 63.097656 34.542969 63.199219 34.476562 C 63.296875 34.414062 63.414062 34.378906 63.535156 34.378906 C 63.609375 34.378906 63.6875 34.390625 63.761719 34.421875 C 63.882812 34.472656 63.976562 34.550781 64.039062 34.648438 C 64.105469 34.746094 64.140625 34.863281 64.140625 34.980469 C 64.140625 35.058594 64.125 35.132812 64.097656 35.207031 L 64.476562 35.363281 L 64.859375 35.515625 C 64.929688 35.339844 64.964844 35.160156 64.964844 34.980469 C 64.964844 34.699219 64.878906 34.429688 64.726562 34.199219 C 64.574219 33.96875 64.347656 33.777344 64.074219 33.667969 C 63.898438 33.597656 63.714844 33.5625 63.535156 33.5625 C 63.25 33.5625 62.976562 33.644531 62.746094 33.796875 C 62.511719 33.949219 62.320312 34.171875 62.210938 34.445312 C 62.136719 34.617188 62.101562 34.800781 62.101562 34.980469 C 62.101562 35.261719 62.1875 35.53125 62.339844 35.761719 C 62.492188 35.992188 62.71875 36.183594 62.992188 36.292969 C 63.167969 36.367188 63.351562 36.398438 63.53125 36.398438 C 63.816406 36.398438 64.089844 36.316406 64.320312 36.164062 C 64.554688 36.011719 64.746094 35.789062 64.859375 35.515625 L 64.476562 35.363281 " fill-opacity="1" fill-rule="nonzero"/></svg>