<svg xmlns="http://www.w3.org/2000/svg" xmlns:xlink="http://www.w3.org/1999/xlink" width="150" zoomAndPan="magnify" viewBox="0 0 112.5 112.499997" height="150" preserveAspectRatio="xMidYMid meet" version="1.0"><defs><clipPath id="b484d9cac1"><path d="M 53 83 L 57 83 L 57 90.890625 L 53 90.890625 Z M 53 83 " clip-rule="nonzero"/></clipPath><clipPath id="cd9911e4a9"><path d="M 9.492188 32.632812 L 99.828125 32.632812 L 99.828125 83.691406 L 9.492188 83.691406 Z M 9.492188 32.632812 " clip-rule="nonzero"/></clipPath><clipPath id="87b5189927"><path d="M 8.730469 31.902344 L 100.574219 31.902344 L 100.574219 85 L 8.730469 85 Z M 8.730469 31.902344 " clip-rule="nonzero"/></clipPath><clipPath id="7a4124dda6"><path d="M 38 88 L 74 88 L 74 90.890625 L 38 90.890625 Z M 38 88 " clip-rule="nonzero"/></clipPath></defs><g clip-path="url(#b484d9cac1)"><path fill="#363636" d="M 53.890625 89.683594 L 53.890625 84.582031 C 53.890625 83.910156 54.433594 83.363281 55.101562 83.363281 L 55.105469 83.363281 C 55.773438 83.363281 56.316406 83.910156 56.316406 84.582031 L 56.316406 89.683594 C 56.316406 90.351562 55.773438 90.898438 55.105469 90.898438 L 55.101562 90.898438 C 54.433594 90.898438 53.890625 90.355469 53.890625 89.683594 Z M 53.890625 89.683594 " fill-opacity="1" fill-rule="nonzero"/></g><path fill="#36474f" d="M 9.492188 32.632812 L 99.828125 32.632812 L 99.828125 83.691406 L 9.492188 83.691406 Z M 9.492188 32.632812 " fill-opacity="1" fill-rule="nonzero"/><g clip-path="url(#cd9911e4a9)"><path fill="#ffffff" d="M 108.941406 28.289062 C 77.8125 53.335938 40.464844 71.234375 2.957031 87.808594 C -1.773438 89.902344 -7.242188 92.007812 -12.128906 90.234375 C -17.863281 88.152344 -19.875 81.765625 -19.953125 76.21875 C -20.105469 65.574219 -15.863281 55.09375 -9.164062 46.300781 C -2.464844 37.511719 6.597656 30.320312 16.453125 24.386719 C 29.242188 16.695312 43.828125 10.917969 59.1875 9.921875 C 74.546875 8.925781 90.726562 13.152344 108.941406 28.289062 Z M 108.941406 28.289062 " fill-opacity="0.039" fill-rule="nonzero"/></g><g clip-path="url(#87b5189927)"><path stroke-linecap="butt" transform="matrix(0.279752, 0, 0, 0.280761, -19.957543, -9.676749)" fill="none" stroke-linejoin="miter" d="M 105.270727 150.696152 L 428.184714 150.696152 L 428.184714 332.554185 L 105.270727 332.554185 Z M 105.270727 150.696152 " stroke="#000000" stroke-width="5.107" stroke-opacity="1" stroke-miterlimit="10"/></g><g clip-path="url(#7a4124dda6)"><path fill="#363636" d="M 38.789062 88.890625 L 73.847656 88.890625 L 73.847656 90.898438 L 38.789062 90.898438 Z M 38.789062 88.890625 " fill-opacity="1" fill-rule="nonzero"/></g></svg>